/* XPM */
static char * close_xpm[] = {
"18 16 10 1",
" 	c None",
".	c #000000",
"+	c #838383",
"@	c #565656",
"#	c #FFFFFF",
"$	c #454545",
"%	c #4A4A4A",
"&	c #434343",
"*	c #414141",
"=	c #090909",
"..................",
".++++++++++++++++.",
".+@@@@@@@@@@@@@@+.",
".+@@@@@@@@@@@@@@+.",
".+@@##@@@@@@##@@+.",
".+@@@##@@@@##@@@+.",
".+@@@@##@@##@@@@+.",
".+$$$$$####$$$$$+.",
".+$$$$$####$$$$$+.",
".+$$$$##$$##$$$$+.",
".+$$$##$$%%##$$$+.",
".+$$##$$$$$$##$$+.",
".+$$$$$$$$$$$$$$+.",
".+$$&&&**&&&**$$+.",
".++++++++++++++++.",
".===============.."};
