/* XPM */
static char * max_xpm[] = {
"18 16 7 1",
" 	c None",
".	c #000000",
"+	c #838383",
"@	c #565656",
"#	c #FFFFFF",
"$	c #454545",
"%	c #090909",
"..................",
".++++++++++++++++.",
".+@@@@@@@@@@@@@@+.",
".+@@@@@@@@@@@@@@+.",
".+@@##########@@+.",
".+@@##########@@+.",
".+@@#@@@@@@@@#@@+.",
".+$$#$$$$$$$$#$$+.",
".+$$#$$$$$$$$#$$+.",
".+$$#$$$$$$$$#$$+.",
".+$$#$$$$$$$$#$$+.",
".+$$##########$$+.",
".+$$$$$$$$$$$$$$+.",
".+$$$$$$$$$$$$$$+.",
".++++++++++++++++.",
"%%%%%%%%%%%%%%%%%."};
