/* XPM */
static char * min_xpm[] = {
"18 16 7 1",
" 	c None",
".	c #000000",
"+	c #838383",
"@	c #565656",
"#	c #454545",
"$	c #FFFFFF",
"%	c #090909",
"..................",
".++++++++++++++++.",
".+@@@@@@@@@@@@@@+.",
".+@@@@@@@@@@@@@@+.",
".+@@@@@@@@@@@@@@+.",
".+@@@@@@@@@@@@@@+.",
".+@@@@@@@@@@@@@@+.",
".+##############+.",
".+##############+.",
".+##############+.",
".+##############+.",
".+##$$$$$$$$$$##+.",
".+##############+.",
".+##############+.",
".++++++++++++++++.",
"%%%%%%%%%%%%%%%%%."};
