/* XPM */
static char * clock_xpm[] = {
"48 48 405 2",
"  	c None",
". 	c #000000",
"+ 	c #151515",
"@ 	c #403F3F",
"# 	c #4E4E4D",
"$ 	c #515251",
"% 	c #525252",
"& 	c #515152",
"* 	c #525152",
"= 	c #515151",
"- 	c #4C4D4D",
"; 	c #3F3F3F",
"> 	c #333232",
", 	c #4F4F4F",
"' 	c #4E4E4F",
") 	c #353435",
"! 	c #202020",
"~ 	c #101010",
"{ 	c #060606",
"] 	c #010101",
"^ 	c #1F1F1F",
"/ 	c #333333",
"( 	c #4B4B4B",
"_ 	c #4C4C4C",
": 	c #2F2F2F",
"< 	c #212121",
"[ 	c #454445",
"} 	c #838383",
"| 	c #CDCDCD",
"1 	c #EDEDED",
"2 	c #F6F7F6",
"3 	c #F7F7F8",
"4 	c #F7F7F7",
"5 	c #F4F4F4",
"6 	c #E9E9E9",
"7 	c #C9C8C8",
"8 	c #808080",
"9 	c #1E1E1E",
"0 	c #404040",
"a 	c #484948",
"b 	c #1D1D1D",
"c 	c #252525",
"d 	c #161616",
"e 	c #BFBFBE",
"f 	c #F8F9F9",
"g 	c #FBFBFB",
"h 	c #FAFAFA",
"i 	c #FAFAF9",
"j 	c #F8F8F8",
"k 	c #F7F7F6",
"l 	c #F6F6F6",
"m 	c #F5F5F5",
"n 	c #F3F3F3",
"o 	c #F0F0F0",
"p 	c #B7B7B7",
"q 	c #222222",
"r 	c #4A4B4A",
"s 	c #373737",
"t 	c #494848",
"u 	c #444444",
"v 	c #9A9A9A",
"w 	c #FAF9FA",
"x 	c #FCFBFB",
"y 	c #F9F9F9",
"z 	c #F8F9F8",
"A 	c #F7F8F8",
"B 	c #F6F7F7",
"C 	c #F3F3F4",
"D 	c #F2F2F2",
"E 	c #F1F2F2",
"F 	c #F1F1F0",
"G 	c #929292",
"H 	c #0F0F0F",
"I 	c #3D3D3D",
"J 	c #3C3C3C",
"K 	c #484949",
"L 	c #CECFCF",
"M 	c #FCFCFC",
"N 	c #FBFCFC",
"O 	c #FBFBFA",
"P 	c #F9F9F8",
"Q 	c #F5F5F6",
"R 	c #F4F3F4",
"S 	c #DCDCDD",
"T 	c #EDEDEE",
"U 	c #F1F0F0",
"V 	c #F0F0EF",
"W 	c #EEEEEF",
"X 	c #C2C2C2",
"Y 	c #050505",
"Z 	c #383738",
"` 	c #3A3A3A",
" .	c #3F403F",
"..	c #454544",
"+.	c #DCDCDC",
"@.	c #FAF9F9",
"#.	c #F9F8F9",
"$.	c #F5F4F5",
"%.	c #F2F2F3",
"&.	c #A5A5A5",
"*.	c #ECECEC",
"=.	c #EFEFEE",
"-.	c #EEEDED",
";.	c #ECECED",
">.	c #3B3B3B",
",.	c #303031",
"'.	c #CECECE",
").	c #FAFBFA",
"!.	c #F4F3F3",
"~.	c #F2F3F3",
"{.	c #F2F1F2",
"].	c #D4D5D5",
"^.	c #8A8A8A",
"/.	c #E5E6E5",
"(.	c #EBEBEB",
"_.	c #EAEAEA",
":.	c #BFBFBF",
"<.	c #0E0E0E",
"[.	c #454545",
"}.	c #171717",
"|.	c #FCFBFC",
"1.	c #F6F6F5",
"2.	c #F4F5F5",
"3.	c #F4F5F4",
"4.	c #F3F2F3",
"5.	c #F2F2F1",
"6.	c #686868",
"7.	c #BDBDBD",
"8.	c #E0E1E0",
"9.	c #E7E7E7",
"0.	c #ECEBEB",
"a.	c #EBEBEC",
"b.	c #EAEAEB",
"c.	c #E9E9EA",
"d.	c #E8E9E9",
"e.	c #E8E8E8",
"f.	c #8E8D8D",
"g.	c #3C3D3C",
"h.	c #323232",
"i.	c #F7F8F7",
"j.	c #F2F3F2",
"k.	c #F1F1F1",
"l.	c #F1F0F1",
"m.	c #DBDADB",
"n.	c #232323",
"o.	c #DADADA",
"p.	c #DEDEDE",
"q.	c #E8E8E7",
"r.	c #EBEAEA",
"s.	c #EAEAE9",
"t.	c #E4E4E4",
"u.	c #141414",
"v.	c #383838",
"w.	c #504F4F",
"x.	c #BEBEBE",
"y.	c #F8F7F7",
"z.	c #F7F6F6",
"A.	c #F0EFF0",
"B.	c #706F6F",
"C.	c #545455",
"D.	c #D2D2D2",
"E.	c #E8E9E8",
"F.	c #EBEBEA",
"G.	c #EAE9EA",
"H.	c #E7E8E7",
"I.	c #E6E6E6",
"J.	c #E5E5E5",
"K.	c #AEAEAE",
"L.	c #1A1A1A",
"M.	c #39393A",
"N.	c #4F4E4F",
"O.	c #F8F7F8",
"P.	c #F9FAFA",
"Q.	c #F9F8F8",
"R.	c #F3F2F2",
"S.	c #F0EFEF",
"T.	c #E3E3E3",
"U.	c #0D0D0D",
"V.	c #D0CFCF",
"W.	c #DFDFDF",
"X.	c #E8E8E9",
"Y.	c #E9EAE9",
"Z.	c #E7E8E8",
"`.	c #E4E5E4",
" +	c #E1E2E1",
".+	c #0D0C0C",
"++	c #343435",
"@+	c #F9F9FA",
"#+	c #F8F8F9",
"$+	c #F2F1F1",
"%+	c #F0F1F1",
"&+	c #EFEFEF",
"*+	c #EEEEEE",
"=+	c #797979",
"-+	c #020202",
";+	c #B8B9B9",
">+	c #D1D1D1",
",+	c #E1E1E1",
"'+	c #E8E7E7",
")+	c #E6E7E6",
"!+	c #E6E5E5",
"~+	c #E4E5E5",
"{+	c #E2E2E2",
"]+	c #767676",
"^+	c #29292A",
"/+	c #282827",
"(+	c #4D4E4D",
"_+	c #CCCCCC",
":+	c #E2E1E1",
"<+	c #121212",
"[+	c #2C2C2C",
"}+	c #C2C3C3",
"|+	c #D3D4D4",
"1+	c #E7E6E7",
"2+	c #B9B8B9",
"3+	c #191919",
"4+	c #333332",
"5+	c #525151",
"6+	c #F6F5F5",
"7+	c #F3F4F4",
"8+	c #EFF0EF",
"9+	c #EEEFEE",
"0+	c #EEEEED",
"a+	c #818181",
"b+	c #5E5E5E",
"c+	c #C3C2C3",
"d+	c #D8D9D9",
"e+	c #E7E7E6",
"f+	c #E5E4E4",
"g+	c #E4E4E3",
"h+	c #E0E0E0",
"i+	c #D4D4D4",
"j+	c #F5F5F4",
"k+	c #F5F6F5",
"l+	c #F4F4F3",
"m+	c #F0F0F1",
"n+	c #EFEEEF",
"o+	c #EEEDEE",
"p+	c #ECEDED",
"q+	c #8D8E8E",
"r+	c #C7C7C7",
"s+	c #DDDCDC",
"t+	c #E4E4E5",
"u+	c #E3E3E4",
"v+	c #E2E1E2",
"w+	c #040404",
"x+	c #3B3B3C",
"y+	c #EFEFF0",
"z+	c #EFEEEE",
"A+	c #EDEEED",
"B+	c #EDECED",
"C+	c #0B0B0B",
"D+	c #B3B4B3",
"E+	c #CCCCCB",
"F+	c #E3E4E3",
"G+	c #E2E3E2",
"H+	c #E2E2E1",
"I+	c #3C3D3D",
"J+	c #F5F4F4",
"K+	c #EDECEC",
"L+	c #EAEBEA",
"M+	c #989898",
"N+	c #0C0C0C",
"O+	c #B4B4B4",
"P+	c #D0D0D0",
"Q+	c #E1E1E0",
"R+	c #E5E4E5",
"S+	c #E1E2E2",
"T+	c #E1E0E0",
"U+	c #DFDFDE",
"V+	c #DDDEDE",
"W+	c #DDDDDD",
"X+	c #DCDBDB",
"Y+	c #505050",
"Z+	c #EBECEC",
"`+	c #494949",
" @	c #2D2E2D",
".@	c #DCDBDC",
"+@	c #E2E3E3",
"@@	c #E0DFDF",
"#@	c #DFDEDE",
"$@	c #D9D9D9",
"%@	c #393A39",
"&@	c #10100F",
"*@	c #F1F1F2",
"=@	c #EFF0F0",
"-@	c #EAEBEB",
";@	c #9D9D9C",
">@	c #A3A4A3",
",@	c #DAD9DA",
"'@	c #DEDFDE",
")@	c #DDDDDE",
"!@	c #DBDBDB",
"~@	c #CFCFCF",
"{@	c #343334",
"]@	c #C6C6C6",
"^@	c #868686",
"/@	c #262626",
"(@	c #464646",
"_@	c #242424",
":@	c #030303",
"<@	c #7B7B7B",
"[@	c #D6D6D6",
"}@	c #DEDEDD",
"|@	c #DCDDDC",
"1@	c #B3B3B3",
"2@	c #2B2B2B",
"3@	c #313231",
"4@	c #7E7E7E",
"5@	c #EBECEB",
"6@	c #BEBFBF",
"7@	c #BABABA",
"8@	c #757575",
"9@	c #5A5A5A",
"0@	c #727272",
"a@	c #EBEAEB",
"b@	c #E9EAEA",
"c@	c #E6E5E6",
"d@	c #D7D6D7",
"e@	c #D3D3D3",
"f@	c #CDCECD",
"g@	c #CAC9CA",
"h@	c #C6C7C7",
"i@	c #C9CACA",
"j@	c #DBDCDB",
"k@	c #DADADB",
"l@	c #DADAD9",
"m@	c #080808",
"n@	c #B5B5B5",
"o@	c #E9E8E9",
"p@	c #E5E6E6",
"q@	c #E3E2E2",
"r@	c #DEDFDF",
"s@	c #DAD9D9",
"t@	c #D7D7D7",
"u@	c #D5D5D6",
"v@	c #D7D8D8",
"w@	c #A4A4A4",
"x@	c #2B2C2B",
"y@	c #2D2D2D",
"z@	c #3D3E3E",
"A@	c #E9E8E8",
"B@	c #E5E5E6",
"C@	c #E4E3E3",
"D@	c #DDDDDC",
"E@	c #D9D9DA",
"F@	c #D8D8D9",
"G@	c #D7D8D7",
"H@	c #D5D5D5",
"I@	c #131313",
"J@	c #2F302F",
"K@	c #909090",
"L@	c #E6E7E7",
"M@	c #DEDEDF",
"N@	c #DDDEDD",
"O@	c #DCDCDB",
"P@	c #DBDBDA",
"Q@	c #D8D7D8",
"R@	c #848484",
"S@	c #2B2A2B",
"T@	c #1B1B1B",
"U@	c #474848",
"V@	c #DEDDDD",
"W@	c #DBDCDC",
"X@	c #D9DAD9",
"Y@	c #D9D9D8",
"Z@	c #D8D8D8",
"`@	c #B1B1B1",
" #	c #343434",
".#	c #CACACA",
"+#	c #E6E6E7",
"@#	c #E3E4E4",
"##	c #E2E2E3",
"$#	c #E0E0DF",
"%#	c #D9DADA",
"&#	c #BCBCBC",
"*#	c #2E2E2E",
"=#	c #3A3A39",
"-#	c #353535",
";#	c #BCBDBC",
">#	c #DFDFE0",
",#	c #DADBDB",
"'#	c #373837",
")#	c #383939",
"!#	c #8C8B8B",
"~#	c #D8D7D7",
"{#	c #434243",
"]#	c #ABABAB",
"^#	c #DCDDDD",
"/#	c #DBDADA",
"(#	c #1B1A1A",
"_#	c #363636",
":#	c #B6B6B6",
"<#	c #D2D1D1",
"[#	c #B1B2B2",
"}#	c #292A2A",
"|#	c #282728",
"1#	c #181818",
"2#	c #0C0C0B",
"3#	c #363536",
"4#	c #141413",
"5#	c #313030",
"6#	c #3A3B3A",
"7#	c #323231",
"8#	c #2A292A",
"                                                                                                ",
"                                                                                                ",
"                                                                                                ",
"                                                                                                ",
"                                                                                                ",
"                                        . . . . . . . .                                         ",
"                                  . + @ # $ % & % * = - ; + .                                   ",
"                              . > , ' ) ! ~ { ] ] { ~ ^ / ( _ : .                               ",
"                          . < , [ ! ] } | 1 2 3 4 5 6 7 8 ] 9 0 a b .                           ",
"                        . @ = c d e f g h i j j k l m 5 n o p + q r s .                         ",
"                      . t u ~ v w x g h y z A B l m 5 C D E F 1 G H I J .                       ",
"                    . K ; { L M N O h P j 4 k Q m R n S T U V W T X Y Z ` .                     ",
"                  .  ...{ +.M g g @.#.A 4 l m $.R %.D &.*.1 =.-.;.*.| Y >.,..                   ",
"                  < * ~ '.M g ).y z j 2 l m 5 !.~.{.].^./.6 *.*.*.(._.:.<.[.}.                  ",
"                . , c v |.g h y y j 2 1.2.3.n 4.5.F 6.7.8.9.0.a.b.c.d.e.f.^ g..                 ",
"                h.[.d #.).h y j i.2 1.m 5 n j.k.l.m.n.o.p.q.(.r.s.6 e.9.t.u.v.q                 ",
"              . w.! x.h h y j y.z.m m 5 ~.D k.o A.B.C.D.p.E.F.G.E.H.9.I.J.K.L.M..               ",
"              + N.] O.P.Q.j 4 l m $.C R.{.k.o S.T.U.^.V.W.X.Y.X.Z.9.I.J.`. +] ; .+              ",
"              ; ++} @+#+i.2 l m 3.n %.$+%+A.&+*+=+-+;+>+,+e.X.'+)+!+~+t.T.{+]+^+/+              ",
"            . (+! _+z i.k l m 5 n j.{.k.S.&+*+:+<+[+}+|+t.e.'+1+!+t.t.T.{+,+2+3+4+.             ",
"            . 5+~ (.3 k 6+2.7+~.D k.F 8+9+0+1 a+. b+c+d+J.9.e+J.f+g+T.{+,+h+i+U.v..             ",
"            . $ { j+l k+$.l+j.D k.m+&+n+o+p+T.}.. q+r+s+J.I.J.t+u+{+v+,+h+W.S w+x+.             ",
"            . $ ] m m 5 7+~.D %+U y+z+A+B+(.^.. C+D+E+p.~+J.t.F+G+H+,+h+W.p.+.. I+.             ",
"            . = ] 5 J+C %.5.%+o &+*+0+K+L+M+N+. 3+O+P+Q+R+t.T.{+S+T+h+U+V+W+X+. J .             ",
"            . Y+{ 5.n D k.m+o &+*+1 *.Z+Y.`+. . .  @X .@H++@{+,+Q+@@#@p.W++.$@w+%@.             ",
"            . , &@I.D *@k.=@&+0+B+*.(.-@E.;@. . . . U.>@,@W.,+h+@@'@)@s++.!@~@N+{@.             ",
"            . ( 9 ]@k.o A.*+1 1 *.(._.6 9.^@/@(@_@w+. :@<@[@W+W.p.}@|@.@!@o.1@}.2@.             ",
"              g.3@4@o V 9+*+1 5@(._.6 d.)+8 e 6@7@p M+8@9@]+i++.W++..@!@,@$@0@c 9               ",
"              u.`+] 1 *+1 K+5@a@b@6 e.9.c@p.d@e@e@D.f@g@h@i@>+$@s+j@k@l@$@[@. s m@              ",
"              . `+b n@1 *.0.F._.o@e.9.)+p@q@r@W.h+W.W+s@t@u@d@o.!@k@l@$@v@w@d x@.               ",
"                y@z@+ _.0._.b@A@'+9.I.B@t.C@T.S+,+h+W.p.D@X+!@!@o.E@F@G@H@I@J@u.                ",
"                . (@< K@_.Y.d.q.L@I.J.t+T.G+v+Q+h+W.M@N@|@O@P@o.s@F@Q@t@R@3+S@.                 ",
"                  T@U@<.:.e.'+1+I.`.t.T.G+,+Q+@@#@p.V@+.W@o.X@Y@Z@G@t@`@C+v.N+                  ",
"                  .  #>.Y .#+#/.t+@#T.##:+8.$#W.p.W+S !@!@%#$@v@t@t@&#w+*#T@.                   ",
"                    . =#-#Y ;#f+C@+@{+,+h+>##@)@D@+.!@,#X@Z@Z@t@t@`@w+2@< .                     ",
"                      . '#)#U.!#T+{+,+T+W.p.)@+.W@m.o.,@Z@~#t@H@R@C+*#< .                       ",
"                        . *#{#9 u.]#p.W.p.N@^#+./#%#$@Z@G@H@w@I@3+s (#.                         ",
"                          . + ` _#3+] 8@:#<#E@E@$@t@| [#0@. d *#}#N+.                           ",
"                            . . ! s g.|#1#N+w+. . w+2#d _@3#S@4#. .                             ",
"                                  . C+c 5#s M.6#6#Z 7#8#b m@. .                                 ",
"                                      . . . . . . . . . . .                                     ",
"                                                                                                ",
"                                                                                                ",
"                                                                                                ",
"                                                                                                ",
"                                                                                                ",
"                                                                                                ",
"                                                                                                "};
