/* XPM */
static char * firefox_mini_xpm[] = {
"16 16 147 2",
"  	c None",
". 	c #508EC4",
"+ 	c #4A8BC2",
"@ 	c #216AAE",
"# 	c #1465AC",
"$ 	c #56A2CE",
"% 	c #7EBEDC",
"& 	c #9CD3ED",
"* 	c #9DD4ED",
"= 	c #81B9D1",
"- 	c #6B8586",
"; 	c #72663F",
"> 	c #EA7721",
", 	c #3F5075",
"' 	c #4C8AAD",
") 	c #A0A48B",
"! 	c #8CA093",
"~ 	c #84C6E6",
"{ 	c #77BEE0",
"] 	c #66B1D6",
"^ 	c #748883",
"/ 	c #CDA72D",
"( 	c #F9CD2F",
"_ 	c #D76317",
": 	c #E4872E",
"< 	c #E4862F",
"[ 	c #DB7514",
"} 	c #6088A4",
"| 	c #6BB4DF",
"1 	c #64AFDB",
"2 	c #6EB5E0",
"3 	c #5997C4",
"4 	c #264068",
"5 	c #B5A125",
"6 	c #F4C10D",
"7 	c #DA6E13",
"8 	c #DF7413",
"9 	c #DF7417",
"0 	c #DA6E12",
"a 	c #C25322",
"b 	c #9D765B",
"c 	c #519ACD",
"d 	c #4C94C9",
"e 	c #3376AC",
"f 	c #4986C0",
"g 	c #5E7584",
"h 	c #EFA20D",
"i 	c #F8E63D",
"j 	c #D76E1D",
"k 	c #DE7514",
"l 	c #DF7518",
"m 	c #E48326",
"n 	c #AA7C53",
"o 	c #3C678E",
"p 	c #4181B9",
"q 	c #0D497E",
"r 	c #083B6F",
"s 	c #3A6DAA",
"t 	c #657274",
"u 	c #FAD341",
"v 	c #F3C703",
"w 	c #C85C16",
"x 	c #DF7715",
"y 	c #C55512",
"z 	c #984E28",
"A 	c #646C71",
"B 	c #4278B6",
"C 	c #437AB7",
"D 	c #1F4E85",
"E 	c #05295A",
"F 	c #0E2B5E",
"G 	c #796F53",
"H 	c #FCE131",
"I 	c #F8B51B",
"J 	c #BE4913",
"K 	c #DF7717",
"L 	c #D76914",
"M 	c #AC2800",
"N 	c #9E502C",
"O 	c #3F5E98",
"P 	c #4667A1",
"Q 	c #697B97",
"R 	c #2C4D85",
"S 	c #021646",
"T 	c #09184B",
"U 	c #E3AA34",
"V 	c #FAD201",
"W 	c #FAC937",
"X 	c #B02706",
"Y 	c #DE7217",
"Z 	c #D54D03",
"` 	c #DC5D08",
" .	c #D06D1F",
"..	c #D67320",
"+.	c #B66420",
"@.	c #3F393B",
"#.	c #000633",
"$.	c #2E2B4E",
"%.	c #F6CD2E",
"&.	c #F9C01E",
"*.	c #F8DE67",
"=.	c #CC530D",
"-.	c #E07A16",
";.	c #DF7111",
">.	c #E17011",
",.	c #A24A19",
"'.	c #401A20",
").	c #13143F",
"!.	c #01042F",
"~.	c #372132",
"{.	c #C77D19",
"].	c #F6C517",
"^.	c #FDF149",
"/.	c #AA2106",
"(.	c #D45A11",
"_.	c #E07917",
":.	c #DE730F",
"<.	c #DF7612",
"[.	c #BE6F2A",
"}.	c #8B5544",
"|.	c #985630",
"1.	c #DB791E",
"2.	c #E37C08",
"3.	c #F7DB3A",
"4.	c #F7DD03",
"5.	c #B51D00",
"6.	c #C73816",
"7.	c #CB3F10",
"8.	c #D65F14",
"9.	c #DA6B17",
"0.	c #DE741C",
"a.	c #E0781D",
"b.	c #DF7A0B",
"c.	c #EEBE00",
"d.	c #F5CE04",
"e.	c #A40600",
"f.	c #B30A03",
"g.	c #B91309",
"h.	c #BD200C",
"i.	c #C4360B",
"j.	c #CB5205",
"k.	c #D87C03",
"l.	c #E49706",
"m.	c #B11306",
"n.	c #BB1809",
"o.	c #BE2808",
"p.	c #C84409",
"                                ",
"              . + @             ",
"        # $ % & * = - ;         ",
"    > , ' ) ! ~ { ] ^ / (       ",
"    _ : < [ } | 1 2 3 4 5 6     ",
"    7 8 9 0 a b c d e f g h i   ",
"  j k 9 l m n o p q r s t u v   ",
"  w x 9 y z A B C D E F G H I   ",
"  J K L M N O P Q R S T U V W   ",
"  X k Y Z `  ...+.@.#.$.%.&.*.  ",
"    =.-.;.>.,.'.).!.~.{.].^.    ",
"    /.(._.:.<.[.}.|.1.2.3.4.    ",
"      5.6.7.8.9.0.a.b.c.d.      ",
"        e.f.g.h.i.j.k.l.        ",
"            m.n.o.p.            ",
"                                "};
