/* XPM */
static char * gaim_mini_xpm[] = {
"16 16 148 2",
"  	c None",
". 	c #000000",
"+ 	c #332E0B",
"@ 	c #C2AE2A",
"# 	c #EED029",
"$ 	c #BF9D10",
"% 	c #312401",
"& 	c #0E0D04",
"* 	c #E2D045",
"= 	c #F7EB8A",
"- 	c #F6E775",
"; 	c #F1D028",
"> 	c #D49405",
", 	c #0B0500",
"' 	c #483F0C",
") 	c #F5E563",
"! 	c #F8F0AD",
"~ 	c #F6E981",
"{ 	c #EFCE26",
"] 	c #E19604",
"^ 	c #3F2000",
"/ 	c #383007",
"( 	c #F1D637",
"_ 	c #F3DF5B",
": 	c #F0D539",
"< 	c #E6AF0F",
"[ 	c #D47502",
"} 	c #2D1400",
"| 	c #010101",
"1 	c #AE8A11",
"2 	c #E3B114",
"3 	c #DD9E0B",
"4 	c #CF7603",
"5 	c #8B3D00",
"6 	c #484430",
"7 	c #80601E",
"8 	c #9E6613",
"9 	c #8B5A10",
"0 	c #634F11",
"a 	c #3B2A05",
"b 	c #1C1B1B",
"c 	c #F4ECB4",
"d 	c #EDD958",
"e 	c #E8C72C",
"f 	c #E5BB1D",
"g 	c #DFAB16",
"h 	c #C27606",
"i 	c #241100",
"j 	c #1C1B1A",
"k 	c #F5EB9B",
"l 	c #F1D83B",
"m 	c #ECC314",
"n 	c #E9B409",
"o 	c #DF9804",
"p 	c #8E4F01",
"q 	c #743600",
"r 	c #471F00",
"s 	c #343434",
"t 	c #2A2A2A",
"u 	c #4F4F4F",
"v 	c #2B2A29",
"w 	c #F6E98C",
"x 	c #F2D72F",
"y 	c #EFC40F",
"z 	c #EAB207",
"A 	c #DD8F03",
"B 	c #56330D",
"C 	c #2F2F2F",
"D 	c #262220",
"E 	c #2B2522",
"F 	c #424242",
"G 	c #3C3C3C",
"H 	c #505050",
"I 	c #181818",
"J 	c #545454",
"K 	c #090909",
"L 	c #F5E472",
"M 	c #F0CE1E",
"N 	c #EBB509",
"O 	c #E59F03",
"P 	c #D77C02",
"Q 	c #5A2F0B",
"R 	c #171717",
"S 	c #5F5F5F",
"T 	c #4E4E4E",
"U 	c #323232",
"V 	c #636363",
"W 	c #383838",
"X 	c #141414",
"Y 	c #D4BF3F",
"Z 	c #E9B30B",
"` 	c #DE9103",
" .	c #D67A01",
"..	c #CD6601",
"+.	c #6F2D00",
"@.	c #1D1D1D",
"#.	c #212121",
"$.	c #121212",
"%.	c #444444",
"&.	c #5E5E5E",
"*.	c #A18516",
"=.	c #DB8B04",
"-.	c #9E4E03",
";.	c #482505",
">.	c #6E2F00",
",.	c #9A3800",
"'.	c #353535",
").	c #1C1C1C",
"!.	c #484848",
"~.	c #808080",
"{.	c #5D5D5D",
"].	c #9C9C9C",
"^.	c #565656",
"/.	c #7D6527",
"(.	c #A25C03",
"_.	c #201E1D",
":.	c #1A1A1A",
"<.	c #272727",
"[.	c #431E0C",
"}.	c #28140A",
"|.	c #414141",
"1.	c #222222",
"2.	c #5A5A5A",
"3.	c #494949",
"4.	c #7B7B7B",
"5.	c #A0A0A0",
"6.	c #C2C2C2",
"7.	c #575346",
"8.	c #746B57",
"9.	c #242424",
"0.	c #313131",
"a.	c #A8A8A8",
"b.	c #646464",
"c.	c #86817E",
"d.	c #595959",
"e.	c #9E9E9E",
"f.	c #888888",
"g.	c #999999",
"h.	c #656565",
"i.	c #949494",
"j.	c #616161",
"k.	c #585858",
"l.	c #6A6A6A",
"m.	c #6E6E6E",
"n.	c #838383",
"o.	c #151515",
"p.	c #757575",
"q.	c #4B4B4B",
". . . . . . . . . . . . . . . . ",
". . . . . + @ # $ % . . . . . . ",
". . . . & * = - ; > , . . . . . ",
". . . . ' ) ! ~ { ] ^ . . . . . ",
". . . . / ( _ : < [ } . . . . . ",
". . . . | 1 2 3 4 5 . . . . . . ",
". . . . . 6 7 8 9 0 a . . . . . ",
". . . . b c d e f g h i . . . . ",
". . . . j k l m n o p q r . . . ",
"s . t u v w x y z A B C D E F G ",
"H I J . K L M N O P Q R S T . U ",
"V W X . . Y Z `  ...+.@.. #.. . ",
"$.W F %.&.*.=.-.;.>.,.I '.).I !.",
"~.{.].^.. /.(._.:.<.[.}.|.1.2.3.",
"4.5.F 6.T 7.8.9.0.a.b.c.d.e.f.g.",
"h.4.i.j.k.5.l.m.n.o.%.0.p.|.q.%."};
