/* XPM */
static char * gqview_xpm[] = {
"48 48 429 2",
"  	c None",
". 	c #FFFFFF",
"+ 	c #929292",
"@ 	c #828282",
"# 	c #C8C8C8",
"$ 	c #A3A3A3",
"% 	c #C4C4C4",
"& 	c #E5E5E5",
"* 	c #FEFEFE",
"= 	c #FCFCFC",
"- 	c #95766D",
"; 	c #B23401",
"> 	c #8C3D05",
", 	c #6C420A",
"' 	c #594916",
") 	c #63643B",
"! 	c #747A61",
"~ 	c #898C86",
"{ 	c #ABABAB",
"] 	c #CBCBCB",
"^ 	c #EEEEEE",
"/ 	c #ACACAC",
"( 	c #8D4F3F",
"_ 	c #C53900",
": 	c #B34B00",
"< 	c #A25C00",
"[ 	c #906E00",
"} 	c #7E8000",
"| 	c #6C9200",
"1 	c #5AA200",
"2 	c #42A101",
"3 	c #2F9906",
"4 	c #208B0A",
"5 	c #228419",
"6 	c #882E17",
"7 	c #5BA300",
"8 	c #49B500",
"9 	c #37C700",
"0 	c #25D900",
"a 	c #14EA00",
"b 	c #024000",
"c 	c #EAEAEA",
"d 	c #972407",
"e 	c #036200",
"f 	c #D0D0D0",
"g 	c #F4F4F4",
"h 	c #D7D7D7",
"i 	c #B9B9B9",
"j 	c #9C9C9C",
"k 	c #CCCCCC",
"l 	c #B12403",
"m 	c #036B00",
"n 	c #C6C6C6",
"o 	c #E8E8E8",
"p 	c #CACACA",
"q 	c #ADADAD",
"r 	c #909090",
"s 	c #B1B0B0",
"t 	c #C82500",
"u 	c #036100",
"v 	c #80867A",
"w 	c #B8B9B8",
"x 	c #D9D9D9",
"y 	c #F7F7F7",
"z 	c #BDBDBD",
"A 	c #818181",
"B 	c #9F9493",
"C 	c #D72700",
"D 	c #024300",
"E 	c #4F9800",
"F 	c #49AC00",
"G 	c #38A103",
"H 	c #2C9407",
"I 	c #3A9B23",
"J 	c #52A746",
"K 	c #6DAE68",
"L 	c #8DB08D",
"M 	c #AEB0B6",
"N 	c #D1D1D1",
"O 	c #F0F0F0",
"P 	c #999999",
"Q 	c #9B9B9B",
"R 	c #9C7974",
"S 	c #14E900",
"T 	c #57A700",
"U 	c #4CB200",
"V 	c #40BE00",
"W 	c #34CA00",
"X 	c #29D500",
"Y 	c #1DE100",
"Z 	c #10D60E",
"` 	c #025D8C",
" .	c #002FCD",
"..	c #0125C0",
"+.	c #051EAD",
"@.	c #1828A8",
"#.	c #3C45B0",
"$.	c #5F63B6",
"%.	c #8282B3",
"&.	c #E6E6E6",
"*.	c #737373",
"=.	c #B1B1B1",
"-.	c #995E56",
";.	c #11B400",
">.	c #191D14",
",.	c #284D01",
"'.	c #3C8E00",
").	c #16B522",
"!.	c #0249A7",
"~.	c #0037C7",
"{.	c #0030CE",
"].	c #0028D6",
"^.	c #0021DD",
"/.	c #0019E5",
"(.	c #0012EC",
"_.	c #000AF4",
":.	c #0609BC",
"<.	c #E3E3E3",
"[.	c #4D4D4D",
"}.	c #C0C0C0",
"|.	c #974136",
"1.	c #186A0E",
"2.	c #6A6A6A",
"3.	c #6D6D6D",
"4.	c #5B5B5B",
"5.	c #373737",
"6.	c #1D2F15",
"7.	c #196000",
"8.	c #168128",
"9.	c #0147B0",
"0.	c #003FBF",
"a.	c #1E20A3",
"b.	c #3E3E3E",
"c.	c #BEBEBE",
"d.	c #952517",
"e.	c #23C300",
"f.	c #747B73",
"g.	c #939393",
"h.	c #8A8A8A",
"i.	c #808080",
"j.	c #777777",
"k.	c #6E6E6E",
"l.	c #5A5A5A",
"m.	c #363636",
"n.	c #131E30",
"o.	c #001F5E",
"p.	c #002EA5",
"q.	c #5052A5",
"r.	c #4A4A4A",
"s.	c #A8A8A8",
"t.	c #A41707",
"u.	c #458535",
"v.	c #B8B8B8",
"w.	c #AFAFAF",
"x.	c #A6A6A6",
"y.	c #9D9D9D",
"z.	c #787878",
"A.	c #6F6F6F",
"B.	c #595959",
"C.	c #343434",
"D.	c #121A35",
"E.	c #00146D",
"F.	c #001BBC",
"G.	c #8081A8",
"H.	c #626262",
"I.	c #8F8F8F",
"J.	c #D4D4D4",
"K.	c #BF1603",
"L.	c #288A00",
"M.	c #696969",
"N.	c #B4B4B4",
"O.	c #C1C1C1",
"P.	c #B0B0B0",
"Q.	c #A7A7A7",
"R.	c #949494",
"S.	c #8B8B8B",
"T.	c #585858",
"U.	c #333333",
"V.	c #10153B",
"W.	c #00097D",
"X.	c #0009DC",
"Y.	c #AFAFB3",
"Z.	c #A0A0A0",
"`.	c #797979",
" +	c #767676",
".+	c #B5B4B4",
"++	c #DD1500",
"@+	c #3E9700",
"#+	c #040C00",
"$+	c #484848",
"%+	c #6B6B6B",
"&+	c #848484",
"*+	c #B3B3B3",
"=+	c #BFBFBF",
"-+	c #BABABA",
";+	c #9E9E9E",
">+	c #959595",
",+	c #545454",
"'+	c #2B2B2B",
")+	c #040767",
"!+	c #DBDBDB",
"~+	c #7B7B7B",
"{+	c #919191",
"]+	c #A88D8C",
"^+	c #E91500",
"/+	c #4C8700",
"(+	c #1A1809",
"_+	c #1D1D1D",
":+	c #515151",
"<+	c #B2B2B2",
"[+	c #9F9F9F",
"}+	c #757575",
"|+	c #464646",
"1+	c #303030",
"2+	c #161960",
"3+	c #FDFDFD",
"4+	c #A76461",
"5+	c #4A6200",
"6+	c #534302",
"7+	c #3D7536",
"8+	c #016660",
"9+	c #00383C",
"0+	c #0A181A",
"a+	c #1C1C1C",
"b+	c #505050",
"c+	c #686868",
"d+	c #C2C2C2",
"e+	c #474747",
"f+	c #1C1A20",
"g+	c #654C7C",
"h+	c #3D3D3D",
"i+	c #B7B7B7",
"j+	c #A6332F",
"k+	c #795C00",
"l+	c #2A2800",
"m+	c #344F1F",
"n+	c #0F855C",
"o+	c #008A74",
"p+	c #00827C",
"q+	c #007A84",
"r+	c #00738A",
"s+	c #005471",
"t+	c #012D44",
"u+	c #0A131A",
"v+	c #353535",
"w+	c #4E4E4E",
"x+	c #666666",
"y+	c #7F7F7F",
"z+	c #989898",
"A+	c #6E0206",
"B+	c #AE7F80",
"C+	c #4B4B4B",
"D+	c #A5A5A5",
"E+	c #7D7D7D",
"F+	c #850906",
"G+	c #CA1300",
"H+	c #BC2200",
"I+	c #972B00",
"J+	c #652900",
"K+	c #2A1700",
"L+	c #023119",
"M+	c #08814A",
"N+	c #009866",
"O+	c #00916D",
"P+	c #00738B",
"Q+	c #006C92",
"R+	c #00649A",
"S+	c #005CA0",
"T+	c #004180",
"U+	c #01214A",
"V+	c #09101A",
"W+	c #1B1B1B",
"X+	c #2D1416",
"Y+	c #D5000B",
"Z+	c #BEBABB",
"`+	c #00431A",
" @	c #008B3F",
".@	c #00A856",
"+@	c #00A05E",
"@@	c #005CA2",
"#@	c #0055A9",
"$@	c #004EB0",
"%@	c #0045B5",
"&@	c #002F8D",
"*@	c #011750",
"=@	c #090D19",
"-@	c #242424",
";@	c #231A1B",
">@	c #B10012",
",@	c #B20A15",
"'@	c #F2F2F2",
")@	c #606060",
"!@	c #AAAAAA",
"~@	c #253A0C",
"{@	c #0A6719",
"]@	c #00952B",
"^@	c #00B93F",
"/@	c #00B648",
"(@	c #00AF4F",
"_@	c #0046B8",
":@	c #28229D",
"<@	c #8E0127",
"[@	c #BB001F",
"}@	c #E60018",
"|@	c #AB464D",
"1@	c #AEAEAE",
"2@	c #7AA983",
"3@	c #00D42A",
"4@	c #00CD31",
"5@	c #00C539",
"6@	c #00BE40",
"7@	c #003EBE",
"8@	c #481D82",
"9@	c #BA013E",
"0@	c #CC0032",
"a@	c #D90025",
"b@	c #E40018",
"c@	c #B19699",
"d@	c #ECECEC",
"e@	c #444444",
"f@	c #11A92A",
"g@	c #0C3EA8",
"h@	c #70116A",
"i@	c #B4004A",
"j@	c #C0003E",
"k@	c #B6071C",
"l@	c #E9E9E9",
"m@	c #7C7C7C",
"n@	c #888888",
"o@	c #55975E",
"p@	c #00DB22",
"q@	c #0054A7",
"r@	c #322D8B",
"s@	c #8D0463",
"t@	c #A70057",
"u@	c #AD5863",
"v@	c #5F5F5F",
"w@	c #454545",
"x@	c #7C9A7F",
"y@	c #01D11A",
"z@	c #00DC22",
"A@	c #174490",
"B@	c #61107B",
"C@	c #8E0070",
"D@	c #9B0063",
"E@	c #C30223",
"F@	c #D1CBCC",
"G@	c #E7E7E7",
"H@	c #FBFBFB",
"I@	c #EDEDED",
"J@	c #609263",
"K@	c #02D214",
"L@	c #00E31B",
"M@	c #12508A",
"N@	c #461A8A",
"O@	c #740088",
"P@	c #82007C",
"Q@	c #A75565",
"R@	c #898989",
"S@	c #646464",
"T@	c #B5B5B5",
"U@	c #FAFAFA",
"V@	c #9D9E9D",
"W@	c #1E6B21",
"X@	c #02CD0C",
"Y@	c #00E513",
"Z@	c #017B79",
"`@	c #164A8B",
" #	c #3B169A",
".#	c #5C00A1",
"+#	c #690095",
"@#	c #750089",
"##	c #A91137",
"$#	c #E5E3E4",
"%#	c #EFEFEF",
"&#	c #F3F3F3",
"*#	c #D5D5D5",
"=#	c #B2B5B2",
"-#	c #8EAD92",
";#	c #69A573",
">#	c #459E57",
",#	c #20933C",
"'#	c #07912F",
")#	c #02A339",
"!#	c #00B146",
"~#	c #009064",
"{#	c #086083",
"]#	c #192FA3",
"^#	c #3305BB",
"/#	c #4400BA",
"(#	c #5000AE",
"_#	c #5C00A2",
":#	c #AD033B",
"<#	c #C7B2B8",
"[#	c #7A7A7A",
"}#	c #C7C7C7",
"|#	c #B2B4B3",
"1#	c #8EA499",
"2#	c #699680",
"3#	c #466978",
"4#	c #292398",
"5#	c #1C07A2",
"6#	c #2602B3",
"7#	c #3500C0",
"8#	c #9E0445",
"9#	c #BDA3AC",
"0#	c #8D8D8D",
"a#	c #CECECE",
"b#	c #B2B2B3",
"c#	c #968EA4",
"d#	c #7D6996",
"e#	c #6A4586",
"f#	c #592072",
"g#	c #580865",
"h#	c #6E036A",
"i#	c #89006C",
"j#	c #960061",
"k#	c #822256",
"l#	c #C8BEC3",
"m#	c #E0E0E0",
"n#	c #3F3F3F",
"o#	c #8E8E8E",
"p#	c #F5F5F5",
"q#	c #B3B2B3",
"r#	c #ABA5AA",
"s#	c #414141",
"t#	c #BBBBBB",
"u#	c #3C3C3C",
"v#	c #262626",
"                                                                                                ",
"                                                                                                ",
"                                                                                                ",
"                                                                                                ",
"                                                                                                ",
"                                                                                                ",
"                                                                                                ",
"                                                                                                ",
"                            . . . . . . . +                                                     ",
"                      . . . . . . . . . . . @                                                   ",
"                    . . # $ % & * . . . . . =                                                   ",
"                      . - ; > , ' ) ! ~ { ] ^ /                                                 ",
"                      . ( _ : < [ } | 1 2 3 4 5                                                 ",
"                      . 6 _ : < [ } | 7 8 9 0 a b                                               ",
"                    . c d _ : < [ } | 7 8 9 0 a e   f . g h i j                                 ",
"                    . k l _ : < [ } | 7 8 9 0 a m   n . . . . . . . . * o p q r                 ",
"                    . s t _ : < [ } | 7 8 9 0 a u   v w x y . . . . . . . . . . . . . z A       ",
"                    . B C _ : < [ } | 7 8 9 0 a D   E F G H I J K L M N O . . . . . . P Q       ",
"                  . . R C _ : < [ } | 7 8 9 0 S     T U V W X Y Z `  ...+.@.#.$.%.&.. *.=.      ",
"                  . . -.C _ : < [ } | 7 8 9 0 ;.  >.,.'.V W X ).!.~.{.].^./.(._.:.<.. [.}.      ",
"                  . . |.C _ : < [ } | 7 8 9 0 1.2.3.4.5.6.7.8.9.0.~.{.].^./.(._.a.. * b.c.      ",
"                  . . d.C _ : < [ } | 7 8 9 e.f.g.h.i.j.k.l.m.n.o.p.{.].^./.(._.q.. &.r.s.      ",
"                  . O t.C _ : < [ } | 7 8 9 u.v.w.x.y.g.h.A z.A.B.C.D.E.F./.(._.G.. % H.I.      ",
"                  . J.K.C _ : < [ } | 7 8 L.M.N.}.O.i P.Q.y.R.S.@ z.A.T.U.V.W.X.Y.. Z.`. +      ",
"                * . .+++C _ : < [ } | 7 @+#+$+%+&+j *+=+O.-+P.Q.;+>+S.@ `.,+'+)+!+. ~+{+4.      ",
"                . . ]+^+C _ : < [ } | /+    (+_+5.:+2.@ Q <+=+O.-+=.s.[+}+|+1+2+3+* ,+q         ",
"                . . 4+^+C _ : < [ } 5+    6+7+8+9+0+a+m.b+c+A P P.=+d+N.[.e+f+g+. * h+i+        ",
"                = . j+^+C _ : < k+l+    m+n+o+p+q+r+s+t+u+a+v+w+x+y+z+@ e+b.A+B+. <.C+D+        ",
"                  E+F+G+H+I+J+K+    L+M+N+O+o+p+q+P+Q+R+S+T+U+V+W+U.[.r.e+X+Y+Z+. N.2.&+        ",
"                                `+ @.@+@N+O+o+p+q+P+Q+R+@@#@$@%@&@*@=@-@;@>@,@'@. @ h.)@        ",
"                  Z.!@*.~@{@]@^@/@(@.@+@N+O+o+p+q+P+Q+R+@@#@$@_@0.~.:@<@[@}@|@. . w+1@5.        ",
"                  * . 2@3@4@5@6@/@(@.@+@N+O+o+p+q+P+Q+R+@@#@$@_@7@8@9@0@a@b@c@. d@e@!@          ",
"                n . &.f@3@4@5@6@/@(@.@+@N+O+o+p+q+P+Q+R+@@#@$@g@h@i@j@0@a@k@l@. { A.m@          ",
"              n@. * o@p@3@4@5@6@/@(@.@+@N+O+o+p+q+P+Q+R+@@q@r@s@t@i@j@0@a@u@. * v@y.w@          ",
"            %+3+* x@y@z@3@4@5@6@/@(@.@+@N+O+o+p+q+P+Q+R+A@B@C@D@t@i@j@0@E@F@. G@e@Q.            ",
"          ~+H@I@J@K@L@z@3@4@5@6@/@(@.@+@N+O+o+p+q+P+M@N@O@P@C@D@t@i@j@0@Q@. . R@E+S@            ",
"        T@U@V@W@X@Y@L@z@3@4@5@6@/@(@.@+@N+O+o+Z@`@ #.#+#@#P@C@D@t@i@j@##$#. %#b.Q.              ",
"      &#. . . g *#=#-#;#>#,#'#)#!#(@.@+@~#{#]#^#/#(#_#+#@#P@C@D@t@i@:#<#. . E+[#l.              ",
"                }#o . . . . g J.|#1#2#3#4#5#6#7#/#(#_#+#@#P@C@D@t@8#9#. . n e@0#                ",
"                              a#O . . . . g J.b#c#d#e#f#g#h#i#j#k#l#. . m#n#o#                  ",
"                                        R.N.*#p#. . . . g J.q#r#p#. . h s#m@                    ",
"                                                        t#!+U@. . H@y.u#v@                      ",
"                                                                      v#                        ",
"                                                                                                ",
"                                                                                                ",
"                                                                                                ",
"                                                                                                ",
"                                                                                                "};
