/* XPM */
static char * gqview_mini_xpm[] = {
"16 16 98 2",
"  	c None",
". 	c #C7ADA0",
"+ 	c #C8C2B1",
"@ 	c #D9DAD7",
"# 	c #CFCFCF",
"$ 	c #FAFAFA",
"% 	c #AD3E0A",
"& 	c #906E00",
"* 	c #5AA100",
"= 	c #25C005",
"- 	c #DEDCDC",
"; 	c #BF3800",
"> 	c #5BA300",
", 	c #25D900",
"' 	c #457E35",
") 	c #B0D39E",
"! 	c #C6E1C1",
"~ 	c #E4E8E5",
"{ 	c #EFEFEF",
"] 	c #EAEAEA",
"^ 	c #BBBBBB",
"/ 	c #DBC6C3",
"( 	c #C53900",
"_ 	c #25C402",
": 	c #495D34",
"< 	c #359108",
"[ 	c #139A45",
"} 	c #0033C5",
"| 	c #0A20D2",
"1 	c #6C6FD4",
"2 	c #AFAFAF",
"3 	c #DBABA6",
"4 	c #5DA247",
"5 	c #A5A5A5",
"6 	c #898989",
"7 	c #5A5F68",
"8 	c #2B3D7C",
"9 	c #0719AF",
"0 	c #8083DD",
"a 	c #919191",
"b 	c #DB8B83",
"c 	c #497700",
"d 	c #2E402D",
"e 	c #535B5B",
"f 	c #8D8D8D",
"g 	c #AAAAAA",
"h 	c #49494A",
"i 	c #B4B2C9",
"j 	c #777777",
"k 	c #BA5048",
"l 	c #AC3000",
"m 	c #3B460D",
"n 	c #097946",
"o 	c #028872",
"p 	c #007087",
"q 	c #044675",
"r 	c #1E385F",
"s 	c #494C54",
"t 	c #6B1D22",
"u 	c #D4CECF",
"v 	c #707070",
"w 	c #AFC6B3",
"x 	c #04AF2B",
"y 	c #00B648",
"z 	c #00A05E",
"A 	c #008A74",
"B 	c #00738B",
"C 	c #005CA2",
"D 	c #0E40AC",
"E 	c #880D5B",
"F 	c #CD3348",
"G 	c #C7CDC7",
"H 	c #34CF48",
"I 	c #00CD31",
"J 	c #02708A",
"K 	c #303691",
"L 	c #8F0566",
"M 	c #C0003E",
"N 	c #DC9BA6",
"O 	c #959595",
"P 	c #E4E4E4",
"Q 	c #9AC49C",
"R 	c #7DD688",
"S 	c #60CA7A",
"T 	c #3BB46B",
"U 	c #188A6B",
"V 	c #173F97",
"W 	c #490BA6",
"X 	c #750089",
"Y 	c #9B0063",
"Z 	c #BC4570",
"` 	c #D1D1D1",
" .	c #696969",
"..	c #B4AABF",
"+.	c #AF91B3",
"@.	c #C499B6",
"#.	c #D5D4D5",
"$.	c #6F6F6F",
"                                ",
"                                ",
"                                ",
"        . + @ #                 ",
"      $ % & * =                 ",
"      - ; & > , ' ) ! ~ { ] ^   ",
"      / ( & > _ : < [ } | 1 2   ",
"      3 ( & > 4 5 6 7 8 9 0 a   ",
"      b ( & c d e f g 5 h i j   ",
"      k l m n o p q r s t u v   ",
"      w x y z A B C D E F ^     ",
"    G H I y z A J K L M N O     ",
"  P Q R S T U V W X Y Z `  .    ",
"              ` ..+.@.#.$.      ",
"                                ",
"                                "};
