/* XPM */
static char * irush_xpm[] = {
"48 48 10 1",
" 	c None",
".	c #555F7A",
"+	c #3F475B",
"@	c #2A2F3C",
"#	c #15171E",
"$	c #000000",
"%	c #808080",
"&	c #404040",
"*	c #BFBFBF",
"=	c #FFFFFF",
"                                                ",
"                                                ",
"                                                ",
"    ........................................    ",
"   ..........................................   ",
"   ..........................................   ",
"   .................++.......................   ",
"   .................@..++....................   ",
"   ............@#@..$.#+.....................   ",
"   .............+$#$$$$$$#...................   ",
"   ............+$$%%%$$&%%$+.................   ",
"   ...........+$$*=%**&=%**$.................   ",
"   ..........+$$$=*=$=&*=$=%@................   ",
"   .........+$$$$=%$$=%%$$=%$$$#@+...........   ",
"   ........+$&%&$&=%*=&=%*=$*==%%$$@.........   ",
"   .......+$&*===&&%%&$%%%&*======*%$+.......   ",
"   .......#$*=%%==%%%%%%%%*====%%**$*$+......   ",
"   ......+$$=%&&%===============*$=*=*$......   ",
"   ......@$$=%&$&====================&#......   ",
"   ......$$$=%&=$&%%%%%%%%%%%%%%%%&$$&.......   ",
"   ......$$$==&&%*$&&$%$%%$%%$%%$%$=$%@......   ",
"   .....+$$$&==&&%$=%%=$==$==$==$=$%$&$......   ",
"   .....@$$$$&==*%$$$$$$$$$$$$$$$$&%=&#......   ",
"   .....@$$$$$$%===================*$@.......   ",
"   .....@$$$$$$$$&%%%%%%%%%%%%%%%%$$+........   ",
"   .....@$$$$$$$$$$$$$$$$$%%%%%%$$#+.........   ",
"   .....@$$$$$$$$$$$$$$$&========%#+.........   ",
"   .....@$$$$$$$$$$$$$$&==========*&@........   ",
"   .....@$$$$$$$$$$$$$&=============&#.......   ",
"   .....@$$$$$$$$$$$$$%==========**==&#......   ",
"   ......$$$$$$$$$$$$$%==========%&===$@.....   ",
"   ......$$$$$$$$$$$$$%===============$@.....   ",
"   ......@$$$$$$$$$$$$$*=============*$+.....   ",
"   ....#$@$$$$$$$$$$$$$$*===========%#+......   ",
"   ...+$%#@$%=&$$$$$$$$$$&%%%%%%%%%$$$$$$@...   ",
"   ...@%*$@$==%$$%=====*%%%%&$$%%%*======&#..   ",
"   ...+&=*%*==$$%=============*$*====%==&=$..   ",
"   ....#&====&$$$*========*&=&*%&%%%=%%=%&$..   ",
"   .....@$$$$@..+$$$$$$$$%=$=%%%#@@#$$$$$#+..   ",
"   .....................+#$$$$$#.............   ",
"   ..........................................   ",
"   ..........................................   ",
"   ..........................................   ",
"   ..........................................   ",
"    ........................................    ",
"                                                ",
"                                                ",
"                                                "};
