/* XPM */
static char * irush_mini_xpm[] = {
"16 16 57 1",
" 	c None",
".	c #555F7A",
"+	c #444C62",
"@	c #474F65",
"#	c #535C77",
"$	c #2D3037",
"%	c #6D6D6E",
"&	c #404040",
"*	c #616266",
"=	c #495269",
"-	c #474747",
";	c #808080",
">	c #B1B1B1",
",	c #959595",
"'	c #5C5E62",
")	c #5C606B",
"!	c #3B4255",
"~	c #232733",
"{	c #AAAAAA",
"]	c #B8B8B8",
"^	c #A3A3A3",
"/	c #F8F8F8",
"(	c #DCDCDC",
"_	c #9C9C9C",
":	c #5E6169",
"<	c #050507",
"[	c #717171",
"}	c #8E8E8E",
"|	c #494B50",
"1	c #000000",
"2	c #636363",
"3	c #3B3D42",
"4	c #070707",
"5	c #2B2B2B",
"6	c #797979",
"7	c #2F3137",
"8	c #555555",
"9	c #FFFFFF",
"0	c #D4D4D4",
"a	c #505561",
"b	c #6A6A6A",
"c	c #494C53",
"d	c #101217",
"e	c #0E0E0E",
"f	c #4E4E4E",
"g	c #6D6E71",
"h	c #61656F",
"i	c #4E5770",
"j	c #555A67",
"k	c #6A6C70",
"l	c #505257",
"m	c #CDCDCD",
"n	c #747475",
"o	c #8B8D90",
"p	c #40475B",
"q	c #424A5F",
"r	c #393F51",
"................",
"................",
".....++@#.......",
"....#$%&*=......",
"...#$-;>,')!....",
"...~{]^,{/(_:...",
"...<^[}}___,|...",
"..=12^;;}}}}3...",
"..@114556{_7#...",
"..@111189990a...",
"...<111b999(^=..",
"..cd6e8f},_>ghi.",
"..j}kl{{m{no;np.",
"........qr+.....",
"................",
"................"};
