/* XPM */
static char * maya_mini_xpm[] = {
"16 16 143 2",
"  	c None",
". 	c #7D2D2D",
"+ 	c #A46C6C",
"@ 	c #B07F7F",
"# 	c #A66F6F",
"$ 	c #EBDDDD",
"% 	c #F3EAEA",
"& 	c #F4EAEA",
"* 	c #664444",
"= 	c #A69898",
"- 	c #E0C3C3",
"; 	c #CEB4B4",
"> 	c #938B8B",
", 	c #AF9999",
"' 	c #E3C4C4",
") 	c #E1C4C4",
"! 	c #DFC3C3",
"~ 	c #9C5959",
"{ 	c #741212",
"] 	c #676060",
"^ 	c #A0A0A0",
"/ 	c #876E6E",
"( 	c #898383",
"_ 	c #ADADAD",
": 	c #6E5858",
"< 	c #CA9191",
"[ 	c #BE8C8C",
"} 	c #AC8686",
"| 	c #BB7F7F",
"1 	c #731111",
"2 	c #801313",
"3 	c #655D5D",
"4 	c #2C2A2A",
"5 	c #878787",
"6 	c #747272",
"7 	c #686868",
"8 	c #676767",
"9 	c #817070",
"0 	c #8B8383",
"a 	c #574E4E",
"b 	c #B05A5A",
"c 	c #811313",
"d 	c #741111",
"e 	c #7A1212",
"f 	c #8D1616",
"g 	c #645959",
"h 	c #4D2323",
"i 	c #817F7F",
"j 	c #2A2828",
"k 	c #AAAAAA",
"l 	c #5A5A5A",
"m 	c #858585",
"n 	c #6D6969",
"o 	c #625A5A",
"p 	c #753232",
"q 	c #8E1515",
"r 	c #7C1212",
"s 	c #991717",
"t 	c #665A5A",
"u 	c #682121",
"v 	c #6C1717",
"w 	c #4D3333",
"x 	c #626262",
"y 	c #7C7C7C",
"z 	c #696969",
"A 	c #3B3030",
"B 	c #9A9A9A",
"C 	c #796666",
"D 	c #971717",
"E 	c #841313",
"F 	c #8C1616",
"G 	c #A71B1B",
"H 	c #675A5A",
"I 	c #702121",
"J 	c #BC2222",
"K 	c #7A7878",
"L 	c #969696",
"M 	c #6C6C6C",
"N 	c #565656",
"O 	c #5F5F5F",
"P 	c #828282",
"Q 	c #7D1F1F",
"R 	c #8C1515",
"S 	c #951717",
"T 	c #B41E1E",
"U 	c #685A5A",
"V 	c #7A2424",
"W 	c #DE2C2C",
"X 	c #5E4444",
"Y 	c #888888",
"Z 	c #656565",
"` 	c #747474",
" .	c #616161",
"..	c #6C4343",
"+.	c #911616",
"@.	c #9C1818",
"#.	c #BA1E1E",
"$.	c #695A5A",
"%.	c #802626",
"&.	c #F33131",
"*.	c #DA2D2D",
"=.	c #4F4444",
"-.	c #6B6B6B",
";.	c #9B9B9B",
">.	c #787878",
",.	c #6E6E6E",
"'.	c #483B3B",
").	c #901616",
"!.	c #B31C1C",
"~.	c #802525",
"{.	c #F63232",
"].	c #FB3535",
"^.	c #F13333",
"/.	c #E93131",
"(.	c #7A5B5B",
"_.	c #6D2727",
":.	c #CF2626",
"<.	c #B71F1F",
"[.	c #9D1818",
"}.	c #611818",
"|.	c #AB1E1E",
"1.	c #F32E2E",
"2.	c #FA3131",
"3.	c #FD3333",
"4.	c #FB3232",
"5.	c #832222",
"6.	c #A21F1F",
"7.	c #D22424",
"8.	c #B41C1C",
"9.	c #CB2020",
"0.	c #E42727",
"a.	c #F12B2B",
"b.	c #F62D2D",
"c.	c #F42D2D",
"d.	c #EB2A2A",
"e.	c #D72424",
"f.	c #BA1D1D",
"g.	c #C92020",
"h.	c #D32323",
"i.	c #D92323",
"j.	c #D72323",
"k.	c #CE2222",
"l.	c #BF1E1E",
"                                ",
"          . + @ @ + .           ",
"        # $ % & & % $ #         ",
"      * = - ; > , ' ) ! ~       ",
"    { ] ^ / ( _ : < [ } | {     ",
"  1 2 3 4 5 6 7 8 9 0 a b c d   ",
"  e f g h i j k l m n o p q r   ",
"  c s t u v w x y z A B C D E   ",
"  F G H I J K l L M N O P Q R   ",
"  S T U V W X Y 5 Z 7 `  ...+.  ",
"  @.#.$.%.&.*.=.-.;.>.-.,.'.).  ",
"    !.$.~.{.].^./.(._.:.<.[.    ",
"      }.|.1.2.3.4.5.6.7.8.      ",
"        9.0.a.b.c.d.e.f.        ",
"          g.h.i.j.k.l.          ",
"                                "};
