/* XPM */
static char * mplayer_mini_xpm[] = {
"16 16 136 2",
"  	c None",
". 	c #000000",
"+ 	c #060607",
"@ 	c #2B2B2C",
"# 	c #232324",
"$ 	c #010101",
"% 	c #020202",
"& 	c #222223",
"* 	c #4C4C4D",
"= 	c #505051",
"- 	c #515152",
"; 	c #252526",
"> 	c #3C4655",
", 	c #8391A5",
"' 	c #8392A7",
") 	c #8694A9",
"! 	c #8D9BB0",
"~ 	c #8C9AAF",
"{ 	c #8A99AE",
"] 	c #384150",
"^ 	c #020710",
"/ 	c #A0B1C8",
"( 	c #5A7AA5",
"_ 	c #9EAFC6",
": 	c #01050D",
"< 	c #050C16",
"[ 	c #92A7C3",
"} 	c #4F719F",
"| 	c #446695",
"1 	c #2E5184",
"2 	c #456696",
"3 	c #94A8C3",
"4 	c #010710",
"5 	c #080808",
"6 	c #191F29",
"7 	c #879DBC",
"8 	c #456798",
"9 	c #2C4F84",
"0 	c #2D4A78",
"a 	c #909FB7",
"b 	c #8F9EB6",
"c 	c #2A4777",
"d 	c #2E5185",
"e 	c #889EBD",
"f 	c #01060E",
"g 	c #101010",
"h 	c #0D131B",
"i 	c #7B93B5",
"j 	c #3C5E92",
"k 	c #36598D",
"l 	c #254273",
"m 	c #E3EAF2",
"n 	c #ADB1B6",
"o 	c #E1E6EC",
"p 	c #E1E8F0",
"q 	c #213F71",
"r 	c #375A8E",
"s 	c #7C94B5",
"t 	c #060B13",
"u 	c #0B0B0B",
"v 	c #080C14",
"w 	c #6D88AD",
"x 	c #32568B",
"y 	c #254981",
"z 	c #6C84A7",
"A 	c #D6E6F3",
"B 	c #62686D",
"C 	c #424345",
"D 	c #ACB8C3",
"E 	c #667FA3",
"F 	c #264B82",
"G 	c #6E89AD",
"H 	c #0C1016",
"I 	c #5F7CA5",
"J 	c #2A4E84",
"K 	c #274D85",
"L 	c #5979A4",
"M 	c #AECFEA",
"N 	c #424D57",
"O 	c #36424C",
"P 	c #99B9D4",
"Q 	c #5475A1",
"R 	c #284D85",
"S 	c #294D83",
"T 	c #53719C",
"U 	c #01050A",
"V 	c #090909",
"W 	c #05080D",
"X 	c #4F709C",
"Y 	c #254A82",
"Z 	c #294E86",
"` 	c #2F5891",
" .	c #6FA1CD",
"..	c #628DB0",
"+.	c #7CB1DC",
"@.	c #6E9FCB",
"#.	c #2D5690",
"$.	c #193F79",
"%.	c #0A306C",
"&.	c #3A5B8C",
"*.	c #000308",
"=.	c #070708",
"-.	c #020509",
";.	c #3E659A",
">.	c #1A4482",
",.	c #1D4785",
"'.	c #2F5A95",
").	c #4473AA",
"!.	c #5284B9",
"~.	c #5183B9",
"{.	c #4472A9",
"].	c #2C5792",
"^.	c #184381",
"/.	c #3F6699",
"(.	c #06080B",
"_.	c #020408",
":.	c #4875A9",
"<.	c #2C5C9A",
"[.	c #3664A0",
"}.	c #4F7DB2",
"|.	c #4F7CB2",
"1.	c #35649F",
"2.	c #4874A8",
"3.	c #000205",
"4.	c #000102",
"5.	c #4D76A1",
"6.	c #467AB3",
"7.	c #457AB3",
"8.	c #4B729B",
"9.	c #0A0F14",
"0.	c #283B4D",
"a.	c #2A3E50",
"b.	c #293D4F",
"c.	c #2A3D50",
"d.	c #273B4C",
"e.	c #090E12",
". . . . . . . . + @ # $ . . . . ",
". . . . . . % & * = - ; . . . . ",
". . > , ' ' ) ! ~ ~ ~ { , ] . . ",
". ^ / ( ( ( ( ( ( ( ( ( ( _ : . ",
". < [ } } } | 1 1 2 } } } 3 4 . ",
"5 6 7 8 8 9 0 a b c d 8 8 e f . ",
"g h i j k l m n o p q r j s t . ",
"u v w x y z A B C D E F x G H % ",
"$ H I J K L M N O P Q R S T U V ",
". W X Y Z `  ...+.@.#.$.%.&.*.=.",
". -.;.>.,.'.).!.~.{.].^.^./.(.% ",
". _.:.<.<.<.[.}.|.1.<.<.<.2.3.. ",
". 4.5.6.7.7.7.7.7.7.7.7.6.8.4.. ",
". . 9.0.a.b.b.b.a.c.b.b.d.e.. . ",
". . . . $ . . $ $ . . . . . . . ",
". . . . . . . . . . . . . . . . "};
