/* XPM */
static char * mplayer_xpm[] = {
"48 48 621 2",
"  	c #000000",
". 	c #131313",
"+ 	c #262626",
"@ 	c #2D2D2E",
"# 	c #29292A",
"$ 	c #191919",
"% 	c #030303",
"& 	c #0C0C0D",
"* 	c #2E2E2F",
"= 	c #565657",
"- 	c #646465",
"; 	c #666667",
"> 	c #656566",
", 	c #5C5C5D",
"' 	c #383839",
") 	c #0A0A0A",
"! 	c #060606",
"~ 	c #222223",
"{ 	c #4C4C4D",
"] 	c #616162",
"^ 	c #575758",
"/ 	c #555556",
"( 	c #626263",
"_ 	c #040404",
": 	c #020202",
"< 	c #19191A",
"[ 	c #3E3E3F",
"} 	c #5A5A5B",
"| 	c #505050",
"1 	c #505051",
"2 	c #59595A",
"3 	c #1E1E1E",
"4 	c #101010",
"5 	c #313132",
"6 	c #525252",
"7 	c #545455",
"8 	c #4B4B4C",
"9 	c #525253",
"0 	c #424243",
"a 	c #090909",
"b 	c #010916",
"c 	c #021330",
"d 	c #021739",
"e 	c #021738",
"f 	c #081E3F",
"g 	c #14294B",
"h 	c #23385A",
"i 	c #1C3153",
"j 	c #1B3052",
"k 	c #1E3455",
"l 	c #0C2142",
"m 	c #02132E",
"n 	c #010813",
"o 	c #000206",
"p 	c #081E41",
"q 	c #6D819E",
"r 	c #BDC7D4",
"s 	c #D5DCE5",
"t 	c #D6DDE6",
"u 	c #B9C3D1",
"v 	c #637797",
"w 	c #041939",
"x 	c #000103",
"y 	c #000001",
"z 	c #0A2043",
"A 	c #B4BECD",
"B 	c #E5EAF0",
"C 	c #CAD5E1",
"D 	c #B3C2D5",
"E 	c #B2C1D5",
"F 	c #B4C3D6",
"G 	c #CED8E3",
"H 	c #E6EAF0",
"I 	c #A4B0C2",
"J 	c #041938",
"K 	c #010B1B",
"L 	c #7D8DA5",
"M 	c #E0E6EE",
"N 	c #92A8C4",
"O 	c #5D7DA7",
"P 	c #9EB1CA",
"Q 	c #E2E8EE",
"R 	c #687A96",
"S 	c #021633",
"T 	c #D0D7E1",
"U 	c #B8C5D7",
"V 	c #597AA5",
"W 	c #5A7AA6",
"X 	c #C3CEDD",
"Y 	c #BCC5D2",
"Z 	c #02122C",
"` 	c #0B2042",
" .	c #E2E7EE",
"..	c #96AAC6",
"+.	c #5776A4",
"@.	c #A2B4CC",
"#.	c #D7DEE7",
"$.	c #021634",
"%.	c #0D2342",
"&.	c #DFE5EC",
"*.	c #91A6C2",
"=.	c #5374A0",
"-.	c #9DB0C9",
";.	c #021533",
">.	c #0D2240",
",.	c #DBE2EB",
"'.	c #8DA2C0",
").	c #4F709F",
"!.	c #4E6F9E",
"~.	c #3F6192",
"{.	c #315487",
"].	c #2A4D81",
"^.	c #2A4D82",
"/.	c #325588",
"(.	c #416393",
"_.	c #4F709E",
":.	c #99ACC6",
"<.	c #D3DBE5",
"[.	c #021430",
"}.	c #040405",
"|.	c #102441",
"1.	c #D7DEE8",
"2.	c #899FBE",
"3.	c #4C6E9D",
"4.	c #496B9A",
"5.	c #0C306A",
"6.	c #042964",
"7.	c #042963",
"8.	c #0E326C",
"9.	c #2D5084",
"0.	c #4A6C9B",
"a.	c #95A9C4",
"b.	c #CFD7E2",
"c.	c #02142E",
"d.	c #121212",
"e.	c #282828",
"f.	c #152845",
"g.	c #D3DCE6",
"h.	c #859CBB",
"i.	c #496A9B",
"j.	c #3A5D8F",
"k.	c #0D316B",
"l.	c #042862",
"m.	c #04265E",
"n.	c #03245B",
"o.	c #032359",
"p.	c #04265F",
"q.	c #0F346D",
"r.	c #3D6091",
"s.	c #91A5C2",
"t.	c #CBD5E0",
"u.	c #02132C",
"v.	c #171717",
"w.	c #292929",
"x.	c #1F1F1F",
"y.	c #11233F",
"z.	c #CFD8E4",
"A.	c #8198B9",
"B.	c #456798",
"C.	c #34568A",
"D.	c #062B66",
"E.	c #04255D",
"F.	c #1A3565",
"G.	c #7B8AA4",
"H.	c #BEC6D3",
"I.	c #DFE2E9",
"J.	c #DDE1E8",
"K.	c #BAC2CF",
"L.	c #73839F",
"M.	c #143061",
"N.	c #082D67",
"O.	c #385A8D",
"P.	c #8DA2BF",
"Q.	c #C7D1DE",
"R.	c #02122B",
"S.	c #0C0C0C",
"T.	c #141414",
"U.	c #10213C",
"V.	c #CAD4E1",
"W.	c #7C95B7",
"X.	c #426496",
"Y.	c #385B8E",
"Z.	c #072C66",
"`.	c #6B7C99",
" +	c #F0F3F6",
".+	c #FBFCFE",
"++	c #FBFCFD",
"@+	c #FBFDFE",
"#+	c #EAEDF2",
"$+	c #5B6E8E",
"%+	c #03235A",
"&+	c #092E68",
"*+	c #3C5E91",
"=+	c #889EBD",
"-+	c #C3CDDC",
";+	c #021229",
">+	c #1C1C1C",
",+	c #101011",
"'+	c #0F2039",
")+	c #C5D1DE",
"!+	c #7891B4",
"~+	c #3F6194",
"{+	c #11366F",
"]+	c #032358",
"^+	c #8593AB",
"/+	c #F7FAFD",
"(+	c #F6F9FD",
"_+	c #EDF2F6",
":+	c #D7DCE1",
"<+	c #F4F7FB",
"[+	c #F6F9FC",
"}+	c #6F809C",
"|+	c #163A73",
"1+	c #839BBA",
"2+	c #BECAD9",
"3+	c #031229",
"4+	c #1F1F20",
"5+	c #0D0D0D",
"6+	c #0E1E36",
"7+	c #C1CCDC",
"8+	c #748EB1",
"9+	c #3C5F92",
"0+	c #2B4F84",
"a+	c #04255C",
"b+	c #506487",
"c+	c #F1F6FB",
"d+	c #F0F6FB",
"e+	c #F0F6FA",
"f+	c #DAE2EA",
"g+	c #656667",
"h+	c #ACB2B9",
"i+	c #EAF0F7",
"j+	c #F0F5FA",
"k+	c #F0F5F9",
"l+	c #3D5279",
"m+	c #04255E",
"n+	c #305488",
"o+	c #7F97B7",
"p+	c #BAC6D6",
"q+	c #0B1A2F",
"r+	c #080808",
"s+	c #0F0F0F",
"t+	c #0D1D34",
"u+	c #BBC8D9",
"v+	c #6F8AAF",
"w+	c #385B90",
"x+	c #153972",
"y+	c #052862",
"z+	c #082559",
"A+	c #CDD6E2",
"B+	c #E9F1F9",
"C+	c #D1DCE7",
"D+	c #515151",
"E+	c #7D8287",
"F+	c #D5DFE9",
"G+	c #E8F1F8",
"H+	c #BBC5D4",
"I+	c #052459",
"J+	c #052963",
"K+	c #1A3E76",
"L+	c #7A93B5",
"M+	c #B5C2D3",
"N+	c #0B192E",
"O+	c #181819",
"P+	c #111112",
"Q+	c #060607",
"R+	c #0C1B31",
"S+	c #B6C4D6",
"T+	c #6B86AC",
"U+	c #35598E",
"V+	c #092E6A",
"W+	c #082B65",
"X+	c #3F567E",
"Y+	c #E3EDF7",
"Z+	c #E0ECF6",
"`+	c #C8D6E4",
" @	c #424242",
".@	c #414141",
"+@	c #535558",
"@@	c #B1BDC9",
"#@	c #DDE9F4",
"$@	c #E4EEF7",
"%@	c #2B4470",
"&@	c #082C65",
"*@	c #0D326D",
"=@	c #36598E",
"-@	c #768FB2",
";@	c #AFBDD0",
">@	c #051225",
",@	c #1B1B1B",
"'@	c #0B0B0B",
")@	c #050505",
"!@	c #AFBFD3",
"~@	c #6682A9",
"{@	c #32568B",
"]@	c #31548A",
"^@	c #0A306D",
"/@	c #0C2E66",
"(@	c #6E82A1",
"_@	c #D6E6F3",
":@	c #BED0E1",
"<@	c #333333",
"[@	c #323232",
"}@	c #353637",
"|@	c #808A95",
"1@	c #CDDEEE",
"2@	c #D7E6F4",
"3@	c #5B7193",
"4@	c #0C2F68",
"5@	c #0B306D",
"6@	c #34588C",
"7@	c #708BAF",
"8@	c #A9B9CD",
"9@	c #030F22",
"0@	c #010101",
"a@	c #151515",
"b@	c #0E0E0E",
"c@	c #0A182C",
"d@	c #A9BAD0",
"e@	c #617EA7",
"f@	c #2F5389",
"g@	c #0E3572",
"h@	c #0F3169",
"i@	c #7A8FAD",
"j@	c #CBDFF1",
"k@	c #B3C9DD",
"l@	c #272727",
"m@	c #5D6771",
"n@	c #C7DCEE",
"o@	c #687FA0",
"p@	c #0F326B",
"q@	c #6B87AC",
"r@	c #A3B4CA",
"s@	c #020E20",
"t@	c #0A172A",
"u@	c #A2B5CC",
"v@	c #5D7AA4",
"w@	c #2D5087",
"x@	c #32558B",
"y@	c #123A78",
"z@	c #13366F",
"A@	c #6C84A6",
"B@	c #BED8EE",
"C@	c #A6C1D9",
"D@	c #37424C",
"E@	c #9DB9D1",
"F@	c #BCD6ED",
"G@	c #5C759A",
"H@	c #133771",
"I@	c #123B78",
"J@	c #34578C",
"K@	c #6682AA",
"L@	c #9CAFC6",
"M@	c #010D1E",
"N@	c #161617",
"O@	c #0E0E0F",
"P@	c #091628",
"Q@	c #9BB0C8",
"R@	c #5876A1",
"S@	c #2A4E84",
"T@	c #18417F",
"U@	c #173D77",
"V@	c #47648E",
"W@	c #B0D0EA",
"X@	c #AECFEA",
"Y@	c #98B9D6",
"Z@	c #131314",
"`@	c #151618",
" #	c #556B80",
".#	c #A1C4E1",
"+#	c #B1D1EB",
"@#	c #385582",
"##	c #173E79",
"$#	c #1C4481",
"%#	c #33568B",
"&#	c #2A4D84",
"*#	c #55749F",
"=#	c #8199B7",
"-#	c #010C1C",
";#	c #0C1829",
">#	c #94AAC5",
",#	c #53729E",
"'#	c #274B82",
")#	c #2D5086",
"!#	c #28518B",
"~#	c #1D4582",
"{#	c #1D3D71",
"]#	c #98BEDE",
"^#	c #9DC6E6",
"/#	c #89B0D2",
"(#	c #1D1D1E",
"_#	c #1C1C1D",
":#	c #283037",
"<#	c #6E92B1",
"[#	c #98C1E3",
"}#	c #91B6D7",
"|#	c #19396F",
"1#	c #1D4683",
"2#	c #2C548D",
"3#	c #1D4179",
"4#	c #0B306A",
"5#	c #3B5D8D",
"6#	c #7892B2",
"7#	c #010C1A",
"8#	c #121213",
"9#	c #0D1828",
"0#	c #8DA4C1",
"a#	c #4E6E9B",
"b#	c #244880",
"c#	c #365C93",
"d#	c #224E8C",
"e#	c #1E437C",
"f#	c #4F75A2",
"g#	c #8ABBE1",
"h#	c #78A7CF",
"i#	c #282829",
"j#	c #3E5165",
"k#	c #76A5CE",
"l#	c #88B9E0",
"m#	c #456998",
"n#	c #1F457F",
"o#	c #224E8D",
"p#	c #375C92",
"q#	c #22477E",
"r#	c #173C75",
"s#	c #0A2E69",
"t#	c #395A8B",
"u#	c #728CAF",
"v#	c #010B19",
"w#	c #0A1524",
"x#	c #86A0BE",
"y#	c #4B6C9A",
"z#	c #244981",
"A#	c #365A8E",
"B#	c #2E5B97",
"C#	c #28538F",
"D#	c #20437A",
"E#	c #6291C0",
"F#	c #7BB2DE",
"G#	c #70A5D2",
"H#	c #537798",
"I#	c #73AAD8",
"J#	c #7AB2DE",
"K#	c #5A88B7",
"L#	c #20437B",
"M#	c #285491",
"N#	c #315D98",
"O#	c #113771",
"P#	c #082D69",
"Q#	c #062C68",
"R#	c #375A8C",
"S#	c #6D89AC",
"T#	c #010A17",
"U#	c #070708",
"V#	c #071120",
"W#	c #7392B5",
"X#	c #406495",
"Y#	c #214781",
"Z#	c #264C85",
"`#	c #274D86",
" $	c #274D87",
".$	c #496FA1",
"+$	c #2F5F9D",
"@$	c #2C5793",
"#$	c #254981",
"$$	c #5888B9",
"%$	c #76AFDD",
"&$	c #76AEDC",
"*$	c #75AEDC",
"=$	c #5281B3",
"-$	c #2D5995",
";$	c #305F9D",
">$	c #355C92",
",$	c #0C3370",
"'$	c #395E91",
")$	c #6A88AC",
"!$	c #070707",
"~$	c #07101E",
"{$	c #6B8CB4",
"]$	c #355B91",
"^$	c #123B79",
"/$	c #163E7C",
"($	c #1A427F",
"_$	c #204884",
":$	c #224A85",
"<$	c #2C538C",
"[$	c #4E77AA",
"}$	c #3769A6",
"|$	c #34629D",
"1$	c #2A518A",
"2$	c #3B649A",
"3$	c #5F91C2",
"4$	c #74ACDA",
"5$	c #73AAD9",
"6$	c #5C8EBF",
"7$	c #386096",
"8$	c #2B528C",
"9$	c #35639F",
"0$	c #386AA6",
"a$	c #4871A5",
"b$	c #17407C",
"c$	c #3C6296",
"d$	c #6888AD",
"e$	c #010914",
"f$	c #07101C",
"g$	c #6A8CB5",
"h$	c #396197",
"i$	c #184381",
"j$	c #26508A",
"k$	c #5680B1",
"l$	c #4377B1",
"m$	c #4173AE",
"n$	c #3B6AA4",
"o$	c #345E99",
"p$	c #315994",
"q$	c #37609A",
"r$	c #355F9A",
"s$	c #3C6BA5",
"t$	c #4274AE",
"u$	c #4478B2",
"v$	c #567EAF",
"w$	c #224C88",
"x$	c #3F669B",
"y$	c #6787AE",
"z$	c #040B15",
"A$	c #060F1B",
"B$	c #698DB6",
"C$	c #3C669C",
"D$	c #1F4B8A",
"E$	c #26518E",
"F$	c #5B81B0",
"G$	c #6392C2",
"H$	c #5189C0",
"I$	c #538AC0",
"J$	c #548AC0",
"K$	c #5289C0",
"L$	c #6593C2",
"M$	c #577DAD",
"N$	c #234F8C",
"O$	c #426BA0",
"P$	c #6688AF",
"Q$	c #040A14",
"R$	c #060E19",
"S$	c #698EB8",
"T$	c #406CA2",
"U$	c #255392",
"V$	c #3B669E",
"W$	c #688DB9",
"X$	c #7DA5CC",
"Y$	c #87B2D8",
"Z$	c #86B5DB",
"`$	c #86B4DB",
" %	c #87B2D7",
".%	c #7CA3CB",
"+%	c #668BB7",
"@%	c #37629B",
"#%	c #4670A5",
"$%	c #6589B1",
"%%	c #01070F",
"&%	c #060D17",
"*%	c #6890BA",
"=%	c #4472A8",
"-%	c #2C5C9A",
";%	c #2C5C9B",
">%	c #34639F",
",%	c #436EA6",
"'%	c #426DA5",
")%	c #33619E",
"!%	c #4976AA",
"~%	c #648AB3",
"{%	c #01060E",
"]%	c #050C16",
"^%	c #6892BD",
"/%	c #4978AE",
"(%	c #3364A2",
"_%	c #4D7BB0",
":%	c #638BB5",
"<%	c #01060D",
"[%	c #01060C",
"}%	c #638DB7",
"|%	c #5383B6",
"1%	c #3A6EAA",
"2%	c #5786B8",
"3%	c #5B81A7",
"4%	c #01040A",
"5%	c #010306",
"6%	c #446281",
"7%	c #6493C1",
"8%	c #487CB5",
"9%	c #4177B2",
"0%	c #4B7EB6",
"a%	c #6594C2",
"b%	c #3B5570",
"c%	c #010205",
"d%	c #0C141F",
"e%	c #5F8AB3",
"f%	c #6697C6",
"g%	c #5A8DC0",
"h%	c #5489BE",
"i%	c #5488BD",
"j%	c #5589BE",
"k%	c #5B8EC0",
"l%	c #6797C6",
"m%	c #5B84AB",
"n%	c #070D15",
"o%	c #000102",
"p%	c #0D1720",
"q%	c #4A6D8D",
"r%	c #699AC7",
"s%	c #6B9DCA",
"t%	c #6899C5",
"u%	c #456684",
"v%	c #0A1119",
"w%	c #010204",
"x%	c #060B11",
"y%	c #101923",
"z%	c #101A24",
"A%	c #111A25",
"B%	c #111A24",
"C%	c #111924",
"D%	c #04090E",
"                                                                                                ",
"                                                      . + @ # $ %                               ",
"                                                  & * = - ; > , ' )                             ",
"                                              ! ~ { ] ^ / / / / ( ' _                           ",
"                                          : < [ } / | | | | | | 1 2 3                           ",
"                                        4 5 6 7 8 8 8 8 8 8 8 8 8 9 0 a                         ",
"                b c d d d d d d d d e f g h i j j j j j j j j j j j k l d e m n                 ",
"            o p q r s t t t t t t t t t t t t t t t t t t t t t t t t t t s u v w x             ",
"          y z A B C D E E E E E E E E E E E E E E E E E E E E E E E E E E F G H I J             ",
"          K L M N O O O O O O O O O O O O O O O O O O O O O O O O O O O O O O P Q R n           ",
"          S T U V V V V V V V V V V V V V V V V V V V V V V V V V V V V V V V W X Y Z           ",
"          `  ...+.+.+.+.+.+.+.+.+.+.+.+.+.+.+.+.+.+.+.+.+.+.+.+.+.+.+.+.+.+.+.+.@.#.$.          ",
"          %.&.*.=.=.=.=.=.=.=.=.=.=.=.=.=.=.=.=.=.=.=.=.=.=.=.=.=.=.=.=.=.=.=.=.-.t ;.          ",
"          >.,.'.).).).).).).).).).).).).!.~.{.].^./.(._.).).).).).).).).).).).).:.<.[.          ",
"        }.|.1.2.3.3.3.3.3.3.3.3.3.3.4.].5.6.6.7.7.6.6.8.9.0.3.3.3.3.3.3.3.3.3.3.a.b.c.          ",
"      d.e.f.g.h.i.i.i.i.i.i.i.i.i.j.k.7.l.m.n.o.o.n.p.l.6.q.r.i.i.i.i.i.i.i.i.i.s.t.u.          ",
"    v.w.x.y.z.A.B.B.B.B.B.B.B.B.C.D.l.E.F.G.H.I.J.K.L.M.E.l.N.O.B.B.B.B.B.B.B.B.P.Q.R.          ",
"  S.+ v.T.U.V.W.X.X.X.X.X.X.X.Y.Z.l.o.`. +.+++@+@+@+@+#+$+%+l.&+*+X.X.X.X.X.X.X.=+-+;+          ",
"  $ >+,+,+'+)+!+~+~+~+~+~+~+~+{+l.]+^+/+(+_+:+<+(+(+(+(+[+}+%+l.|+~+~+~+~+~+~+~+1+2+3+          ",
"  4+d.5+5+6+7+8+9+9+9+9+9+9+0+7.a+b+c+d+e+f+g+h+i+j+d+d+d+k+l+m+6.n+9+9+9+9+9+9+o+p+q+r+        ",
"  3 s+) ) t+u+v+w+w+w+w+w+w+x+y+z+A+B+B+B+C+D+| E+F+G+B+B+B+H+I+J+K+w+w+w+w+w+w+L+M+N+O+        ",
"  v.P+Q+Q+R+S+T+U+U+U+U+U+U+V+W+X+Y+Z+Z+Z+`+ @.@.@+@@@#@Z+Z+$@%@&@*@=@U+U+U+U+U+-@;@>@,@'@      ",
"  ) $ )@_ N+!@~@{@{@{@{@{@]@^@/@(@_@_@_@_@:@<@[@[@[@}@|@1@_@2@3@4@5@6@{@{@{@{@{@7@8@9@S.$ 0@    ",
"    a@b@0@c@d@e@f@f@f@f@f@f@g@h@i@j@j@j@j@k@l@+ + + + + m@n@j@o@p@g@{@f@f@f@f@f@q@r@s@: . b@    ",
"    )@v.% t@u@v@w@w@w@w@w@x@y@z@A@B@B@B@B@C@a@a@a@T.d.D@E@F@B@G@H@I@J@w@w@w@w@w@K@L@M@  )@N@%   ",
"      O@s+P@Q@R@S@S@S@S@S@J@T@U@V@W@X@X@X@Y@Z@d.d.`@ #.#X@X@+#@###$#%#S@S@S@S@&#*#=#-#    b@b@  ",
"      : a@;#>#,#'#'#'#'#'#)#!#~#{#]#^#^#^#/#(#_#:#<#[#^#^#^#}#|#1#2#S@'#'#'#3#4#5#6#7#    ! 8#  ",
"        ) 9#0#a#b#b#b#b#b#b#c#d#e#f#g#g#g#h#i#j#k#l#g#g#g#g#m#n#o#p#b#q#r#s#6.6.t#u#v#    )@d.  ",
"        0@w#x#y#z#z#z#z#z#z#A#B#C#D#E#F#F#G#H#I#J#F#F#F#F#K#L#M#N#S@O#P#Q#Q#Q#Q#R#S#T#    U#s+  ",
"          V#W#X#Y#Z#`#`#`#`# $.$+$@$#$$$%$&$*$%$%$%$%$%$=$z#-$;$>$,$,$,$,$,$,$,$'$)$b   0@s+!$  ",
"          ~${$]$^$^$/$($~#_$:$<$[$}$|$1$2$3$4$%$%$5$6$7$8$9$0$a$b$^$^$^$^$^$^$^$c$d$e$0@'@b@    ",
"          f$g$h$i$i$i$i$i$i$i$i$j$k$l$m$n$o$p$q$q$p$r$s$t$u$v$w$i$i$i$i$i$i$i$i$x$y$z$s+'@0@    ",
"          A$B$C$D$D$D$D$D$D$D$D$D$E$F$G$H$I$J$J$J$J$I$K$L$M$N$D$D$D$D$D$D$D$D$D$O$P$Q$_         ",
"          R$S$T$U$U$U$U$U$U$U$U$U$U$U$V$W$X$Y$Z$`$ %.%+%@%U$U$U$U$U$U$U$U$U$U$U$#%$%%%          ",
"          &%*%=%-%-%-%-%-%-%-%-%-%-%-%-%-%;%>%,%'%)%;%-%-%-%-%-%-%-%-%-%-%-%-%-%!%~%{%          ",
"          ]%^%/%(%(%(%(%(%(%(%(%(%(%(%(%(%(%(%(%(%(%(%(%(%(%(%(%(%(%(%(%(%(%(%(%_%:%<%          ",
"          [%}%|%1%1%1%1%1%1%1%1%1%1%1%1%1%1%1%1%1%1%1%1%1%1%1%1%1%1%1%1%1%1%1%1%2%3%4%          ",
"          5%6%7%8%9%9%9%9%9%9%9%9%9%9%9%9%9%9%9%9%9%9%9%9%9%9%9%9%9%9%9%9%9%9%0%a%b%c%          ",
"          y d%e%f%g%h%i%i%i%i%i%i%i%i%i%i%i%i%i%i%i%i%i%i%i%i%i%i%i%i%i%i%j%k%l%m%n%            ",
"            o%p%q%r%s%s%s%s%s%s%s%s%s%s%s%s%s%s%s%s%s%s%s%s%s%s%s%s%s%s%s%s%t%u%v%o%            ",
"              y w%x%y%z%A%B%z%z%z%z%z%z%z%z%z%z%z%z%B%B%C%z%z%z%z%z%z%z%z%y%D%w%                ",
"                        : _                       : )@%                                         ",
"                          _ 0@                0@% %                                             ",
"                            :             0@: : 0@                                              ",
"                            0@:         0@: 0@                                                  ",
"                                0@    0@0@                                                      ",
"                                                                                                ",
"                                                                                                "};
