/* XPM */
static char * nautilus_mini_xpm[] = {
"16 16 110 2",
"  	c None",
". 	c #000000",
"+ 	c #1E1911",
"@ 	c #100D09",
"# 	c #4D4432",
"$ 	c #9B8357",
"% 	c #DABA7C",
"& 	c #FBD690",
"* 	c #BCA26D",
"= 	c #3C3322",
"- 	c #786644",
"; 	c #B29765",
"> 	c #EAC584",
", 	c #AB905F",
"' 	c #BEB8AB",
") 	c #FAD691",
"! 	c #F6D28F",
"~ 	c #F3CF8B",
"{ 	c #EFCB88",
"] 	c #E5C080",
"^ 	c #E1BB7C",
"/ 	c #DCB779",
"( 	c #D7B275",
"_ 	c #D0AC71",
": 	c #0D0B07",
"< 	c #7F7F7F",
"[ 	c #EBC684",
"} 	c #D0AB70",
"| 	c #C39D63",
"1 	c #BF9B6A",
"2 	c #CCB08C",
"3 	c #D9C7AE",
"4 	c #E7DAC3",
"5 	c #BFAD8C",
"6 	c #7F7F7E",
"7 	c #DEBE88",
"8 	c #C7A168",
"9 	c #BC9561",
"0 	c #C8AA83",
"a 	c #D5C1A6",
"b 	c #E8D5B8",
"c 	c #FFECCA",
"d 	c #FFE3B4",
"e 	c #FFDA9F",
"f 	c #FFD99E",
"g 	c #8F7A59",
"h 	c #3F3F3E",
"i 	c #D7BA8E",
"j 	c #CAAD86",
"k 	c #E8D7BF",
"l 	c #FFEED1",
"m 	c #FFE3B5",
"n 	c #FFDA9E",
"o 	c #FED89E",
"p 	c #FED79D",
"q 	c #FDD59B",
"r 	c #FBD399",
"s 	c #4E412F",
"t 	c #C9AA80",
"u 	c #EFE1CC",
"v 	c #FED69D",
"w 	c #FBD298",
"x 	c #F8D095",
"y 	c #F6CD92",
"z 	c #F3CA8E",
"A 	c #F1C78B",
"B 	c #C09F76",
"C 	c #FDE9C8",
"D 	c #FAD298",
"E 	c #F8CF95",
"F 	c #F6CC91",
"G 	c #F0C78A",
"H 	c #EEC487",
"I 	c #EBC183",
"J 	c #E9BE80",
"K 	c #E6BC7D",
"L 	c #3F3F3D",
"M 	c #C8AC88",
"N 	c #F8E3C1",
"O 	c #F0C68A",
"P 	c #EEC486",
"Q 	c #E6BB7C",
"R 	c #E4B979",
"S 	c #E1B675",
"T 	c #DEB372",
"U 	c #CDA467",
"V 	c #DCCBB6",
"W 	c #EECD9C",
"X 	c #E3B878",
"Y 	c #E1B575",
"Z 	c #DEB271",
"` 	c #D9AE6D",
" .	c #D2A767",
"..	c #C99E60",
"+.	c #9E7C4B",
"@.	c #534127",
"#.	c #CFB799",
"$.	c #E5C491",
"%.	c #D8AD6C",
"&.	c #D1A666",
"*.	c #C89D60",
"=.	c #927245",
"-.	c #695231",
";.	c #392C1A",
">.	c #0B0905",
",.	c #222120",
"'.	c #F7F2E4",
").	c #977D56",
"!.	c #5E492C",
"~.	c #2D2315",
"                                ",
"                                ",
"      . . + @       . . .       ",
"    # $ % & * . = - ; > , .     ",
"  . ' ) ! ~ { > ] ^ / ( _ : .   ",
"    < [ ] ^ / ( } | 1 2 3 4 5 . ",
"    6 7 _ 8 9 0 a b c d e f g   ",
"    h i j k l m n f o p q r s   ",
"    h t u f o v q w x y z A +   ",
"    h B C D E F z G H I J K .   ",
"    L M N O P I J Q R S T U .   ",
"    L V W Q X Y Z `  ...+.@..   ",
"    L #.$.%.&.*.=.-.;.>..       ",
"    ,.'.).!.~.. .               ",
"      . .                       ",
"                                "};
