/* XPM */
static char * pxcat_xpm[] = {
"48 48 625 2",
"  	c None",
". 	c #737173",
"+ 	c #7D7D7D",
"@ 	c #807F80",
"# 	c #807F7F",
"$ 	c #7E7E7E",
"% 	c #7B7B7B",
"& 	c #777777",
"* 	c #737373",
"= 	c #6D6D6D",
"- 	c #666666",
"; 	c #5D5C5D",
"> 	c #504E50",
", 	c #7D7C7D",
"' 	c #89898A",
") 	c #8E8E8E",
"! 	c #8F8F8F",
"~ 	c #919191",
"{ 	c #929292",
"] 	c #909090",
"^ 	c #8D8D8D",
"/ 	c #898989",
"( 	c #858585",
"_ 	c #7F7F7F",
": 	c #787878",
"< 	c #707070",
"[ 	c #676767",
"} 	c #5E5E5E",
"| 	c #545454",
"1 	c #464746",
"2 	c #868687",
"3 	c #969696",
"4 	c #9B9B9B",
"5 	c #9E9E9E",
"6 	c #A0A0A0",
"7 	c #9F9F9F",
"8 	c #9D9D9D",
"9 	c #989898",
"0 	c #959495",
"a 	c #8C8C8C",
"b 	c #868686",
"c 	c #808080",
"d 	c #797979",
"e 	c #666565",
"f 	c #595959",
"g 	c #4D4D4D",
"h 	c #3F3F3F",
"i 	c #949494",
"j 	c #A2A2A2",
"k 	c #A6A6A6",
"l 	c #A8A8A8",
"m 	c #A9A9A9",
"n 	c #A7A7A7",
"o 	c #A5A5A5",
"p 	c #A3A2A3",
"q 	c #9C9C9C",
"r 	c #838383",
"s 	c #7C7C7C",
"t 	c #747474",
"u 	c #6B6B6B",
"v 	c #5F5F5F",
"w 	c #505050",
"x 	c #424242",
"y 	c #919091",
"z 	c #A3A3A3",
"A 	c #AAAAAA",
"B 	c #ADADAD",
"C 	c #AFAFAF",
"D 	c #B0B0B0",
"E 	c #AEAEAE",
"F 	c #ACACAD",
"G 	c #A1A2A2",
"H 	c #99999A",
"I 	c #959595",
"J 	c #8A8A8A",
"K 	c #848484",
"L 	c #757575",
"M 	c #6C6C6C",
"N 	c #616161",
"O 	c #525252",
"P 	c #414141",
"Q 	c #333333",
"R 	c #969797",
"S 	c #AAAAA9",
"T 	c #B2B2B2",
"U 	c #B4B4B4",
"V 	c #B5B5B5",
"W 	c #B0B1B0",
"X 	c #ACACAC",
"Y 	c #999999",
"Z 	c #606060",
"` 	c #303030",
" .	c #B3B3B3",
"..	c #B6B6B6",
"+.	c #B8B8B8",
"@.	c #B9B9B9",
"#.	c #B7B7B7",
"$.	c #B4B3B4",
"%.	c #B1B1B1",
"&.	c #A1A1A1",
"*.	c #939393",
"=.	c #888888",
"-.	c #828282",
";.	c #7A7A7A",
">.	c #727272",
",.	c #686868",
"'.	c #5D5D5D",
").	c #4F4F4F",
"!.	c #3B3B3B",
"~.	c #2A2A2A",
"{.	c #999899",
"].	c #A4A4A4",
"^.	c #BBBBBB",
"/.	c #BCBCBC",
"(.	c #ABABAB",
"_.	c #6E6E6E",
":.	c #646464",
"<.	c #4A4A4A",
"[.	c #353535",
"}.	c #232323",
"|.	c #BABABA",
"1.	c #BDBDBD",
"2.	c #BEBEBE",
"3.	c #BFBFBF",
"4.	c #6A6A6A",
"5.	c #2C2C2C",
"6.	c #1A1A1A",
"7.	c #A1A0A1",
"8.	c #C0C0C0",
"9.	c #C1C1C1",
"0.	c #9A9A9A",
"a.	c #8B8B8B",
"b.	c #848485",
"c.	c #767676",
"d.	c #585858",
"e.	c #4B4B4B",
"f.	c #393939",
"g.	c #222222",
"h.	c #C2C2C2",
"i.	c #B2B1B1",
"j.	c #797879",
"k.	c #717071",
"l.	c #515151",
"m.	c #2D2D2D",
"n.	c #171717",
"o.	c #939291",
"p.	c #C3C3C3",
"q.	c #959699",
"r.	c #74757D",
"s.	c #62656F",
"t.	c #61646F",
"u.	c #6F727C",
"v.	c #87898E",
"w.	c #9D9D9E",
"x.	c #979797",
"y.	c #878787",
"z.	c #818181",
"A.	c #555555",
"B.	c #484848",
"C.	c #373737",
"D.	c #1E1E1E",
"E.	c #090909",
"F.	c #C4C4C4",
"G.	c #B1B1B2",
"H.	c #6C6F77",
"I.	c #2B3142",
"J.	c #131D34",
"K.	c #101E3A",
"L.	c #10213F",
"M.	c #112345",
"N.	c #122241",
"O.	c #152240",
"P.	c #2A334E",
"Q.	c #5E6476",
"R.	c #909194",
"S.	c #636363",
"T.	c #4C4C4C",
"U.	c #3D3D3D",
"V.	c #282828",
"W.	c #111110",
"X.	c #8A8889",
"Y.	c #B8B8B9",
"Z.	c #909195",
"`.	c #2A2F3E",
" +	c #0F1B33",
".+	c #0E213E",
"++	c #0F2546",
"@+	c #0F2749",
"#+	c #102748",
"$+	c #112B4E",
"%+	c #10294E",
"&+	c #102A51",
"*+	c #142F5C",
"=+	c #19305E",
"-+	c #293454",
";+	c #717581",
">+	c #5A5A5A",
",+	c #2F2F2F",
"'+	c #161616",
")+	c #020102",
"!+	c #7F8084",
"~+	c #171D2E",
"{+	c #0D1D37",
"]+	c #0E2241",
"^+	c #0E2342",
"/+	c #122743",
"(+	c #112846",
"_+	c #152D49",
":+	c #183251",
"<+	c #132C4E",
"[+	c #152E50",
"}+	c #16386A",
"|+	c #15386D",
"1+	c #163365",
"2+	c #1D2C52",
"3+	c #5F6372",
"4+	c #8C8C8D",
"5+	c #656565",
"6+	c #5C5C5C",
"7+	c #444444",
"8+	c #343434",
"9+	c #1D1D1D",
"0+	c #070606",
"a+	c #929396",
"b+	c #0C1C35",
"c+	c #0D213D",
"d+	c #0E223E",
"e+	c #0E2340",
"f+	c #162E4A",
"g+	c #1C3856",
"h+	c #163054",
"i+	c #254567",
"j+	c #193558",
"k+	c #214164",
"l+	c #193A68",
"m+	c #15376A",
"n+	c #143667",
"o+	c #163669",
"p+	c #20325E",
"q+	c #6A6F7D",
"r+	c #464646",
"s+	c #0B0B0B",
"t+	c #A0A09F",
"u+	c #B7B7B6",
"v+	c #B5B5B6",
"w+	c #2A2E3A",
"x+	c #0D1B33",
"y+	c #0D203B",
"z+	c #0E1F38",
"A+	c #172C42",
"B+	c #142B49",
"C+	c #16335B",
"D+	c #284B6D",
"E+	c #1D3F6B",
"F+	c #39658A",
"G+	c #1D406C",
"H+	c #204980",
"I+	c #193F78",
"J+	c #153666",
"K+	c #1A3A66",
"L+	c #193D70",
"M+	c #19396E",
"N+	c #2F3F6B",
"O+	c #7C7E83",
"P+	c #535353",
"Q+	c #474747",
"R+	c #272727",
"S+	c #0D0D0D",
"T+	c #010201",
"U+	c #8E8F8E",
"V+	c #6F7176",
"W+	c #0C1629",
"X+	c #0C1F3A",
"Y+	c #1E314D",
"Z+	c #A4AFBE",
"`+	c #64788C",
" @	c #2F506B",
".@	c #193863",
"+@	c #204575",
"@@	c #538AAC",
"#@	c #497EA7",
"$@	c #2F5B89",
"%@	c #2D5D98",
"&@	c #1C488A",
"*@	c #1F477D",
"=@	c #224774",
"-@	c #1B4077",
";@	c #1A4584",
">@	c #1C376D",
",@	c #51576E",
"'@	c #656665",
")@	c #3A3A3A",
"!@	c #292929",
"~@	c #101010",
"{@	c #000001",
"]@	c #2D313F",
"^@	c #0C1C34",
"/@	c #48586E",
"(@	c #FEFFFF",
"_@	c #C1CDDB",
":@	c #325672",
"<@	c #396384",
"[@	c #102441",
"}@	c #121D22",
"|@	c #0F1920",
"1@	c #162D47",
"2@	c #275186",
"3@	c #2B5B96",
"4@	c #30629E",
"5@	c #275389",
"6@	c #1C447D",
"7@	c #1A4483",
"8@	c #1B417E",
"9@	c #31416F",
"0@	c #7A7C7F",
"a@	c #474848",
"b@	c #131313",
"c@	c #010101",
"d@	c #B6B6B5",
"e@	c #9E9FA1",
"f@	c #131B2F",
"g@	c #0D1F39",
"h@	c #0E2039",
"i@	c #112440",
"j@	c #5D7189",
"k@	c #334C6D",
"l@	c #1C3C63",
"m@	c #0C141B",
"n@	c #000000",
"o@	c #101A1F",
"p@	c #5594C3",
"q@	c #376EAD",
"r@	c #2A5C9C",
"s@	c #1D4888",
"t@	c #1C4581",
"u@	c #21386C",
"v@	c #676A76",
"w@	c #5B5B5B",
"x@	c #141414",
"y@	c #7F8186",
"z@	c #0F1A31",
"A@	c #12253C",
"B@	c #152B45",
"C@	c #143056",
"D@	c #1F3E61",
"E@	c #162A3D",
"F@	c #193352",
"G@	c #3F79B5",
"H@	c #265CAB",
"I@	c #1F4984",
"J@	c #204574",
"K@	c #1A4075",
"L@	c #1C376A",
"M@	c #555B6F",
"N@	c #696969",
"O@	c #626262",
"P@	c #393938",
"Q@	c #6C6E75",
"R@	c #0D1930",
"S@	c #10233C",
"T@	c #1D354D",
"U@	c #32546E",
"V@	c #467491",
"W@	c #111B20",
"X@	c #0E181F",
"Y@	c #4982B3",
"Z@	c #2B5EA0",
"`@	c #214C87",
" #	c #224776",
".#	c #1B4278",
"+#	c #1D3B72",
"@#	c #4D5670",
"##	c #757574",
"$#	c #6B6D75",
"%#	c #0E1C35",
"&#	c #0E233F",
"*#	c #122642",
"=#	c #183250",
"-#	c #214166",
";#	c #224672",
">#	c #08121F",
",#	c #0E1820",
"'#	c #4783BD",
")#	c #3167AA",
"!#	c #295894",
"~#	c #1F477F",
"{#	c #1D4885",
"]#	c #1E3E77",
"^#	c #4B526B",
"/#	c #565656",
"(#	c #252525",
"_#	c #7A7C82",
":#	c #0F1C36",
"<#	c #0F2545",
"[#	c #112642",
"}#	c #132A48",
"|#	c #173764",
"1#	c #2E5883",
"2#	c #2E4C5E",
"3#	c #315166",
"4#	c #3B76B8",
"5#	c #275DAA",
"6#	c #295485",
"7#	c #1D4171",
"8#	c #1A4380",
"9#	c #1D386D",
"0#	c #505568",
"a#	c #3F3E3F",
"b#	c #313131",
"c#	c #212121",
"d#	c #96979A",
"e#	c #141E37",
"f#	c #0F274C",
"g#	c #112A4D",
"h#	c #132F57",
"i#	c #294F77",
"j#	c #4578A2",
"k#	c #2F5F95",
"l#	c #0E1925",
"m#	c #0A1626",
"n#	c #5392C6",
"o#	c #6AB2DC",
"p#	c #2A5DA0",
"q#	c #214B85",
"r#	c #1E467F",
"s#	c #1C4580",
"t#	c #213667",
"u#	c #5F626C",
"v#	c #2E2E2E",
"w#	c #2D3448",
"x#	c #122A52",
"y#	c #12305E",
"z#	c #153159",
"A#	c #264A73",
"B#	c #1E467E",
"C#	c #396CA0",
"D#	c #3268AA",
"E#	c #274661",
"F#	c #142129",
"G#	c #0D1825",
"H#	c #213A50",
"I#	c #3B70A8",
"J#	c #326BB2",
"K#	c #4582C1",
"L#	c #3063A2",
"M#	c #204E92",
"N#	c #1D4B8D",
"O#	c #1D4482",
"P#	c #2F3F6C",
"Q#	c #6C6D70",
"R#	c #434343",
"S#	c #191919",
"T#	c #050505",
"U#	c #A6A6A7",
"V#	c #AFAFAE",
"W#	c #696D78",
"X#	c #142649",
"Y#	c #13315F",
"Z#	c #14315B",
"`#	c #143360",
" $	c #1B3F73",
".$	c #316298",
"+$	c #33659D",
"@$	c #5697C8",
"#$	c #518CBC",
"$$	c #3366A0",
"%$	c #457EB6",
"&$	c #2A5A98",
"*$	c #3269AE",
"=$	c #4780B6",
"-$	c #386999",
";$	c #234F8B",
">$	c #205199",
",$	c #234381",
"'$	c #4C546F",
")$	c #494949",
"!$	c #242424",
"~$	c #ACABAC",
"{$	c #A0A0A2",
"]$	c #2D354E",
"^$	c #132C56",
"/$	c #14325E",
"($	c #153463",
"_$	c #1C3E6B",
":$	c #386792",
"<$	c #2D5C93",
"[$	c #447CB0",
"}$	c #326296",
"|$	c #235295",
"1$	c #2E5F9B",
"2$	c #204F94",
"3$	c #1F4A88",
"4$	c #295792",
"5$	c #2A5689",
"6$	c #204686",
"7$	c #2E3E6B",
"8$	c #696A70",
"9$	c #4E4E4E",
"0$	c #454545",
"a$	c #1F1F1F",
"b$	c #0C0C0C",
"c$	c #030202",
"d$	c #808289",
"e$	c #1E2B4D",
"f$	c #153262",
"g$	c #153669",
"h$	c #244A76",
"i$	c #1C4173",
"j$	c #2B578B",
"k$	c #264D7B",
"l$	c #20477A",
"m$	c #1A4077",
"n$	c #1A3E73",
"o$	c #1D4785",
"p$	c #1F4E91",
"q$	c #1F498A",
"r$	c #2A4179",
"s$	c #5A5E6F",
"t$	c #515152",
"u$	c #404040",
"v$	c #181818",
"w$	c #737272",
"x$	c #9FA09F",
"y$	c #707481",
"z$	c #1E2C4E",
"A$	c #173568",
"B$	c #173B71",
"C$	c #193E73",
"D$	c #183D75",
"E$	c #1A4079",
"F$	c #193B6A",
"G$	c #193C6E",
"H$	c #1D4681",
"I$	c #194079",
"J$	c #1A427D",
"K$	c #19427D",
"L$	c #1F4686",
"M$	c #273C70",
"N$	c #555C73",
"O$	c #5C5B5B",
"P$	c #010100",
"Q$	c #636665",
"R$	c #919090",
"S$	c #A09F9F",
"T$	c #797C86",
"U$	c #2F3B5D",
"V$	c #1B3364",
"W$	c #183A71",
"X$	c #193F7A",
"Y$	c #19417D",
"Z$	c #163B72",
"`$	c #173C74",
" %	c #1B4687",
".%	c #1B4483",
"+%	c #1A3D75",
"@%	c #1B3464",
"#%	c #2B385F",
"$%	c #5B6071",
"%%	c #575757",
"&%	c #070707",
"*%	c #030302",
"=%	c #8C8D90",
"-%	c #5C6174",
";%	c #2F3B5F",
">%	c #213668",
",%	c #1A3263",
"'%	c #193261",
")%	c #193363",
"!%	c #1D386C",
"~%	c #2D3B62",
"{%	c #4A5064",
"]%	c #6B6C6F",
"^%	c #6F6F6F",
"/%	c #656464",
"(%	c #383838",
"_%	c #202020",
":%	c #5C5D5E",
"<%	c #6F7070",
"[%	c #959696",
"}%	c #949594",
"|%	c #949393",
"1%	c #89898B",
"2%	c #757983",
"3%	c #5D6171",
"4%	c #52596D",
"5%	c #51576C",
"6%	c #585D6E",
"7%	c #676A75",
"8%	c #737476",
"9%	c #605F5F",
"0%	c #020201",
"a%	c #717171",
"b%	c #797A79",
"c%	c #1B1B1B",
"d%	c #5A5A59",
"e%	c #3E3E3E",
"f%	c #2B2B2B",
"g%	c #020202",
"h%	c #828181",
"i%	c #363636",
"j%	c #121212",
"k%	c #040404",
"l%	c #767777",
"m%	c #131413",
"n%	c #4E4F4E",
"o%	c #6A6A69",
"p%	c #3A3B3A",
"q%	c #525353",
"r%	c #010202",
"s%	c #252424",
"t%	c #1B1C1B",
"u%	c #111111",
"v%	c #060606",
"w%	c #010000",
"x%	c #292829",
"y%	c #303031",
"z%	c #424141",
"A%	c #3C3C3C",
"B%	c #1D1D1E",
"C%	c #252625",
"D%	c #0C0B0C",
"E%	c #020203",
"F%	c #101110",
"G%	c #151515",
"H%	c #141415",
"                                                                                                ",
"                                                                                                ",
"                                    . + @ # $ % & * = - ; >                                     ",
"                              , ' ) ! ~ { ~ ] ^ / ( _ : < [ } | 1                               ",
"                          2 ~ 3 4 5 6 6 7 8 4 9 0 ] a b c d < e f g h                           ",
"                        i 4 j k l m m l n o p 6 q 9 i ! / r s t u v w x                         ",
"                    y 4 z A B C D D C E F A l o G 5 H I ] J K + L M N O P Q                     ",
"                  R 6 S C T U V V V U T W E X m o j 5 Y I ] J r s t u Z O h `                   ",
"                Y z B  ...+.@.@.@.+.#.V $.%.C X l o &.8 9 *.) =.-.;.>.,.'.).!.~.                ",
"              {.].C V @.^././././.^.@.+... .%.E (.n z 7 4 3 ~ a b _ & _.:.f <.[.}.              ",
"            i z D ..|.1.2.3.3.3.2.1.^.@.#.V T D X m o &.8 9 *.) =.-.% * 4.v O x 5.6.            ",
"            7.E ..^.2.8.9.9.9.8.3.2./.^.@...U %.B A k j 5 0.I ] a.b.$ c._.:.d.e.f.g.            ",
"          q A V |.2.8.h.h.h.h.9.8.3.1.^.@.#.U i.E (.n z 7 4 3 ~ a b c j.k.[ '.l.x m.n.          ",
"        o.].%.@.1.8.h.p.p.p.p.h.9.3.2./. .q.r.s.t.u.v.w.6 q x.{ ^ y.z.;.>.4.Z A.B.C.D.E.        ",
"        8 X ../.3.h.p.F.F.F.p.h.9.8.G.H.I.J.K.L.M.N.O.P.Q.R.x.*.^ =.-.% t M S.d.T.U.V.W.        ",
"      X.j %.Y.1.8.h.F.F.F.F.p.h.9.Z.`. +.+++@+#+$+%+&+*+=+-+;+{ ) =.-.s L = :.>+).P ,+'+)+      ",
"      9 l U |.2.9.p.F.F.F.F.p.h.!+~+{+]+^+/+(+_+:+<+[+}+|+1+2+3+4+=.-.s L _.5+6+l.7+8+9+0+      ",
"      8 X ..^.3.9.p.F.F.F.p.p.a+~+b+c+d+e+f+g+h+i+j+k+l+m+n+o+p+q+y.-.s L _.- '.O r+C.}.s+      ",
"      t+C u+/.3.9.h.p.p.p.p.v+w+x+y+z+A+B+C+D+E+F+G+H+I+J+K+L+M+N+O+z.% L _.- '.P+Q+f.R+S+T+    ",
"    U+j D #.^.2.8.h.h.h.h.h.V+W+X+Y+Z+`+ @.@+@@@#@$@%@&@*@=@-@;@>@,@c ;.t = '@'.P+B.)@!@~@{@    ",
"    *.].D ..^.2.3.9.9.9.9.^.]@^@X+/@(@_@:@<@[@}@|@1@2@3@4@5@6@7@8@9@0@d * M 5+6+P+a@)@~.b@c@    ",
"    i o C d@|./.2.3.8.8.8.e@f@g@h@i@j@k@l@m@n@n@n@n@o@p@q@r@s@t@&@u@v@: >.u :.w@O Q+)@~.x@c@    ",
"    i ].E U +.^.1.2.2.2.2.y@z@y+A@B@C@D@E@n@n@n@n@n@n@F@G@H@I@J@K@L@M@c.< N@O@>+w r+P@!@x@c@    ",
"    { j X T ..@.^././././.Q@R@g@S@T@U@V@W@n@n@n@n@n@n@X@Y@Z@`@ #.#+#@###_.,.Z d.).7+C.R+b@c@    ",
"    ! 6 A D U #.+.@.|.|.|.$#%#&#*#=#-#;#>#n@n@n@n@n@n@,#'#)#!#~#{#]#^#>.M 5+} /#T.P 8+(#~@n@    ",
"    a q n B %.U ..#.#.+.#._#:#<#[#}#|#1#2#n@n@n@n@n@n@3#4#5#6#7#8#9#0#< 4.S.w@P+<.a#b#c#S+n@    ",
"    y.9 z A E %. .U V V V d#e#f#g#h#i#j#k#l#n@n@n@n@m#n#o#p#q#r#s#t#u#= [ Z d.w r+!.v#9+E.n@    ",
"    z.*.7 k A E D %.T T T F w#x#y#z#A#B#C#D#E#F#G#H#I#J#K#L#M#N#O#P#Q#4.:.'.A.g R#C.!@S#T#n@    ",
"    : a.0.&.U#A X E C C C V#W#X#Y#Z#`# $.$+$@$#$$$%$&$*$=$-$;$>$,$'$= [ N f O )$h Q !$b@c@c@    ",
"      K i q j k l A (.~$X (.{$]$^$/$($_$:$<$[$}$|$1$2$3$4$5$`@6$7$8$4.:.'./#9$0$)@v#a$b$n@c$    ",
"      s a x.8 &.].k n l l l n d$e$f$g$E+h$i$j$k$l$`@m$n$o$p$q$r$s$M - Z f t$)$u$[.V.v$T#n@      ",
"      w$r ] x.q x$j z ].].].z j y$z$A$B$C$D$E$F$G$H$I$J$K$L$M$N$= ,.O@O$A.g 7+)@,+c#~@c@P$      ",
"      Q$: =.R$3 0.8 5 7 6 S$7 5 q T$U$V$W$X$Y$Z$`$ %.%+%@%#%$%_.N@S.'.%%w B.h 8+V.S#&%n@*%      ",
"        = + / ! i x.Y 0.4 4 0.Y 9 x.=%-%;%>%,%'%)%!%t#~%{%]%^%4./%v f O <.x (%m._%~@c@n@        ",
"        :%<%_ y.^ ~ *.I [%3 I }%|%{ ~ ! 1%2%3%4%5%6%7%8%* ^%4.5+9%>+P+T.7+!.b#(#'+T#n@0%        ",
"          S.a%$ ( / a ) ! ] ] ! ) ^ a J =.b r c + b%c.>._.N@5+9%>+| g r+U.8+V.c%s+n@c@          ",
"            S.a%% z.( y./ / J / / =.b ( r c $ % : t < = ,.:.v d%| g r+e%[.f%D.~@g%n@            ",
"            P+Z _.c.% _ z.-.r r -.h%c _ + % : L >._.u [ O@} d.P+g r+e%i%5._%j%k%n@c@            ",
"              l.6+N@< L : ;.% % % % ;.: l%t >.^%M ,.:.Z w@%%l.e.0$U.[.f%_%m%T#n@c@              ",
"                T./#O@N@= < >.* * * >.a%^%= u ,.:.N '.d.| n%)$x !.Q ~.a$b@T#n@c@                ",
"                  0$g d.Z :.[ N@o%4.N@,.[ 5+S.Z 6+d.| w e.0$h (%` R+9+~@k%n@c@                  ",
"                    p%R#T.A.f 6+} v v } '.w@f /#q%).<.0$u$)@Q f%g.v$b$g%n@r%                    ",
"                        (%e%r+T.).l.O O l.).g <.Q+R#e%f.Q 5.s%t%u%v%w%w%                        ",
"                          x%y%[.p%h z%x x P h A%f.8+,+!@}.c%u%&%c@n@c@                          ",
"                              B%!$R+!@f%m.m.5.!@C%c#c%x@D%T#c@n@E%                              ",
"                                    F%b@G%H%b@~@S+E.T#c@c@g%                                    ",
"                                                                                                ",
"                                                                                                "};
