/* XPM */
static char * rush_top_mini_xpm[] = {
"16 16 92 2",
"  	c None",
". 	c #B1B1B1",
"+ 	c #B8B8B8",
"@ 	c #6C6C6C",
"# 	c #7F7F7F",
"$ 	c #848484",
"% 	c #7A7A7A",
"& 	c #888888",
"* 	c #929292",
"= 	c #AEAEAE",
"- 	c #A0A0A0",
"; 	c #676767",
"> 	c #818181",
", 	c #8B8B8B",
"' 	c #646464",
") 	c #777777",
"! 	c #474747",
"~ 	c #7C7C7C",
"{ 	c #4F4F4F",
"] 	c #696969",
"^ 	c #9E9E9E",
"/ 	c #909090",
"( 	c #A1A1A1",
"_ 	c #9A9A9A",
": 	c #B3B3B3",
"< 	c #A9A9A9",
"[ 	c #939393",
"} 	c #333390",
"| 	c #3333AA",
"1 	c #337568",
"2 	c #33AA33",
"3 	c #0000C6",
"4 	c #0000FF",
"5 	c #008E71",
"6 	c #00FF00",
"7 	c #979797",
"8 	c #989898",
"9 	c #757575",
"0 	c #5E5E5E",
"a 	c #595959",
"b 	c #878787",
"c 	c #858585",
"d 	c #66668E",
"e 	c #666699",
"f 	c #66837D",
"g 	c #669966",
"h 	c #575757",
"i 	c #717171",
"j 	c #000091",
"k 	c #0000BB",
"l 	c #536800",
"m 	c #00BB00",
"n 	c #8D8D8D",
"o 	c #949494",
"p 	c #718E00",
"q 	c #0000B9",
"r 	c #0000EE",
"s 	c #6A8400",
"t 	c #00EE00",
"u 	c #666666",
"v 	c #ACAC00",
"w 	c #A8A800",
"x 	c #0F0F00",
"y 	c #F2F200",
"z 	c #535300",
"A 	c #575700",
"B 	c #F0F000",
"C 	c #0D0D00",
"D 	c #737373",
"E 	c #4B4B4B",
"F 	c #424200",
"G 	c #FBFB00",
"H 	c #171700",
"I 	c #979700",
"J 	c #BDBD00",
"K 	c #040400",
"L 	c #E8E800",
"M 	c #686800",
"N 	c #6E6E6E",
"O 	c #868686",
"P 	c #AFAFAF",
"Q 	c #11110D",
"R 	c #A8A80D",
"S 	c #51510D",
"T 	c #3A3A0D",
"U 	c #B3B30D",
"V 	c #1C1C0D",
"W 	c #73730D",
"X 	c #89890D",
"Y 	c #B7B7B7",
"Z 	c #5A8E5A",
"` 	c #5A9E5A",
". . . . . . . + . . . . . . . . ",
"@ # $ # % & * = - - - - ; # > , ",
"' ) ' ! ~ { ~ = - - - - ) ' ] ; ",
"^ ^ ^ / ( _ ( : < < < < / , _ [ ",
"< < < < < < < : } | 1 2 2 2 2 2 ",
"- - - - - - - = 3 4 5 6 6 6 6 6 ",
"- - 7 * 8 _ - = 3 4 5 6 6 6 6 6 ",
"9 9 0 a b c ; = d e f g g g g g ",
"9 9 h ; & # i = j k k k l m m m ",
"- n o - - - - = 3 4 4 4 p 6 6 6 ",
"- - - - - - - = q r r r s t t t ",
". . . . . . . + u u u u u u u u ",
"* * & 9 & % * = v w x y z A B C ",
"D D E E $ 9 ; = F G H I J K L M ",
"& 9 N o O O > P Q R S T U V W X ",
"P P P P P P P Y Z ` ` ` ` ` ` ` "};
