/* XPM */
static char * shake_mini_xpm[] = {
"16 16 191 2",
"  	c None",
". 	c #FFFFFF",
"+ 	c #FEFFFE",
"@ 	c #FFFFFE",
"# 	c #FFFEFF",
"$ 	c #FAFAFA",
"% 	c #E5E5E6",
"& 	c #C0C1C4",
"* 	c #999A9F",
"= 	c #84858B",
"- 	c #B6B6BA",
"; 	c #FEFEFE",
"> 	c #FCFCFD",
", 	c #ECECED",
"' 	c #CFCFD1",
") 	c #ACACB1",
"! 	c #92929F",
"~ 	c #7D7B98",
"{ 	c #746F9C",
"] 	c #7770AB",
"^ 	c #8880CB",
"/ 	c #9186D9",
"( 	c #7B7D85",
"_ 	c #76787F",
": 	c #FBFBFC",
"< 	c #81828A",
"[ 	c #7B7A8B",
"} 	c #8B80CE",
"| 	c #9A8FE8",
"1 	c #A497F9",
"2 	c #A498FC",
"3 	c #9F93FA",
"4 	c #9B8EFA",
"5 	c #8F83F7",
"6 	c #8A7FF9",
"7 	c #454565",
"8 	c #5C5E66",
"9 	c #F8F8F8",
"0 	c #797A82",
"a 	c #555663",
"b 	c #9286F1",
"c 	c #9286F7",
"d 	c #9286F8",
"e 	c #8B80F8",
"f 	c #8075F6",
"g 	c #776EF6",
"h 	c #766FF7",
"i 	c #5E5B9C",
"j 	c #484A52",
"k 	c #C5C6C9",
"l 	c #93949A",
"m 	c #A2A3A7",
"n 	c #786FD0",
"o 	c #887BF7",
"p 	c #8277F8",
"q 	c #786EF6",
"r 	c #6A62EE",
"s 	c #5751E0",
"t 	c #433FD3",
"u 	c #4D4ADD",
"v 	c #5A58BC",
"w 	c #696B71",
"x 	c #97989E",
"y 	c #FDFDFD",
"z 	c #9B9CA2",
"A 	c #3A3D46",
"B 	c #49459C",
"C 	c #4A42D4",
"D 	c #413CD2",
"E 	c #3E3AD1",
"F 	c #413DD8",
"G 	c #4745E5",
"H 	c #2F2DC4",
"I 	c #2C2AC4",
"J 	c #6664EE",
"K 	c #444654",
"L 	c #4B4D55",
"M 	c #D6D7D9",
"N 	c #6D6E76",
"O 	c #575861",
"P 	c #91939C",
"Q 	c #5D5A9A",
"R 	c #625AF4",
"S 	c #5854F3",
"T 	c #524FF2",
"U 	c #4D4BF1",
"V 	c #4A49EF",
"W 	c #2323C2",
"X 	c #1817B2",
"Y 	c #5E5DEF",
"Z 	c #52537D",
"` 	c #7A7C82",
" .	c #E6E6E6",
"..	c #E8E8EB",
"+.	c #595B64",
"@.	c #6E6F79",
"#.	c #21232E",
"$.	c #2A2C51",
"%.	c #5D57F5",
"&.	c #5250F1",
"*.	c #514FF2",
"=.	c #504FF4",
"-.	c #4F4DEF",
";.	c #3E3DC4",
">.	c #32319B",
",.	c #3F408C",
"'.	c #404160",
").	c #575961",
"!.	c #BDBEC2",
"~.	c #FBFBFB",
"{.	c #676870",
"].	c #7F8089",
"^.	c #666874",
"/.	c #78798C",
"(.	c #5756CC",
"_.	c #4949A7",
":.	c #424286",
"<.	c #44466F",
"[.	c #52546E",
"}.	c #60617E",
"|.	c #4E5058",
"1.	c #74757D",
"2.	c #EDEDEE",
"3.	c #656770",
"4.	c #3E404A",
"5.	c #5F616C",
"6.	c #5C5E71",
"7.	c #7C7E90",
"8.	c #9A9BB6",
"9.	c #B0B1D4",
"0.	c #B8B8E3",
"a.	c #B2B2DC",
"b.	c #ACACD7",
"c.	c #41444F",
"d.	c #4D4E57",
"e.	c #EDEDF1",
"f.	c #FDFDFE",
"g.	c #86888E",
"h.	c #818289",
"i.	c #9FA1AD",
"j.	c #C0C1D9",
"k.	c #BEBFDB",
"l.	c #B8B9D0",
"m.	c #B0B1C7",
"n.	c #A5A6B8",
"o.	c #999AAA",
"p.	c #9192A0",
"q.	c #545762",
"r.	c #5C5E69",
"s.	c #D0D0D5",
"t.	c #FCFBFC",
"u.	c #909297",
"v.	c #171A24",
"w.	c #7D7F87",
"x.	c #A3A4AE",
"y.	c #A2A3AE",
"z.	c #9FA1AA",
"A.	c #999AA3",
"B.	c #888A93",
"C.	c #767781",
"D.	c #676971",
"E.	c #545560",
"F.	c #5B5B66",
"G.	c #B8B8BE",
"H.	c #F9F8FA",
"I.	c #AFB0B4",
"J.	c #71737B",
"K.	c #6E7077",
"L.	c #585A63",
"M.	c #484A53",
"N.	c #474954",
"O.	c #5B5D68",
"P.	c #7A7B85",
"Q.	c #97979F",
"R.	c #B1B1B9",
"S.	c #CCCCD2",
"T.	c #E6E5E9",
"U.	c #FAFAFB",
"V.	c #D9D9DC",
"W.	c #41434C",
"X.	c #65666F",
"Y.	c #898A91",
"Z.	c #ADADB4",
"`.	c #CBCBD1",
" +	c #DEDEE2",
".+	c #E7E7EA",
"++	c #EDEDEF",
"@+	c #F2F1F3",
"#+	c #F5F5F6",
"$+	c #F8F8F9",
"%+	c #FCFCFC",
". . . . . . . + @ . @ # . . . . ",
". . . . @ + . . $ % & * = - ; . ",
". . > , ' ) ! ~ { ] ^ / ( _ . . ",
"+ : < [ } | 1 2 3 4 5 6 7 8 9 . ",
". . 0 a b c c d e f g h i j k . ",
"@ . l m n o p q r s t u v w x . ",
". y z A B C D E F G H I J K L . ",
"M N O P Q R S T U V W X Y Z `  .",
"..+.@.#.$.%.&.*.=.-.;.>.,.'.).!.",
"~.{.].^./.(._.:.<.[.}.|.1.2.; @ ",
". 3.4.5.6.7.8.9.0.a.b.c.d.e.f.. ",
". g.h.i.j.k.l.m.n.o.p.q.r.s.t.. ",
". u.v.w.x.y.z.A.B.C.D.E.F.G.H.. ",
". I.J.).K.L.M.N.O.P.Q.R.S.T.U.. ",
"@ V.W.X.Y.Z.`. +.+++@+#+$+%+; . ",
". . . . . . . . . . . . . . . . "};
