/* XPM */
static char * shake_xpm[] = {
"48 48 256 2",
"  	c #FEFEFE",
". 	c #3F414E",
"+ 	c #474996",
"@ 	c #9188D3",
"# 	c #272A35",
"$ 	c #F5F5F6",
"% 	c #645CEF",
"& 	c #0E0EAA",
"* 	c #EBEAEE",
"= 	c #4948EF",
"- 	c #686A71",
"; 	c #BFC0DD",
"> 	c #64656D",
", 	c #5A5B65",
"' 	c #D9D9DB",
") 	c #93939B",
"! 	c #A3A4AC",
"~ 	c #ECEDF5",
"{ 	c #999BA2",
"] 	c #2B26B5",
"^ 	c #A7A8C6",
"/ 	c #CBCACF",
"( 	c #BABAE7",
"_ 	c #4C4BF1",
": 	c #4C4CB3",
"< 	c #746CF5",
"[ 	c #FEFFFD",
"} 	c #9184FA",
"| 	c #CDCDF6",
"1 	c #AAABD9",
"2 	c #B0B0B0",
"3 	c #D5D4D9",
"4 	c #E3E3E5",
"5 	c #A5A5A5",
"6 	c #F9F9F9",
"7 	c #FCFCFC",
"8 	c #D3D3F3",
"9 	c #383970",
"0 	c #5753E7",
"a 	c #727379",
"b 	c #E4E4E9",
"c 	c #CBCBD1",
"d 	c #DCDCE0",
"e 	c #C3C2CA",
"f 	c #998DFA",
"g 	c #746EA9",
"h 	c #AAAAB4",
"i 	c #B2B4B9",
"j 	c #F1F1F1",
"k 	c #C3C3C4",
"l 	c #7B73F5",
"m 	c #848589",
"n 	c #32353B",
"o 	c #151822",
"p 	c #0A0D18",
"q 	c #4641D7",
"r 	c #8E81F7",
"s 	c #5451F3",
"t 	c #ADADBA",
"u 	c #504EF1",
"v 	c #B3B4C4",
"w 	c #8A7CF6",
"x 	c #F6F6F7",
"y 	c #B1B1CE",
"z 	c #A193FB",
"A 	c #8F919A",
"B 	c #9FA0A8",
"C 	c #7C7D85",
"D 	c #A99CFD",
"E 	c #4D4E5A",
"F 	c #958AF9",
"G 	c #23262F",
"H 	c #F0F0F0",
"I 	c #3834CB",
"J 	c #8179FC",
"K 	c #7F8188",
"L 	c #5B55F1",
"M 	c #9D90FA",
"N 	c #53545D",
"O 	c #8B8D94",
"P 	c #42444D",
"Q 	c #6262F2",
"R 	c #A398FA",
"S 	c #363959",
"T 	c #2C2F3A",
"U 	c #716CCF",
"V 	c #716DFC",
"W 	c #FAFAFA",
"X 	c #897DFE",
"Y 	c #B2A4FF",
"Z 	c #BDBDF5",
"` 	c #494B54",
" .	c #BDBEC8",
"..	c #434452",
"+.	c #BBBBDB",
"@.	c #3A3C4A",
"#.	c #313341",
"$.	c #C1C2EB",
"%.	c #BABAC1",
"&.	c #7C71FA",
"*.	c #3B37D1",
"=.	c #5D5AF4",
"-.	c #9589F2",
";.	c #CACBEE",
">.	c #B5B6D2",
",.	c #F1F2F5",
"'.	c #BABBBC",
").	c #6B6AFB",
"!.	c #B9BBD2",
"~.	c #4B4A63",
"{.	c #8C8D99",
"].	c #525252",
"^.	c #B2B1DC",
"/.	c #1D202A",
"(.	c #9C9DB3",
"_.	c #524CE3",
":.	c #968CE0",
"<.	c #9C9DA7",
"[.	c #2626C1",
"}.	c #A4A5BB",
"|.	c #F9FAFC",
"1.	c #393B43",
"2.	c #96989C",
"3.	c #C1C2E4",
"4.	c #747586",
"5.	c #ABACAE",
"6.	c #D2D2D7",
"7.	c #EEF0F9",
"8.	c #5656FA",
"9.	c #95959F",
"0.	c #57537B",
"a.	c #9B9B9C",
"b.	c #8076F4",
"c.	c #978CF7",
"d.	c #6A66E8",
"e.	c #1F1CB2",
"f.	c #695FFC",
"g.	c #4F515B",
"h.	c #909191",
"i.	c #A7A9B8",
"j.	c #A599F4",
"k.	c #848690",
"l.	c #5C59F9",
"m.	c #7473FE",
"n.	c #717171",
"o.	c #FCFEFC",
"p.	c #D0D1E3",
"q.	c #FFFFFB",
"r.	c #5756D4",
"s.	c #2F2C8B",
"t.	c #44437F",
"u.	c #9286F8",
"v.	c #A2A4B2",
"w.	c #8476F9",
"x.	c #342CBF",
"y.	c #363842",
"z.	c #A195EE",
"A.	c #7C7C7D",
"B.	c #6F6AF6",
"C.	c #ADA0FF",
"D.	c #E8E7EB",
"E.	c #DEE0ED",
"F.	c #A6A9AE",
"G.	c #5752C4",
"H.	c #F4F2F6",
"I.	c #7E73EB",
"J.	c #7D7F8F",
"K.	c #504BDA",
"L.	c #776EF6",
"M.	c #C0C1DD",
"N.	c #9798A2",
"O.	c #5D60F1",
"P.	c #413CCF",
"Q.	c #464851",
"R.	c #D6D9DC",
"S.	c #C7C8CA",
"T.	c #B7B9CC",
"U.	c #252962",
"V.	c #6C6E77",
"W.	c #7A6FFA",
"X.	c #B6B8C2",
"Y.	c #FDFDFD",
"Z.	c #FCFCFE",
"`.	c #F8F8FA",
" +	c #8D8EAE",
".+	c #666192",
"++	c #F1F0F3",
"@+	c #787984",
"#+	c #877BF7",
"$+	c #B7B9BD",
"%+	c #AEB0C6",
"&+	c #AEB1BE",
"*+	c #857DBF",
"=+	c #60616B",
"-+	c #FBFAFD",
";+	c #3E4049",
">+	c #6864F4",
",+	c #2F3544",
"'+	c #EFEFF2",
")+	c #A8A7AE",
"!+	c #777780",
"~+	c #FDFEFF",
"{+	c #D8D7DE",
"]+	c #5B5D5D",
"^+	c #CECFD1",
"/+	c #9D9DCB",
"(+	c #3133C5",
"_+	c #5F5B8D",
":+	c #2A2D2E",
"<+	c #867EC4",
"[+	c #F7F7F8",
"}+	c #D6D9D5",
"|+	c #B7B6BE",
"1+	c #524F69",
"2+	c #5E5DBD",
"3+	c #655EAB",
"4+	c #797C98",
"5+	c #646685",
"6+	c #1F1E92",
"7+	c #303049",
"8+	c #F6F8F9",
"9+	c #2E2F55",
"0+	c #5F5F78",
"a+	c #CACBDD",
"b+	c #8778E1",
"c+	c #71707C",
"d+	c #DFDFE2",
"e+	c #A898FE",
"f+	c #E8E9EC",
"g+	c #5657ED",
"h+	c #565761",
"i+	c #ABAFAF",
"j+	c #404159",
"k+	c #F3F3F3",
"l+	c #484854",
"m+	c #75777E",
"n+	c #FBFBFB",
"o+	c #F0F2F0",
"p+	c #F1F3F3",
"q+	c #F2F2F3",
"r+	c #FAF8FB",
"s+	c #FBFBFA",
"t+	c #FEFCFD",
"u+	c #B1B3AF",
"v+	c #C0C2D3",
"w+	c #C8C8D0",
"x+	c #7366FB",
"y+	c #E5E7E8",
"z+	c #C6C8E8",
"A+	c #3F3EE3",
"B+	c #9B90E8",
"C+	c #3130D0",
"D+	c #8283B6",
"E+	c #EDEDED",
"F+	c #EEEEEE",
"G+	c #FFFFFF",
"G+G+G+G+G+G+G+G+G+G+G+G+G+G+G+G+G+G+G+G+G+G+G+G+G+G+G+G+G+G+G+G+G+G+G+G+G+G+G+G+G+G+G+G+G+G+G+G+",
"G+G+G+G+G+G+G+G+G+G+G+G+G+G+G+G+G+G+G+G+G+G+G+G+G+G+G+G+G+G+G+G+G+G+G+G+G+G+G+G+G+G+G+G+G+G+G+G+",
"G+G+G+G+G+G+G+G+G+G+G+G+G+G+            [ [ [ o.[ [     G+[ q.[ Y.    t+  G+G+G+G+q.[ G+G+G+G+G+",
"G+G+G+G+G+G+G+G+G+G+G+G+G+G+G+G+G+[   G+G+  G+G+G+G+q.[ [ [ G+G+G+G+G+G+G+o+3 k $       G+G+G+G+",
"G+G+G+G+G+G+G+G+G+G+G+G+G+G+[ [ [ G+      G+G+  G+G+G+G+G+G+Y.8+b S.5 m > @.G /.w+G+  G+G+G+G+G+",
"G+G+G+G+G+G+G+G+G+G+G+G+G+[   [     G+G+G+G+G+G+G+j d+^+i ) - ].y.# # # n - m ;+O G+    G+G+G+G+",
"G+G+G+G+G+G+G+G+G+G+G+G+G+G+G+G+G+G+G+Z.y+^+i { C =+Q.y.T #.S 1+_+g @ 0.4.G+G+! N 6 G+G+G+G+G+G+",
"G+G+G+G+G+G+G+G+G+G+G+G+G+W p+d k B m - N Q.@.@.j+~._+g <+:.z.j.C.C.Y <+..u+2.g.T d+G+  G+G+G+G+",
"G+G+  G+  G+G+|.* d S.i+A a ]+` P ..~.1+.+g *+:.j.C.Y Y C.D D R R z M c.7+o o o o i G+[ G+G+G+G+",
"G+G+Y.G+G+q+{ a =+l+Q.l+~.0..+g *+@ B+j.C.Y Y C.D D R R z z M f c.} r f t././.o p @+G+  G+G+G+G+",
"G+G+o.  G+'+=+..!+<.c+.+z.z.e+D C.C.C.D R R R z z z M M f f F u.#+J #+} 3+o /.n # 1.`.G+G+G+G+G+",
"G+G+o.[ G+Z.m+A G+G+i 0.e+e+z z z M M z M f M f f c.c.F F u.w b.b.b.b.X U n i x f+y.S.G+G+G+G+G+",
"G+G+G+G+  G+9.> k ! a 1+-.z f c.c.c.c.c.c.c.F F F F u.u.w b.l &.l l l J I.9+k G+R.n O G+G+G+G+G+",
"G+G+  G+  G+$+;+. . P ~.b+M -.u.u.u.u.u.u.u.u.u.} } #+b.l &.W.L.< < < &.X t.:+1./.p , G+G+G+G+G+",
"G+G+[ G+  G+6.P . Q.... U f } r r r r r r } r r #+b.L.l L.L.< < B.B.B.B.J 2+p p p p # y+G+G+G+G+",
"G+G+[ G+  G+D.N y.1.Q.;+3+F } r w r r r X #+w.l L.L.L.L.L.V V B.V >+>+B.m.U /.p p p p |+G+  G+G+",
"G+G+[ G+  G+~+=+- S.H 2.t.r r w w #+#+w.l W.L.W.&.W.L.B.>+% 0 P.x.e.q ).).l 9+# > h.1.!+G+G+  G+",
"G+G+[     G+G+a k.G+G+5.S w } w w.&.W.W.L.< B.% 0 K.P.x.e.e.& & e.e.[.Q >+m.9 A.G+G+i ;+q+G+[ G+",
"G+G+[       G+{ ;+K > ;+y.I.X &.< % % K.q I ] e.e.e.e.] C+*.e.P.K.*.e.0 >+m.: ..k F.> /.3 G+[ G+",
"G+G+[ Y.G+G+G+w+# G # T T G._.P.x.] e.e.e.] x.*.q _.u s s 8.[.(+_.*.& q Q ).d.G o o p p )+G+G+G+",
"G+G+G+G+G+'+' )+T T # G /.s.x.x.x.*.q _.L L l.l.L s s u _ u C+& & & & C+=.Q m.9 o /./.p - G+G+G+",
"G+G+%.O V.N Q.y.G # #.g.1.9 f.% % f.% l.L L s s u u _ _ = _ A+& & & & e.g+O.V + o o o o n k+G+G+",
"G+G+, # ;+` 1.C ` - E.G+i+9+x+f.L L L s s s u u u _ _ = = = = & & & & & _.O.).2+# !+5.$+n '.  G+",
"G+G+A.N 2 ' a O c+=+7.E.9.G % f.L L s s s u u _ _ = = = = = = [.& (+C+& P.Q ).d.S }+G+G+=+A.k+G+",
"G+G+{ g.i %.=+a 9./.Q.#././.G.f.L s s u u u _ _ _ _ = = = _ _ C+[.g+u [.(+).V l 9 m+)+@+T ` 6.G+",
"G+G+ .n ;+1.1.=+h /.p o o /.: f.L s s u u u u u u u _ u u u 8.= [.] ] 6+s.+ t.S # o p p p ;+! G+",
"G+G+R.. @.... E h T o o o o t.f.g+s s u 0 s s 8.8.8.8.8.s K.G.+ U.U.T T n G /.G y.E - O 2 / b G+",
"G+G+D.g.y.1.y.@.! l+o T E . S >+O.l.l.l.l.=.=.0 r.: + t.S ,+T # n 1.:+# G h+2.$+d E+-+G+G+G+G+G+",
"G+G+k+=+` C B h+A h+g.p.~ T.9+Q ).% r.G.: + 9 @.T :+:+:+n @.~.0+~.G 1.l+G V.H.|.G+G+G+G+Y.q.  G+",
"G+G+  a - d+$ a @+c+E E.p.v.#.t.t.9 ,+T :+:+:+n ..h+5+4+ +/+1 Z D+T 5.%.c+;+3 F+$ s+[   G+  ~+G+",
"G+G+G+9.P m+=+y.- A # l+@.# G /.G :+n Q., 4. +/+^.( $.Z Z ( ^.Z /+,+h.) E :+|+~ ,.6 Y.    G+G+G+",
"G+G+G+i #.T T # N <./.o G ,+1+> J.(.%+$.| | ;.z+$.( ( ^.^.1 1 1 ^.@.o o o G ) b '+[+7 [ G+G+  G+",
"G+G+G+S.1.#.#.G y.{ 4.J.(.>.z+8 8 8 | ;.$.3.( +.^.^.^.y ^ ^ ^ ^ 1 0+o G # G c+{+f+$ -+Y.G+G+G+G+",
"G+G+G+d+P T 1.P # O a+v+a+8 ;.z+z+3.M.; +.+.>.>.y %+%+^ }.}.(.(.}.4.G # T T h+e 4 ++r+  G+G+G+G+",
"G+G+G+k+g.> '.d , >  .v T.M.M.M.; +.!.!.>.y v %+t i.}.(.<.N.A {.{.@+,+` > =+l+h d E+[+Z.G+G+G+G+",
"G+G+G+G+=+- 3 6.E E X.&+&+T.!.!.T.T.v v &+t i.v.(.N.) A {.k.k.k.O k.` C t {.E {.3 D.x Z.  G+G+G+",
"G+G+  G+K /.1.G p ;+i X.h &+v v t t i.v.B <.N.9.A {.A ) ) N.N.2.2.A N , !+> E !+^+b H.r+  G+G+G+",
"G+G+G+G+{ o o o p T ! i ! ! v.B <.<.N.N.2.2.N.<.B ! B { A K a > h+E ` E l+E E > e b H.-+  G+G+G+",
"G+G+  G+$+o o o p o k.! { 2.N.{ { B ! ! F.! B A K - , ` . @.1.@.;+. l+E h+=+c+) c b q+6 Y.G+G+G+",
"G+G+G+G+6././.n ../.- ! B F.F.F.! { O C > g.;+#.T T T #.y.. l+N =+V.K {.B t  .c d D.$ W Y.G+G+G+",
"G+G+  G+y+# h+$+w+` N F.9.m a , ` y.T G G # T #.@.l+h+> !+k.9.! t |+ .e c 6.{+d+D.E+$ n+  G+G+G+",
"G+G+G+G+k+;+g.i+{ ;+# ;+T /./././.G T y.l+, - C A B t X.e w+c ^+6.3 {+d d+4 D.* '+x W 7   G+G+G+",
"G+G+[ [ G+> p G o o o o /.# 1.l+, c+k.<.h |+e / ^+3 {+d d d+b b D.f+* F+'+,.k+x W W 7   G+G+G+G+",
"G+G+q.[ G+J.p /.# @.g.- C ) ! |+e c 6.{+d d+b D.D.* * '+'+++k+H.$ x [+`.6 W n+7 7     Y.G+G+G+G+",
"G+G+[   G+S.K A )+%./ 3 d 4 b y+* E+'+++q+$ x [+[+`.6 6 6 s+n+7 7 Y.Y.Y.          G+G+G+G+G+G+G+",
"G+G+G+  G+G+G+G+G+G+G+G+G+G+G+G+G+G+G+G+  G+G+G+G+G+G+G+G+G+G+G+G+G+G+G+G+G+G+G+G+G+G+G+G+G+G+G+",
"G+G+G+G+  G+G+G+G+G+G+G+G+G+G+G+G+G+G+G+G+G+G+G+G+G+G+G+G+G+G+G+G+G+G+G+G+G+G+G+G+G+G+G+G+G+G+G+",
"G+G+G+G+G+G+G+G+G+G+G+G+G+G+G+G+G+G+G+G+G+G+G+G+G+G+G+G+G+G+G+G+G+G+G+G+G+G+G+G+G+G+G+G+G+G+G+G+"};
