/* XPM */
static char * thunderbird_mini_xpm[] = {
"16 16 150 2",
"  	c None",
". 	c #477FAE",
"+ 	c #4079A9",
"@ 	c #609CBF",
"# 	c #3F84B4",
"$ 	c #135E9E",
"% 	c #6B91B9",
"& 	c #82B8D0",
"* 	c #66A3C4",
"= 	c #488BB7",
"- 	c #2B73AA",
"; 	c #347AAE",
"> 	c #4084B4",
", 	c #4789B7",
"' 	c #234892",
") 	c #9DC3D7",
"! 	c #6CA1C4",
"~ 	c #5886B7",
"{ 	c #276DA5",
"] 	c #3279AD",
"^ 	c #3A80B1",
"/ 	c #4D90BA",
"( 	c #5193BC",
"_ 	c #377EB0",
": 	c #2D70A8",
"< 	c #3C75AA",
"[ 	c #4A4964",
"} 	c #6B95BE",
"| 	c #536393",
"1 	c #2568A4",
"2 	c #0A4D96",
"3 	c #0D3B85",
"4 	c #1C4F8B",
"5 	c #397FB1",
"6 	c #357BAE",
"7 	c #2E73AA",
"8 	c #19599A",
"9 	c #5798BF",
"0 	c #405270",
"a 	c #916E3F",
"b 	c #547CAD",
"c 	c #4F6787",
"d 	c #525151",
"e 	c #60534C",
"f 	c #4D4C64",
"g 	c #1F1E45",
"h 	c #345F90",
"i 	c #195A9D",
"j 	c #225D9F",
"k 	c #133884",
"l 	c #1D3382",
"m 	c #3271A9",
"n 	c #69625F",
"o 	c #BDAB86",
"p 	c #868887",
"q 	c #A67C4F",
"r 	c #BE8B4E",
"s 	c #F0C68B",
"t 	c #F8C88A",
"u 	c #D4A764",
"v 	c #494B48",
"w 	c #255FA0",
"x 	c #274F92",
"y 	c #0F2276",
"z 	c #173688",
"A 	c #113E8B",
"B 	c #828794",
"C 	c #F1ECCF",
"D 	c #CBB794",
"E 	c #D5B690",
"F 	c #ECD9B4",
"G 	c #FDECC5",
"H 	c #FCE2B5",
"I 	c #E1BB8B",
"J 	c #887155",
"K 	c #30569C",
"L 	c #16307A",
"M 	c #1A398A",
"N 	c #24428E",
"O 	c #182777",
"P 	c #B1AD9A",
"Q 	c #FFFFE6",
"R 	c #E2D7B5",
"S 	c #E0D1B8",
"T 	c #F4EFD7",
"U 	c #D3C4A8",
"V 	c #C2A782",
"W 	c #D4B787",
"X 	c #C9B694",
"Y 	c #3C62A0",
"Z 	c #2F5193",
"` 	c #163185",
" .	c #1E3C8B",
"..	c #13257B",
"+.	c #D3CDBA",
"@.	c #FDFCE2",
"#.	c #FEF9DC",
"$.	c #D9C6A5",
"%.	c #D2BA96",
"&.	c #F0D8AC",
"*.	c #FADCAC",
"=.	c #FAD6A0",
"-.	c #C4B89F",
";.	c #454D60",
">.	c #345CA0",
",.	c #234491",
"'.	c #0F1F73",
").	c #7C717B",
"!.	c #E8D7AA",
"~.	c #FAECC6",
"{.	c #FDEBC4",
"].	c #FCE4B8",
"^.	c #FBDDAC",
"/.	c #FAD59F",
"(.	c #F9CE93",
"_.	c #E8B979",
":.	c #524447",
"<.	c #26478F",
"[.	c #133385",
"}.	c #0F2874",
"|.	c #0F1A6A",
"1.	c #1F153B",
"2.	c #5D4B46",
"3.	c #AA926A",
"4.	c #E6C78C",
"5.	c #F7D29A",
"6.	c #F8C787",
"7.	c #F7C280",
"8.	c #3B2D4D",
"9.	c #11226B",
"0.	c #112068",
"a.	c #0D1259",
"b.	c #06012F",
"c.	c #06002E",
"d.	c #2D2233",
"e.	c #655243",
"f.	c #A98A5E",
"g.	c #E3B875",
"h.	c #C29C78",
"i.	c #100A3E",
"j.	c #0D063C",
"k.	c #080237",
"l.	c #0A0A41",
"m.	c #352B40",
"n.	c #3F3657",
"o.	c #140D41",
"p.	c #0E0739",
"q.	c #3A355F",
"r.	c #150F41",
"s.	c #18133E",
"                                ",
"          . + @ # $             ",
"        % & * = - ; > ,         ",
"      ' ) ! ~ { ] ^ / ( _ :     ",
"    < [ } | 1 2 3 4 5 6 7 8     ",
"  9 0 a b c d e f g h i j k l   ",
"  m n o p q r s t u v w x y z   ",
"  A B C D E F G H I J K L M N   ",
"  O P Q R S T U V W X Y Z `  .  ",
"  ..+.@.#.$.%.&.*.=.-.;.>.,.'.  ",
"    ).!.~.{.].^./.(._.:.<.[.}.  ",
"    |.1.2.3.4.5.(.6.7.8.9.0.    ",
"      a.b.c.d.e.f.g.h.i.j.k.    ",
"        l.        m.n.o.p.      ",
"                  q.r.s.        ",
"                                "};
