/* XPM */
static char * unknown_mini_xpm[] = {
"16 16 27 1",
" 	c None",
".	c #9F0000",
"+	c #AA1D1D",
"@	c #D69191",
"#	c #D99C9C",
"$	c #B13030",
"%	c #A00303",
"&	c #F0D8D8",
"*	c #F2DCDC",
"=	c #EED2D2",
"-	c #F9F0F0",
";	c #A71515",
">	c #A91A1A",
",	c #E2B3B3",
"'	c #AE2A2A",
")	c #A40E0E",
"!	c #FFFFFF",
"~	c #BD4F4F",
"{	c #CD7B7B",
"]	c #FDF9F9",
"^	c #AD2424",
"/	c #BE5353",
"(	c #FDFBFB",
"_	c #DBA1A1",
":	c #E3B6B6",
"<	c #B94444",
"[	c #DFAAAA",
"                ",
"       ..       ",
"    ........    ",
"   ..........   ",
"  ....+@#$....  ",
"  ...%&*=-;...  ",
"  ...>,')!~...  ",
" .......{]^.... ",
" ....../(/..... ",
"  ....._:.....  ",
"  .....<<.....  ",
"  .....[[.....  ",
"   ..........   ",
"    ........    ",
"       ..       ",
"                "};
