/* XPM */
static char * vnc_mini_xpm[] = {
"16 16 4 1",
" 	c None",
".	c #00FF00",
"+	c #0000FF",
"@	c #FF0000",
"                ",
"                ",
" .      ..  ++  ",
" ..     .. ++++ ",
" ..    .. ++  ++",
"  ..   .. +   ++",
"  ..   .. +   ++",
"  ..  ..  +     ",
"   .. ..    @@@ ",
"   .. .    @@@@ ",
"   ....   @@    ",
"    ...   @     ",
"    ..     @@@@ ",
"     .      @@@ ",
"                ",
"                "};
