/* XPM */
static char * vnc_xpm[] = {
"48 48 4 1",
" 	c None",
".	c #00FF00",
"+	c #0000FF",
"@	c #FF0000",
"                                                ",
"                                                ",
"                                                ",
"                                                ",
"                                                ",
"                                                ",
"                                                ",
"  ......                ......      +++++       ",
"  ......               ......     ++++++++++    ",
"  ......               ......   +++++++++++++   ",
"   ......              ......   +++++++++++++   ",
"   ......             ......   +++++     +++++  ",
"   ......             ......   ++++       ++++  ",
"    ......            ......   ++++       +++++ ",
"    ......           ......   ++++         ++++ ",
"    ......           ......   ++++         ++++ ",
"     ......          ......   ++++         ++++ ",
"     ......         ......    ++++         ++++ ",
"     ......         ......    ++++         ++++ ",
"      ......        ......    ++++         ++++ ",
"      ......       ......     ++++         ++++ ",
"       .....       ......     ++++         ++++ ",
"       ......      .....      ++++         ++++ ",
"       ......     ......                        ",
"        .....     ......                        ",
"        ......    .....             @@@@@@@@@@  ",
"        ......   ......           @@@@@@@@@@@@@ ",
"         .....   ......          @@@@@@@@@@@@@@ ",
"         ......  .....          @@@@@@@@@@@@@@@ ",
"         ...... ......         @@@@@@           ",
"          ..... ......         @@@@             ",
"          ...........          @@@@             ",
"          ...........          @@@              ",
"           ..........         @@@@              ",
"           .........           @@@              ",
"           .........           @@@@             ",
"            ........           @@@@@            ",
"            .......             @@@@@@@@@@@@@@  ",
"             ......             @@@@@@@@@@@@@@@ ",
"             .....               @@@@@@@@@@@@@@ ",
"             .....                 @@@@@@@@@@@@ ",
"                                                ",
"                                                ",
"                                                ",
"                                                ",
"                                                ",
"                                                ",
"                                                "};
