/* XPM */
static char * xmms_mini_xpm[] = {
"16 16 109 2",
"  	c None",
". 	c #6E6E6E",
"+ 	c #686868",
"@ 	c #676767",
"# 	c #636363",
"$ 	c #555555",
"% 	c #888888",
"& 	c #6C6C6C",
"* 	c #6D6D6D",
"= 	c #656565",
"- 	c #505050",
"; 	c #4C4C4C",
"> 	c #5A5A5A",
", 	c #646464",
"' 	c #575757",
") 	c #8A8A8A",
"! 	c #6A6A6A",
"~ 	c #393939",
"{ 	c #2B2B2B",
"] 	c #292929",
"^ 	c #272727",
"/ 	c #2F2F2F",
"( 	c #696969",
"_ 	c #585858",
": 	c #6B6B6B",
"< 	c #333333",
"[ 	c #2E2E2E",
"} 	c #2D2D2D",
"| 	c #373737",
"1 	c #383838",
"2 	c #767676",
"3 	c #3E3E3E",
"4 	c #313131",
"5 	c #323232",
"6 	c #414141",
"7 	c #424242",
"8 	c #434343",
"9 	c #3F3F3F",
"0 	c #404040",
"a 	c #595959",
"b 	c #6F6F6F",
"c 	c #343434",
"d 	c #535353",
"e 	c #565656",
"f 	c #4B4B4B",
"g 	c #484848",
"h 	c #616161",
"i 	c #666666",
"j 	c #353535",
"k 	c #4A4A4A",
"l 	c #4F4F4F",
"m 	c #494949",
"n 	c #5B5B5B",
"o 	c #363636",
"p 	c #4D4D4D",
"q 	c #3C3C3C",
"r 	c #727272",
"s 	c #707070",
"t 	c #3D3E3E",
"u 	c #484B4C",
"v 	c #4C5153",
"w 	c #525455",
"x 	c #4E5457",
"y 	c #52585A",
"z 	c #5A5E60",
"A 	c #596062",
"B 	c #5B5E60",
"C 	c #5D696D",
"D 	c #707375",
"E 	c #5C6162",
"F 	c #6D7E84",
"G 	c #788A91",
"H 	c #718186",
"I 	c #6C777B",
"J 	c #83989F",
"K 	c #6A7C83",
"L 	c #728085",
"M 	c #71888F",
"N 	c #61747B",
"O 	c #5F7379",
"P 	c #667377",
"Q 	c #728288",
"R 	c #5F6B6F",
"S 	c #69797E",
"T 	c #6A7C82",
"U 	c #7B9097",
"V 	c #64777E",
"W 	c #6B7F86",
"X 	c #6C848C",
"Y 	c #546469",
"Z 	c #697B81",
"` 	c #586F76",
" .	c #72858B",
"..	c #73868C",
"+.	c #6E7F84",
"@.	c #697D83",
"#.	c #667C84",
"$.	c #5A7077",
"%.	c #637980",
"&.	c #5E757C",
"*.	c #5A6C71",
"=.	c #637A82",
"-.	c #546B73",
";.	c #586063",
">.	c #5A5F61",
",.	c #5C6062",
"'.	c #626566",
").	c #646667",
"!.	c #535455",
"                                ",
"          . + + @ # $           ",
"      % & * = - ; > * , '       ",
"    ) + ! ~ { ] ^ ^ / ' ( _     ",
"    * : < [ [ } } | ~ 1 > =     ",
"  2 & 3 4 5 / 3 6 7 8 9 0 * a   ",
"  b ( 5 c 4 d > e 8 f g 8 h i   ",
"  ! a < j 3 ' > ' g k l m n .   ",
"  + ' < o 9 k - p q - d l h r   ",
"  # # < 8 p | | c 9 ' e d * s   ",
"  a & t u v w x y z A B C D r   ",
"    E F G H I J K L M N O P     ",
"    n Q R S T U V W X Y Z `     ",
"       ...+.@.#.$.%.&.*.=.-.    ",
"          ;.>.,.'.).!.          ",
"                                "};
