/* XPM */
static char * xosview_mini_xpm[] = {
"16 16 30 1",
" 	c None",
".	c #555555",
"+	c #808080",
"@	c #B2B2B2",
"#	c #A2A2A2",
"$	c #404040",
"%	c #000080",
"&	c #0000A0",
"*	c #004060",
"=	c #E1E1E1",
"-	c #BF6020",
";	c #004080",
">	c #008040",
",	c #808060",
"'	c #404060",
")	c #BFBF20",
"!	c #404080",
"~	c #800040",
"{	c #00BF20",
"]	c #804040",
"^	c #0040C0",
"/	c #808040",
"(	c #BF4020",
"_	c #400060",
":	c #BF0020",
"<	c #0000C0",
"[	c #402060",
"}	c #3030A0",
"|	c #D2D2D2",
"1	c #2B2B2B",
".++++++++++++++.",
"+@############@$",
"+#%%&&%%*%%%%%=$",
"+#-%;>>>>>>>>*=$",
"+#%%&,')!~{>*%=$",
"+#]%%%%%%%%%%%=$",
"+#%%&^//(_:%>%=$",
"+#]%<<<//////*=$",
"+#]%&&*>*%%%%%=$",
"+#]%<<<<<>>>>*=$",
"+#[%}&%%>%%%%%=$",
"+#[%>>>>>>>>>*=$",
"+#%%'/%%'%%%%%=$",
"+#%%%%%%%%%%%%=$",
"+|============|$",
".$$$$$$$$$$$$$$1"};
