/* XPM */
static char * xterm_mini_xpm[] = {
"16 16 109 2",
"  	c None",
". 	c #E5E3D9",
"+ 	c #CECBC4",
"@ 	c #C5C4BD",
"# 	c #C0BFB7",
"$ 	c #B9B8B2",
"% 	c #B1B1AA",
"& 	c #AAA9A2",
"* 	c #A6A39B",
"= 	c #9D9B95",
"- 	c #95928D",
"; 	c #94928C",
"> 	c #EFEBDF",
", 	c #A6A6A6",
"' 	c #989698",
") 	c #808080",
"! 	c #7F807F",
"~ 	c #6F716F",
"{ 	c #676767",
"] 	c #5F605F",
"^ 	c #545454",
"/ 	c #454245",
"( 	c #5A5756",
"_ 	c #E8E6DC",
": 	c #919091",
"< 	c #777877",
"[ 	c #747674",
"} 	c #696A69",
"| 	c #5A5D5A",
"1 	c #545654",
"2 	c #4E4E4E",
"3 	c #444043",
"4 	c #393839",
"5 	c #50504D",
"6 	c #E3DFD7",
"7 	c #7F7F7F",
"8 	c #747574",
"9 	c #686A68",
"0 	c #616361",
"a 	c #66403F",
"b 	c #BA1A1A",
"c 	c #7B3030",
"d 	c #474747",
"e 	c #323332",
"f 	c #4A4946",
"g 	c #DBDAD2",
"h 	c #6E706E",
"i 	c #6A6C6A",
"j 	c #5C5E5C",
"k 	c #555455",
"l 	c #AD1314",
"m 	c #EA0303",
"n 	c #52302F",
"o 	c #282828",
"p 	c #444241",
"q 	c #9F2D2B",
"r 	c #D6D2C8",
"s 	c #606260",
"t 	c #585A58",
"u 	c #535253",
"v 	c #4D4C4D",
"w 	c #4A3F3F",
"x 	c #D00606",
"y 	c #CB0606",
"z 	c #271E1F",
"A 	c #581B1B",
"B 	c #CFCBC0",
"C 	c #565956",
"D 	c #4F514F",
"E 	c #4A494A",
"F 	c #444144",
"G 	c #3A393A",
"H 	c #303130",
"I 	c #46201F",
"J 	c #EB0101",
"K 	c #720A0A",
"L 	c #912020",
"M 	c #C4C1B6",
"N 	c #82817E",
"O 	c #848281",
"P 	c #7F7D7A",
"Q 	c #7A7776",
"R 	c #727270",
"S 	c #696865",
"T 	c #655A5B",
"U 	c #9D2121",
"V 	c #C41010",
"W 	c #863333",
"X 	c #96988D",
"Y 	c #95938C",
"Z 	c #877F78",
"` 	c #847F77",
" .	c #887D75",
"..	c #857871",
"+.	c #A13231",
"@.	c #63564E",
"#.	c #AA0F0A",
"$.	c #E90404",
"%.	c #89867F",
"&.	c #7E7D76",
"*.	c #797872",
"=.	c #787670",
"-.	c #943A38",
";.	c #815C59",
">.	c #605F5A",
",.	c #483A36",
"'.	c #CD0000",
").	c #E20000",
"!.	c #F70000",
"                                ",
"                                ",
"                                ",
"    . + @ # $ % & * = - ;       ",
"    > , ' ) ! ~ { ] ^ / (       ",
"    _ : < [ } | 1 2 3 4 5       ",
"    6 7 8 9 0 a b c d e f       ",
"    g h i 9 j k l m n o p q     ",
"    r s 0 t u v w x y z A       ",
"    B C D E F G H I J K L       ",
"    M N O P Q R S T U V W       ",
"      X Y Z `  ...+.@.#.$.      ",
"        %.&.*.=.-.;.>.,.'.).    ",
"                          !.    ",
"                                ",
"                                "};
