/* XPM */
static char * gnome_xterm_xpm[] = {
"48 48 422 2",
"  	c None",
". 	c #D7D7CF",
"+ 	c #EFEBDF",
"@ 	c #E7E7DF",
"# 	c #E7E3D7",
"$ 	c #DFDFD7",
"% 	c #DFDBD7",
"& 	c #DFD7CF",
"* 	c #D7D3C7",
"= 	c #D7CFC7",
"- 	c #CFCFC7",
"; 	c #CFCBBE",
"> 	c #CFC7BE",
", 	c #C7C7BE",
"' 	c #C7C3BE",
") 	c #C7BEB6",
"! 	c #BDBDB5",
"~ 	c #BCB8B4",
"{ 	c #BBB7AB",
"] 	c #B6AEA7",
"^ 	c #9B9B94",
"/ 	c #8F8C81",
"( 	c #7D7A76",
"_ 	c #BEBEB6",
": 	c #BEBAB6",
"< 	c #BCB8AC",
"[ 	c #B9B1A9",
"} 	c #AEAEA6",
"| 	c #A9A6A2",
"1 	c #A4A196",
"2 	c #83807C",
"3 	c #B6B2B6",
"4 	c #797979",
"5 	c #717571",
"6 	c #717171",
"7 	c #696D69",
"8 	c #696969",
"9 	c #616561",
"0 	c #616161",
"a 	c #595D59",
"b 	c #595959",
"c 	c #515551",
"d 	c #515151",
"e 	c #494D49",
"f 	c #494949",
"g 	c #484448",
"h 	c #474347",
"i 	c #3E3E3E",
"j 	c #7C7C7C",
"k 	c #A39C95",
"l 	c #918A83",
"m 	c #8E8E8E",
"n 	c #C7C3C7",
"o 	c #9E9A9E",
"p 	c #969696",
"q 	c #8E8A8E",
"r 	c #868286",
"s 	c #868686",
"t 	c #494549",
"u 	c #3F3F3F",
"v 	c #3E393E",
"w 	c #3C373C",
"x 	c #96938F",
"y 	c #B6B6B6",
"z 	c #E7E7E7",
"A 	c #A6A6A6",
"B 	c #797D79",
"C 	c #404040",
"D 	c #3F3B3F",
"E 	c #3D393D",
"F 	c #343434",
"G 	c #9B9894",
"H 	c #979489",
"I 	c #BEC3BE",
"J 	c #969296",
"K 	c #9E9E9E",
"L 	c #585858",
"M 	c #403B40",
"N 	c #3F3A3F",
"O 	c #353535",
"P 	c #333333",
"Q 	c #9C988D",
"R 	c #909089",
"S 	c #B6BAB6",
"T 	c #414141",
"U 	c #363636",
"V 	c #2C302C",
"W 	c #95958D",
"X 	c #908D89",
"Y 	c #413C41",
"Z 	c #373737",
"` 	c #2D312D",
" .	c #2C2C2C",
"..	c #95918D",
"+.	c #8F8C88",
"@.	c #413B40",
"#.	c #2F332F",
"$.	c #2D2D2D",
"%.	c #948F8C",
"&.	c #8E8780",
"*.	c #E7DFD7",
"=.	c #757474",
"-.	c #5D5151",
";.	c #4F3737",
">.	c #65504D",
",.	c #654D4D",
"'.	c #55403D",
").	c #524643",
"!.	c #555555",
"~.	c #505050",
"{.	c #2F2F2F",
"].	c #252825",
"^.	c #958D86",
"/.	c #898982",
"(.	c #4F534F",
"_.	c #583030",
":.	c #C50909",
"<.	c #D70605",
"[.	c #D70505",
"}.	c #C2090A",
"|.	c #482A2A",
"1.	c #383838",
"2.	c #303430",
"3.	c #262A26",
"4.	c #252525",
"5.	c #8D8D86",
"6.	c #898682",
"7.	c #D00000",
"8.	c #620000",
"9.	c #464945",
"0.	c #751F1D",
"a.	c #F80000",
"b.	c #C50708",
"c.	c #3D3034",
"d.	c #303030",
"e.	c #272A27",
"f.	c #262626",
"g.	c #8D8A86",
"h.	c #D20000",
"i.	c #980000",
"j.	c #787174",
"k.	c #B41110",
"l.	c #8D1919",
"m.	c #5B5959",
"n.	c #272B27",
"o.	c #272727",
"p.	c #252125",
"q.	c #88827B",
"r.	c #A90000",
"s.	c #D60000",
"t.	c #DFDBCF",
"u.	c #483134",
"v.	c #C20808",
"w.	c #E80101",
"x.	c #5B1816",
"y.	c #2E2D2D",
"z.	c #262226",
"A.	c #1D1D1D",
"B.	c #8D867F",
"C.	c #7B7673",
"D.	c #770000",
"E.	c #DC0000",
"F.	c #502325",
"G.	c #E20303",
"H.	c #D40303",
"I.	c #3F1E1E",
"J.	c #282828",
"K.	c #272327",
"L.	c #1E1E1E",
"M.	c #817D7A",
"N.	c #7D413F",
"O.	c #DE0000",
"P.	c #636363",
"Q.	c #862523",
"R.	c #BB0605",
"S.	c #262323",
"T.	c #1F1F1F",
"U.	c #1C191C",
"V.	c #745C5A",
"W.	c #D10D0D",
"X.	c #A80000",
"Y.	c #343232",
"Z.	c #970D0C",
"`.	c #F50000",
" +	c #880B0B",
".+	c #251F23",
"++	c #1E1A1E",
"@+	c #181212",
"#+	c #C91211",
"$+	c #D60C0B",
"%+	c #342323",
"&+	c #BC0606",
"*+	c #E40101",
"=+	c #4E0F0F",
"-+	c #1E1D1D",
";+	c #1F1B1F",
">+	c #151414",
",+	c #710707",
"'+	c #E60606",
")+	c #773F3C",
"!+	c #2F2E2E",
"~+	c #401A17",
"{+	c #E30101",
"]+	c #D00202",
"^+	c #2C1215",
"/+	c #161616",
"(+	c #410B0B",
"_+	c #DD0101",
":+	c #962928",
"<+	c #716C69",
"[+	c #282C28",
"}+	c #621111",
"|+	c #F00000",
"1+	c #F20000",
"2+	c #610909",
"3+	c #2D0E0E",
"4+	c #D20101",
"5+	c #A70202",
"6+	c #716967",
"7+	c #797373",
"8+	c #261F22",
"9+	c #8D0808",
"0+	c #F60000",
"a+	c #9B0505",
"b+	c #270F0F",
"c+	c #B00303",
"d+	c #250909",
"e+	c #7C7575",
"f+	c #797272",
"g+	c #8C888C",
"h+	c #755656",
"i+	c #DA0909",
"j+	c #C61414",
"k+	c #735456",
"l+	c #922424",
"m+	c #831D1D",
"n+	c #0E090D",
"o+	c #7B7474",
"p+	c #C6C6BD",
"q+	c #C7C3B6",
"r+	c #959195",
"s+	c #484C48",
"t+	c #484848",
"u+	c #1E1B1B",
"v+	c #7D0809",
"w+	c #DC0101",
"x+	c #330D0D",
"y+	c #4A080A",
"z+	c #E30000",
"A+	c #C80101",
"B+	c #513F3C",
"C+	c #7A7373",
"D+	c #787171",
"E+	c #B3AFA3",
"F+	c #C3BFB2",
"G+	c #BABAB2",
"H+	c #BBB7B3",
"I+	c #BAB2AA",
"J+	c #B1B1A9",
"K+	c #B1ADA9",
"L+	c #B0ACA0",
"M+	c #A8A8A0",
"N+	c #A9A5A1",
"O+	c #A9A199",
"P+	c #A19D99",
"Q+	c #A29E9A",
"R+	c #A09991",
"S+	c #999591",
"T+	c #9A9692",
"U+	c #8F8B88",
"V+	c #8B403F",
"W+	c #E70606",
"X+	c #8B3E3E",
"Y+	c #76605B",
"Z+	c #D70C0C",
"`+	c #B41717",
" @	c #6B6363",
".@	c #64645D",
"+@	c #9B978C",
"@@	c #B2AEAA",
"#@	c #B2AEA3",
"$@	c #A9A9A2",
"%@	c #A8A499",
"&@	c #A7A098",
"*@	c #9F9F98",
"=@	c #AF7B6F",
"-@	c #A78A82",
";@	c #A19992",
">@	c #918D82",
",@	c #A76F68",
"'@	c #997C6F",
")@	c #91918A",
"!@	c #98918A",
"~@	c #9F6B60",
"{@	c #987B6F",
"]@	c #86827E",
"^@	c #7F5151",
"/@	c #E00808",
"(@	c #882A27",
"_@	c #797770",
":@	c #7A7D4A",
"<@	c #B72907",
"[@	c #F50100",
"}@	c #F30101",
"|@	c #8B201E",
"1@	c #514F4A",
"2@	c #536B67",
"3@	c #888561",
"4@	c #9D9D96",
"5@	c #9D9A96",
"6@	c #9C988E",
"7@	c #9D968F",
"8@	c #94948D",
"9@	c #96928F",
"0@	c #95928E",
"a@	c #8F8F88",
"b@	c #8E8B87",
"c@	c #888481",
"d@	c #86827F",
"e@	c #867F7F",
"f@	c #745A5A",
"g@	c #CB1010",
"h@	c #AC1E1D",
"i@	c #726767",
"j@	c #7A7A73",
"k@	c #73706C",
"l@	c #664E4B",
"m@	c #CF0B0B",
"n@	c #E50303",
"o@	c #410000",
"p@	c #414441",
"q@	c #41413B",
"r@	c #4D4D47",
"s@	c #726F6C",
"t@	c #726D61",
"u@	c #4E4E48",
"v@	c #5C5C55",
"w@	c #79766D",
"x@	c #79796D",
"y@	c #5B5B54",
"z@	c #6C655B",
"A@	c #78786C",
"B@	c #67635E",
"C@	c #B0110F",
"D@	c #D50707",
"E@	c #544641",
"F@	c #4E4A48",
"G@	c #53504D",
"H@	c #000000",
"I@	c #350000",
"J@	c #F40000",
"K@	c #524F4B",
"L@	c #4B4B45",
"M@	c #5F5F59",
"N@	c #52524C",
"O@	c #525652",
"P@	c #69695F",
"Q@	c #615850",
"R@	c #9A1716",
"S@	c #D30807",
"T@	c #66453F",
"U@	c #6E6868",
"V@	c #595952",
"W@	c #5D5F57",
"X@	c #650000",
"Y@	c #EF0000",
"Z@	c #C20000",
"`@	c #7F7F78",
" #	c #85857F",
".#	c #938F85",
"+#	c #928B84",
"@#	c #8D8D87",
"##	c #8D8986",
"$#	c #8D8B80",
"%#	c #86867F",
"&#	c #878480",
"*#	c #86837F",
"=#	c #867F79",
"-#	c #7E7C78",
";#	c #797471",
">#	c #823737",
",#	c #E10707",
"'#	c #793B39",
")#	c #74716D",
"!#	c #79736D",
"~#	c #73736D",
"{#	c #6E6C68",
"]#	c #696663",
"^#	c #5E5E55",
"/#	c #605F58",
"(#	c #4C423E",
"_#	c #950000",
":#	c #F30000",
"<#	c #8A0000",
"[#	c #878E87",
"}#	c #8E8E87",
"|#	c #9C998F",
"1#	c #9A938D",
"2#	c #95958F",
"3#	c #949287",
"4#	c #969389",
"5#	c #8E8B80",
"6#	c #8F8881",
"7#	c #7A4C4A",
"8#	c #DF0909",
"9#	c #992D2D",
"0#	c #797571",
"a#	c #807D79",
"b#	c #817A73",
"c#	c #797972",
"d#	c #76736F",
"e#	c #6F6B69",
"f#	c #6E6C63",
"g#	c #55514C",
"h#	c #55514D",
"i#	c #150000",
"j#	c #C30000",
"k#	c #EE0000",
"l#	c #900000",
"m#	c #E70000",
"n#	c #A10000",
"o#	c #B90000",
"                                                                                                ",
"                                                                                                ",
"                                                                                                ",
"                                                                                                ",
"                                                                                                ",
"                                                                                                ",
"                                                                                                ",
"                                                                                                ",
"                                                                                                ",
"                . + + + + + @ @ # # $ $ % & . . * = - ; ; > , ' ) ! ~ { ] ^ / (                 ",
"              . + + + + + @ @ # # $ $ % & . . * - - ; ; > , ' ) _ : < [ } | 1 2                 ",
"              + + 3 4 4 4 4 4 4 5 5 6 7 7 8 9 0 0 a a b b c d e e f g h i j k l                 ",
"              + + 4 m n o p q r s m r 5 5 6 7 7 0 0 0 d e e f t f g g u v w k x                 ",
"              + + q y z y A r B 4 4 5 5 8 9 9 0 b b b c d e e f t g C D E F G H                 ",
"              + + 4 A I p s J J 7 B p p p 5 r m B 8 q s K 0 a m b L M N O P Q R                 ",
"              + @ 4 A S 5 5 r 7 7 8 9 9 0 a a b c c d d e f t t T T M U O V W X                 ",
"              @ @ 4 o J s r B m q p 5 J 6 a B c c 4 e 0 a t t T Y Y Z U `  ...+.                ",
"              # # 4 q m 6 7 7 8 9 9 0 a a b c c d d e f t t C @.Y Z Z #.$. .%.&.                ",
"              # *.s p J o m 4 p 5 5 r 7 B =.-.;.>.,.'.).!.7 4 9 d ~.#.{.$.].^./.                ",
"              *.$ 6 s 4 7 8 9 9 0 a a b c (._.:.<.[.[.}.|.M Y 1.1.2.{.{.3.4.5.6.      7.8.      ",
"              $ % 6 4 7 4 9 9 0 a a b c c d 9.0.a.a.a.a.b.c.1.1.2.d.{.e.f.4.g.6.    h.i.        ",
"              % $ B s 8 s 5 J 6 7 m 8 8 s 5 0 j.k.a.a.a.a.l.m.2.0 {.n.o.f.p.g.q.  r.s.          ",
"              t.. 7 5 9 9 0 a a b c c d e e f g u.v.a.a.a.w.x.y.d.n.o.o.z.A.B.C.D.E.            ",
"              . . 8 6 9 0 a a 7 8 8 d e 0 f t t u F.G.a.a.a.H.I.n.J.o.K.L.A.M.N.O.              ",
"              . * 9 7 0 r 7 B 8 8 4 5 0 0 7 7 b 8 P.Q.a.a.a.a.R.S.J.K.T.L.U.V.W.X.              ",
"              * = 9 0 0 a b c c d e e f t t T Y Y 1.Y.Z.`.a.a.a. +.+T.T.++@+#+$+                ",
"              = - 0 a a b c c d e e f t t T Y Y 1.1.#.%+&+a.a.a.*+=+-+;+>+,+'+)+                ",
"              - ; a a b c c d d e f t t T Y Y 1.1.2.d.!+~+{+a.a.a.]+^+/+(+_+:+<+                ",
"              ; ; a b c c d e e f t t T Y Y 1.1.2.d.d.[+o.}+|+a.a.1+2+3+4+5+6+7+                ",
"              ; > b c c d d e f t t T Y Y 1.1.2.d.d.[+J.J.8+9+0+a.a+b+c+s.d+e+f+                ",
"              > , c c q J J r m B o q 4 p 5 r K 6 7 m 8 4 g+h+i+j+k+l+0+m+n+o+f+                ",
"              p+q+r+d s+s+t+g g C M M Z Z #.{.{.n.o.o.K.K.u+v+w+x+y+z+a.A+B+C+D+                ",
"              E+F+G+H+{ I+J+K+L+L+M+| N+O+P+P+Q+R+S+S+T+U+V+W+X+Y+Z+a.a.a.`+ @.@                ",
"                +@@@#@$@$@N+%@&@*@=@-@;@>@,@'@)@!@~@{@]@^@/@(@_@:@<@[@a.a.}@|@1@                ",
"                  2@3@4@4@5@6@7@8@9@0@a@b@b@+.&.c@d@e@f@g@h@i@j@k@l@m@a.a.a.n@o@                ",
"                            p@q@r@s@t@u@v@w@x@y@z@A@B@C@D@E@F@G@H@H@I@J@a.a.a.s.                ",
"                            K@L@M@M@N@N@M@M@O@M@P@Q@R@S@T@U@V@W@H@H@H@X@Y@a.a.a.Z@              ",
"                      `@ #.#+#@###$#%#&#*#*#=#-#;#>#,#'#)#!#~#{#]#^#/#(#_#0+a.a.:#<#            ",
"                      [#}#|#1#2#3#4#}#}#U+5#6#2 7#8#9#0#a#b#c#d#e#f#g#h#i#j#a.a.a.k#            ",
"                                                s.l#                        m#a.a.a.:#          ",
"                                              n#o#                            J@a.a.a.7.        ",
"                                                                                                ",
"                                                                                                ",
"                                                                                                ",
"                                                                                                ",
"                                                                                                ",
"                                                                                                ",
"                                                                                                "};
