/* XPM */
static char * bgicon_xpm[] = {
"98 78 83 1",
" 	c None",
".	c #336699",
"+	c #CCCCCC",
"@	c #333333",
"#	c #999999",
"$	c #0BFF00",
"%	c #03FF00",
"&	c #36FF08",
"*	c #9AFF4C",
"=	c #E5BC47",
"-	c #FF7033",
";	c #FF6633",
">	c #FF9C42",
",	c #FFE07A",
"'	c #FFFF99",
")	c #55FF1E",
"!	c #51FF1A",
"~	c #61FF24",
"{	c #AEF84E",
"]	c #EAB544",
"^	c #FE6832",
"/	c #FF6233",
"(	c #FA993E",
"_	c #F9DD77",
":	c #FFFF93",
"<	c #B2D136",
"[	c #ADDD3E",
"}	c #B5F856",
"|	c #CAF85F",
"1	c #E5C04D",
"2	c #FC8133",
"3	c #FA7D31",
"4	c #E6B54B",
"5	c #DCE75E",
"6	c #EAFF66",
"7	c #EF9E38",
"8	c #EEAB45",
"9	c #DBCE4C",
"0	c #CCFC63",
"a	c #D0DE50",
"b	c #F5B852",
"c	c #E29E38",
"d	c #C5C844",
"e	c #A7ED4F",
"f	c #B2FF56",
"g	c #FFAA44",
"h	c #F99A34",
"i	c #D1B53E",
"j	c #B4E34A",
"k	c #C8DA49",
"l	c #F3AA44",
"m	c #EC8B26",
"n	c #B19D21",
"o	c #72C613",
"p	c #56D105",
"q	c #FFCC66",
"r	c #F2BF59",
"s	c #C0C03B",
"t	c #88CC2A",
"u	c #AFCC37",
"v	c #CE9B2F",
"w	c #E08F33",
"x	c #CC932B",
"y	c #8C9F0E",
"z	c #75B20F",
"A	c #FFF48E",
"B	c #ECDF73",
"C	c #B8D942",
"D	c #73E31C",
"E	c #68CF12",
"F	c #95CA29",
"G	c #C9C347",
"H	c #D5A23C",
"I	c #C99932",
"J	c #BC9928",
"K	c #FFFF81",
"L	c #CCFF66",
"M	c #7CFF33",
"N	c #4CE71B",
"O	c #4FCC01",
"P	c #A8CF33",
"Q	c #EAC35B",
"R	c #CC9933",
"..................................................................................................",
".++++++++++++++++++++++++++++++++++++++++++++++++++++++++++++++++++++++++++++++++++++++++++++++++.",
".+++++++++++++++++++++++++++++++++++++++++++++++++++++++++++++++++++++++++++++++++++++++++++++++@.",
".++############################################################################################@@.",
".++############################################################################################@@.",
".++##@@@@@@@@@@@@@@@@@@@@@@@@@@@@@@@@@@@@@@@@@@@@@@@@@@@@@@@@@@@@@@@@@@@@@@@@@@@@@@@@@@@@@@@@##@@.",
".++##@+++++++++++++++++++++++++++++++++++++++++++++++++++++++++++++++++++++++++++++++++++++++##@@.",
".++##@+$$$%%%%%%%%%%&&&&&&&&&&**********==========----------;;;;;;;;;;>>>>>>>>>>,,,,,,,,,,'@+##@@.",
".++##@+$$$%%%%%%%%%%&&&&&&&&&&**********==========----------;;;;;;;;;;>>>>>>>>>>,,,,,,,,,,'@+##@@.",
".++##@+$$$%%%%%%%%%%&&&&&&&&&&**********==========----------;;;;;;;;;;>>>>>>>>>>,,,,,,,,,,'@+##@@.",
".++##@+)))!!!!!!!!!!~~~~~~~~~~{{{{{{{{{{]]]]]]]]]]^^^^^^^^^^//////////((((((((((__________:@+##@@.",
".++##@+)))!!!!!!!!!!~~~~~~~~~~{{{{{{{{{{]]]]]]]]]]^^^^^^^^^^//////////((((((((((__________:@+##@@.",
".++##@+)))!!!!!!!!!!~~~~~~~~~~{{{{{{{{{{]]]]]]]]]]^^^^^^^^^^//////////((((((((((__________:@+##@@.",
".++##@+)))!!!!!!!!!!~~~~~~~~~~{{{{{{{{{{]]]]]]]]]]^^^^^^^^^^//////////((((((((((__________:@+##@@.",
".++##@+)))!!!!!!!!!!~~~~~~~~~~{{{{{{{{{{]]]]]]]]]]^^^^^^^^^^//////////((((((((((__________:@+##@@.",
".++##@+)))!!!!!!!!!!~~~~~~~~~~{{{{{{{{{{]]]]]]]]]]^^^^^^^^^^//////////((((((((((__________:@+##@@.",
".++##@+)))!!!!!!!!!!~~~~~~~~~~{{{{{{{{{{]]]]]]]]]]^^^^^^^^^^//////////((((((((((__________:@+##@@.",
".++##@+)))!!!!!!!!!!~~~~~~~~~~{{{{{{{{{{]]]]]]]]]]^^^^^^^^^^//////////((((((((((__________:@+##@@.",
".++##@+)))!!!!!!!!!!~~~~~~~~~~{{{{{{{{{{]]]]]]]]]]^^^^^^^^^^//////////((((((((((__________:@+##@@.",
".++##@+)))!!!!!!!!!!~~~~~~~~~~{{{{{{{{{{]]]]]]]]]]^^^^^^^^^^//////////((((((((((__________:@+##@@.",
".++##@+<<<[[[[[[[[[[}}}}}}}}}}||||||||||111111111122222222223333333333444444444455555555556@+##@@.",
".++##@+<<<[[[[[[[[[[}}}}}}}}}}||||||||||111111111122222222223333333333444444444455555555556@+##@@.",
".++##@+<<<[[[[[[[[[[}}}}}}}}}}||||||||||111111111122222222223333333333444444444455555555556@+##@@.",
".++##@+<<<[[[[[[[[[[}}}}}}}}}}||||||||||111111111122222222223333333333444444444455555555556@+##@@.",
".++##@+<<<[[[[[[[[[[}}}}}}}}}}||||||||||111111111122222222223333333333444444444455555555556@+##@@.",
".++##@+<<<[[[[[[[[[[}}}}}}}}}}||||||||||111111111122222222223333333333444444444455555555556@+##@@.",
".++##@+<<<[[[[[[[[[[}}}}}}}}}}||||||||||111111111122222222223333333333444444444455555555556@+##@@.",
".++##@+<<<[[[[[[[[[[}}}}}}}}}}||||||||||111111111122222222223333333333444444444455555555556@+##@@.",
".++##@+<<<[[[[[[[[[[}}}}}}}}}}||||||||||111111111122222222223333333333444444444455555555556@+##@@.",
".++##@+<<<[[[[[[[[[[}}}}}}}}}}||||||||||111111111122222222223333333333444444444455555555556@+##@@.",
".++##@+777888888888899999999990000000000aaaaaaaaaabbbbbbbbbbccccccccccddddddddddeeeeeeeeeef@+##@@.",
".++##@+777888888888899999999990000000000aaaaaaaaaabbbbbbbbbbccccccccccddddddddddeeeeeeeeeef@+##@@.",
".++##@+777888888888899999999990000000000aaaaaaaaaabbbbbbbbbbccccccccccddddddddddeeeeeeeeeef@+##@@.",
".++##@+777888888888899999999990000000000aaaaaaaaaabbbbbbbbbbccccccccccddddddddddeeeeeeeeeef@+##@@.",
".++##@+777888888888899999999990000000000aaaaaaaaaabbbbbbbbbbccccccccccddddddddddeeeeeeeeeef@+##@@.",
".++##@+777888888888899999999990000000000aaaaaaaaaabbbbbbbbbbccccccccccddddddddddeeeeeeeeeef@+##@@.",
".++##@+777888888888899999999990000000000aaaaaaaaaabbbbbbbbbbccccccccccddddddddddeeeeeeeeeef@+##@@.",
".++##@+777888888888899999999990000000000aaaaaaaaaabbbbbbbbbbccccccccccddddddddddeeeeeeeeeef@+##@@.",
".++##@+777888888888899999999990000000000aaaaaaaaaabbbbbbbbbbccccccccccddddddddddeeeeeeeeeef@+##@@.",
".++##@+777888888888899999999990000000000aaaaaaaaaabbbbbbbbbbccccccccccddddddddddeeeeeeeeeef@+##@@.",
".++##@+ggghhhhhhhhhhiiiiiiiiiijjjjjjjjjjkkkkkkkkkkllllllllllmmmmmmmmmmnnnnnnnnnnoooooooooop@+##@@.",
".++##@+ggghhhhhhhhhhiiiiiiiiiijjjjjjjjjjkkkkkkkkkkllllllllllmmmmmmmmmmnnnnnnnnnnoooooooooop@+##@@.",
".++##@+ggghhhhhhhhhhiiiiiiiiiijjjjjjjjjjkkkkkkkkkkllllllllllmmmmmmmmmmnnnnnnnnnnoooooooooop@+##@@.",
".++##@+ggghhhhhhhhhhiiiiiiiiiijjjjjjjjjjkkkkkkkkkkllllllllllmmmmmmmmmmnnnnnnnnnnoooooooooop@+##@@.",
".++##@+ggghhhhhhhhhhiiiiiiiiiijjjjjjjjjjkkkkkkkkkkllllllllllmmmmmmmmmmnnnnnnnnnnoooooooooop@+##@@.",
".++##@+ggghhhhhhhhhhiiiiiiiiiijjjjjjjjjjkkkkkkkkkkllllllllllmmmmmmmmmmnnnnnnnnnnoooooooooop@+##@@.",
".++##@+ggghhhhhhhhhhiiiiiiiiiijjjjjjjjjjkkkkkkkkkkllllllllllmmmmmmmmmmnnnnnnnnnnoooooooooop@+##@@.",
".++##@+ggghhhhhhhhhhiiiiiiiiiijjjjjjjjjjkkkkkkkkkkllllllllllmmmmmmmmmmnnnnnnnnnnoooooooooop@+##@@.",
".++##@+ggghhhhhhhhhhiiiiiiiiiijjjjjjjjjjkkkkkkkkkkllllllllllmmmmmmmmmmnnnnnnnnnnoooooooooop@+##@@.",
".++##@+ggghhhhhhhhhhiiiiiiiiiijjjjjjjjjjkkkkkkkkkkllllllllllmmmmmmmmmmnnnnnnnnnnoooooooooop@+##@@.",
".++##@+qqqrrrrrrrrrrssssssssssttttttttttuuuuuuuuuuvvvvvvvvvvwwwwwwwwwwxxxxxxxxxxyyyyyyyyyyz@+##@@.",
".++##@+qqqrrrrrrrrrrssssssssssttttttttttuuuuuuuuuuvvvvvvvvvvwwwwwwwwwwxxxxxxxxxxyyyyyyyyyyz@+##@@.",
".++##@+qqqrrrrrrrrrrssssssssssttttttttttuuuuuuuuuuvvvvvvvvvvwwwwwwwwwwxxxxxxxxxxyyyyyyyyyyz@+##@@.",
".++##@+qqqrrrrrrrrrrssssssssssttttttttttuuuuuuuuuuvvvvvvvvvvwwwwwwwwwwxxxxxxxxxxyyyyyyyyyyz@+##@@.",
".++##@+qqqrrrrrrrrrrssssssssssttttttttttuuuuuuuuuuvvvvvvvvvvwwwwwwwwwwxxxxxxxxxxyyyyyyyyyyz@+##@@.",
".++##@+qqqrrrrrrrrrrssssssssssttttttttttuuuuuuuuuuvvvvvvvvvvwwwwwwwwwwxxxxxxxxxxyyyyyyyyyyz@+##@@.",
".++##@+qqqrrrrrrrrrrssssssssssttttttttttuuuuuuuuuuvvvvvvvvvvwwwwwwwwwwxxxxxxxxxxyyyyyyyyyyz@+##@@.",
".++##@+qqqrrrrrrrrrrssssssssssttttttttttuuuuuuuuuuvvvvvvvvvvwwwwwwwwwwxxxxxxxxxxyyyyyyyyyyz@+##@@.",
".++##@+qqqrrrrrrrrrrssssssssssttttttttttuuuuuuuuuuvvvvvvvvvvwwwwwwwwwwxxxxxxxxxxyyyyyyyyyyz@+##@@.",
".++##@+qqqrrrrrrrrrrssssssssssttttttttttuuuuuuuuuuvvvvvvvvvvwwwwwwwwwwxxxxxxxxxxyyyyyyyyyyz@+##@@.",
".++##@+AAABBBBBBBBBBCCCCCCCCCCDDDDDDDDDDEEEEEEEEEEFFFFFFFFFFGGGGGGGGGGHHHHHHHHHHIIIIIIIIIIJ@+##@@.",
".++##@+AAABBBBBBBBBBCCCCCCCCCCDDDDDDDDDDEEEEEEEEEEFFFFFFFFFFGGGGGGGGGGHHHHHHHHHHIIIIIIIIIIJ@+##@@.",
".++##@+AAABBBBBBBBBBCCCCCCCCCCDDDDDDDDDDEEEEEEEEEEFFFFFFFFFFGGGGGGGGGGHHHHHHHHHHIIIIIIIIIIJ@+##@@.",
".++##@+AAABBBBBBBBBBCCCCCCCCCCDDDDDDDDDDEEEEEEEEEEFFFFFFFFFFGGGGGGGGGGHHHHHHHHHHIIIIIIIIIIJ@+##@@.",
".++##@+AAABBBBBBBBBBCCCCCCCCCCDDDDDDDDDDEEEEEEEEEEFFFFFFFFFFGGGGGGGGGGHHHHHHHHHHIIIIIIIIIIJ@+##@@.",
".++##@+AAABBBBBBBBBBCCCCCCCCCCDDDDDDDDDDEEEEEEEEEEFFFFFFFFFFGGGGGGGGGGHHHHHHHHHHIIIIIIIIIIJ@+##@@.",
".++##@+AAABBBBBBBBBBCCCCCCCCCCDDDDDDDDDDEEEEEEEEEEFFFFFFFFFFGGGGGGGGGGHHHHHHHHHHIIIIIIIIIIJ@+##@@.",
".++##@+AAABBBBBBBBBBCCCCCCCCCCDDDDDDDDDDEEEEEEEEEEFFFFFFFFFFGGGGGGGGGGHHHHHHHHHHIIIIIIIIIIJ@+##@@.",
".++##@+AAABBBBBBBBBBCCCCCCCCCCDDDDDDDDDDEEEEEEEEEEFFFFFFFFFFGGGGGGGGGGHHHHHHHHHHIIIIIIIIIIJ@+##@@.",
".++##@+AAABBBBBBBBBBCCCCCCCCCCDDDDDDDDDDEEEEEEEEEEFFFFFFFFFFGGGGGGGGGGHHHHHHHHHHIIIIIIIIIIJ@+##@@.",
".++##@+'''KKKKKKKKKKLLLLLLLLLLMMMMMMMMMMNNNNNNNNNNOOOOOOOOOOPPPPPPPPPPQQQQQQQQQQRRRRRRRRRRR@+##@@.",
".++##@+'''KKKKKKKKKKLLLLLLLLLLMMMMMMMMMMNNNNNNNNNNOOOOOOOOOOPPPPPPPPPPQQQQQQQQQQRRRRRRRRRRR@+##@@.",
".++##@+'''KKKKKKKKKKLLLLLLLLLLMMMMMMMMMMNNNNNNNNNNOOOOOOOOOOPPPPPPPPPPQQQQQQQQQQRRRRRRRRRRR@+##@@.",
".++##@+@@@@@@@@@@@@@@@@@@@@@@@@@@@@@@@@@@@@@@@@@@@@@@@@@@@@@@@@@@@@@@@@@@@@@@@@@@@@@@@@@@@@@+##@@.",
".++##@+++++++++++++++++++++++++++++++++++++++++++++++++++++++++++++++++++++++++++++++++++++++##@@.",
".++############################################################################################@@.",
".++############################################################################################@@.",
".+@@@@@@@@@@@@@@@@@@@@@@@@@@@@@@@@@@@@@@@@@@@@@@@@@@@@@@@@@@@@@@@@@@@@@@@@@@@@@@@@@@@@@@@@@@@@@@@."};
