/* XPM */
static char * yellow_page_xpm[] = {
"85 67 257 2",
"  	c None",
". 	c #1E1E1E",
"+ 	c #1EFDF0",
"@ 	c #5E5C22",
"# 	c #DEDA31",
"$ 	c #ABA82B",
"% 	c #FEFEFE",
"& 	c #575731",
"* 	c #42E6BA",
"= 	c #5F5F2F",
"- 	c #626053",
"; 	c #1A323E",
"> 	c #38FCF6",
", 	c #7E7C43",
"' 	c #3E3A4A",
") 	c #76EAA6",
"! 	c #8AF6EA",
"~ 	c #4E8282",
"{ 	c #7B7B63",
"] 	c #2A2E42",
"^ 	c #56CAC6",
"/ 	c #D6F2DE",
"( 	c #6A661E",
"_ 	c #6B6A1B",
": 	c #5EFAF2",
"< 	c #649568",
"[ 	c #8AE696",
"} 	c #EEF2DA",
"| 	c #70A88E",
"1 	c #668266",
"2 	c #1EE2E2",
"3 	c #A0F884",
"4 	c #75732B",
"5 	c #504F47",
"6 	c #72FAEE",
"7 	c #52988C",
"8 	c #524E12",
"9 	c #61616C",
"0 	c #76AA8E",
"a 	c #5A9672",
"b 	c #B4F874",
"c 	c #8282AB",
"d 	c #BAB731",
"e 	c #6E6E1A",
"f 	c #E2DF37",
"g 	c #22224A",
"h 	c #76FAEE",
"i 	c #4B4A22",
"j 	c #9EBF8E",
"k 	c #817E31",
"l 	c #484747",
"m 	c #CEEE60",
"n 	c #57593A",
"o 	c #6E6662",
"p 	c #DEDA42",
"q 	c #8B881F",
"r 	c #5E9E8E",
"s 	c #2A2E52",
"t 	c #AFADA5",
"u 	c #515051",
"v 	c #C0C07E",
"w 	c #6D6C6A",
"x 	c #474634",
"y 	c #8686AA",
"z 	c #EEEEEE",
"A 	c #EDE935",
"B 	c #848254",
"C 	c #33345B",
"D 	c #56564E",
"E 	c #AAA682",
"F 	c #CAF6E2",
"G 	c #8A882A",
"H 	c #DEDEDE",
"I 	c #908E20",
"J 	c #424266",
"K 	c #C6C635",
"L 	c #9F977D",
"M 	c #6A9662",
"N 	c #525256",
"O 	c #8686B2",
"P 	c #FAEED6",
"Q 	c #66A28E",
"R 	c #A2BAAA",
"S 	c #DFFA51",
"T 	c #9AAE7E",
"U 	c #333565",
"V 	c #7A7A6E",
"W 	c #64667A",
"X 	c #59595D",
"Y 	c #3C3C26",
"Z 	c #969696",
"` 	c #48484E",
" .	c #E1DDCA",
"..	c #767676",
"+.	c #8EA276",
"@.	c #968E5A",
"#.	c #AEC68E",
"$.	c #F5F135",
"%.	c #C4C478",
"&.	c #8D8A83",
"*.	c #99951F",
"=.	c #868686",
"-.	c #CAC2AA",
";.	c #8E8E8E",
">.	c #3A3A56",
",.	c #46468E",
"'.	c #D6D32F",
").	c #8A8AAA",
"!.	c #9AA22E",
"~.	c #EAF64A",
"{.	c #7A7A7F",
"].	c #565666",
"^.	c #959464",
"/.	c #34346C",
"(.	c #888850",
"_.	c #8A8AB2",
":.	c #5F5F93",
"<.	c #30322E",
"[.	c #B4F6E6",
"}.	c #7A7A94",
"|.	c #363A66",
"1.	c #4A4E5E",
"2.	c #B8B678",
"3.	c #8E8EB6",
"4.	c #D5CAB5",
"5.	c #2A2A66",
"6.	c #67664A",
"7.	c #2E2E8E",
"8.	c #82829E",
"9.	c #7E7EA1",
"0.	c #AAAA76",
"a.	c #6E6E9D",
"b.	c #D2DA8E",
"c.	c #9E9E9E",
"d.	c #B2CA8E",
"e.	c #3A3A6A",
"f.	c #4E4E8E",
"g.	c #2C2E30",
"h.	c #6E965E",
"i.	c #C8C460",
"j.	c #30327A",
"k.	c #8A8ABA",
"l.	c #4E4A52",
"m.	c #9C9A22",
"n.	c #728E5A",
"o.	c #8E8E2A",
"p.	c #727297",
"q.	c #4A4A7A",
"r.	c #52528E",
"s.	c #565672",
"t.	c #6F6D27",
"u.	c #A7C38E",
"v.	c #363672",
"w.	c #C9C984",
"x.	c #5A5A8F",
"y.	c #86869E",
"z.	c #849B46",
"A.	c #F2F842",
"B.	c #2A2A6A",
"C.	c #272A32",
"D.	c #C9D48E",
"E.	c #DACEBA",
"F.	c #F5F5F4",
"G.	c #7575AA",
"H.	c #3E3E8E",
"I.	c #6A6A3A",
"J.	c #68689C",
"K.	c #9A993F",
"L.	c #8282A2",
"M.	c #8686A2",
"N.	c #9C9E30",
"O.	c #C0BCAB",
"P.	c #7E7EA7",
"Q.	c #EAEAE6",
"R.	c #428D8C",
"S.	c #3A3A72",
"T.	c #32EAD2",
"U.	c #9E9E22",
"V.	c #76769B",
"W.	c #B2B032",
"X.	c #4DF9C5",
"Y.	c #92923E",
"Z.	c #363676",
"`.	c #FAF636",
" +	c #4C9283",
".+	c #42428E",
"++	c #2BFADF",
"@+	c #C6C656",
"#+	c #92BA8E",
"$+	c #7A7A9A",
"%+	c #8EFE8E",
"&+	c #817E1E",
"*+	c #FEFA36",
"=+	c #AAA08E",
"-+	c #D4D48B",
";+	c #6CFEAA",
">+	c #D1CE35",
",+	c #8686A6",
"'+	c #A09E5C",
")+	c #26268E",
"!+	c #2B2F47",
"~+	c #CACAC6",
"{+	c #9EF6E8",
"]+	c #DEDE8E",
"^+	c #7A7662",
"/+	c #2A2A8E",
"(+	c #8E8EBD",
"_+	c #8A8AB6",
":+	c #DAF2DE",
"<+	c #36368E",
"[+	c #8A8AAE",
"}+	c #56568E",
"|+	c #E3E032",
"1+	c #72703E",
"2+	c #8686AE",
"3+	c #FBFBFA",
"4+	c #5A5AA6",
"5+	c #8282A6",
"6+	c #AFAD7D",
"7+	c #32328E",
"8+	c #D2D1A2",
"9+	c #CAFE5E",
"0+	c #3A3A8E",
"a+	c #9C9C64",
"b+	c #999627",
"c+	c #7A7A9E",
"d+	c #AAA840",
"e+	c #BEBD42",
"f+	c #D4D4D0",
"g+	c #8F9D3A",
"h+	c #7C7C54",
"i+	c #DAD64A",
"j+	c #4A4A8E",
"k+	c #2A2E3E",
"l+	c #48FAF6",
"m+	c #A1A172",
"n+	c #A6A222",
"o+	c #FAF1DA",
"p+	c #A2A22B",
"q+	c #76766E",
"r+	c #262632",
"s+	c #767252",
"t+	c #EAE6DE",
"u+	c #2CFCF6",
"v+	c #7A7AA3",
"w+	c #727289",
"x+	c #AAAE40",
"y+	c #616177",
"z+	c #C6F6E2",
"A+	c #A6A040",
"B+	c #515127",
"C+	c #CCCA2F",
"D+	c #676788",
"E+	c #44928D",
"F+	c #E7F2DE",
"G+	c #8686B6",
"H+	c #5E5EA6",
"c+c+c+c+c+c+c+c+c+9.9.9.9.9.9.9.9.9.8.8.8.8.8.8.8.8.8.8.8.8.8.8.L.L.L.L.L.M.M.M.M.M.M.M.M.M.M.L.x.a.a.a.p.p.p.p.p.p.V.V.V.V.V.V.V.v+v+v+v+v+v+v+P.P.P.P.P.P.P.c c c c c c ",
"V.V.c+c+c+c+$+9.9.$+}.9.9.9.9.9.8.8.9.9.8.8.8.8.8.8.L.L.L.L.L.M.y.y.y.y.y.8.L.L.L.L.L.M.M.M.,+5+}+J.p.w+a.p.p.p.p.V.p.p.V.V.V.V.v+V.V.v+v+v+v+P.v+v+P.P.P.c c P.P.c c c O ",
"v+V.c+c+c+9.c+c+9.9.c+9.9.9.8.9.9.8.8.9.9.9.9.L.L.8.8.8.L.M.L.L.9.9.L.L.M.M.M.M.M.M.L.5+5+M.M.5+x.J.p.p.a.p.p.V.p.V.V.p.V.v+v+V.v+v+v+v+9.P.v+P.P.P.P.c P.P.c c c c G+c O ",
"c+v+v+v+9.c+c+9.$+9.9.9.9.8.9.8.8.9.8.8.8.8.8.8.8.}.V.W y+1.5 n t.b+K.{ V.9.L.L.,+,+,+M.M.,+,+,+x.a.a.w+p.p.V.p.V.p.V.V.V.V.V.v+V.v+c+v+v+v+P.P.P.P.P.P.c c c c c c c O c ",
"c+c+c+c+9.9.9.9.9.9.9.9.9.8.9.8.8.8.L.L.D+1.l.l o s+=+R ^ 2 T.[ m `.*+*+|+d (.q+V.8.,+,+M.,+,+5+x.a.p.p.p.p.V.p.V.V.V.V.V.v+c+v+c+v+c+9.9.9.v+P.P.P.c P.c c c c G+O c O O ",
"9.v+9.v+v+9.9.9.9.8.9.8.9.9.8.8.8.9.8.8.l.K A+L 4.P % % % P z+6 > ++) m A.*+*+$.# N.h+w }.M.,+c }+J.p.w+V.p.p.V.V.V.c+c+c+V.c+c+c+c+9.v+v+P.9.P.P.c P.c c c c O c c O O 2+",
"9.v+9.9.c+9.9.9.9.8.9.8.8.8.9.L.L.L.L.8.l.$.*+$.C+A+E E.% % % 3+P / ! > + X.b ~.*+*+*+$.K b+s+w 4+J.V.p.V.V.V.V.V.V.V.V.c+V.c+v+c+v+9.P.v+P.9.5+P.c c c c 2+c 2+O 2+2+O O ",
"v+9.9.9.9.9.9.8.9.9.8.8.L.9.L.5+L.L.8.8.X $.*+*+*+*+*+# K.^.-.% % % % P F+{+l++ X.[ S *+*+*+`.A d G - - a.w+V.V.V.V.V.c+c+c+c+c+v+9.v+9.9.9.5+P.5+P.P.c c c c c c 2+2+2+[+",
"9.v+9.P.9.L.P.L.L.5+P.9.5+5+L.L.5+L.L.L.y+'.*+*+*+*+*+*+*+`.# A+@.2.% % % % P } [.: + ++%+S *+*+*+*+`.# W.4 - y+w+c+V.V.c+c+9.9.c+9.9.9.P.P.L.9.5+5+5+c c y 2+2+2+2+[+2+_.",
"P.9.P.L.P.9.9.9.L.L.L.L.L.L.L.5+L.5+,+M.9 >+*+*+*+*+*+*+*+*+*+*+*+'.b+@.2.% % % % % F+[.: + ++;+9+A.*+*+*+*+`.'.p+= X W V.$+$+c+9.9.9.L.L.9.P.5+5+5+c 5+,+c c y y y 2+O 2+",
"P.9.9.9.5+5+5+P.9.5+5+5+5+5+5+5+,+5+5+c y+'.*+*+*+*+*+*+*+*+*+*+*+*+*+`.|+W.h+E  .% % % % F.z+6 u++ ;+b A.*+*+*+*+*+$.K o.& ].D+}.9.9.9.L.L.5+L.5+5+y c ,+y y 2+[+2+[+[+_.",
"9.P.P.5+P.L.L.L.5+L.5+5+5+5+,+,+5+5+c L.y+'.*+*+*+*+*+*+*+*+*+*+*+*+*+*+*+*+*+f $ , L E.% % % % o+F ! > + X.b ~.*+*+*+*+$.'.U.8 <.9.9.9.9.P.L.5+5+5+5+,+y y 2+y 2+).[+_.[+",
"P.L.P.L.P.5+5+5+5+5+5+5+5+5+5+5+5+,+y 5+y+'.*+*+*+*+*+*+*+*+*+*+*+*+*+*+*+*+*+*+*+*+A $ , ^.E.% % % % o+:+{+> + * d+U.q I *.n+m.l 9.L.5+L.P.5+,+,+y c c y y 2+y 2+2+[+[+_.",
"5+P.5+5+5+5+5+5+c 5+5+,+c 5+c c ,+c 5+,+D+C+*+*+*+*+*+*+*+*+*+*+*+*+*+*+*+*+*+*+*+*+*+*+*+A W.k &.4.% % % -.0.T ~ z.n+$ n+n+n+q s.9.9.L.L.L.5+L.5+5+,+,+y y ).[+[+[+[+_.[+",
"5+5+P.5+5+c 5+5+,+,+5+,+c 5+,+c ,+y c ,+$+m.*+*+*+*+*+*+C+K *+*+*+*+*+*+*+*+*+*+*+*+*+*+*+*+*+*+A W.5 2.%.b.]+]+E+g+n+n+n+n+n+4 w+L.9.L.L.L.5+,+,+,+y ,+).y y y ).2+[+_._.",
"P.5+5+c c 5+y 5+c c c c ,+y c y c c y c $+b+*+*+*+*+m._ ( m.m.m.*+*+*+*+*+*+*+*+*+*+*+*+*+*+*+*+`.f { ]+]+]+]+D.E+!.n+n+n+n+n+B+9.8.8.L.,+5+,+5+5+y ,+y ,+y ).[+[+[+[+[+_.",
"5+c 5+5+c 5+y c 5+c c c c y c y y y 2+y $+b+*+*+*+*+( . . . . . r+m.m.*+*+*+*+*+*+*+*+*+*+*+*+*+*+>+^.]+]+]+]+D.E+U.n+n+n+n+n+x 9.8.L.L.L.L.,+,+,+y ).y ).2+).2+[+[+[+[+_.",
"c 5+c c 5+c c c c y y y y c y c y c y c c+m.*+*+*+_ . . . . . . . . . m.m.*+*+*+*+*+*+*+*+*+*+*+*+W.6+]+]+]+]+j  +n+n+n+n+n+m.` 8.8.L.L.M.,+L.M.,+,+,+).y ).[+).).2+_._._.",
"c c c y c c y y c c c c 2+y 2+2+2+2+2+2+v+b+*+*+*+. . . . . . . . . . . . m.m.*+*+*+*+*+*+*+*+*+*+m.v ]+]+]+]+#+< n+n+p+n+n+q 9 L.8.8.L.L.,+,+,+).,+,+).y y [+2+[+[+[+[+_.",
"y y c c y c c c y y 2+2+2+c y c 2+2+2+2+9.G *+*+*+r+. . . . m.K ( _ . . . . . m.m.*+*+*+*+*+*+*+*+, -+]+]+]+]+| M n+n+n+n+n+e V.8.L.M.M.M.M.,+M.,+,+y ,+).).).[+[+[+[+_._.",
"c y c c y 2+2+c c c 2+c O 2+2+2+2+2+2+2+2+= *+*+*+. . r+. b+*+*+*+*+_ _ . . . . . m.*+*+*+*+*+*+*+t.]+]+]+]+]+r z.n+p+n+n+n+8 8.y.L.L.M.,+M.,+,+).,+).y y 2+).[+[+_.[+[+_.",
"c c 2+c c c c O O O c 2+2+O O 2+2+2+O 2+y = *+*+*+. . . . . *+*+*+*+*+K K _ . . . . m.*+*+*+*+*+*+6.]+]+]+]+]+ +z.n+p+n+n+U.x 8.L.y.M.L.M.,+,+,+,+).y ).).).[+2+[+[+_._.3.",
"c c O O 2+O 2+2+2+O 2+2+2+2+O O O 2+_.O [+= *+*+*+*+_ . . . K *+*+*+*+*+*+K _ . . . . C+*+*+*+*+*+I.]+]+]+]+b.E+!.n+n+n+n+m.1.y.L.y.M.M.M.M.,+,+,+).,+y y y ).2+[+[+[+[+_.",
"O O c c c 2+c c 2+2+O O 2+O 2+2+O O O O O = *+*+*+*+*+*+_ K K *+*+*+*+*+*+*+K r+. . . b+*+*+*+*+A B ]+]+]+]+D.E+U.p+n+n+n+q W 8.y.M.M.M.M.,+M.,+,+,+).).).[+[+[+[+[+_._.3.",
"c O O O c G+O c O O 2+O 2+O O _._.O O O _.= *+*+*+*+*+*+*+*+*+*+*+*+*+*+*+*+b+. . r+. _ *+*+*+*+p ^.]+]+]+]+j  +p+n+n+p+n+( }.y.8.M.M.,+M.,+).,+,+,+y y ).[+[+[+_.[+[+_._.",
"O O O O O O O O O 2+O O O O O O O O _._.O 6.*+*+*+*+*+*+*+*+*+*+*+*+*+*+*+*+. . . . . _ *+*+*+*+e+6+]+]+]+]+#+ +p+n+n+n+n+B+8.8.M.8.L.M.,+,+M.).y y ).).y y ).2+[+_._.[+3.",
"c c c G+2+O O O O O O G+O G+O O _.G+O _._.N `.*+*+*+*+*+*+*+*+*+*+*+*+*+*+*+. . . . . _ *+*+*+*+$ v ]+]+]+]+0 < n+n+U.n+U.B+,+y.M.M.M.M.M.,+,+).).,+y [+).2+[+[+[+_._._._.",
"G+G+G+O O O G+O G+G+O _.G+_.G+_+G+_._+G+2+1.`.*+*+*+*+*+*+*+*+*+*+*+*+*+*+_ r+. . . . _ *+*+*+*+K.-+]+]+]+]+r h.n+n+n+p+m.9 8.M.M.M.M.M.,+,+M.,+,+).).y [+).).[+[+[+_.[+3.",
"O O O G+G+O G+O O G+G+_.G+_.G+_+G+G+_+_+_.5 `.*+*+*+*+*+*+*+*+*+*+*+*+*+*+K _ = . . . _ *+*+*+*+4 ]+]+]+]+]+7 z.n+n+n+n+q W 8.y.M.M.,+M.M.,+,+,+,+y ).y [+[+2+[+[+[+_._._.",
"G+O G+O O O O G+G+G+O G+G+G+_+G+_+_+G+_+k.N `.*+*+*+*+*+*+*+*+*+*+*+*+*+*+*+*+K o.4 o.K *+*+*+*+, ]+]+]+]+b.E+g+n+n+n+n+( }.y.L.8.L.M.,+,+,+,+y y ).y ).).2+[+_._._._._.3.",
"G+O G+G+G+G+G+_+_+G+G+_+_+G+_+G+G+_+G+G+G+1.`.*+*+*+*+*+*+*+*+*+*+*+*+*+*+*+*+*+*+K K K *+*+*+*+I.]+]+]+]+D.E+N.p+n+n+n+i 8.y.M.M.M.M.M.,+).).,+,+).y 2+).[+[+[+[+_._._._.",
"G+G+G+G+_+G+_+G+G+k._+G+G+_+G+k.k.k.k.k._+9 A *+*+*+*+*+*+*+*+*+*+*+*+*+*+*+*+*+*+*+*+*+*+*+*+$.(.]+]+]+]+j E+!.n+n+n+U.5 8.y.y.y.L.M.,+M.M.,+).).y ).).[+).[+[+_.[+3._.3.",
"G+G+G+G+_+G+G+G+G+G+k.k.G+k._+k._+k.k.k.(+W '.*+*+*+*+*+*+*+*+*+*+*+*+*+*+*+*+*+*+*+*+*+*+*+*+f ^.]+]+]+]+j  +n+n+p+n+*.9 8.M.M.M.M.M.,+,+,+,+,+).y y ).2+y 2+[+[+[+_._._+",
"G+G+G+G+G+G+k.k._+k._+k.k.k.k.k.k.k.k.k.k.D+'.*+*+_ '.*+*+*+*+*+*+*+*+*+*+*+*+*+*+*+*+*+*+*+*+# 6+]+]+]+]+| a n+n+n+$ &+..y.8.L.M.M.M.M.,+,+,+y ,+).).2+[+[+[+[+_._.3._.3.",
"k.k.k.k.k.G+_+k.k.G+G+k.k.k.k.k.k.k.(+k.k.y+'.*+*+D { d *+*+*+*+*+*+*+*+*+*+*+*+*+*+*+*+*+*+*+x+%.]+]+]+]+Q < n+n+n+n+_ $+M.y.M.M.M.,+M.,+,+).y y y ).).[+[+_.[+[+[+_._._.",
"G+G+k.G+k.k.G+G+k.k.k.k.k.k.k.k.k.k.k.k.k.D+'.*+*+s+t O.{ `.*+*+*+*+*+*+*+*+*+*+*+*+*+*+*+*+*+W.-+]+]+]+]+ +z.p+n+n+p+B+8.L.M.8.M.,+M.,+M.).,+).).).y [+[+[+[+_._._.3._.3.",
"k.G+k.G+k.k.k.k.k.k.k.k.k.k.k.k.(+k.(+(+(+D+'.*+*+s+3+y.F+V f *+*+*+*+*+*+*+*+*+*+*+*+*+*+*+*+, ]+]+]+]+b.E+z.p+n+n+U.5 y.8.M.M.M.M.,+,+,+,+,+,+y ).y y [+2+[+[+[+_._._._+",
"k.k.k.k.k.k.(+k.(+(+k.(+(+(+(+(+k.(+(+(+(+V.$ *+A.s+% H c.% f+e+*+*+*+*+*+*+*+*+*+*+*+*+*+*+*+k ]+]+]+]+D.E+!.n+n+n+*.9 8.y.M.L.L.,+M.,+,+,+y y ).2+).[+2+[+[+_._.[+3._.3.",
"k.k.(+k.(+k.k.k.k.(+k.k.k.k.(+(+(+k.k.(+(+O m.*+*+s+% % c.H % } d+A.*+*+*+*+*+*+*+*+*+*+*+*+*+4 ]+]+]+]+u.R.g+n+n+n+q V.8.8.M.M.M.,+M.M.).M.,+y ).2+[+[+[+[+[+_._._._._._+",
"(+k.k.k.k.k.(+k.(+k.(+(+(+(+k.(+(+(+(+(+(+P.b+*+*+s+% % F.{.F.% 3+^+'.*+*+*+*+*+*+*+*+*+*+*+`.(.]+]+]+]+j  +n+p+n+n+e 9.y.y.M.M.M.M.,+,+,+).).y y ).y ).[+_._.[+_._.3._+3.",
"(+k.(+(+(+(+(+k.(+(+(+(+(+(+(+(+(+(+G+G.J.}+*.*+*+s+% % % ~+Z 3+% % { x+*+*+*+*+*+*+*+*+*+*+f ^.]+]+]+]+0  +n+n+n+n+n 8.8.y.y.M.M.,+,+,+,+,+).).y ).2+2+2+2+_._._._._._._+",
"k.(+(+k.(+k.(+(+(+(+(+(+(+(+G+v+a.H+x.:.x.r.m.*+*+s+% % % % ;.f+% % % z a+A *+*+*+*+*+*+*+*+# 0.]+]+]+]+Q < n+n+n+U.N y.y.8.L.L.5+M.,+,+,+,+,+,+).2+).).[+[+[+[+_._.3._+3.",
"(+k.(+k.(+(+(+(+(+(+k.P.a.:.H+x.:.x.x.x.x.f.*.*+*+s+% % % % 3+w F.% % % 3+{ K *+*+*+*+*+*+*+W.v ]+]+]+]+7 < n+n+n+I 9 8.M.M.M.M.M.M.M.,+y y ).y ).2+[+).[+2+_.[+_._._._.3.",
"(+(+(+(+(+(+k.c p.:.H+x.x.:.x.x.}+}+}+}+}+}+4 *+*+s+% % % % % ~+8.t+3+% % % ~+d+*+*+*+*+*+*+W.w.]+]+]+b.E+z.n+n+n+&+V.y.8.M.M.M.,+,+,+,+).,+y ).y ).[+[+[+_.[+_._._.3._+_+",
"(+(+(+c G.J.H+x.:.x.x.x.x.x.x.x.x.x.x.}+}+}+& *+*+d f+% % % % % f+c...V E f+F.z '+A *+*+*+*+G b.]+]+]+b.E+z.n+n+n+t.8.y.8.y.M.M.M.,+M.,+).,+,+).y y 2+2+[+O _.[+_._.3._+3.",
"G.J.H+:.x.x.x.x.x.x.x.x.}+}+}+}+}+}+}+}+}+}+& *+*+*+|+8+% % % % % % % 3+f+Z w 9 &.s+K *+*+*+, ]+]+]+]+u.R.!.n+n+n+x x.9.y.L.L.M.,+,+,+,+,+y y y [+[+[+[+[+[+[+_._._._.3._+",
":.x.x.x.x.x.x.}+x.}+x.x.x.x.}+}+}+r.}+r.r.r.` A *+*+*+A %.3+% % % % % % % % % F.f+Z t.*+*+*+k ]+]+]+]+j E+U.n+n+U.>.,.f.c+M.L.M.M.,+,+,+).,+y y y ).[+2+[+_._._._._._._+3.",
"x.x.x.x.x.x.x.x.}+x.}+}+}+}+}+}+r.}+}+}+}+r.r.X |+*+*+*+`.i.z % % % % % % % % % % % { *+*+`.B ]+]+]+]+0  +n+n+n+I S.,..+,.J.M.M.,+,+,+,+,+).).).).2+[+[+_.[+_._._+_+_+3._+",
"x.x.x.}+}+}+}+}+}+}+}+r.r.}+r.}+r.r.r.r.r.r.r.r.s.e+*+*+*+*+i+ .% % % % % % % % % z d *+*+A a+]+]+]+]+| a p+n+n+4 S..+.+,..+}+9.M.M.,+,+y y y y ).y [+[+_.[+_._.3._._._+3.",
"}+}+}+x.x.}+}+}+r.}+r.}+}+r.}+r.r.r.f.f.r.f.f.f.r.f.d+*+*+*+*+A 8+% % % % % % % % H # *+*+# m+]+]+]+]+ +< n+n+n+& .+.+.+H.H..+j+V.,+,+y ,+,+).[+2+[+[+2+[+_._.[+_.3._+3.k.",
"}+}+}+}+}+}+}+}+r.}+r.r.r.r.r.r.r.r.r.f.r.f.r.f.f.f.f.B $.*+*+*+$.%.3+% % % % % % O.f *+*+C+v ]+]+]+b.7 n.p+n+U.x .+H..+.+H.H.H.H.:.y y y ,+y ).y 2+[+2+[+[+_._._._+_+_+3.",
"}+}+r.r.}+r.r.r.r.r.r.r.r.f.f.f.f.f.f.f.f.f.f.j+q.f.j+j+I.$.*+*+*+*+@+Q.% % % % % O.$.*+*+$ w.]+]+]+D.R.z.n+n+U.U H..+H.H.H.H.H.H.H.f.L.).y ).y [+).[+_._._._._._.3._+3.k.",
"}+}+}+r.}+}+r.r.r.r.r.r.r.r.r.f.r.f.f.j+f.j+f.f.j+j+j+j+j+X >+*+*+*+*+p  .% % % % { A.*+*+$ b.]+]+]+d.R.Y.n+n+I Z.H.H.H.H.H.0+0+0+H.0+.+p.2+).y 2+[+[+2+_._._._._._._.3.3.",
"}+r.r.}+r.r.r.r.r.f.f.f.f.f.f.f.f.f.f.f.f.f.j+j+j+j+j+,.j+,.J K *+*+*+*+A 8+% % % { *+*+*+, ]+]+]+]+j R.N.p+n+t.0+0+H.0+0+0+0+H.0+0+0+<+0+x.y [+[+y [+[+[+_._._+_+3._+_+k.",
"}+r.r.r.f.r.r.f.r.r.f.f.f.f.f.j+f.f.j+j+j+j+j+j+j+j+j+,.j+j+,.j+Y.*+*+*+*+$.2.F.3+, *+*+*+Y.]+]+]+]+0 E+n+n+n+B+H.0+H.0+H.H.0+0+<+<+0+<+0+<+,.P.[+2+[+2+[+_._._._.3._+3.(+",
"r.r.f.f.r.f.f.f.f.f.f.f.f.j+f.f.j+j+f.j+j+j+j+j+j+,.j+j+,.,.,.,.C 4 `.*+*+*+*+@+f+W.*+*+`.h+]+]+]+]+| ~ n+p+n+>.0+H.0+0+0+<+<+0+0+0+<+0+<+<+<+0+J.[+_._._.[+_._._+_+3._+_+",
"r.r.r.f.r.r.r.f.f.f.f.f.f.j+j+j+j+j+j+j+j+j+,.,.j+,.,.,.,..+|.k+k+k+i |+*+*+*+*+^+'.*+*+$.'+]+]+]+]+7 < n+n+m./.0+0+0+<+0+0+0+<+<+<+<+<+<+<+<+<+7+}+c _._._._._._._+_+3.(+",
"r.r.f.r.f.f.f.f.j+f.f.j+j+j+j+j+j+,.j+j+j+,.j+,.,.,.,.,.|.!+C.k+k+] ] Y # *+*+*+*+*+*+*+f m+]+]+]+b.E+1 n+n+4 j.<+0+0+0+0+<+<+0+<+<+7+<+7+7+<+7+<+7+,.G._._._+_+_+_.3._+_+",
"f.f.f.f.j+j+j+f.j+j+j+j+j+j+j+j+j+,.,.,.,.,.,.,.,..+S.!+] ] ] ] k+k+] k+<.p+*+*+*+*+*+*+# v ]+]+]+D.R.n.m.i g 0+<+0+<+<+<+<+<+<+<+<+7+7+<+7+7+7+7+7.7+<+J._._.3._+_+_+3.(+",
"f.f.j+j+f.f.f.j+j+j+j+j+j+j+j+,.,.,.,.,.,.,.,.,..+.+C ] k+k+k+] C.k+] C.k+g.m.*+*+*+*+*+$ w.]+]+]+d.R.& r+j.<+<+0+<+<+<+<+<+7+7+<+7+7+7+7+7+7+7.7.7+7+7.7.f.O _.3._.(+k._+",
"f.f.f.j+j+j+j+j+j+j+j+j+j+,.j+j+j+,.,.,..+,..+,.,..+.+C k+C.C.] C.] ] C.C.C.C.@ $.*+*+*+d b.]+]+]++.; 5.Z.<+<+<+<+<+<+<+7+<+<+7+7+7+7+7.7+7+7+7+7.7.7.7.7./+<+G.k._+_+(+3.",
"j+j+j+f.j+j+j+j+j+j+,.,.,.,.,.,.,.,.,.,.,..+,..+.+.+.+H./.] ] ] ] ] ] ] s ] ] k+i '.*+*+k ]+]+-+6.g <+<+<+<+<+7+<+<+7+7+7+7+7+7+7+7+7+7+7.7.7.7.7.7.7.7.7.7.7.7.:._.3._+k.",
"j+j+j+j+j+j+j+,.,.,.,.,.,.,..+.+,..+.+.+,..+.+.+.+H..+H.H.U ] ] C.] ] ] ] k+k+k+k+<.C+*+K.]+^.g.5.Z.<+<+<+<+<+7+7+7+7+<+7+7+7+7+7+7+7.7.7.7.7.7.7./+/+/+/+/+/+/+/+,.c (+(+",
"j+j+,.j+,.,.,.,.,.,.,.,.,..+,.,..+.+.+.+.+H..+H.H..+H.H..+H.U ] ] C.] k+] C.C.k+k+k+C.q Y x r+C.] j.<+<+<+7+<+7+7+7+7+7+7+7.7.7+7.7.7+7.7.7.7.7./+7.7./+/+/+/+/+)+)+7+G._+",
"j+j+,.,.j+j+,.,.,.,.,.,.,..+.+.+.+.+.+H..+H..+H.H.H.H.0+H.H.0+U s C.C.C.] ] ] ] k+k+k+r+. r+k+] k+C.s 7+<+7+7+7+7+7+7.7.7+7.7.7.7.7.7.7./+/+/+/+/+/+/+/+/+/+/+/+)+)+)+)+4+",
",.,.j+,.,.,.,.,.,.,..+.+.+.+.+.+.+.+H..+H.H.H.H.H.H.H.H.0+0+0+0+Z.s ] ] ] ] ] k+k+k+k+] C.k+] C.] ] !+s 7.7+7+7+7+7+7.7+7.7.7.7.7./+7.7.7./+/+/+/+)+/+)+)+)+)+)+)+)+)+)+)+",
",.,.,..+.+,.,..+.+,..+.+.+.+.+.+.+.+H.H.H.H.H.H.0+H.0+H.0+H.0+0+0+j.] ] k+C.C.C.] k+k+] ] C.] ] ] C.!+!+!+7.7+7.7.7+7.7.7.7.7./+7./+/+/+/+/+/+/+/+/+/+/+)+)+)+)+)+)+)+)+)+"};
