/* XPM */
static char * close_xpm[] = {
"16 16 5 1",
" 	c #000000",
".	c #838383",
"+	c #565656",
"@	c #FFFFFF",
"#	c #454545",
"                ",
" .............. ",
" .++++++++++++. ",
" .++++++++++++. ",
" .++@++++++@++. ",
" .+++@++++@+++. ",
" .++++@++@++++. ",
" .#####@@#####. ",
" .#####@@#####. ",
" .####@##@####. ",
" .###@####@###. ",
" .##@######@##. ",
" .############. ",
" .############. ",
" .............. ",
"                "};
