/* XPM */
static char * minDown_xpm[] = {
"16 16 6 1",
" 	c None",
".	c #000000",
"+	c #CC0000",
"@	c #930000",
"#	c #770000",
"$	c #FFFFFF",
"................",
".++++++++++++++.",
".+@@@@@@@@@@@@+.",
".+@@@@@@@@@@@@+.",
".+@@@@@@@@@@@@+.",
".+@@@@@@@@@@@@+.",
".+@@@@@@@@@@@@+.",
".+############+.",
".+############+.",
".+############+.",
".+############+.",
".+##$$$$$$$$##+.",
".+############+.",
".+############+.",
".++++++++++++++.",
"................"};
