/* XPM */
static char * blender2_xpm[] = {
"48 48 815 2",
"  	c #000000",
". 	c #020100",
"+ 	c #372A00",
"@ 	c #8F6A01",
"# 	c #040300",
"$ 	c #201800",
"% 	c #F6CF20",
"& 	c #DBB126",
"* 	c #7A5600",
"= 	c #050300",
"- 	c #1E1700",
"; 	c #F0CB1E",
"> 	c #FFFEA9",
", 	c #DCB95D",
"' 	c #C48B00",
") 	c #7B5A00",
"! 	c #A27A00",
"~ 	c #F7C82E",
"{ 	c #EFD070",
"] 	c #DFAC29",
"^ 	c #CA9100",
"/ 	c #C68F00",
"( 	c #7A5900",
"_ 	c #0C0900",
": 	c #AF7B00",
"< 	c #E09E00",
"[ 	c #E1A200",
"} 	c #DA9E00",
"| 	c #CA9200",
"1 	c #C58F00",
"2 	c #775600",
"3 	c #0F0B00",
"4 	c #B78500",
"5 	c #E2A400",
"6 	c #E2A300",
"7 	c #D99D00",
"8 	c #C99100",
"9 	c #C48E00",
"0 	c #755500",
"a 	c #130E00",
"b 	c #BC8900",
"c 	c #E1A300",
"d 	c #D79C00",
"e 	c #C89000",
"f 	c #C38D00",
"g 	c #745400",
"h 	c #070500",
"i 	c #161000",
"j 	c #C18D00",
"k 	c #E0A300",
"l 	c #E0A200",
"m 	c #D59B00",
"n 	c #C69000",
"o 	c #C08B00",
"p 	c #946B00",
"q 	c #191300",
"r 	c #DFA200",
"s 	c #D49A00",
"t 	c #926A00",
"u 	c #0B0800",
"v 	c #140F00",
"w 	c #B68400",
"x 	c #DDA000",
"y 	c #CE9500",
"z 	c #8E6700",
"A 	c #090700",
"B 	c #030200",
"C 	c #2D2000",
"D 	c #2D2100",
"E 	c #2C2000",
"F 	c #291E00",
"G 	c #7F5C01",
"H 	c #D99E05",
"I 	c #D79C01",
"J 	c #BE8A00",
"K 	c #8A6400",
"L 	c #080600",
"M 	c #120E00",
"N 	c #FEC105",
"O 	c #FEB903",
"P 	c #FCB601",
"Q 	c #FCB702",
"R 	c #FDB803",
"S 	c #FDB703",
"T 	c #EFAD03",
"U 	c #CF9605",
"V 	c #CB9301",
"W 	c #CF9600",
"X 	c #D09700",
"Y 	c #CC9500",
"Z 	c #C28D00",
"` 	c #BD8900",
" .	c #835F00",
"..	c #120D00",
"+.	c #FEBD10",
"@.	c #FBC334",
"#.	c #F0B219",
"$.	c #F0AE13",
"%.	c #F0AF14",
"&.	c #EFAF13",
"*.	c #EEAE10",
"=.	c #EFB018",
"-.	c #F0B11D",
";.	c #EDAE19",
">.	c #E7A90E",
",.	c #E5A606",
"'.	c #E1A303",
").	c #DC9F01",
"!.	c #CF9500",
"~.	c #C79000",
"{.	c #CC9400",
"].	c #CA9300",
"^.	c #BA8700",
"/.	c #FEBC0F",
"(.	c #FFD24F",
"_.	c #EFB625",
":.	c #EAA90D",
"<.	c #EBAB10",
"[.	c #EAAB10",
"}.	c #E9A910",
"|.	c #E7A506",
"1.	c #E7A80F",
"2.	c #EEBD3F",
"3.	c #FBC850",
"4.	c #F2B529",
"5.	c #ECAA08",
"6.	c #E9A600",
"7.	c #CB9504",
"8.	c #C39006",
"9.	c #C18E05",
"0.	c #C28C01",
"a.	c #C58B00",
"b.	c #C38A00",
"c.	c #C48D00",
"d.	c #CB9300",
"e.	c #B88600",
"f.	c #715100",
"g.	c #030300",
"h.	c #FEBE0F",
"i.	c #F4B71B",
"j.	c #E7A700",
"k.	c #E8A800",
"l.	c #E3A400",
"m.	c #E1A000",
"n.	c #EAC144",
"o.	c #F6E09D",
"p.	c #FCD26C",
"q.	c #F6B418",
"r.	c #F1AC00",
"s.	c #CC9A0F",
"t.	c #8D8242",
"u.	c #63776E",
"v.	c #4F778E",
"w.	c #4A7A9E",
"x.	c #4F7D9B",
"y.	c #5F7E86",
"z.	c #787E5C",
"A.	c #957D2A",
"B.	c #B58202",
"C.	c #C68D00",
"D.	c #CD9500",
"E.	c #BB8800",
"F.	c #B88500",
"G.	c #6C4D00",
"H.	c #110C00",
"I.	c #DB9F01",
"J.	c #D49900",
"K.	c #D39800",
"L.	c #D39900",
"M.	c #E4A400",
"N.	c #F0B80F",
"O.	c #FBEA81",
"P.	c #FFFFE1",
"Q.	c #FEDA79",
"R.	c #F9B20A",
"S.	c #8D8243",
"T.	c #436E8F",
"U.	c #3C7BB7",
"V.	c #4B91CC",
"W.	c #59A1DB",
"X.	c #60AAE4",
"Y.	c #5FAAE9",
"Z.	c #58A4E8",
"`.	c #4D98DF",
" +	c #4A8CCB",
".+	c #5F808E",
"++	c #9F8122",
"@+	c #CB8F00",
"#+	c #D29800",
"$+	c #B98700",
"%+	c #B78400",
"&+	c #664A00",
"*+	c #010000",
"=+	c #080500",
"-+	c #0A0700",
";+	c #060400",
">+	c #684E00",
",+	c #FFCD12",
"'+	c #FFF489",
")+	c #FFFFE9",
"!+	c #FEDB7D",
"~+	c #F9B309",
"{+	c #E3A506",
"]+	c #677464",
"^+	c #356FAC",
"/+	c #4F92CD",
"(+	c #68B2EA",
"_+	c #7BC7F8",
":+	c #88D3FC",
"<+	c #8CD7FD",
"[+	c #87D3FE",
"}+	c #7CC9FD",
"|+	c #6EBDFC",
"1+	c #65B3FA",
"2+	c #55A4F7",
"3+	c #508CC8",
"4+	c #98863C",
"5+	c #D49500",
"6+	c #D89C00",
"7+	c #B48200",
"8+	c #574000",
"9+	c #443400",
"0+	c #FFD725",
"a+	c #FFF793",
"b+	c #FFFFED",
"c+	c #FFE495",
"d+	c #F8B617",
"e+	c #EDAA00",
"f+	c #697462",
"g+	c #3470B2",
"h+	c #579DD9",
"i+	c #71BDF6",
"j+	c #8CD6FF",
"k+	c #A5ECFF",
"l+	c #B7F8FF",
"m+	c #BBFAFF",
"n+	c #B2F4FF",
"o+	c #9EE4FF",
"p+	c #86D0FF",
"q+	c #75C2FF",
"r+	c #68B6FF",
"s+	c #59A7FF",
"t+	c #5091D5",
"u+	c #AA8E32",
"v+	c #DF9E00",
"w+	c #DEA100",
"x+	c #C48F00",
"y+	c #AF7F00",
"z+	c #352700",
"A+	c #443300",
"B+	c #FFDD25",
"C+	c #FFFBA9",
"D+	c #FFFFF6",
"E+	c #FFECAF",
"F+	c #F9BD32",
"G+	c #F7AF00",
"H+	c #94843C",
"I+	c #3169AA",
"J+	c #5497D8",
"K+	c #6DB9F9",
"L+	c #8AD3FF",
"M+	c #ABEFFF",
"N+	c #CAFFFF",
"O+	c #DEFFFF",
"P+	c #E2FFFF",
"Q+	c #D5FFFF",
"R+	c #BCF9FF",
"S+	c #9CE0FF",
"T+	c #83CBFF",
"U+	c #6FBAFF",
"V+	c #63AFFF",
"W+	c #55A3FB",
"X+	c #6190B4",
"Y+	c #D19B0C",
"Z+	c #E6A500",
"`+	c #DDA005",
" @	c #B68401",
".@	c #A97A00",
"+@	c #9F7200",
"@@	c #0E0A00",
"#@	c #FFDE25",
"$@	c #FFFBAA",
"%@	c #FFF6BD",
"&@	c #FCC54E",
"*@	c #F2AE0C",
"=@	c #D7A009",
"-@	c #446784",
";@	c #4685CB",
">@	c #62ADF6",
",@	c #79C5FF",
"'@	c #9AE0FF",
")@	c #C0FBFF",
"!@	c #E0FFFF",
"~@	c #F1FFFF",
"{@	c #F2FFFF",
"]@	c #E5FFFF",
"^@	c #CAFEFF",
"/@	c #A8EAFF",
"(@	c #8DD1FF",
"_@	c #73BDFF",
":@	c #63AFFE",
"<@	c #5CA6F7",
"[@	c #4B97EF",
"}@	c #9B965E",
"|@	c #EDA700",
"1@	c #EBAB0C",
"2@	c #C9930A",
"3@	c #A57800",
"4@	c #AE7E00",
"5@	c #4E3800",
"6@	c #FFDD24",
"7@	c #FFFFF3",
"8@	c #FEEB9A",
"9@	c #F6C348",
"0@	c #EFB028",
"a@	c #F1AB00",
"b@	c #998332",
"c@	c #336AAA",
"d@	c #559AE5",
"e@	c #66B3FF",
"f@	c #7DC6FF",
"g@	c #9FE2FF",
"h@	c #C2FCFF",
"i@	c #DDFFFF",
"j@	c #E9FFFF",
"k@	c #E7FFFF",
"l@	c #DAFFFF",
"m@	c #C4FCFF",
"n@	c #A6E6FF",
"o@	c #8CCFFF",
"p@	c #73BBFF",
"q@	c #62ACFC",
"r@	c #5BA4F2",
"s@	c #519CEF",
"t@	c #6991AB",
"u@	c #E8A902",
"v@	c #F2B00F",
"w@	c #E2A71B",
"x@	c #A97B01",
"y@	c #A77900",
"z@	c #916900",
"A@	c #050400",
"B@	c #221900",
"C@	c #FBD313",
"D@	c #FFF692",
"E@	c #FFFFF4",
"F@	c #FFF9C0",
"G@	c #FCC742",
"H@	c #EDAD28",
"I@	c #E7A918",
"J@	c #727350",
"K@	c #3874BA",
"L@	c #5AA2F1",
"M@	c #67B3FF",
"N@	c #7BC2FF",
"O@	c #9ADCFF",
"P@	c #B8F5FF",
"Q@	c #CDFFFF",
"R@	c #D3FFFF",
"S@	c #CEFFFF",
"T@	c #B2EFFF",
"U@	c #9BDBFF",
"V@	c #86C9FF",
"W@	c #70B7FF",
"X@	c #60A9F8",
"Y@	c #59A1EE",
"Z@	c #549BE8",
"`@	c #538ECB",
" #	c #D9A819",
".#	c #F9B410",
"+#	c #F2B42A",
"@#	c #B28208",
"##	c #A47700",
"$#	c #150F00",
"%#	c #1B1400",
"&#	c #ECC010",
"*#	c #FFF587",
"=#	c #FFF8C4",
"-#	c #FED66A",
";#	c #FBBB2B",
">#	c #E9AC23",
",#	c #E1A30A",
"'#	c #DB9F00",
")#	c #5A6B68",
"!#	c #407EC3",
"~#	c #5AA2F0",
"{#	c #63AEFE",
"]#	c #8BCFFF",
"^#	c #A4E3FF",
"/#	c #B3F0FF",
"(#	c #A7E6FF",
"_#	c #A0DFFF",
":#	c #9AD9FF",
"<#	c #8BCBFF",
"[#	c #79BDFF",
"}#	c #69AFFC",
"|#	c #5DA4F1",
"1#	c #579DE9",
"2#	c #5397E2",
"3#	c #4C8CD2",
"4#	c #C4A436",
"5#	c #FFBB12",
"6#	c #FEC13D",
"7#	c #BF8C12",
"8#	c #A17400",
"9#	c #AB7C00",
"0#	c #2A1E00",
"a#	c #ECC110",
"b#	c #FFF688",
"c#	c #FFFFEF",
"d#	c #FFF6C3",
"e#	c #FCD167",
"f#	c #F1B225",
"g#	c #FBB922",
"h#	c #E9AB1D",
"i#	c #DA9E02",
"j#	c #D29901",
"k#	c #4E6874",
"l#	c #4482C7",
"m#	c #579FEC",
"n#	c #5EA8F7",
"o#	c #68B1FE",
"p#	c #78BEFF",
"q#	c #8ACCFF",
"r#	c #95D5FF",
"s#	c #93D2FF",
"t#	c #86C7FF",
"u#	c #85C6FF",
"v#	c #84C5FF",
"w#	c #78BBFF",
"x#	c #6BB0FD",
"y#	c #60A7F3",
"z#	c #589FE9",
"A#	c #5499E2",
"B#	c #5093DA",
"C#	c #4688D0",
"D#	c #BBA341",
"E#	c #FFC41C",
"F#	c #FFD156",
"G#	c #CA971F",
"H#	c #AF7E00",
"I#	c #372800",
"J#	c #FFF4C0",
"K#	c #FBCD62",
"L#	c #EAA903",
"M#	c #FCBA23",
"N#	c #EAAC1C",
"O#	c #506770",
"P#	c #4380C4",
"Q#	c #559BE5",
"R#	c #5FA6F5",
"S#	c #68AEFC",
"T#	c #73B8FF",
"U#	c #7CBFFF",
"V#	c #80C2FF",
"W#	c #81C2FF",
"X#	c #80C1FF",
"Y#	c #75B8FF",
"Z#	c #69ADF9",
"`#	c #60A5F2",
" $	c #599EE9",
".$	c #5599E1",
"+$	c #5294DB",
"@$	c #4D8DD3",
"#$	c #4582C6",
"$$	c #C0A43A",
"%$	c #FFCF2F",
"&$	c #FFE371",
"*$	c #CC9D27",
"=$	c #9E7100",
"-$	c #3C2C00",
";$	c #FFF1BE",
">$	c #F9C75C",
",$	c #E6A91B",
"'$	c #F0AE01",
")$	c #F9B71D",
"!$	c #EDAE1E",
"~$	c #D09600",
"{$	c #CE9400",
"]$	c #5F6A5C",
"^$	c #3C78BC",
"/$	c #5294DC",
"($	c #569BE6",
"_$	c #589FEA",
":$	c #5CA3F0",
"<$	c #62A8F5",
"[$	c #68ADF9",
"}$	c #6DB1FC",
"|$	c #72B5FD",
"1$	c #6FB3FC",
"2$	c #65AAF5",
"3$	c #5CA1EC",
"4$	c #579CE6",
"5$	c #5598E1",
"6$	c #5293DA",
"7$	c #4F8ED1",
"8$	c #4987CA",
"9$	c #467DB6",
"0$	c #D6AF27",
"a$	c #FFE252",
"b$	c #FFF48B",
"c$	c #C49825",
"d$	c #9F7100",
"e$	c #3A2A00",
"f$	c #FFEEBB",
"g$	c #F5C156",
"h$	c #E3A619",
"i$	c #DFA100",
"j$	c #624600",
"k$	c #C38C00",
"l$	c #F7B410",
"m$	c #F0B01B",
"n$	c #CC9402",
"o$	c #D09300",
"p$	c #7B713A",
"q$	c #346BAB",
"r$	c #4D8CD0",
"s$	c #5295DB",
"t$	c #5497E0",
"u$	c #559AE4",
"v$	c #579DE7",
"w$	c #5AA0EB",
"x$	c #5DA2ED",
"y$	c #5CA1EB",
"z$	c #589DE6",
"A$	c #5499E1",
"B$	c #5295DC",
"C$	c #5191D7",
"D$	c #4E8CCF",
"E$	c #4B87C7",
"F$	c #417DC1",
"G$	c #587D93",
"H$	c #F6C219",
"I$	c #FFF787",
"J$	c #FEF79A",
"K$	c #B88C1B",
"L$	c #A07200",
"M$	c #FFFFF0",
"N$	c #FEEBB8",
"O$	c #F0BA50",
"P$	c #DEA215",
"Q$	c #4F3900",
"R$	c #FAB604",
"S$	c #F0B013",
"T$	c #D09706",
"U$	c #C68E00",
"V$	c #A57F10",
"W$	c #396189",
"X$	c #4580C1",
"Y$	c #4E8CD0",
"Z$	c #5090D5",
"`$	c #5193D9",
" %	c #5396DE",
".%	c #5397DF",
"+%	c #5397DE",
"@%	c #5294DA",
"#%	c #5091D6",
"$%	c #4E8ED1",
"%%	c #4C8ACB",
"&%	c #4984C4",
"*%	c #467FBB",
"=%	c #3470B7",
"-%	c #929154",
";%	c #FFDE38",
">%	c #FFFFC1",
",%	c #F2E58E",
"'%	c #A77A07",
")%	c #A27500",
"!%	c #FCE8B5",
"~%	c #EAB44A",
"{%	c #DA9E13",
"]%	c #DA9D00",
"^%	c #4C3700",
"/%	c #271C00",
"(%	c #F5B100",
"_%	c #EFAD08",
":%	c #DBA009",
"<%	c #BF8800",
"[%	c #656749",
"}%	c #4882C0",
"|%	c #4C88C8",
"1%	c #4D8ACD",
"2%	c #4E8ED2",
"3%	c #4E8DD1",
"4%	c #4D8CCE",
"5%	c #4B89C9",
"6%	c #4985C5",
"7%	c #4781BF",
"8%	c #447CB6",
"9%	c #3A72B1",
"0%	c #476F8F",
"a%	c #E3BC1D",
"b%	c #FFF78E",
"c%	c #FFFFE4",
"d%	c #D6BD5B",
"e%	c #9F7000",
"f%	c #A67800",
"g%	c #856000",
"h%	c #F9E5B1",
"i%	c #E4AF44",
"j%	c #D59B11",
"k%	c #D59A00",
"l%	c #453200",
"m%	c #BF8B00",
"n%	c #EDAB01",
"o%	c #E8A806",
"p%	c #C48E02",
"q%	c #B98500",
"r%	c #A67B08",
"s%	c #445E6F",
"t%	c #376EAE",
"u%	c #457DB8",
"v%	c #4881BD",
"w%	c #4883C1",
"x%	c #4984C3",
"y%	c #4985C4",
"z%	c #4983C2",
"A%	c #4782BF",
"B%	c #467EBA",
"C%	c #447BB5",
"D%	c #4277AF",
"E%	c #3A6EA9",
"F%	c #30629D",
"G%	c #AF9C31",
"H%	c #FFE94D",
"I%	c #FFFFEA",
"J%	c #FAF6C3",
"K%	c #B2891C",
"L%	c #A07100",
"M%	c #493500",
"N%	c #1B1500",
"O%	c #ECC517",
"P%	c #FFF992",
"Q%	c #F6E2AE",
"R%	c #DEA93F",
"S%	c #D1980E",
"T%	c #3F2F00",
"U%	c #4B3600",
"V%	c #F1AF00",
"W%	c #E8A901",
"X%	c #D89C02",
"Y%	c #BB8700",
"Z%	c #B88400",
"`%	c #967312",
" &	c #3F5D73",
".&	c #3267A6",
"+&	c #3F74AD",
"@&	c #4277B1",
"#&	c #4378B3",
"$&	c #4379B4",
"%&	c #4379B3",
"&&	c #4278B2",
"*&	c #4176AE",
"=&	c #3F72A9",
"-&	c #3D6EA4",
";&	c #3366A1",
">&	c #2D5C93",
",&	c #9B8F3B",
"'&	c #FFDC2D",
")&	c #FFFECC",
"!&	c #FFFFF9",
"~&	c #D3BA5D",
"{&	c #A47600",
"]&	c #9C7100",
"^&	c #130D00",
"/&	c #E5B105",
"(&	c #F8D850",
"_&	c #F5E8AA",
":&	c #F0D99D",
"<&	c #D9A53C",
"[&	c #CE950C",
"}&	c #CC9300",
"|&	c #3B2A00",
"1&	c #E7A800",
"2&	c #BD8A00",
"3&	c #BE8800",
"4&	c #A37A0D",
"5&	c #566258",
"6&	c #2E5D91",
"7&	c #2F64A0",
"8&	c #376AA0",
"9&	c #396BA1",
"0&	c #396BA0",
"a&	c #39699F",
"b&	c #36669B",
"c&	c #2D5F98",
"d&	c #255894",
"e&	c #446276",
"f&	c #B49929",
"g&	c #FFD929",
"h&	c #FFFCB3",
"i&	c #FFFFFF",
"j&	c #E8DA90",
"k&	c #A67909",
"l&	c #A07300",
"m&	c #AB7B00",
"n&	c #503900",
"o&	c #010100",
"p&	c #5A4201",
"q&	c #D99E04",
"r&	c #D79C02",
"s&	c #D39C1F",
"t&	c #CA940F",
"u&	c #362600",
"v&	c #1A1200",
"w&	c #DC9F00",
"x&	c #C88F00",
"y&	c #967B22",
"z&	c #606855",
"A&	c #3D5C75",
"B&	c #335A81",
"C&	c #315984",
"D&	c #325981",
"E&	c #3A5B78",
"F&	c #636D5A",
"G&	c #9D8933",
"H&	c #E9B511",
"I&	c #FFDE3A",
"J&	c #FFFCAC",
"K&	c #FFFFEB",
"L&	c #EEE29A",
"M&	c #AC8214",
"N&	c #A87900",
"O&	c #856100",
"P&	c #634800",
"Q&	c #CC9404",
"R&	c #C08C00",
"S&	c #312400",
"T&	c #594100",
"U&	c #E3A500",
"V&	c #D69B00",
"W&	c #D89A00",
"X&	c #D99B00",
"Y&	c #D09906",
"Z&	c #C09314",
"`&	c #BA921B",
" *	c #C89A17",
".*	c #E7AB0B",
"+*	c #FDBC0A",
"@*	c #FFCC1D",
"#*	c #FFE459",
"$*	c #FFFFA7",
"%*	c #FFFFC4",
"&*	c #E5D379",
"**	c #AB8011",
"=*	c #A67700",
"-*	c #1E1500",
";*	c #735300",
">*	c #D19700",
",*	c #CF9700",
"'*	c #CE9600",
")*	c #ECAA00",
"!*	c #F5B004",
"~*	c #FCB60F",
"{*	c #FFBF25",
"]*	c #FFCE47",
"^*	c #FFE16B",
"/*	c #FFF388",
"(*	c #F5E37E",
"_*	c #CAA83C",
":*	c #A27404",
"<*	c #2B1F00",
"[*	c #191200",
"}*	c #9F7400",
"|*	c #C79100",
"1*	c #DEA206",
"2*	c #E4A60F",
"3*	c #E9AB19",
"4*	c #F1B327",
"5*	c #F7BB39",
"6*	c #F3BD44",
"7*	c #E3B440",
"8*	c #CA9D2C",
"9*	c #A97B0A",
"0*	c #9D6F00",
"a*	c #976E00",
"b*	c #271D00",
"c*	c #896400",
"d*	c #BC8800",
"e*	c #B58300",
"f*	c #B48300",
"g*	c #B78501",
"h*	c #B88604",
"i*	c #B88607",
"j*	c #B8860A",
"k*	c #B28109",
"l*	c #A77802",
"m*	c #A17300",
"n*	c #9D7000",
"o*	c #AA7A00",
"p*	c #725300",
"q*	c #4B3700",
"r*	c #A97B00",
"s*	c #B28100",
"t*	c #AA7C00",
"u*	c #A67900",
"v*	c #A47800",
"w*	c #A37500",
"x*	c #A17500",
"y*	c #A27400",
"z*	c #815E00",
"A*	c #322400",
"B*	c #4C3800",
"C*	c #8D6600",
"D*	c #AA7B00",
"E*	c #AC7C00",
"F*	c #A97900",
"G*	c #A37600",
"H*	c #9B7000",
"I*	c #835E00",
"J*	c #553E00",
"K*	c #241A00",
"L*	c #251A00",
"M*	c #2E2200",
"N*	c #2E2100",
"                                                                                                ",
"                                                                                                ",
"                                                  .                                             ",
"                                                + @ #                                           ",
"                                              $ % & * =                                         ",
"                                            - ; > , ' ) =                                       ",
"                                            ! ~ { ] ^ / ( #                                     ",
"                                            _ : < [ } | 1 2 #                                   ",
"                                              3 4 5 6 7 8 9 0 #                                 ",
"                                                a b c c d e f g h                               ",
"                                                  i j k l m n o p _                             ",
"                                                    q n r r s 1 o t u                           ",
"                                                      v w x } y 1 o z A                         ",
"            B C D C C C C C C C C C C C C C C C C C E F G H I s y 9 J K L                       ",
"            M N O P Q Q Q Q Q Q Q Q Q Q Q Q P P Q R R S T U V W X Y Z `  .h                     ",
"            ..+.@.#.$.%.%.%.%.%.%.%.%.%.&.*.=.-.;.>.,.'.).!.e 9 ~.{.].o ^.( =                   ",
"            ../.(._.:.<.<.<.<.[.[.[.}.|.1.2.3.4.5.6.7 7.8.9.0.a.b.c.d.| b e.f.g.                ",
"            ..h.i.j.k.k.k.k.k.j.l.m.l.n.o.p.q.r.s.t.u.v.w.x.y.z.A.B.C.D.].E.F.G.B               ",
"            H.I.J.K.L.L.L.L.W ~.M.N.O.P.Q.R.k.S.T.U.V.W.X.Y.Z.`. +.+++@+#+{.$+%+&+.             ",
"            *+=+A -+-+-+-+L ;+>+,+'+)+!+~+{+]+^+/+(+_+:+<+[+}+|+1+2+3+4+5+6+d.w 7+8+*+          ",
"                            9+0+a+b+c+d+e+f+g+h+i+j+k+l+m+n+o+p+q+r+s+t+u+v+w+x+y+y+z+          ",
"                          A+B+C+D+E+F+G+H+I+J+K+L+M+N+O+P+Q+R+S+T+U+V+W+X+Y+Z+`+ @.@+@@@        ",
"                        9+#@$@D+%@&@*@=@-@;@>@,@'@)@!@~@{@]@^@/@(@_@:@<@[@}@|@1@2@3@4@5@        ",
"                      A+6@C+7@8@9@0@a@b@c@d@e@f@g@h@i@j@k@l@m@n@o@p@q@r@s@t@u@v@w@x@y@z@A@      ",
"                    B@C@D@E@F@G@H@I@6.J@K@L@M@N@O@P@Q@R@S@h@T@U@V@W@X@Y@Z@`@ #.#+#@#####$#      ",
"                  %#&#*#b+=#-#;#>#,#'#)#!#~#{#p@]#^#/#T@(#_#:#<#[#}#|#1#2#3#4#5#6#7#8#9#0#      ",
"                %#a#b#c#d#e#f#g#h#i#j#k#l#m#n#o#p#q#r#s#t#u#v#w#x#y#z#A#B#C#D#E#F#G#+@H#I#      ",
"              %#a#b#c#J#K#h#L#M#N#J.y O#P#Q#Y@R#S#T#U#V#W#X#Y#Z#`# $.$+$@$#$$$%$&$*$=$H#-$      ",
"            %#a#b#c#;$>$,$l.'$)$!$~${$]$^$/$($_$:$<$[$}$|$1$2$3$4$5$6$7$8$9$0$a$b$c$d$4@e$      ",
"          %#a#b#c#f$g$h$i$j$k$l$m$n$o$p$q$r$s$t$u$v$w$x$x$y$z$A$B$C$D$E$F$G$H$I$J$K$L$.@D       ",
"        %#a#b#M$N$O$P$i$Q$  g R$S$T$U$V$W$X$Y$Z$`$/$ %.%+% %@%#%$%%%&%*%=%-%;%>%,%'%)%)%i       ",
"      %#a#b#M$!%~%{%]%^%    /%(%_%:%` <%[%q$}%|%1%Y$2%2%2%3%4%5%6%7%8%9%0%a%b%c%d%e%f%g%#       ",
"    %#a#b#M$h%i%j%k%l%      B m%n%o%p%q%r%s%t%u%v%w%x%y%y%z%A%B%C%D%E%F%G%H%I%J%K%L%9#M%        ",
"  N%O%P%7@Q%R%S%X T%          U%V%W%X%Y%Z%`% &.&+&@&#&$&%&&&*&=&-&;&>&,&'&)&!&~&e%{&]&^&        ",
"u /&(&_&:&<&[&}&|&            ;+$+1&l.D.2&3&4&5&6&7&8&9&0&a&b&c&d&e&f&g&h&i&j&k&l&m&n&          ",
"o&p&q&r&s&t&/ u&                v&l k w&d.1 x&k$y&z&A&B&C&D&E&F&G&H&I&J&K&L&M&d$N&O&A           ",
"  *+P&]%Q&R&S&                    T&U&7 V&y {.W W&X&Y&Z&`& *.*+*@*#*$*%*&***d$=*+@-*            ",
"    o&;*8 C                       B z@} >*,*'*L.d w&l.)*!*~*{*]*^*/*(*_*:*+@f%)%<*              ",
"      # [*                          A }*X ~./ |*D.d 1*2*3*4*5*6*7*8*9*0*8#.@a*b*                ",
"                                      A c*1 d*4 e*f*g*h*i*j*k*l*m*n*8#y@o*p*v                   ",
"                                        B q*r*s*t*u*v*w*x*y*)%{&f%9#y@z*A*B                     ",
"                                            3 B*C*##D*E*E*F*G*H*I*J*K*#                         ",
"                                                g.a L*M*N*/%[*u .                               ",
"                                                                                                ",
"                                                                                                ",
"                                                                                                ",
"                                                                                                ",
"                                                                                                "};
