/* XPM */
static char * gaim_xpm[] = {
"48 48 730 2",
"  	c #000000",
". 	c #0D0D0B",
"+ 	c #6E6113",
"@ 	c #B49C16",
"# 	c #E1BE19",
"$ 	c #EFC916",
"% 	c #E0B811",
"& 	c #B3930D",
"* 	c #6C5909",
"= 	c #0D0C07",
"- 	c #5F5718",
"; 	c #E2C521",
"> 	c #F2D62A",
", 	c #F3D82E",
"' 	c #F3D72D",
") 	c #F2D52A",
"! 	c #F1D01F",
"~ 	c #F0CA18",
"{ 	c #EEC110",
"] 	c #DCA908",
"^ 	c #5B4503",
"/ 	c #7C6F1B",
"( 	c #F2D92E",
"_ 	c #F4DE3D",
": 	c #F4E146",
"< 	c #F5E24C",
"[ 	c #F4E04A",
"} 	c #F4DE3F",
"| 	c #F3D935",
"1 	c #F1D324",
"2 	c #F0C715",
"3 	c #EDBB0D",
"4 	c #EAAE06",
"5 	c #745102",
"6 	c #605718",
"7 	c #F3DC32",
"8 	c #F4E144",
"9 	c #F5E55A",
"0 	c #F6E76B",
"a 	c #F6E770",
"b 	c #F5E461",
"c 	c #F4E048",
"d 	c #F3D834",
"e 	c #F1CF1F",
"f 	c #EEC212",
"g 	c #EBB208",
"h 	c #E5A004",
"i 	c #563400",
"j 	c #0D0D0C",
"k 	c #E3CA2B",
"l 	c #F4E044",
"m 	c #F5E763",
"n 	c #F6EB80",
"o 	c #F7ED95",
"p 	c #F7ED98",
"q 	c #F6EC90",
"r 	c #F6E87D",
"s 	c #F5E45F",
"t 	c #F3DC3D",
"u 	c #F1D326",
"v 	c #EEC415",
"w 	c #EAB40A",
"x 	c #E6A004",
"y 	c #D27F01",
"z 	c #040100",
"A 	c #6E641C",
"B 	c #F3DB38",
"C 	c #F5E454",
"D 	c #F6EB7D",
"E 	c #F7EE9C",
"F 	c #F8F0AE",
"G 	c #F7EEA3",
"H 	c #F6EB8E",
"I 	c #F6E66B",
"J 	c #F4DF48",
"K 	c #F1D32A",
"L 	c #EEC616",
"M 	c #EAB40B",
"N 	c #E5A105",
"O 	c #DF8802",
"P 	c #5E2E00",
"Q 	c #B6A223",
"R 	c #F3DE41",
"S 	c #F6E763",
"T 	c #F7EC8E",
"U 	c #F8F0AC",
"V 	c #F9F3BF",
"W 	c #F8F1BA",
"X 	c #F8F0AA",
"Y 	c #F7EC93",
"Z 	c #F6E76D",
"` 	c #F4DE44",
" .	c #F1D32B",
"..	c #EDC215",
"+.	c #E8B20A",
"@.	c #E49C04",
"#.	c #DE8602",
"$.	c #9E5100",
"%.	c #E2C624",
"&.	c #F3DE42",
"*.	c #F7F0AA",
"=.	c #F8F1B4",
"-.	c #F8F0B2",
";.	c #F6EB8B",
">.	c #F3DA3D",
",.	c #F0D225",
"'.	c #EBC112",
").	c #E7AE09",
"!.	c #E19803",
"~.	c #DD8001",
"{.	c #C66400",
"].	c #F1D222",
"^.	c #F3DD3A",
"/.	c #F6EA80",
"(.	c #F7ED9A",
"_.	c #F7EEA1",
":.	c #F6EC93",
"<.	c #F6E872",
"[.	c #F4E04E",
"}.	c #F1D734",
"|.	c #EECA1D",
"1.	c #EABA0D",
"2.	c #E5A606",
"3.	c #DE8B02",
"4.	c #DA7A01",
"5.	c #D26800",
"6.	c #E0C11C",
"7.	c #F1D731",
"8.	c #F5E563",
"9.	c #F6E97D",
"0.	c #F6E988",
"a.	c #F6E880",
"b.	c #F5E66B",
"c.	c #F4E050",
"d.	c #F2D937",
"e.	c #EFCF25",
"f.	c #EBC114",
"g.	c #E7AE0A",
"h.	c #E09805",
"i.	c #D98002",
"j.	c #D36B01",
"k.	c #C15A00",
"l.	c #B29914",
"m.	c #EFCE24",
"n.	c #F3DF46",
"o.	c #F3E154",
"p.	c #F4E15A",
"q.	c #F3E054",
"r.	c #F3DE48",
"s.	c #F1D73A",
"t.	c #EECF27",
"u.	c #EBC116",
"v.	c #E7B20D",
"w.	c #E09F06",
"x.	c #DA8B02",
"y.	c #D57501",
"z.	c #CF6300",
"A.	c #903D00",
"B.	c #6A5A11",
"C.	c #ECC51A",
"D.	c #EECD24",
"E.	c #EFD22F",
"F.	c #F0D537",
"G.	c #F0D53C",
"H.	c #F0D538",
"I.	c #EED02B",
"J.	c #EDCC23",
"K.	c #E8BD16",
"L.	c #E6B40F",
"M.	c #E1A107",
"N.	c #D98303",
"O.	c #D27502",
"P.	c #CF6801",
"Q.	c #CA5C00",
"R.	c #471900",
"S.	c #DAAE10",
"T.	c #EABF18",
"U.	c #EBC41F",
"V.	c #EBC722",
"W.	c #E9C41D",
"X.	c #E9BF1A",
"Y.	c #E6BA14",
"Z.	c #E3AA0C",
"`.	c #DD9A08",
" +	c #D78804",
".+	c #D27A02",
"++	c #CA6601",
"@+	c #C15600",
"#+	c #B24A00",
"$+	c #594B10",
"%+	c #E5B011",
"&+	c #E4B210",
"*+	c #E2B212",
"=+	c #E3B012",
"-+	c #E2AE0E",
";+	c #E1A80D",
">+	c #DD9F09",
",+	c #D99307",
"'+	c #D48304",
")+	c #CF7503",
"!+	c #CA6801",
"~+	c #C25801",
"{+	c #BC5200",
"]+	c #2B0F00",
"^+	c #715C11",
"/+	c #DFA20C",
"(+	c #DFA30C",
"_+	c #DA9A09",
":+	c #D79006",
"<+	c #D58805",
"[+	c #D27D03",
"}+	c #CD6D02",
"|+	c #C46101",
"1+	c #C15A01",
"2+	c #BB5200",
"3+	c #431800",
"4+	c #554513",
"5+	c #CA8D09",
"6+	c #D48D07",
"7+	c #D38305",
"8+	c #CF7804",
"9+	c #CC7203",
"0+	c #C96B02",
"a+	c #C46302",
"b+	c #C15801",
"c+	c #AD4C00",
"d+	c #2A1000",
"e+	c #0D0D0D",
"f+	c #5F4B13",
"g+	c #9E720D",
"h+	c #C47F08",
"i+	c #CF7D06",
"j+	c #C17A07",
"k+	c #9A6609",
"l+	c #58400D",
"m+	c #42381B",
"n+	c #705915",
"o+	c #B3780A",
"p+	c #040301",
"q+	c #F2E8A7",
"r+	c #A09C81",
"s+	c #9E9873",
"t+	c #686453",
"u+	c #4D4A40",
"v+	c #4C493A",
"w+	c #4A4632",
"x+	c #49452F",
"y+	c #474229",
"z+	c #786926",
"A+	c #917B24",
"B+	c #AA8C20",
"C+	c #DCB11C",
"D+	c #DEB422",
"E+	c #E1BF2F",
"F+	c #DEB11F",
"G+	c #7D4A04",
"H+	c #52524F",
"I+	c #F5F0D4",
"J+	c #F5EEC7",
"K+	c #F1E493",
"L+	c #EFE17D",
"M+	c #ECD95F",
"N+	c #E9D450",
"O+	c #E8CD3D",
"P+	c #E6C737",
"Q+	c #E5C62E",
"R+	c #E4C12B",
"S+	c #E4C127",
"T+	c #E3BD22",
"U+	c #E0B41C",
"V+	c #E1BA23",
"W+	c #E3BF2E",
"X+	c #DFB21F",
"Y+	c #CF7D05",
"Z+	c #421C00",
"`+	c #535351",
" @	c #F6F2D4",
".@	c #F6F1D3",
"+@	c #F3E798",
"@@	c #F1E383",
"#@	c #EEDE68",
"$@	c #EBD750",
"%@	c #EAD23F",
"&@	c #E8CD37",
"*@	c #E8CA2F",
"=@	c #E7C729",
"-@	c #E7C223",
";@	c #E5BD1C",
">@	c #E2B81A",
",@	c #E0B017",
"'@	c #DFAE15",
")@	c #D79509",
"!@	c #CD7202",
"~@	c #CC7001",
"{@	c #2A1100",
"]@	c #535251",
"^@	c #F5EFC5",
"/@	c #F5EEB6",
"(@	c #F1E270",
"_@	c #EEDC50",
":@	c #EDD53C",
"<@	c #E9CA25",
"[@	c #E8C41D",
"}@	c #E8C118",
"|@	c #E7BA12",
"1@	c #E5B20D",
"2@	c #E2A80A",
"3@	c #E09F08",
"4@	c #DC9806",
"5@	c #D88B04",
"6@	c #D38002",
"7@	c #D37802",
"8@	c #CD6D01",
"9@	c #CD6801",
"0@	c #491D00",
"a@	c #53524F",
"b@	c #F6EFBE",
"c@	c #F6ECAE",
"d@	c #F2E36D",
"e@	c #F1DF56",
"f@	c #F0D73C",
"g@	c #ECCF27",
"h@	c #EAC61B",
"i@	c #E9C115",
"j@	c #E9BD11",
"k@	c #E8BA0D",
"l@	c #E7B20B",
"m@	c #E5AC08",
"n@	c #E1A306",
"o@	c #DF9C05",
"p@	c #D98B03",
"q@	c #D48002",
"r@	c #CF7502",
"s@	c #CC6601",
"t@	c #C96101",
"u@	c #7D3800",
"v@	c #F6EFBC",
"w@	c #F6ECAC",
"x@	c #F4E66D",
"y@	c #F0D93A",
"z@	c #EFD226",
"A@	c #EDC91B",
"B@	c #ECC413",
"C@	c #EBBF10",
"D@	c #EBBB0C",
"E@	c #EAB609",
"F@	c #E7AE08",
"G@	c #E3A106",
"H@	c #E09804",
"I@	c #DA8B03",
"J@	c #D47D02",
"K@	c #984C00",
"L@	c #0D0500",
"M@	c #5D2900",
"N@	c #AF4F00",
"O@	c #CE6100",
"P@	c #B75600",
"Q@	c #170800",
"R@	c #F6EEB5",
"S@	c #F7EEAE",
"T@	c #F4E463",
"U@	c #F3DF48",
"V@	c #F3DA3A",
"W@	c #F0D022",
"X@	c #EFC917",
"Y@	c #EDC211",
"Z@	c #EEC40D",
"`@	c #ECBB0A",
" #	c #EBB608",
".#	c #E8AC06",
"+#	c #E6A605",
"@#	c #E19804",
"##	c #DA8803",
"$#	c #D17802",
"%#	c #451C00",
"&#	c #7D3300",
"*#	c #CF5C00",
"=#	c #672600",
"-#	c #F7EDA6",
";#	c #F5E561",
">#	c #F4DF44",
",#	c #F1D01E",
"'#	c #F0C916",
")#	c #EEC60F",
"!#	c #EEC10C",
"~#	c #EDBA09",
"{#	c #ECB608",
"]#	c #E9AE06",
"^#	c #E5A104",
"/#	c #DF9503",
"(#	c #D98602",
"_#	c #CE7202",
":#	c #281000",
"<#	c #351100",
"[#	c #511C00",
"}#	c #060200",
"|#	c #8D8D8D",
"1#	c #DCDCDC",
"2#	c #FAFAFA",
"3#	c #F9F9F9",
"4#	c #D6D6D6",
"5#	c #808080",
"6#	c #080808",
"7#	c #F6EDAD",
"8#	c #F6EB9F",
"9#	c #F5E258",
"0#	c #F4DE42",
"a#	c #F2D72D",
"b#	c #F1D21E",
"c#	c #F0CA14",
"d#	c #F0C40E",
"e#	c #EEBF0B",
"f#	c #EDBA08",
"g#	c #EBB406",
"h#	c #E7AA05",
"i#	c #E49F04",
"j#	c #DF9003",
"k#	c #D78002",
"l#	c #CC6B01",
"m#	c #010000",
"n#	c #747474",
"o#	c #8A8A8A",
"p#	c #8C8C8C",
"q#	c #919191",
"r#	c #989898",
"s#	c #717171",
"t#	c #171717",
"u#	c #FEFEFE",
"v#	c #D7D7D7",
"w#	c #53524E",
"x#	c #F6EBA5",
"y#	c #F6EA95",
"z#	c #F4E14E",
"A#	c #F4DE41",
"B#	c #F2D72A",
"C#	c #F1CF1B",
"D#	c #EFC711",
"E#	c #EEBD09",
"F#	c #ECB607",
"G#	c #E8A804",
"H#	c #E39A03",
"I#	c #DC8802",
"J#	c #C86601",
"K#	c #0A0400",
"L#	c #BEBEBE",
"M#	c #BFBFBF",
"N#	c #C6C6C6",
"O#	c #D1D1D1",
"P#	c #DFDFDF",
"Q#	c #EBEBEB",
"R#	c #555555",
"S#	c #535350",
"T#	c #F7EDB5",
"U#	c #F6EA90",
"V#	c #F4DF46",
"W#	c #F3DA35",
"X#	c #F1D425",
"Y#	c #F0CC18",
"Z#	c #EFC40E",
"`#	c #EEBD0A",
" $	c #ECB807",
".$	c #EBB006",
"+$	c #E9A804",
"@$	c #E6A103",
"#$	c #E39803",
"$$	c #D98302",
"%$	c #D07201",
"&$	c #C86301",
"*$	c #453429",
"=$	c #E5E5E5",
"-$	c #CACACA",
";$	c #9B9B9B",
">$	c #838383",
",$	c #F6ECAD",
"'$	c #F6E888",
")$	c #F3DA38",
"!$	c #F1D01D",
"~$	c #F0C713",
"{$	c #EDBA0C",
"]$	c #E9AC06",
"^$	c #E9A805",
"/$	c #E69F03",
"($	c #E19502",
"_$	c #CF6B01",
":$	c #C35C01",
"<$	c #1B0A00",
"[$	c #070707",
"}$	c #939393",
"|$	c #BDBDBD",
"1$	c #D0D0D0",
"2$	c #F4E575",
"3$	c #F5E468",
"4$	c #F2D731",
"5$	c #F1D223",
"6$	c #EFC715",
"7$	c #ECBB0E",
"8$	c #EBB409",
"9$	c #E7A805",
"0$	c #E59C03",
"a$	c #E29803",
"b$	c #DF8E02",
"c$	c #DA8002",
"d$	c #D37501",
"e$	c #461B00",
"f$	c #353535",
"g$	c #767676",
"h$	c #030303",
"i$	c #6B6B6B",
"j$	c #CBCBCB",
"k$	c #0F0F0F",
"l$	c #E2E2E2",
"m$	c #4C4C4C",
"n$	c #BDB261",
"o$	c #F4E054",
"p$	c #F2D734",
"q$	c #EFC918",
"r$	c #EDBF0F",
"s$	c #EAB60A",
"t$	c #E7AA06",
"u$	c #E39C04",
"v$	c #DF9002",
"w$	c #E09002",
"x$	c #DA8001",
"y$	c #D97A01",
"z$	c #D26B01",
"A$	c #C05200",
"B$	c #632400",
"C$	c #8B8B8B",
"D$	c #797979",
"E$	c #BABABA",
"F$	c #020202",
"G$	c #A29950",
"H$	c #F1D42E",
"I$	c #EDBD0F",
"J$	c #E9B40A",
"K$	c #E7A806",
"L$	c #DD9003",
"M$	c #DC8B02",
"N$	c #DA8302",
"O$	c #D77A01",
"P$	c #D47201",
"Q$	c #D47001",
"R$	c #C65A00",
"S$	c #BA5000",
"T$	c #9B3C00",
"U$	c #E7E7E7",
"V$	c #646464",
"W$	c #656565",
"X$	c #949494",
"Y$	c #B3B3B3",
"Z$	c #6C6641",
"`$	c #F0CF24",
" %	c #DC8B03",
".%	c #D58002",
"+%	c #D27201",
"@%	c #CF6D01",
"#%	c #C95C00",
"$%	c #C65800",
"%%	c #BA4C00",
"&%	c #B24400",
"*%	c #3C3C3C",
"=%	c #4F4F4F",
"-%	c #5D5940",
";%	c #F0CD23",
">%	c #EDC41B",
",%	c #E4A606",
"'%	c #DA8802",
")%	c #CC6801",
"!%	c #C66101",
"~%	c #C25F01",
"{%	c #C45C01",
"]%	c #C45800",
"^%	c #C45600",
"/%	c #C25200",
"(%	c #BA4800",
"_%	c #130600",
":%	c #929292",
"<%	c #868686",
"[%	c #D5D5D5",
"}%	c #B5B5B5",
"|%	c #ECC117",
"1%	c #EBBF15",
"2%	c #E39F06",
"3%	c #DA8602",
"4%	c #C05C01",
"5%	c #974A11",
"6%	c #423229",
"7%	c #1E0A00",
"8%	c #903B00",
"9%	c #C15200",
"0%	c #BB4800",
"a%	c #B64100",
"b%	c #5A1C00",
"c%	c #AEAEAE",
"d%	c #A7A7A7",
"e%	c #A1A1A1",
"f%	c #A2A2A2",
"g%	c #5B5B5B",
"h%	c #626262",
"i%	c #9A9A9A",
"j%	c #B59512",
"k%	c #E7B10E",
"l%	c #E2A108",
"m%	c #D57801",
"n%	c #481B00",
"o%	c #250C00",
"p%	c #BF4A00",
"q%	c #B63F00",
"r%	c #AB3800",
"s%	c #1E1E1E",
"t%	c #292929",
"u%	c #333333",
"v%	c #FCFCFC",
"w%	c #6E6E6E",
"x%	c #8F8F8F",
"y%	c #737373",
"z%	c #969696",
"A%	c #585858",
"B%	c #B19B41",
"C%	c #E6AB0B",
"D%	c #E19C08",
"E%	c #C35A01",
"F%	c #1A0900",
"G%	c #9D3600",
"H%	c #B13C00",
"I%	c #140600",
"J%	c #0E0E0E",
"K%	c #EFEFEF",
"L%	c #342F15",
"M%	c #E3A209",
"N%	c #DE9A08",
"O%	c #CA5F00",
"P%	c #3B1500",
"Q%	c #9C3500",
"R%	c #631F00",
"S%	c #C8C8C8",
"T%	c #7C7C7C",
"U%	c #676767",
"V%	c #DEDEDE",
"W%	c #A6A6A6",
"X%	c #404040",
"Y%	c #D59B15",
"Z%	c #DE9707",
"`%	c #7E3600",
" &	c #848484",
".&	c #7E7E7E",
"+&	c #545454",
"@&	c #959595",
"#&	c #ABABAB",
"$&	c #909090",
"%&	c #242424",
"&&	c #6D6B6B",
"*&	c #A6400B",
"=&	c #4A4A4A",
"-&	c #A0A0A0",
";&	c #858585",
">&	c #232323",
",&	c #2D2D2D",
"'&	c #F2F2F2",
")&	c #565656",
"!&	c #2E2E2E",
"~&	c #C0C0C0",
"{&	c #F6F6F6",
"]&	c #F7F7F7",
"^&	c #3D3D3D",
"/&	c #050505",
"(&	c #EAEAEA",
"_&	c #F8F8F8",
":&	c #B69742",
"<&	c #CE8E12",
"[&	c #221E1A",
"}&	c #C2C2C2",
"|&	c #B2B2B2",
"1&	c #625955",
"2&	c #5D3A2A",
"3&	c #2C2C2C",
"4&	c #C1C1C1",
"5&	c #F4F4F4",
"6&	c #C9C9C9",
"7&	c #828282",
"8&	c #322B0F",
"9&	c #A49064",
"0&	c #888888",
"a&	c #B4B4B4",
"b&	c #7D7D7D",
"c&	c #121212",
"d&	c #5A5A5A",
"e&	c #CCCCCC",
"f&	c #818181",
"g&	c #EDEDED",
"h&	c #CDCDCD",
"i&	c #2F2F2F",
"j&	c #A5A5A5",
"k&	c #B1B1B1",
"l&	c #9B9999",
"m&	c #414141",
"n&	c #979797",
"o&	c #C4C4C4",
"p&	c #E8E8E8",
"q&	c #CFCFCF",
"r&	c #C3C3C3",
"s&	c #E1E1E1",
"t&	c #1D1D1D",
"u&	c #D4D4D4",
"v&	c #DDDDDD",
"w&	c #B7B7B7",
"x&	c #FFFFFF",
"y&	c #FDFDFD",
"z&	c #111111",
"A&	c #010101",
"B&	c #BBBBBB",
"C&	c #BCBCBC",
"D&	c #636363",
"E&	c #A3A3A3",
"F&	c #272727",
"G&	c #DBDBDB",
"H&	c #060606",
"I&	c #D3D3D3",
"J&	c #494949",
"K&	c #7F7F7F",
"L&	c #5E5E5E",
"M&	c #FBFBFB",
"N&	c #CECECE",
"O&	c #383838",
"P&	c #E9E9E9",
"Q&	c #757575",
"R&	c #282828",
"S&	c #595959",
"T&	c #707070",
"U&	c #E0E0E0",
"                                                                                                ",
"                                                                                                ",
"                                                                                                ",
"                                    . + @ # $ % & * =                                           ",
"                                  - ; > , ' ) ! ~ { ] ^                                         ",
"                                / ( _ : < [ } | 1 2 3 4 5                                       ",
"                              6 7 8 9 0 a a b c d e f g h i                                     ",
"                            j k l m n o p q r s t u v w x y z                                   ",
"                            A B C D E F F G H I J K L M N O P                                   ",
"                            Q R S T U V W X Y Z `  ...+.@.#.$.                                  ",
"                            %.&.S T *.=.-.G ;.b >.,.'.).!.~.{.                                  ",
"                            ].^.9 /.(.G _.:.<.[.}.|.1.2.3.4.5.                                  ",
"                            6.7.[ 8.9.0.a.b.c.d.e.f.g.h.i.j.k.                                  ",
"                            l.m.d.n.o.p.q.r.s.t.u.v.w.x.y.z.A.                                  ",
"                            B.C.D.E.F.G.H.I.J.K.L.M.N.O.P.Q.R.                                  ",
"                            j S.T.U.V.V.W.X.Y.Z.`. +.+++@+#+                                    ",
"                              $+%+&+*+=+-+;+>+,+'+)+!+~+{+]+                                    ",
"                                ^+/+(+_+_+:+<+[+}+|+1+2+3+                                      ",
"                                  4+5+6+7+8+9+0+a+b+c+d+                                        ",
"                                    e+f+g+h+i+j+k+l+e+  m+n+o+p+                                ",
"                              q+r+s+t+u+v+w+x+y+z+A+B+C+D+E+F+G+                                ",
"                            H+I+J+K+L+M+N+O+P+Q+R+S+T+U+V+W+X+Y+Z+                              ",
"                            `+ @.@+@@@#@$@%@&@*@=@-@;@>@,@'@)@!@~@{@                            ",
"                            ]@^@/@(@_@:@<@[@}@|@L.1@2@3@4@5@6@7@8@9@0@                          ",
"                            a@b@c@d@e@f@g@h@i@j@k@l@m@n@o@p@q@r@~@s@t@u@                        ",
"                            a@v@w@x@q.y@z@A@B@C@D@E@F@G@H@I@J@K@L@M@N@O@P@Q@                    ",
"                            a@R@S@T@U@V@W@X@Y@Z@`@ #.#+#@###$#%#      ]+&#*#=#                  ",
"                            a@R@-#;#>#| ,#'#)#!#~#{#]#^#/#(#_#:#            <#[#}#              ",
"            e+|#1#2#3#4#5#6#a@7#8#9#0#a#b#c#d#e#f#g#h#i#j#k#l#m#n#o#p#q#r#s#t#                  ",
"u#v#                        w#x#y#z#A#B#C#D#!#E#F#]#G#H#I#7@J#K#                s#L#M#N#O#P#Q#R#",
"u#v#          u#v#          S#T#U#V#W#X#Y#Z#`# $.$+$@$#$$$%$&$*$                          =$-$  ",
"              ;$>$            ,$'$)$) !$~${$g ]$^$/$($3.i._$:$<$    [$R#}$|$1$L#n#6#            ",
"    u#v#                      2$3$4$5$6$7$8$4 9$0$a$b$c$d$s@:$e$f$g$    h$i$j$P#;$e+          k$",
"l$m$                          n$o$p$q$r$s$t$^#u$v$w$x$y$z$t@A$B$  C$D$        s#E$F$            ",
"                              G$>.H$I$J$K$u$L$M$N$O$P$Q$P.R$S$T$                                ",
"u#U$V$W$X$u#Y$                Z$H$`$8$2.H@ %.%+%@%9@9@s@#%$%%%&%                                ",
"                *%V$V$u#U$V$=%-%;%>%,%H@'%7@)%!%~%{%{%]%^%/%(%&%_%    :%<%        3#[%      u#v#",
"                          u#}%  |%1%2%3%O.++4%5%6%    7%8%9%0%a%b%        c%d%                  ",
"    e%u#f%g%h%}%u#i%            j%k%l%m%)%1+n%            o%p%q%r%s%t%                      u%5#",
"v%v#    w%u#x%y%u#z%          A%B%C%D%9@E%F%                m#G%H%I%                            ",
"  u#v#        J%K%g%            L%M%N%O%P%                    m#Q%R%        :%S%s%    [$T%U%  u#",
"v#    u#v#  u#V%W%3#P#X%        <%Y%Z%`%F$ &.&  h$+&@&#&$&%&    &&*&F$=&@&-&;&>&  ,&L#'&2#[%)&  ",
"!&~&{&]&N#^&  /&|#(&_&~&,&  !&~&x%:&<&[&              }&|&      ;&1&2&$&r#3&  4&}%  5&[%|#6&h$7&",
"(&5&$&u#v#        u#v#      u#v#  8&9&n#0&a&b&c&F$d&Y$e&f&g&h&i&j&k&l&0&m&  n&o&4#k&/&C$p&]&~&,&",
"        q&u#u#r&h$.&s&2#s&.&h$      d%r&t&    /&A%=%F$s#u&'&v&T%h$  V%Y$t%;$M#-$w&=%    v%v#|#6&",
"  u#v#!&~&{&]&N#^&          x&x&y&u&    j&O#z&A&B&C&        k$'&D&  /&>$O#4#E&F&  C&G&A&h%u#5#  ",
"O#v&H&|#(&_&~&,&  /&|#(&_&~&,&    v%I&  T%P#J&  K&L#A&                                          ",
"            L&{&M&N&j&.&O&    u#v#    _&N&  (&P&Q&D${&~&        u#V%R&F&S&5&o#  T&]&d&^&e&U&h$  "};
