/* XPM */
static char * gazerbeam_xpm[] = {
"48 48 28 1",
" 	c None",
".	c #000000",
"+	c #881717",
"@	c #8A1818",
"#	c #891717",
"$	c #310808",
"%	c #070101",
"&	c #871717",
"*	c #861717",
"=	c #110303",
"-	c #020000",
";	c #220505",
">	c #801616",
",	c #0A0101",
"'	c #480C0C",
")	c #1D0505",
"!	c #7E1515",
"~	c #1F0505",
"{	c #080101",
"]	c #1B0404",
"^	c #0F0202",
"/	c #0C0202",
"(	c #140303",
"_	c #7A1515",
":	c #6D1313",
"<	c #0E0202",
"[	c #851717",
"}	c #0D0202",
"                                                ",
"                                                ",
"                                                ",
"                                                ",
"                                                ",
"                                                ",
"                                                ",
"                                                ",
"                                                ",
"                                                ",
"                                                ",
"               ....... +@# .......              ",
"            .....      #@# .. .......           ",
"         ...          +#@#        $%...         ",
"       ...         & *#@@#    @@      %..       ",
"      ...=  +@@@ @@@+##@@#    @@@@      ...     ",
"    ...-  #@@@@@@@@@@@@@@#    @@@@@@@    ...    ",
"   ...;  @@@@@@@@@@@@@@@@#   +@@@@@@@      ..   ",
"  ... >#@@@@@@@@@@@@@@@@@#   #@@@@@@@   @   ..  ",
"  .-  #@@@@@@@@@@@@@@@@@@#   @@@@@@@@@ @@@   .  ",
" ..  #@@@@@@@@@@@@@@@@@@@#    @@@@@@@@ @@@    . ",
" ..  @@@@@@@@@@@@@@@@@ @@#    @@@@@@@       .   ",
" .  @@@@@@             @@+                 .,'  ",
"..  @ @@@   .........  #@+ .............  ..)!  ",
"..  @@@@@     .  .  .  #@# .................~   ",
" .  @@@@@           .. #@#  .{      ]^    ../'  ",
" .- #@@@@@@@@@         #@#     #+###@###   (... ",
" ...  @@@@@@@@@@     . @@#   #@@@@@@@@@@@@  ... ",
"  ..   @@@@@@@@@ @@_   @@#  :@@@@@@@@@@@@@  ..  ",
"  ...  @@@@  @@@ @@    @@#   #@@@@@@@@@@@@  ..  ",
"   ...< #@@@@@@  @@ .. @@#   #@@@@@@@@@@@  ..   ",
"    ....   #@@@  @  .. @@#   #@@@@@@@@@   ..    ",
"      ...    ##@@@@ .. @@#   @@@@@@@@   ...     ",
"       ....-   [+#@ .. @@+   #@@@@@&  ...       ",
"         .....      .. @@#          ...         ",
"           ......   .. ###    .%}%...           ",
"              .......  ##+ .......              ",
"                        #   .                   ",
"                                                ",
"                                                ",
"                                                ",
"                                                ",
"                                                ",
"                                                ",
"                                                ",
"                                                ",
"                                                ",
"                                                "};
