/* XPM */
static char * gcalc_xpm[] = {
"48 48 369 2",
"  	c #000000",
". 	c #414141",
"+ 	c #909090",
"@ 	c #C2C2C2",
"# 	c #9D9D9D",
"$ 	c #484848",
"% 	c #070808",
"& 	c #5F5F5F",
"* 	c #9B9B9B",
"= 	c #C9C9C9",
"- 	c #D7D7D7",
"; 	c #CCCCCC",
"> 	c #C0C0C0",
", 	c #AFAFAF",
"' 	c #8A8A8A",
") 	c #2F2F2F",
"! 	c #313434",
"~ 	c #515151",
"{ 	c #747474",
"] 	c #989898",
"^ 	c #B4B4B4",
"/ 	c #9C9C9C",
"( 	c #CDCDCD",
"_ 	c #BCBCBC",
": 	c #B3B3B3",
"< 	c #C3C3C3",
"[ 	c #C1C1C1",
"} 	c #BFBFBF",
"| 	c #8D8D8D",
"1 	c #5C5C5C",
"2 	c #303132",
"3 	c #4E4E4E",
"4 	c #303032",
"5 	c #666663",
"6 	c #9D9D96",
"7 	c #303031",
"8 	c #8C8C84",
"9 	c #5A6056",
"0 	c #515D51",
"a 	c #424C42",
"b 	c #495449",
"c 	c #434D43",
"d 	c #6A7367",
"e 	c #696969",
"f 	c #2F3031",
"g 	c #606F60",
"h 	c #6B7B6B",
"i 	c #4E5A4E",
"j 	c #404A40",
"k 	c #3C443C",
"l 	c #596659",
"m 	c #475247",
"n 	c #6C6C6C",
"o 	c #2F2F31",
"p 	c #384038",
"q 	c #4D594D",
"r 	c #3A433A",
"s 	c #6F6F6F",
"t 	c #2E2F30",
"u 	c #798274",
"v 	c #768072",
"w 	c #2E2E30",
"x 	c #676761",
"y 	c #2E2D2F",
"z 	c #2A2A27",
"A 	c #4C4C48",
"B 	c #393935",
"C 	c #2D2D2F",
"D 	c #282828",
"E 	c #6D6D6D",
"F 	c #2D2D2E",
"G 	c #2E2E2E",
"H 	c #121212",
"I 	c #4C4C4C",
"J 	c #494949",
"K 	c #2D2C2E",
"L 	c #333333",
"M 	c #848484",
"N 	c #808080",
"O 	c #525252",
"P 	c #8A8D8D",
"Q 	c #3B3E3F",
"R 	c #2D2F2F",
"S 	c #202020",
"T 	c #161617",
"U 	c #262627",
"V 	c #545356",
"W 	c #6F6F71",
"X 	c #A8ACAC",
"Y 	c #85898A",
"Z 	c #8F9393",
"` 	c #949798",
" .	c #939797",
"..	c #939697",
"+.	c #939597",
"@.	c #939596",
"#.	c #929595",
"$.	c #929495",
"%.	c #919495",
"&.	c #919395",
"*.	c #919394",
"=.	c #919293",
"-.	c #909293",
";.	c #909193",
">.	c #8F9192",
",.	c #8F9091",
"'.	c #8F8F91",
").	c #8E8F91",
"!.	c #8E8F90",
"~.	c #8D8E90",
"{.	c #8D8D8F",
"].	c #8C8C8E",
"^.	c #8C8C8D",
"/.	c #8B8B8D",
"(.	c #858486",
"_.	c #737275",
":.	c #7C7B7D",
"<.	c #2C2B2D",
"[.	c #A5A8A9",
"}.	c #636869",
"|.	c #626768",
"1.	c #626667",
"2.	c #616567",
"3.	c #616566",
"4.	c #606465",
"5.	c #606365",
"6.	c #5F6364",
"7.	c #5F6264",
"8.	c #5E6163",
"9.	c #5E6162",
"0.	c #5D6062",
"a.	c #5D5F61",
"b.	c #5C5E60",
"c.	c #5B5D5F",
"d.	c #5B5C5E",
"e.	c #5A5C5E",
"f.	c #5A5B5D",
"g.	c #595A5D",
"h.	c #59595C",
"i.	c #58595B",
"j.	c #58585B",
"k.	c #57575A",
"l.	c #575759",
"m.	c #565659",
"n.	c #565558",
"o.	c #555457",
"p.	c #545256",
"q.	c #A5A7A8",
"r.	c #4F5354",
"s.	c #4C4F50",
"t.	c #4B4E4F",
"u.	c #494B4C",
"v.	c #494A4B",
"w.	c #474749",
"x.	c #464647",
"y.	c #434245",
"z.	c #706F72",
"A.	c #2C2B2C",
"B.	c #7B7B7B",
"C.	c #565656",
"D.	c #818485",
"E.	c #888888",
"F.	c #7E8081",
"G.	c #737375",
"H.	c #ACACAC",
"I.	c #7E7D7F",
"J.	c #2B2A2C",
"K.	c #A4A7A7",
"L.	c #969696",
"M.	c #BABABA",
"N.	c #959595",
"O.	c #3A3A3A",
"P.	c #87898A",
"Q.	c #A1A1A1",
"R.	c #878889",
"S.	c #B0B0B0",
"T.	c #818181",
"U.	c #818183",
"V.	c #B5B5B5",
"W.	c #727272",
"X.	c #7E7C7F",
"Y.	c #A4A6A7",
"Z.	c #616667",
"`.	c #86888A",
" +	c #8E8E8E",
".+	c #D2D2D2",
"++	c #979797",
"@+	c #838486",
"#+	c #676767",
"$+	c #A3A3A3",
"%+	c #818082",
"&+	c #A0A0A0",
"*+	c #7E7C7E",
"=+	c #2B2A2B",
"-+	c #A3A6A7",
";+	c #868789",
">+	c #838383",
",+	c #7E7E80",
"'+	c #808082",
")+	c #7D7B7E",
"!+	c #2B292B",
"~+	c #A3A6A6",
"{+	c #606466",
"]+	c #4D4F51",
"^+	c #5D5E60",
"/+	c #5C5F60",
"(+	c #4A4B4D",
"_+	c #5A5B5C",
":+	c #434345",
"<+	c #413F42",
"[+	c #727073",
"}+	c #2A292B",
"|+	c #A3A5A6",
"1+	c #7A7D7E",
"2+	c #7F8082",
"3+	c #848587",
"4+	c #848486",
"5+	c #757678",
"6+	c #818184",
"7+	c #7B7B7D",
"8+	c #807F81",
"9+	c #6F6C6F",
"0+	c #504E51",
"a+	c #494A4C",
"b+	c #57585A",
"c+	c #464748",
"d+	c #656467",
"e+	c #535255",
"f+	c #535154",
"g+	c #525054",
"h+	c #525053",
"i+	c #514F52",
"j+	c #514E52",
"k+	c #504D51",
"l+	c #2A282A",
"m+	c #A2A5A5",
"n+	c #434143",
"o+	c #403E41",
"p+	c #6D6A6E",
"q+	c #A2A4A5",
"r+	c #929292",
"s+	c #BEBEBE",
"t+	c #87888A",
"u+	c #737373",
"v+	c #A6A6A6",
"w+	c #7B797B",
"x+	c #29282A",
"y+	c #9F9F9F",
"z+	c #B1B1B1",
"A+	c #7B797C",
"B+	c #5B5B5B",
"C+	c #666666",
"D+	c #949494",
"E+	c #757575",
"F+	c #848385",
"G+	c #A2A3A5",
"H+	c #4B4D4F",
"I+	c #484A4B",
"J+	c #7E7F81",
"K+	c #47484B",
"L+	c #454547",
"M+	c #676669",
"N+	c #454447",
"O+	c #565456",
"P+	c #636265",
"Q+	c #7B787B",
"R+	c #292729",
"S+	c #808284",
"T+	c #858788",
"U+	c #848687",
"V+	c #767879",
"W+	c #6A6B6D",
"X+	c #595A5C",
"Y+	c #7D7E80",
"Z+	c #828284",
"`+	c #818284",
" @	c #555558",
".@	c #7B7A7C",
"+@	c #7F7E81",
"@@	c #79777A",
"#@	c #525154",
"$@	c #DCDCDC",
"%@	c #292629",
"&@	c #A1A3A4",
"*@	c #4A4C4E",
"=@	c #47474A",
"-@	c #444447",
";@	c #444346",
">@	c #424043",
",@	c #514F53",
"'@	c #B8B8B8",
")@	c #A1A2A3",
"!@	c #666467",
"~@	c #626063",
"{@	c #7A777A",
"]@	c #292628",
"^@	c #898989",
"/@	c #A8A8A8",
"(@	c #7D7B7D",
"_@	c #7A7679",
":@	c #282528",
"<@	c #5C5D5F",
"[@	c #58585A",
"}@	c #7F7E80",
"|@	c #A5A5A5",
"1@	c #A4A4A4",
"2@	c #7C7A7D",
"3@	c #797579",
"4@	c #7E7D80",
"5@	c #7C797C",
"6@	c #3F3D3F",
"7@	c #3D393D",
"8@	c #797578",
"9@	c #282527",
"0@	c #48494B",
"a@	c #464648",
"b@	c #575659",
"c@	c #434144",
"d@	c #403D40",
"e@	c #605E61",
"f@	c #4F4B4F",
"g@	c #888588",
"h@	c #6A6569",
"i@	c #232022",
"j@	c #474B4B",
"k@	c #5A5B5E",
"l@	c #838385",
"m@	c #7C7C7E",
"n@	c #565658",
"o@	c #636064",
"p@	c #777678",
"q@	c #6E6A6E",
"r@	c #4E4A4E",
"s@	c #4D494D",
"t@	c #4D484C",
"u@	c #4C484C",
"v@	c #4C474B",
"w@	c #4B464A",
"x@	c #353135",
"y@	c #202121",
"z@	c #2B2E2E",
"A@	c #363939",
"B@	c #3A3B3C",
"C@	c #3A3A3C",
"D@	c #3A3A3B",
"E@	c #39393B",
"F@	c #39383A",
"G@	c #38383A",
"H@	c #383739",
"I@	c #363637",
"J@	c #343234",
"K@	c #373538",
"L@	c #373537",
"M@	c #363537",
"N@	c #363437",
"O@	c #383638",
"P@	c #383639",
"Q@	c #353235",
"R@	c #333134",
"S@	c #343134",
"T@	c #333133",
"U@	c #333033",
"V@	c #332F32",
"W@	c #322F32",
"X@	c #322F31",
"Y@	c #312E31",
"Z@	c #312D31",
"`@	c #1D1E1F",
" #	c #171818",
"                                                                                                ",
"                                                                                                ",
"                                                                                                ",
"              . + @ @ @ @ @ @ @ @ @ @ @ @ @ @ @ @ @ @ @ @ @ @ @ @ @ @ @ @ # $   %               ",
"            $ & * = - ; > , * * * * * * * * * * * * * * * * * * * * * * * * ' ) !               ",
"            ~ { { ] ^ / ( _ { { { { { { { { { { { { { { { { { { { ' : < [ } | 1 2               ",
"            ~ 3 3 3 3 3 3 3 3 3 3 3 3 3 3 3 3 3 3 3 3 3 3 3 3 3 3 3 3 3 3 3 3 ~ 4               ",
"            ~ 5 6 6 6 6 6 6 6 6 6 6 6 6 6 6 6 6 6 6 6 6 6 6 6 6 6 6 6 6 6 6 5 ~ 7               ",
"            ~ 8 8 8 8 9 0 0 0 0 0 0 0 0 0 0 0 0 0 0 a 0 b 0 c 0 0 0 d 8 8 8 8 e f               ",
"            ~ 8 8 8 8 g h h h h h h h h h h h h h i j h k l 0 m h h h 8 8 8 8 n o               ",
"            ~ 8 8 8 8 h h h h h h h h h h h h h h l p h 0 h q r g m h 8 8 8 8 s t               ",
"            ~ 8 8 8 8 u h h h h h h h h h h h h h h h h g h h h h h v 8 8 8 8 n w               ",
"            ~ 8 8 8 8 8 8 8 8 8 8 8 8 8 8 8 8 8 8 8 8 8 8 8 8 8 8 8 8 8 8 8 8 n w               ",
"            ~ x 8 8 8 8 8 8 8 8 8 8 8 8 8 8 8 8 8 8 8 8 8 8 8 8 8 8 8 8 8 8 x n y               ",
"            ~ z A x 8 8 8 8 8 8 8 8 8 8 8 8 8 8 8 8 8 8 8 8 8 8 8 8 8 8 x A B e C               ",
"            ~                                                               D E F               ",
"            n G H                                                         I E J K               ",
"            ~ L ~ e M n s n n n n n n n n n n n n n n n n n n n n n n n N O     K               ",
"            P Q R     S                                                 T U V W 7               ",
"            X Y Z `  ...+.@.#.$.%.&.*.=.-.;.>.>.>.,.'.).!.~.{.{.{.].^./.(._.:.V <.              ",
"            [.}.}.|.1.2.3.4.5.6.7.8.9.0.a.b.b.c.c.d.e.f.g.h.i.j.k.l.m.n.o.o.V p.<.              ",
"            q.}.r.          s.7.t.          u.d.v.          w.k.x.          y.z.A.              ",
"            q.|.  B.B.B.B.C.  D.  B.B.E.B.C.  F.  B.B.E.B.C.  G.  H.H.H.H.|   I.J.              ",
"            K.1.  B.L.M.N.O.  P.  B.Q.> B.O.  R.  B.L.S.T.O.  U.  H.V.[ M.W.  X.J.              ",
"            Y.Z.  B.C.* C.O.  `.  B. +.+++O.  @+  B.#+$+C.O.  %+  H.V.< &+W.  *+=+              ",
"            -+3.  C.O.& O.O.  ;+  C.>+L.N O.  ,+  C.n O.O.O.  '+  | W.W.W.W.  )+!+              ",
"            ~+{+]+          ^+/+(+          _+i.w.          l.o.:+          <+[+}+              ",
"            |+5.6.1+P.P.`.;+/+b.c.2+3+4+@+5+i.j.j.6+U.U.%+7+o.V 8+,+I.X.*+)+9+0+}+              ",
"            |+6.s.          (+c.a+          w.b+c+          :+d+e+f+g+h+i+j+0+k+l+              ",
"            m+7.  B.B.E.B.C.  3+  B.B.B.B.C.  6+  B.B.B.B.C.  ,+n+          o+p+l+              ",
"            q+8.  B.r+s+C.O.  t+  B.T.$+#+O.  U.  B.u+v+u+O.  I.  H.H.H.H.|   w+x+              ",
"            m+7.  B.y+&+u+O.  3+  B.u+$+$+O.  6+  B.$+z+&+O.  ,+  H.| | | W.  A+l+              ",
"            q+8.  C.O.B+O.O.  3+  C.O.C+n O.  U.  C.N D+E+O.  F+  H.| | | W.  w+x+              ",
"            G+9.H+          I+J+K+          L+M+N+          O+P+  H.| M.| W.  Q+R+              ",
"            G+0.a.S+T+U+U+V+W+g.X+Y+Z+`+6+G.n. @ @.@+@Z+,+@@#@h+  H.V.$@M.W.  Q+%@              ",
"            &@a.*@          K+X+=@          -@o.;@          >@,@  H.| '@| W.  Q+%@              ",
"            )@a.  B.B.B.B.C.  h.  B.B.B.B.C.  !@  B.B.B.B.C.  ~@  H.| ] | W.  {@]@              ",
"            )@b.  B.C./ C.O.  j.  B.#+^@C.O.  +@  B.u+/@r+O.  (@  H.| | | W.  _@:@              ",
"            )@<@  B.C.&+C.O.  [@  B.C.y+r+O.  }@  B.u+|@1@O.  2@  | W.W.W.W.  3@:@              ",
"            R.c.  C.O.3 O.O.  k.  C.O.n O.O.  4@  C.O.n 3 O.  5@6@          7@8@9@              ",
"            c.d.0@          a@b@L+          c@f+n+          d@e@f@g@Q+{@_@3@8@h@i@              ",
"            j@k@f.,+l@Z+Z+m@b@n@n..@8++@}@4@f+h+h+o@p@(@2@q@e@f@r@r@s@t@u@v@w@x@y@              ",
"            z@A@B@C@C@D@E@F@G@G@H@H@I@J@K@L@M@N@N@L@O@P@Q@R@S@T@T@U@V@W@X@Y@Z@`@ #              ",
"                                                                                                ",
"                                                                                                ",
"                                                                                                ",
"                                                                                                ",
"                                                                                                "};
