/* XPM */
static char * gimp_xpm[] = {
"48 48 486 2",
"  	c None",
". 	c #0E0C09",
"+ 	c #7C7460",
"@ 	c #7A725E",
"# 	c #C1B598",
"$ 	c #726A58",
"% 	c #766E5B",
"& 	c #100E0B",
"* 	c #9C927A",
"= 	c #B1A68A",
"- 	c #6F6856",
"; 	c #736C59",
"> 	c #716A57",
", 	c #ACA287",
"' 	c #9E947C",
") 	c #6B6553",
"! 	c #726A57",
"~ 	c #6E6754",
"{ 	c #6C6553",
"] 	c #ACA286",
"^ 	c #9C947A",
"/ 	c #8C836D",
"( 	c #110F0B",
"_ 	c #6F6756",
": 	c #706956",
"< 	c #686150",
"[ 	c #665F4E",
"} 	c #706957",
"| 	c #9E957B",
"1 	c #8F8670",
"2 	c #7E7662",
"3 	c #706856",
"4 	c #6B6452",
"5 	c #67604F",
"6 	c #635C4C",
"7 	c #5F5949",
"8 	c #A1967D",
"9 	c #958B73",
"0 	c #857D69",
"a 	c #79715D",
"b 	c #6E6755",
"c 	c #625C4C",
"d 	c #756D5A",
"e 	c #716957",
"f 	c #665F4F",
"g 	c #615B4A",
"h 	c #5D5748",
"i 	c #534C3F",
"j 	c #89806B",
"k 	c #9A8F77",
"l 	c #8C836E",
"m 	c #7F7763",
"n 	c #756E5B",
"o 	c #0F0D0A",
"p 	c #514C3F",
"q 	c #746D5A",
"r 	c #6C6552",
"s 	c #5D5747",
"t 	c #585344",
"u 	c #9A9078",
"v 	c #948A73",
"w 	c #8A806A",
"x 	c #7F7663",
"y 	c #79715E",
"z 	c #776F5D",
"A 	c #776F5B",
"B 	c #696151",
"C 	c #25221C",
"D 	c #645E4D",
"E 	c #6A6352",
"F 	c #716956",
"G 	c #706955",
"H 	c #6F6754",
"I 	c #696250",
"J 	c #625B4B",
"K 	c #5E5748",
"L 	c #5A5445",
"M 	c #494437",
"N 	c #8F8570",
"O 	c #938A73",
"P 	c #908771",
"Q 	c #887F6A",
"R 	c #827A66",
"S 	c #7B7461",
"T 	c #776F5C",
"U 	c #786F5E",
"V 	c #7E7562",
"W 	c #7C7560",
"X 	c #76705C",
"Y 	c #6F6956",
"Z 	c #6B6352",
"` 	c #68624F",
" .	c #68614F",
"..	c #655E4D",
"+.	c #615A4A",
"@.	c #5F5848",
"#.	c #5C5646",
"$.	c #5A5344",
"%.	c #575142",
"&.	c #B5B3AF",
"*.	c #F5F5F3",
"=.	c #F9F9F8",
"-.	c #C6C3BB",
";.	c #867E6A",
">.	c #857C6C",
",.	c #CECBC4",
"'.	c #F3F2F0",
").	c #FCFCFC",
"!.	c #EDECE9",
"~.	c #A8A49A",
"{.	c #7C7763",
"].	c #7A735E",
"^.	c #736C58",
"/.	c #66604F",
"(.	c #605A49",
"_.	c #5D5746",
":.	c #5B5545",
"<.	c #595344",
"[.	c #565042",
"}.	c #565141",
"|.	c #565041",
"1.	c #545040",
"2.	c #121212",
"3.	c #0D0D0D",
"4.	c #D1D0CE",
"5.	c #C5C5C5",
"6.	c #9E9E9E",
"7.	c #F3F3F3",
"8.	c #C5C2BB",
"9.	c #8A8372",
"0.	c #EDEBE9",
"a.	c #F5F5F5",
"b.	c #F1F1F1",
"c.	c #F6F6F6",
"d.	c #F3F3F2",
"e.	c #CCCAC4",
"f.	c #736B58",
"g.	c #645D4D",
"h.	c #585243",
"i.	c #544F40",
"j.	c #514C3E",
"k.	c #4E493C",
"l.	c #4C473A",
"m.	c #4D473A",
"n.	c #4F4A3C",
"o.	c #504B3C",
"p.	c #423E32",
"q.	c #565656",
"r.	c #585858",
"s.	c #393939",
"t.	c #1D1D1D",
"u.	c #C3C3C3",
"v.	c #797979",
"w.	c #191919",
"x.	c #B0B0B0",
"y.	c #F7F7F7",
"z.	c #F8F7F7",
"A.	c #E3E1DC",
"B.	c #E6E6E6",
"C.	c #A3A3A3",
"D.	c #6E6E6E",
"E.	c #BABABA",
"F.	c #EEEEEE",
"G.	c #EBEBEB",
"H.	c #E7E7E6",
"I.	c #817C6F",
"J.	c #6A6351",
"K.	c #5A5444",
"L.	c #524D3F",
"M.	c #484436",
"N.	c #444033",
"O.	c #443F32",
"P.	c #454034",
"Q.	c #3F3B30",
"R.	c #0D0B08",
"S.	c #616161",
"T.	c #ADADAD",
"U.	c #A1A1A1",
"V.	c #5E5E5E",
"W.	c #2E2E2E",
"X.	c #282827",
"Y.	c #615C4F",
"Z.	c #B4B4B3",
"`.	c #1E1E1E",
" +	c #050505",
".+	c #A8A8A8",
"++	c #F0EFED",
"@+	c #F2F2F1",
"#+	c #A7A7A7",
"$+	c #989898",
"%+	c #323232",
"&+	c #3F3F3F",
"*+	c #DCDCDC",
"=+	c #7F7C74",
"-+	c #6F6855",
";+	c #67604E",
">+	c #575143",
",+	c #4F493B",
"'+	c #484336",
")+	c #433E32",
"!+	c #3F3C2F",
"~+	c #3E3B2F",
"{+	c #403B2F",
"]+	c #353126",
"^+	c #181818",
"/+	c #6D6D6D",
"(+	c #B5B5B5",
"_+	c #A5A5A5",
":+	c #333333",
"<+	c #313131",
"[+	c #444340",
"}+	c #8D887E",
"|+	c #ADADAC",
"1+	c #E9E9E9",
"2+	c #C6C1B7",
"3+	c #E3E2DE",
"4+	c #9F9F9F",
"5+	c #232323",
"6+	c #0A0A0A",
"7+	c #515151",
"8+	c #E8E8E8",
"9+	c #DADADA",
"0+	c #D1D1D1",
"a+	c #77736B",
"b+	c #645D4C",
"c+	c #5B5546",
"d+	c #534E3F",
"e+	c #4C4639",
"f+	c #443E33",
"g+	c #3F3A2F",
"h+	c #3D392E",
"i+	c #3C382C",
"j+	c #353128",
"k+	c #131313",
"l+	c #505050",
"m+	c #7C7C7C",
"n+	c #6F6F6F",
"o+	c #464646",
"p+	c #353535",
"q+	c #3E3E3E",
"r+	c #4A4949",
"s+	c #5D584C",
"t+	c #9A9385",
"u+	c #AFACA5",
"v+	c #B0ADA8",
"w+	c #918C7F",
"x+	c #877E69",
"y+	c #9F9B90",
"z+	c #D9D9D8",
"A+	c #494949",
"B+	c #C1C1C1",
"C+	c #DBDBDB",
"D+	c #D2D2D2",
"E+	c #BFBFBE",
"F+	c #6B6557",
"G+	c #5F5948",
"H+	c #4F4A3B",
"I+	c #484337",
"J+	c #423D33",
"K+	c #3E392D",
"L+	c #3D382D",
"M+	c #3B372C",
"N+	c #0E0E0E",
"O+	c #363636",
"P+	c #4F4F4F",
"Q+	c #3C3C3C",
"R+	c #4B4B4B",
"S+	c #575757",
"T+	c #5E5B54",
"U+	c #7A7260",
"V+	c #817964",
"W+	c #857C67",
"X+	c #877F69",
"Y+	c #807864",
"Z+	c #C0BDB6",
"`+	c #DDDDDD",
" @	c #D9D9D9",
".@	c #D6D6D6",
"+@	c #C2C2C1",
"@@	c #9D9A90",
"#@	c #6A6251",
"$@	c #544E40",
"%@	c #464235",
"&@	c #413D31",
"*@	c #3D3A2E",
"=@	c #39352A",
"-@	c #282828",
";@	c #373737",
">@	c #3D3D3D",
",@	c #424242",
"'@	c #4D4D4D",
")@	c #595959",
"!@	c #656564",
"~@	c #68655F",
"{@	c #6D6655",
"]@	c #766F5B",
"^@	c #7B7561",
"/@	c #807863",
"(@	c #827B65",
"_@	c #7B735F",
":@	c #888376",
"<@	c #8D8A83",
"[@	c #92908A",
"}@	c #8B8880",
"|@	c #6F6A5B",
"1@	c #5A5345",
"2@	c #504A3C",
"3@	c #3F3B2F",
"4@	c #3E3A2E",
"5@	c #3E392E",
"6@	c #2B2B2B",
"7@	c #707070",
"8@	c #696660",
"9@	c #625D4D",
"0@	c #6B6652",
"a@	c #746E59",
"b@	c #7A735F",
"c@	c #7D7561",
"d@	c #7C745F",
"e@	c #6D6653",
"f@	c #696251",
"g@	c #5E5848",
"h@	c #464236",
"i@	c #474437",
"j@	c #4B4638",
"k@	c #403C31",
"l@	c #3D392D",
"m@	c #3C382D",
"n@	c #5B5B5B",
"o@	c #686867",
"p@	c #737373",
"q@	c #7D7C7B",
"r@	c #5C5950",
"s@	c #585444",
"t@	c #6E6753",
"u@	c #746C59",
"v@	c #6F6755",
"w@	c #655E4E",
"x@	c #3F3C31",
"y@	c #3A3830",
"z@	c #4B483E",
"A@	c #443F33",
"B@	c #413D30",
"C@	c #474747",
"D@	c #5C5C5C",
"E@	c #676767",
"F@	c #747373",
"G@	c #7E7E7D",
"H@	c #75736E",
"I@	c #504B3F",
"J@	c #504C3D",
"K@	c #5C5645",
"L@	c #635B4A",
"M@	c #6A6350",
"N@	c #676050",
"O@	c #665F4D",
"P@	c #565242",
"Q@	c #434035",
"R@	c #403D36",
"S@	c #4D4B43",
"T@	c #5C584F",
"U@	c #3E392F",
"V@	c #3C392E",
"W@	c #3C392D",
"X@	c #363328",
"Y@	c #060504",
"Z@	c #454543",
"`@	c #6F6C66",
" #	c #6E6C65",
".#	c #605C54",
"+#	c #524E41",
"@#	c #4B4739",
"##	c #484437",
"$#	c #4C483A",
"%#	c #575042",
"&#	c #5B5645",
"*#	c #5C5747",
"=#	c #595445",
"-#	c #3E3A2F",
";#	c #292720",
">#	c #685F55",
",#	c #756B5D",
"'#	c #6B6254",
")#	c #5E5548",
"!#	c #3F392C",
"~#	c #3B362A",
"{#	c #383429",
"]#	c #0B0B08",
"^#	c #000000",
"/#	c #605B4B",
"(#	c #4A4437",
"_#	c #494536",
":#	c #4D4739",
"<#	c #4E483B",
"[#	c #4F4B3C",
"}#	c #4F4A3D",
"|#	c #4A4538",
"1#	c #39362C",
"2#	c #2E2B23",
"3#	c #27251E",
"4#	c #292620",
"5#	c #37352D",
"6#	c #545045",
"7#	c #6C6354",
"8#	c #766654",
"9#	c #766450",
"0#	c #705D45",
"a#	c #66553E",
"b#	c #5C4C37",
"c#	c #584934",
"d#	c #32291E",
"e#	c #372D21",
"f#	c #17130D",
"g#	c #25231D",
"h#	c #2C2922",
"i#	c #26231C",
"j#	c #25231C",
"k#	c #24211B",
"l#	c #191713",
"m#	c #141310",
"n#	c #14120F",
"o#	c #151411",
"p#	c #1F1D1A",
"q#	c #292722",
"r#	c #38362E",
"s#	c #46423A",
"t#	c #57534A",
"u#	c #646156",
"v#	c #6D6A5F",
"w#	c #615E54",
"x#	c #453F32",
"y#	c #5F523D",
"z#	c #7F694D",
"A#	c #907757",
"B#	c #947B58",
"C#	c #927958",
"D#	c #8B7353",
"E#	c #7A654A",
"F#	c #6A5945",
"G#	c #0B0A08",
"H#	c #191812",
"I#	c #12110E",
"J#	c #0F0E0B",
"K#	c #11100E",
"L#	c #1C1A17",
"M#	c #262520",
"N#	c #33322B",
"O#	c #514D44",
"P#	c #5D5950",
"Q#	c #656257",
"R#	c #636054",
"S#	c #1B1610",
"T#	c #62503B",
"U#	c #A58864",
"V#	c #BC9C72",
"W#	c #C09E74",
"X#	c #B1ACA3",
"Y#	c #838383",
"Z#	c #606060",
"`#	c #0B0908",
" $	c #0E0D0C",
".$	c #13120F",
"+$	c #191915",
"@$	c #1D1C18",
"#$	c #211F1B",
"$$	c #25231F",
"%$	c #272520",
"&$	c #1E1C19",
"*$	c #0F0E0C",
"=$	c #30271D",
"-$	c #8C7354",
";$	c #C3AF9A",
">$	c #EDEDED",
",$	c #E0E0E0",
"'$	c #939393",
")$	c #767676",
"!$	c #545454",
"~$	c #E1E1E1",
"{$	c #858585",
"]$	c #1B1B1B",
"^$	c #222222",
"/$	c #3A3A3A",
"($	c #383838",
"_$	c #101010",
":$	c #292929",
"<$	c #404040",
"                                                                                                ",
"                                                                                                ",
"                                                                                                ",
"                                                                                                ",
"                                                                                                ",
"                                                                                                ",
"                                                                                                ",
"                                                                                .               ",
"                                                                              . + .             ",
"                    .                                                         . @ .             ",
"                  . # .                                                     . $ % &             ",
"                  . * = .                                                 . - ; > .             ",
"                    . , ' .                                             . ) ! ~ { .             ",
"                    . ] ^ / (                                         . _ : { < [ .             ",
"                    . } | 1 2 & .                                 . . { 3 4 5 6 7 .             ",
"                      . 8 9 0 a b .                           . . c d e 4 f g h i .             ",
"                      . j k l m n ~ o . . .             . . . p d q > r < 6 s t .               ",
"                        . u v w x y z A b B C . . . . . D E F G H r I f J K L M .               ",
"                      . . N O P Q R S T U + V W X Y Z I ` I  .[ ..6 +.@.#.$.%..                 ",
"                    . &.*.=.-.;.1 >.,.'.).!.~.{.].^.{ /.6 (._.:.<.%.[.}.|.1.o                   ",
"        . 2.3.    . 4.5.6.7.=.8.9.0.a.b.7.c.d.e.A f.4 g.s h.i.j.k.l.m.n.o.p..                   ",
"      o q.r.s.t.2.. u.v.w.x.y.z.A.B.C.D.E.F.G.H.I.! J.J K.L.l.M.N.O.P.M.Q.R.                    ",
"    . S.T.U.V.W.X.Y.Z.`. +.+c.++@+#+$+%+&+F.B.*+=+-+;+@.>+,+'+)+!+~+{+]+R.                      ",
"    ^+/+(+_+V.:+<+[+}+|+C.1+1+2+3+4+5+6+7+8+9+0+a+{ b+c+d+e+f+g+h+i+j+R.                        ",
"    k+l+m+n+o+p+q+r+s+t+u+v+w+x+y+z+r.A+B+C+D+E+F+< G+%.H+I+J+K+L+M+.                           ",
"    N+O+P+A+Q+&+R+S+T+U+V+W+X+X+Y+Z+`+ @ @.@+@@@#@g.#.$@l.%@&@*@L+=@R.                          ",
"    3.-@;@>@,@'@)@!@~@{@]@^@/@(@V+_@:@<@[@}@|@< D 1@L.2@M P.3@4@5@.                             ",
"    . 6@O+,@'@)@!@7@8@9@0@a@b@c@d@@ A ; : e@f@..g@h@i@j@N.k@L+l@m@R.                            ",
"    . W.,@l+n@o@p@q@r@s@G+[ t@; u@> v@r I w@J g@x@y@z@A@B@l@m@l@.                               ",
"      . C@D@E@F@G@H@I@J@}.K@L@M@f@N@O@6 +.K P@Q@R@S@T@k@U@V@W@X@Y@                              ",
"        . Z@`@ #.#+#@###$#L.%#&#*#L =#h.k.-#;#>#,#'#)#!#~#m@{#]#^#^#                            ",
"          . /#b @.j.(#h@_#:#<#[#}#|#1#2#3#4#5#6#7#8#9#0#a#b#c#d#e#f#.                           ",
"            . . g#h#i#3#j#k#l#m#n#o#p#q#r#s#t#u#v#w#x#y#z#A#B#C#D#E#F#& .                       ",
"                . . G#H#I#J#. K#L#M#N#R@O#P#Q#R#Q@o . R.^#S#T#U#V#W#X#x.Y#Z#. .                 ",
"                            `# $.$+$@$#$$$%$&$*$.             ^#=$-$;$>$,$u.'$)$!$. .           ",
"                                . . . . . . .                     . . . . . ~${$]$:+R+.         ",
"                                                                            . . 6+^$/$($.       ",
"                                                                                  _$:$<$($.     ",
"                                                                                    . o C@.     ",
"                                                                                        .       ",
"                                                                                                ",
"                                                                                                ",
"                                                                                                ",
"                                                                                                ",
"                                                                                                ",
"                                                                                                ",
"                                                                                                ",
"                                                                                                "};
