/* XPM */
static char * maya_xpm[] = {
"48 48 813 2",
"  	c None",
". 	c #762626",
"+ 	c #6D1616",
"@ 	c #691010",
"# 	c #6A1010",
"$ 	c #6F1919",
"% 	c #6D1414",
"& 	c #782424",
"* 	c #8D4545",
"= 	c #A06363",
"- 	c #A97373",
"; 	c #AE7A7A",
"> 	c #6A1111",
", 	c #6B1111",
"' 	c #803131",
") 	c #AB7777",
"! 	c #D9C0C0",
"~ 	c #F5EEEE",
"{ 	c #FEFDFD",
"] 	c #FEFCFC",
"^ 	c #701B1B",
"/ 	c #7C2B2B",
"( 	c #BD9393",
"_ 	c #EFE4E4",
": 	c #FAF6F6",
"< 	c #FAF5F5",
"[ 	c #F9F5F5",
"} 	c #A16565",
"| 	c #E9DADA",
"1 	c #F3EBEB",
"2 	c #F3EAEA",
"3 	c #F4EAEA",
"4 	c #6B1010",
"5 	c #711616",
"6 	c #B17E7E",
"7 	c #ECDFDF",
"8 	c #EDDFDF",
"9 	c #EEDFDF",
"0 	c #EFDFDF",
"a 	c #6A0F0F",
"b 	c #5E1010",
"c 	c #815656",
"d 	c #D5C1C1",
"e 	c #E5D1D1",
"f 	c #E6D2D2",
"g 	c #E7D2D2",
"h 	c #E8D2D2",
"i 	c #E9D3D3",
"j 	c #E5CFCF",
"k 	c #A18F8F",
"l 	c #8F8282",
"m 	c #B6A1A1",
"n 	c #AD7474",
"o 	c #701313",
"p 	c #6C1010",
"q 	c #6D1111",
"r 	c #511414",
"s 	c #4E4B4B",
"t 	c #727272",
"u 	c #5C5858",
"v 	c #9B8989",
"w 	c #D9BDBD",
"x 	c #E1C4C4",
"y 	c #E2C4C4",
"z 	c #E3C4C4",
"A 	c #CCAFAF",
"B 	c #736565",
"C 	c #707070",
"D 	c #808080",
"E 	c #454242",
"F 	c #C2A6A6",
"G 	c #E3C5C5",
"H 	c #E0C4C4",
"I 	c #DFC4C4",
"J 	c #DEC3C3",
"K 	c #DEC5C5",
"L 	c #944A4A",
"M 	c #701212",
"N 	c #6C1111",
"O 	c #2F1212",
"P 	c #484848",
"Q 	c #C4C4C4",
"R 	c #818181",
"S 	c #6E6C6C",
"T 	c #756565",
"U 	c #D0AEAE",
"V 	c #DBB6B6",
"W 	c #DBB5B5",
"X 	c #A78989",
"Y 	c #6D6464",
"Z 	c #999999",
"` 	c #A7A7A7",
" .	c #282727",
"..	c #AF9090",
"+.	c #DDB6B6",
"@.	c #DCB6B6",
"#.	c #DAB6B6",
"$.	c #D9B5B5",
"%.	c #D8B5B5",
"&.	c #D7B5B5",
"*.	c #D6B5B5",
"=.	c #C49999",
"-.	c #781919",
";.	c #6E1414",
">.	c #6F1111",
",.	c #741212",
"'.	c #251010",
").	c #161616",
"!.	c #FEFEFE",
"~.	c #E4E4E4",
"{.	c #7F7F7F",
"].	c #646464",
"^.	c #726060",
"/.	c #CFA1A1",
"(.	c #D6A6A6",
"_.	c #AD8484",
":.	c #575353",
"<.	c #696969",
"[.	c #B2B2B2",
"}.	c #F9F9F9",
"|.	c #AAAAAA",
"1.	c #060505",
"2.	c #A98282",
"3.	c #D8A6A6",
"4.	c #D7A6A6",
"5.	c #D5A6A6",
"6.	c #D4A6A6",
"7.	c #D3A6A6",
"8.	c #D2A6A6",
"9.	c #D0A5A5",
"0.	c #CFA5A5",
"a.	c #CDA4A4",
"b.	c #913E3E",
"c.	c #6E1111",
"d.	c #731212",
"e.	c #781313",
"f.	c #2B1818",
"g.	c #141414",
"h.	c #F5F5F5",
"i.	c #BFBFBF",
"j.	c #EAEAEA",
"k.	c #7E7E7E",
"l.	c #5D5D5D",
"m.	c #7C5C5C",
"n.	c #BA8686",
"o.	c #685A5A",
"p.	c #616161",
"q.	c #BBBBBB",
"r.	c #DFDFDF",
"s.	c #ABABAB",
"t.	c #0E0D0D",
"u.	c #926A6A",
"v.	c #BA8383",
"w.	c #D29696",
"x.	c #D19696",
"y.	c #D09696",
"z.	c #CF9696",
"A.	c #C08989",
"B.	c #AF8080",
"C.	c #B48484",
"D.	c #CA9595",
"E.	c #C89595",
"F.	c #C79595",
"G.	c #A55C5C",
"H.	c #791313",
"I.	c #781212",
"J.	c #7D1313",
"K.	c #2C1919",
"L.	c #F2F2F2",
"M.	c #3E3E3E",
"N.	c #919191",
"O.	c #6A6A6A",
"P.	c #585252",
"Q.	c #514040",
"R.	c #5F5F5F",
"S.	c #DCDCDC",
"T.	c #8A8A8A",
"U.	c #AEAEAE",
"V.	c #393939",
"W.	c #676363",
"X.	c #605656",
"Y.	c #885C5C",
"Z.	c #C88383",
"`.	c #CD8787",
" +	c #A16A6A",
".+	c #625252",
"++	c #6F6B6B",
"@+	c #5C5555",
"#+	c #9D6D6D",
"$+	c #C38686",
"%+	c #C18686",
"&+	c #AA5F5F",
"*+	c #7E1313",
"=+	c #791212",
"-+	c #711212",
";+	c #701111",
">+	c #771212",
",+	c #821414",
"'+	c #2C1616",
")+	c #2F2F2F",
"!+	c #0F0F0F",
"~+	c #ACACAC",
"{+	c #C9C9C9",
"]+	c #5C5C5C",
"^+	c #676767",
"/+	c #7B7B7B",
"(+	c #E8E8E8",
"_+	c #464646",
":+	c #030303",
"<+	c #898989",
"[+	c #191919",
"}+	c #9B9B9B",
"|+	c #6B6A6A",
"1+	c #724E4E",
"2+	c #C27373",
"3+	c #945D5D",
"4+	c #5F5A5A",
"5+	c #777777",
"6+	c #A9A9A9",
"7+	c #626262",
"8+	c #4B3636",
"9+	c #BD7575",
"0+	c #BC7676",
"a+	c #A85555",
"b+	c #831414",
"c+	c #721111",
"d+	c #751212",
"e+	c #7A1313",
"f+	c #801313",
"g+	c #851414",
"h+	c #2A1111",
"i+	c #F1F1F1",
"j+	c #000000",
"k+	c #252525",
"l+	c #D7D7D7",
"m+	c #787878",
"n+	c #292929",
"o+	c #D2D2D2",
"p+	c #868686",
"q+	c #050505",
"r+	c #020202",
"s+	c #C0C0C0",
"t+	c #E0E0E0",
"u+	c #797979",
"v+	c #613D3D",
"w+	c #595454",
"x+	c #C8C8C8",
"y+	c #261515",
"z+	c #B76666",
"A+	c #B66666",
"B+	c #A14343",
"C+	c #861414",
"D+	c #811313",
"E+	c #7B1212",
"F+	c #711111",
"G+	c #731111",
"H+	c #7F1313",
"I+	c #841414",
"J+	c #8A1515",
"K+	c #280B0B",
"L+	c #1A0C0C",
"M+	c #020101",
"N+	c #6E6E6E",
"O+	c #D4D4D4",
"P+	c #D9D9D9",
"Q+	c #1B1B1B",
"R+	c #190B0B",
"S+	c #040303",
"T+	c #010101",
"U+	c #181818",
"V+	c #9E9E9E",
"W+	c #E1E1E1",
"X+	c #6B6B6B",
"Y+	c #696868",
"Z+	c #636363",
"`+	c #C3C3C3",
" @	c #431E1E",
".@	c #B55858",
"+@	c #B25858",
"@@	c #9A2C2C",
"#@	c #8B1616",
"$@	c #7A1212",
"%@	c #741111",
"&@	c #761111",
"*@	c #7C1313",
"=@	c #881515",
"-@	c #8E1616",
";@	c #260606",
">@	c #303030",
",@	c #421919",
"'@	c #331212",
")@	c #402C2C",
"!@	c #333232",
"~@	c #8F8F8F",
"{@	c #ADADAD",
"]@	c #202020",
"^@	c #151515",
"/@	c #242424",
"(@	c #909090",
"_@	c #D8D8D8",
":@	c #212121",
"<@	c #0A0505",
"[@	c #342E2E",
"}@	c #534747",
"|@	c #5B3737",
"1@	c #9C3B3B",
"2@	c #951A1A",
"3@	c #8F1616",
"4@	c #891515",
"5@	c #771111",
"6@	c #871515",
"7@	c #8D1616",
"8@	c #931616",
"9@	c #270606",
"0@	c #4C1A1A",
"a@	c #722525",
"b@	c #030202",
"c@	c #EEEEEE",
"d@	c #2C2C2C",
"e@	c #070707",
"f@	c #505050",
"g@	c #B8B8B8",
"h@	c #CCCCCC",
"i@	c #6C6C6C",
"j@	c #444444",
"k@	c #363636",
"l@	c #5A5A5A",
"m@	c #060202",
"n@	c #3C2424",
"o@	c #6D6C6C",
"p@	c #A6A6A6",
"q@	c #656565",
"r@	c #672424",
"s@	c #981717",
"t@	c #941616",
"u@	c #8E1515",
"v@	c #811414",
"w@	c #751111",
"x@	c #7D1212",
"y@	c #8B1515",
"z@	c #911616",
"A@	c #971717",
"B@	c #280606",
"C@	c #F3F3F3",
"D@	c #4C1515",
"E@	c #A72E2E",
"F@	c #1B0606",
"G@	c #B7B7B7",
"H@	c #0B0B0B",
"I@	c #2B2B2B",
"J@	c #E2E2E2",
"K@	c #E9E9E9",
"L@	c #AFAFAF",
"M@	c #3B3B3B",
"N@	c #0E0E0E",
"O@	c #9A9A9A",
"P@	c #E6E6E6",
"Q@	c #CDCDCD",
"R@	c #101010",
"S@	c #330D0D",
"T@	c #433131",
"U@	c #565656",
"V@	c #452C2C",
"W@	c #921616",
"X@	c #8C1515",
"Y@	c #881414",
"Z@	c #8F1515",
"`@	c #951616",
" #	c #9B1818",
".#	c #2A0606",
"+#	c #4D1111",
"@#	c #B92A2A",
"##	c #390C0C",
"$#	c #0D0D0D",
"%#	c #070202",
"&#	c #3A0E0E",
"*#	c #272727",
"=#	c #969696",
"-#	c #494949",
";#	c #FAFAFA",
">#	c #888888",
",#	c #4E1A1A",
"'#	c #FDFDFD",
")#	c #8E8E8E",
"!#	c #3A3636",
"~#	c #7E1A1A",
"{#	c #9C1818",
"]#	c #961717",
"^#	c #901515",
"/#	c #891414",
"(#	c #831313",
"_#	c #8B1414",
":#	c #991717",
"<#	c #9F1919",
"[#	c #2B0606",
"}#	c #4D0D0D",
"|#	c #BB2323",
"1#	c #A11D1D",
"2#	c #4D0E0E",
"3#	c #360A0A",
"4#	c #671414",
"5#	c #553535",
"6#	c #414141",
"7#	c #1C1C1C",
"8#	c #262626",
"9#	c #ECECEC",
"0#	c #180404",
"a#	c #3D2828",
"b#	c #4B4B4B",
"c#	c #532323",
"d#	c #9E1818",
"e#	c #9A1717",
"f#	c #8C1414",
"g#	c #841313",
"h#	c #7C1212",
"i#	c #9D1818",
"j#	c #A41919",
"k#	c #2C0707",
"l#	c #4F0D0D",
"m#	c #BF2020",
"n#	c #C12020",
"o#	c #BD2020",
"p#	c #6D2828",
"q#	c #606060",
"r#	c #959595",
"s#	c #E7E7E7",
"t#	c #232323",
"u#	c #1A1A1A",
"v#	c #0C0A0A",
"w#	c #393737",
"x#	c #D5D5D5",
"y#	c #383838",
"z#	c #686868",
"A#	c #3F3232",
"B#	c #921919",
"C#	c #7E1212",
"D#	c #941717",
"E#	c #A31A1A",
"F#	c #AB1C1C",
"G#	c #2E0707",
"H#	c #313131",
"I#	c #520E0E",
"J#	c #C62222",
"K#	c #C82323",
"L#	c #CA2424",
"M#	c #AF2020",
"N#	c #392F2F",
"O#	c #737373",
"P#	c #747474",
"Q#	c #4D4D4D",
"R#	c #3A3A3A",
"S#	c #4A4A4A",
"T#	c #7A7A7A",
"U#	c #060606",
"V#	c #A4A4A4",
"W#	c #BCBCBC",
"X#	c #5F1E1E",
"Y#	c #A21919",
"Z#	c #931717",
"`#	c #8C1616",
" $	c #A71B1B",
".$	c #AF1C1C",
"+$	c #2F0707",
"@$	c #550F0F",
"#$	c #CC2424",
"$$	c #CF2525",
"%$	c #D02626",
"&$	c #8D1818",
"*$	c #181414",
"=$	c #CECECE",
"-$	c #434343",
";$	c #F0F0F0",
">$	c #4C4C4C",
",$	c #5E5E5E",
"'$	c #6F6F6F",
")$	c #474747",
"!$	c #525252",
"~$	c #412C2C",
"{$	c #9E1919",
"]$	c #991818",
"^$	c #AB1B1B",
"/$	c #B41D1D",
"($	c #310808",
"_$	c #581010",
":$	c #D32727",
"<$	c #D62727",
"[$	c #D82929",
"}$	c #801616",
"|$	c #050404",
"1$	c #B1B1B1",
"2$	c #333333",
"3$	c #121212",
"4$	c #B6B6B6",
"5$	c #2D2D2D",
"6$	c #CACACA",
"7$	c #771A1A",
"8$	c #A01919",
"9$	c #901616",
"0$	c #A61A1A",
"a$	c #B01C1C",
"b$	c #B81E1E",
"c$	c #320808",
"d$	c #5A1010",
"e$	c #DA2828",
"f$	c #DC2929",
"g$	c #DE2B2B",
"h$	c #B02121",
"i$	c #0A0303",
"j$	c #DBDBDB",
"k$	c #0C0C0C",
"l$	c #323232",
"m$	c #E5E5E5",
"n$	c #EFEFEF",
"o$	c #454545",
"p$	c #2A2A2A",
"q$	c #757575",
"r$	c #DDDDDD",
"s$	c #424242",
"t$	c #532727",
"u$	c #A01A1A",
"v$	c #B51E1E",
"w$	c #BE2020",
"x$	c #340808",
"y$	c #2E2E2E",
"z$	c #5E1111",
"A$	c #E12C2C",
"B$	c #E42C2C",
"C$	c #E62E2E",
"D$	c #D42A2A",
"E$	c #290707",
"F$	c #B3B3B3",
"G$	c #D0D0D0",
"H$	c #4E4E4E",
"I$	c #D6D6D6",
"J$	c #7C7C7C",
"K$	c #F4F4F4",
"L$	c #EBEBEB",
"M$	c #9D9D9D",
"N$	c #282828",
"O$	c #767676",
"P$	c #3E3333",
"Q$	c #8D1A1A",
"R$	c #9C1919",
"S$	c #951717",
"T$	c #A21A1A",
"U$	c #AE1C1C",
"V$	c #B81F1F",
"W$	c #C32121",
"X$	c #350909",
"Y$	c #601212",
"Z$	c #E72E2E",
"`$	c #EA2F2F",
" %	c #EC2F2F",
".%	c #ED3131",
"+%	c #CA2A2A",
"@%	c #250707",
"#%	c #0A0A0A",
"$%	c #BABABA",
"%%	c #080808",
"&%	c #1F1F1F",
"*%	c #911717",
"=%	c #BA1F1F",
"-%	c #C52121",
";%	c #360909",
">%	c #611313",
",%	c #EB2E2E",
"'%	c #EE3030",
")%	c #F03131",
"!%	c #F13131",
"~%	c #F23333",
"{%	c #CC2A2A",
"]%	c #4F0F0F",
"^%	c #B5B5B5",
"/%	c #B4B4B4",
"(%	c #F8F8F8",
"_%	c #3F3F3F",
":%	c #2A0B0B",
"<%	c #BA1E1E",
"[%	c #C62121",
"}%	c #631313",
"|%	c #EE2F2F",
"1%	c #F33232",
"2%	c #F53333",
"3%	c #F63333",
"4%	c #F63434",
"5%	c #D02C2C",
"6%	c #0A0202",
"7%	c #8C8C8C",
"8%	c #979797",
"9%	c #0B0000",
"0%	c #AD1B1B",
"a%	c #B91D1D",
"b%	c #F02F2F",
"c%	c #F33030",
"d%	c #F63232",
"e%	c #F73333",
"f%	c #F83434",
"g%	c #F93434",
"h%	c #641414",
"i%	c #0C0202",
"j%	c #090101",
"k%	c #4D0B0B",
"l%	c #AA1A1A",
"m%	c #B71D1D",
"n%	c #C42020",
"o%	c #360808",
"p%	c #F12E2E",
"q%	c #F43131",
"r%	c #F73131",
"s%	c #F83333",
"t%	c #FA3434",
"u%	c #FA3535",
"v%	c #FB3535",
"w%	c #F33333",
"x%	c #D02B2B",
"y%	c #C52929",
"z%	c #C42929",
"A%	c #C42828",
"B%	c #220606",
"C%	c #B92424",
"D%	c #B62222",
"E%	c #B12020",
"F%	c #AB1E1E",
"G%	c #A51D1D",
"H%	c #9E1A1A",
"I%	c #961919",
"J%	c #A61919",
"K%	c #B31C1C",
"L%	c #C11F1F",
"M%	c #350808",
"N%	c #F02E2E",
"O%	c #F73232",
"P%	c #FC3636",
"Q%	c #FD3636",
"R%	c #FD3737",
"S%	c #FC3737",
"T%	c #FB3636",
"U%	c #7F1B1B",
"V%	c #2A0808",
"W%	c #EC2E2E",
"X%	c #E72C2C",
"Y%	c #E02929",
"Z%	c #D82727",
"`%	c #D02424",
" &	c #BC1F1F",
".&	c #B21C1C",
"+&	c #A51919",
"@&	c #9A1818",
"#&	c #A01818",
"$&	c #BB1E1E",
"%&	c #631212",
"&&	c #EF2D2D",
"*&	c #F63131",
"=&	c #F93232",
"-&	c #FA3333",
";&	c #FC3535",
">&	c #FD3535",
",&	c #7F1A1A",
"'&	c #DEDEDE",
")&	c #E92D2D",
"!&	c #E32A2A",
"~&	c #DC2828",
"{&	c #D42525",
"]&	c #CB2222",
"^&	c #C02020",
"/&	c #B61D1D",
"(&	c #9F1818",
"_&	c #901414",
":&	c #A81919",
"<&	c #B51C1C",
"[&	c #3F0909",
"}&	c #ED2C2C",
"|&	c #F22E2E",
"1&	c #F52F2F",
"2&	c #F83131",
"3&	c #FA3232",
"4&	c #FB3333",
"5&	c #FC3333",
"6&	c #FD3434",
"7&	c #FC3434",
"8&	c #FB3434",
"9&	c #7F1919",
"0&	c #370A0A",
"a&	c #E62B2B",
"b&	c #DF2828",
"c&	c #D82626",
"d&	c #CE2323",
"e&	c #C52020",
"f&	c #B01B1B",
"g&	c #961616",
"h&	c #AE1A1A",
"i&	c #1A0303",
"j&	c #110202",
"k&	c #4A0C0C",
"l&	c #D32525",
"m&	c #EA2A2A",
"n&	c #F02C2C",
"o&	c #F42E2E",
"p&	c #F73030",
"q&	c #F93030",
"r&	c #FB3232",
"s&	c #FC3232",
"t&	c #FD3333",
"u&	c #CC2828",
"v&	c #320909",
"w&	c #0B0101",
"x&	c #380A0A",
"y&	c #C12323",
"z&	c #E22929",
"A&	c #DB2626",
"B&	c #D22424",
"C&	c #C92121",
"D&	c #BF1E1E",
"E&	c #B41C1C",
"F&	c #A91A1A",
"G&	c #9E1717",
"H&	c #B01A1A",
"I&	c #AB1919",
"J&	c #AF1B1B",
"K&	c #CF2121",
"L&	c #DE2525",
"M&	c #E62828",
"N&	c #EC2A2A",
"O&	c #F12C2C",
"P&	c #F52D2D",
"Q&	c #F72E2E",
"R&	c #FA3030",
"S&	c #FB3131",
"T&	c #FC3131",
"U&	c #FA3131",
"V&	c #F72F2F",
"W&	c #E52A2A",
"X&	c #C92424",
"Y&	c #E32929",
"Z&	c #E52929",
"`&	c #DD2626",
" *	c #D52424",
".*	c #CC2222",
"+*	c #C21F1F",
"@*	c #B71C1C",
"#*	c #AC1A1A",
"$*	c #A11818",
"%*	c #B31B1B",
"&*	c #C01D1D",
"**	c #CB2020",
"=*	c #D62222",
"-*	c #DF2525",
";*	c #E62727",
">*	c #ED2A2A",
",*	c #F12B2B",
"'*	c #F42D2D",
")*	c #F92E2E",
"!*	c #FA2F2F",
"~*	c #F92F2F",
"{*	c #E62929",
"]*	c #DF2727",
"^*	c #D72424",
"/*	c #CE2222",
"(*	c #C41F1F",
"_*	c #A31818",
":*	c #B51B1B",
"<*	c #C01E1E",
"[*	c #CC2020",
"}*	c #EB2929",
"|*	c #EF2A2A",
"1*	c #F32B2B",
"2*	c #F52C2C",
"3*	c #F62D2D",
"4*	c #F72D2D",
"5*	c #F32C2C",
"6*	c #F02B2B",
"7*	c #E72828",
"8*	c #E02626",
"9*	c #D82424",
"0*	c #CF2222",
"a*	c #C51F1F",
"b*	c #BB1D1D",
"c*	c #CA2121",
"d*	c #D32323",
"e*	c #DC2525",
"f*	c #E22727",
"g*	c #E82828",
"h*	c #EB2A2A",
"i*	c #EE2B2B",
"j*	c #F22C2C",
"k*	c #EF2C2C",
"l*	c #E52828",
"m*	c #D82525",
"n*	c #C62020",
"o*	c #BC1D1D",
"p*	c #CE2121",
"q*	c #D62323",
"r*	c #E12626",
"s*	c #E42727",
"t*	c #DA2424",
"u*	c #D42323",
"v*	c #CC2121",
"w*	c #C31F1F",
"x*	c #C61F1F",
"y*	c #D22121",
"z*	c #D92323",
"A*	c #DB2323",
"B*	c #D22222",
"C*	c #CD2121",
"D*	c #BE1E1E",
"E*	c #B61C1C",
"F*	c #C12121",
"G*	c #C71F1F",
"H*	c #C91F1F",
"I*	c #CA2020",
"J*	c #C92020",
"K*	c #C81F1F",
"L*	c #BC2121",
"                                                                                                ",
"                                                                                                ",
"                                                                                                ",
"                                      . + @ # # # # @ + .                                       ",
"                                $ # % & * = - ; ; - = * & % # $                                 ",
"                            > , ' ) ! ~ { ] ] ] ] ] ] { ~ ! ) ' , >                             ",
"                        ^ # / ( _ : < [ [ [ [ [ [ [ [ [ [ < : _ ( / # ^                         ",
"                      > % } | 1 2 2 2 2 2 3 3 3 3 3 3 2 2 2 2 2 1 | } % >                       ",
"                    4 5 6 7 8 8 8 9 9 9 9 9 0 0 0 0 9 9 9 9 9 8 8 8 7 6 5 4                     ",
"                  a b c d e f g h h h i i j k l m i i i i h h h g f f e n o p                   ",
"                q r s t u v w x x y y z A B C D E F G z z y y x x H I J K L M q                 ",
"              N M O P Q R S T U V V W X Y t Z `  ...+.+.@.@.V V #.$.%.&.*.=.-.M N               ",
"            ;.>.,.'.).!.~.{.].^./.(._.:.<.[.}.|.1.2.3.4.4.4.(.5.6.7.8.9.0.a.b.,.>.;.            ",
"            c.d.e.f.g.h.i.j.k.l.m.n.o.p.q.r.i.s.t.u.v.w.x.x.y.z.A.B.C.D.E.F.G.H.d.>.            ",
"          M d.I.J.K.g.L.M.N.~.O.P.Q.R.` S.M.T.U.V.W.X.Y.Z.`.`. +.+++@+#+$+%+&+*+=+,.-+          ",
"          ;+>+J.,+'+g.L.)+!+~+{+]+^+/+(+_+:+<+s.[+}+k.|+1+2+3+4+5+6+7+8+9+0+a+b+J.I.c+          ",
"        ;+d+e+f+g+h+g.i+)+j+k+l+m+n+o+p+q+r+<+~+).s+t+u+l.v+w+O.x+S.M.y+z+A+B+C+D+E+d+F+        ",
"        G+=+H+I+J+K+g.i+)+L+M+N+O+/+P+Q+R+S+T.|.T+U+V+W+X+Y+Z+Q `+)+1. @.@+@@@#@C+f+$@%@        ",
"        &@*@b+=@-@;@g.L.>@,@'@g.~.i+k.:+)@!@~@{@U+]@^@U.i./@(@_@:@<@[@}@|@1@2@3@4@b+J.5@        ",
"      c+=+f+6@7@8@9@g.i+)+0@a@b@Z c@d@e@f@O.g@h@]+i@j@k@~.C t+l@m@n@o@p@q@r@s@t@u@=@v@$@w@      ",
"      c.x@I+y@z@A@B@g.C@>@D@E@F@P G@H@j+I@J@r.t+K@L@M@N@O@P@Q@R@S@T@q@(+U@V@t@s@W@X@g+*+>+      ",
"      q f+Y@Z@`@ #.#g.L.>@+#@###$#k+%#&#N@*#:+e@_+r.=#r+-#;#>#M+,#k@[.'#)#!#~#{#]#^#/#D+$@      ",
"      G+(#_#W@:#<#[#g.L.>@}#|#1#2#3#4#5#_+)+6#/@:+q@J@7#8#9#l.0#a#b#P@s+l+M.c#d#e#8@f#g#h#      ",
"      x@g+-@]#i#j#k#g.C@>@l#m#n#n#o#p#q#r#P@s#~.f@t#J@6#u#W+_+v#w#<+x#y#K@z#A#B#i#]#Z@C+C#      ",
"      D+J+D#{#E#F#G#g.C@H#I#J#K#L#M#N#O#j.P#U+|.|.u#r.Q#U+r.b#R#S#O+T#U#V#W#V.X#Y# #Z#J+D+      ",
"      ,+`#]#<# $.$+$g.C@>@@$#$$$%$&$*$|.` e@/@=$=#-$;$>$U+r.]+,$'$j.I@j+)$P@!$~${${$]#`#,+      ",
"      I+3@]$E#^$/$($g.i+)+_$:$<$[$}$|$G@)#T+P 1$2$1$;#Q#[+r.S#3$4$p@7#5$U+6$Z y#7$8$A@7@b+      ",
"      g+9${#0$a$b$c$g.L.>@d$e$f$g$h$i${.j$V.k$l$` m$n$>$[+r.o$p$c@q$_+N+t#'$r$s$t$d#:#-@b+      ",
"      4@D#u$F#v$w$x$g.i+y$z$A$B$C$D$E$).F$m$G$P@x+H$I$S#[+r.o$J$K$L$(+M$N@N$J@O$P$Q$R$z@6@      ",
"        S$T$U$V$W$X$g.i+y$Y$Z$`$ %.%+%@%#%-#4$$%H@%%-#!+[+r.o$&%)+>@y$&%5$7#}+Q !@X# #*%        ",
"        D#Y#.$=%-%;%g.i+y$>%,%'%)%!%~%{%]%r+<+P@^%^%F$/%$%h.x+F$F$^%/%^%G@/%=$(%_%:%]#3@        ",
"        D#Y#U$<%[%;%g.i+)+}%|%!%1%2%3%4%5%6%>$7%7%7%7%7%8%i+s.7%7%7%7%7%7%7%7%7%R#9%X@7@        ",
"          <#0%a%-%;%g.C@H#}%b%c%d%e%f%g%)%h%i%j+j+j+j+j+[+r.o$j+j+j+j+j+j+j+j+j+j%k%t@          ",
"          {#l%m%n%o%g.C@H#}%p%q%r%s%t%u%v%w%x%y%z%z%A%h%[+r.o$B%C%D%E%F%G%H%I%-@-@ #^#          ",
"            J%K%L%M%g.L.)+}%N%q%O%g%t%v%P%Q%R%R%S%S%T%U%[+t+o$V%W%X%Y%Z%`%J# &.&+&@&            ",
"            #&0%$&x$g.c@I@%&&&c%*&=&-&;&;&>&>&>&>&;&;&,&[+'&-$V%)&!&~&{&]&^&/&^$(&_&            ",
"              :&<&[&#%p.%%o }&|&1&2&3&4&5&6&6&6&7&7&8&9&N@R.3$0&a&b&c&d&e&$&f&+&g&              ",
"                h&y@i&j&k&l&m&n&o&p&q&r&s&5&t&t&5&4&3&u&v&w&x&y&z&A&B&C&D&E&F&G&                ",
"                  H&I&J&K&L&M&N&O&P&Q&R&S&T&T&T&S&U&q&V&W&X&Y&Z&`& *.*+*@*#*$*                  ",
"                    %*&***=*-*;*>*,*'*Q&)*!*R&R&R&~*Q&'*n&N&{*]*^*/*(*a%h&_*                    ",
"                      :*<*[*=*L&;*}*|*1*2*3*4*4*3*P&5*6*N&7*8*9*0*a*b*J&+&                      ",
"                        <&D&c*d*e*f*g*h*i*6*O&j*O&k*>*m&l*]*m*0*n*$&a$0$                        ",
"                            o*a*p*q*e*r*s*7*g*g*g*M&s*8*t*u*v*w*a%f&                            ",
"                                D&x*[*y*q*z*A*A*A*z*q*B*C*x*D*E*                                ",
"                                      F*n%G*H*I*J*K*a*L%L*                                      ",
"                                                                                                ",
"                                                                                                ",
"                                                                                                "};
