/* XPM */
static char * mixer_xpm[] = {
"48 48 522 2",
"  	c #000000",
". 	c #313030",
"+ 	c #C0C0BE",
"@ 	c #919191",
"# 	c #616160",
"$ 	c #4A4A49",
"% 	c #C1C1C0",
"& 	c #D7D6D5",
"* 	c #C8C8C8",
"= 	c #CBCBCB",
"- 	c #CCCCCC",
"; 	c #B3B3B3",
"> 	c #8A8A8A",
", 	c #494949",
"' 	c #313131",
") 	c #626262",
"! 	c #DADAD9",
"~ 	c #C6C5C3",
"{ 	c #BEBEBC",
"] 	c #BCBCBA",
"^ 	c #BCBABA",
"/ 	c #BABAB8",
"( 	c #BABABA",
"_ 	c #C3C3C1",
": 	c #CACACA",
"< 	c #A0A0A0",
"[ 	c #474747",
"} 	c #171717",
"| 	c #181818",
"1 	c #D5D5D4",
"2 	c #C0BEBC",
"3 	c #B8B8B8",
"4 	c #B8B6B6",
"5 	c #B6B6B6",
"6 	c #B4B4B4",
"7 	c #C1C1C1",
"8 	c #C9C9C9",
"9 	c #CBCACA",
"0 	c #CDCDCB",
"a 	c #8B8B8B",
"b 	c #737372",
"c 	c #424242",
"d 	c #151515",
"e 	c #7C7C7C",
"f 	c #C2C0C0",
"g 	c #C4C4C2",
"h 	c #B7B7B7",
"i 	c #7F7F7F",
"j 	c #777777",
"k 	c #818181",
"l 	c #B2B2B2",
"m 	c #C6C6C5",
"n 	c #CECECD",
"o 	c #D0D0D0",
"p 	c #B6B6B5",
"q 	c #3F3F3F",
"r 	c #323232",
"s 	c #DBDBDA",
"t 	c #CDCBCA",
"u 	c #B2B2B0",
"v 	c #ADAAAA",
"w 	c #C3C3C2",
"x 	c #A7A7A7",
"y 	c #747474",
"z 	c #272727",
"A 	c #1C1C1C",
"B 	c #BEBEBE",
"C 	c #CFCFCF",
"D 	c #ACACAC",
"E 	c #D7D7D6",
"F 	c #C1C1BE",
"G 	c #B7B5B5",
"H 	c #8D8D8D",
"I 	c #383838",
"J 	c #2C2C2C",
"K 	c #212121",
"L 	c #525252",
"M 	c #CBCBCA",
"N 	c #BBBBB9",
"O 	c #D4D4D3",
"P 	c #D9D9D9",
"Q 	c #848484",
"R 	c #646464",
"S 	c #DBDBDB",
"T 	c #C0BEBE",
"U 	c #929292",
"V 	c #5F5F5F",
"W 	c #A9A7A8",
"X 	c #ADAAAB",
"Y 	c #B9B9B7",
"Z 	c #BCBCBC",
"` 	c #DEDDDD",
" .	c #DFDFDF",
"..	c #C0C0C0",
"+.	c #7B7B7B",
"@.	c #D5D4D2",
"#.	c #C3C1C0",
"$.	c #C1C0BE",
"%.	c #C0C0BF",
"&.	c #D1D1D0",
"*.	c #B0B0AF",
"=.	c #BBBBBB",
"-.	c #AFAFAF",
";.	c #B1B1B1",
">.	c #CDCDCD",
",.	c #E4E4E4",
"'.	c #DADADA",
").	c #8F8F8F",
"!.	c #757575",
"~.	c #5A5A5A",
"{.	c #7E7E7D",
"].	c #C1BFBD",
"^.	c #BEBEBB",
"/.	c #BEBCBB",
"(.	c #BCBCB9",
"_.	c #B3B3B1",
":.	c #AFACAA",
"<.	c #B9B9B8",
"[.	c #959595",
"}.	c #3D3D3D",
"|.	c #575756",
"1.	c #C8C8C6",
"2.	c #E0E0E0",
"3.	c #7E7E7E",
"4.	c #787878",
"5.	c #5D5D5D",
"6.	c #1A1A1A",
"7.	c #B4B8BB",
"8.	c #7F949D",
"9.	c #8F9EA4",
"0.	c #A0A7A9",
"a.	c #A7ACAE",
"b.	c #B4B3B2",
"c.	c #C2C2C1",
"d.	c #9F9F9F",
"e.	c #686868",
"f.	c #373737",
"g.	c #2B2B2B",
"h.	c #202020",
"i.	c #C4C2C2",
"j.	c #C7C5C5",
"k.	c #D2D1D1",
"l.	c #D6D6D6",
"m.	c #0D0D0D",
"n.	c #ADACAB",
"o.	c #D4D4D1",
"p.	c #718C95",
"q.	c #6F8B96",
"r.	c #748E99",
"s.	c #7B929C",
"t.	c #8097A1",
"u.	c #849BA5",
"v.	c #909EA4",
"w.	c #818C90",
"x.	c #555D60",
"y.	c #2E2E2E",
"z.	c #252525",
"A.	c #AEAEAC",
"B.	c #A8A8A5",
"C.	c #BEBCBC",
"D.	c #E1E0E0",
"E.	c #A8A8A8",
"F.	c #464646",
"G.	c #4D4D4D",
"H.	c #D9D9D8",
"I.	c #939FA3",
"J.	c #62808B",
"K.	c #678590",
"L.	c #6B8994",
"M.	c #718B98",
"N.	c #778F9A",
"O.	c #7D949E",
"P.	c #829AA3",
"Q.	c #869EA7",
"R.	c #8CA2AB",
"S.	c #90A7B1",
"T.	c #7E9098",
"U.	c #A3AFB3",
"V.	c #A6AEAF",
"W.	c #ADB0AF",
"X.	c #B5B5B3",
"Y.	c #BDBDBB",
"Z.	c #D9D9D7",
"`.	c #CECECE",
" +	c #8C8C8C",
".+	c #0E0E0E",
"++	c #C3C3C3",
"@+	c #C1C4C3",
"#+	c #5F7985",
"$+	c #5A7785",
"%+	c #5E7C89",
"&+	c #64828D",
"*+	c #698792",
"=+	c #6D8A96",
"-+	c #79919C",
";+	c #7F98A2",
">+	c #88A0A8",
",+	c #8EA4AD",
"'+	c #93A9B2",
")+	c #B5C7D0",
"!+	c #99ADB5",
"~+	c #A9A7A5",
"{+	c #B6B4B2",
"]+	c #BDBBB9",
"^+	c #E4E3E3",
"/+	c #A1A1A1",
"(+	c #666666",
"_+	c #D9D8D7",
":+	c #7C8C92",
"<+	c #4E6B79",
"[+	c #526F7D",
"}+	c #567583",
"|+	c #5C7A87",
"1+	c #607E8B",
"2+	c #66848F",
"3+	c #708B97",
"4+	c #7C939D",
"5+	c #8098A3",
"6+	c #8EA6AF",
"7+	c #A6BAC3",
"8+	c #4E6875",
"9+	c #999998",
"0+	c #ADADAC",
"a+	c #DCDCDB",
"b+	c #868686",
"c+	c #B8BAB9",
"d+	c #41606E",
"e+	c #466573",
"f+	c #4A6977",
"g+	c #506D7B",
"h+	c #537280",
"i+	c #597684",
"j+	c #62808D",
"k+	c #688691",
"l+	c #738D98",
"m+	c #9EB4BD",
"n+	c #6D8690",
"o+	c #31515E",
"p+	c #908F8E",
"q+	c #A9A8A6",
"r+	c #C9C9C6",
"s+	c #DFDEDE",
"t+	c #DEDEDE",
"u+	c #898989",
"v+	c #979797",
"w+	c #D8D7D7",
"x+	c #708993",
"y+	c #5B7886",
"z+	c #496674",
"A+	c #4D6A78",
"B+	c #567381",
"C+	c #64828F",
"D+	c #6A8893",
"E+	c #859BA4",
"F+	c #3D5D6A",
"G+	c #53666F",
"H+	c #92908F",
"I+	c #B0AEAE",
"J+	c #D8D8D8",
"K+	c #6B6B6B",
"L+	c #343434",
"M+	c #DFDEDD",
"N+	c #C8C6C3",
"O+	c #D3DADD",
"P+	c #C7D1D6",
"Q+	c #9AACB3",
"R+	c #81959C",
"S+	c #5E7C87",
"T+	c #5E7B85",
"U+	c #486470",
"V+	c #7D8080",
"W+	c #999997",
"X+	c #C5C5C2",
"Y+	c #9E9E9E",
"Z+	c #1F1F1F",
"`+	c #C7C7C4",
" @	c #D6D5D2",
".@	c #C9C8C5",
"+@	c #C7C6C4",
"@@	c #EBF3F6",
"#@	c #E4EDF1",
"$@	c #DCE7ED",
"%@	c #CFDAE0",
"&@	c #B5C1C8",
"*@	c #909FA6",
"=@	c #77888F",
"-@	c #78909B",
";@	c #738D97",
">@	c #4A6775",
",@	c #6F787C",
"'@	c #908F8D",
")@	c #ADABAB",
"!@	c #D5D5D5",
"~@	c #E1E1E1",
"{@	c #4F4F4F",
"]@	c #676767",
"^@	c #DEDDDC",
"/@	c #D0CECA",
"(@	c #CBCAC7",
"_@	c #C1C0BC",
":@	c #AEADAB",
"<@	c #B1B2B1",
"[@	c #C9CDCF",
"}@	c #D4DDE1",
"|@	c #D7E3EA",
"1@	c #D1DEE4",
"2@	c #CBD9E0",
"3@	c #BCCACF",
"4@	c #AEBBC0",
"5@	c #9CABB0",
"6@	c #8D9FA6",
"7@	c #98ACB4",
"8@	c #647780",
"9@	c #8A8986",
"0@	c #A09F9C",
"a@	c #C4C4C1",
"b@	c #DCDCDC",
"c@	c #949494",
"d@	c #101010",
"e@	c #C7C7C5",
"f@	c #D5D4D0",
"g@	c #D0CECB",
"h@	c #CFCDC9",
"i@	c #C8C7C4",
"j@	c #BFBEB9",
"k@	c #AFAEAB",
"l@	c #A4A3A2",
"m@	c #727271",
"n@	c #626364",
"o@	c #6D7172",
"p@	c #9CA4A9",
"q@	c #BDCACF",
"r@	c #C6D6DD",
"s@	c #BFD1D8",
"t@	c #BED0D7",
"u@	c #999C9D",
"v@	c #617C87",
"w@	c #848787",
"x@	c #B7B7B6",
"y@	c #414141",
"z@	c #808080",
"A@	c #DCDBD9",
"B@	c #D1D0CB",
"C@	c #D2D1CD",
"D@	c #CFCECA",
"E@	c #ABAAAA",
"F@	c #797878",
"G@	c #404040",
"H@	c #333333",
"I@	c #767674",
"J@	c #959492",
"K@	c #A3A7A8",
"L@	c #B0BBBF",
"M@	c #ABB7BB",
"N@	c #858D90",
"O@	c #9B9998",
"P@	c #ACACAA",
"Q@	c #D0D0CF",
"R@	c #999999",
"S@	c #858585",
"T@	c #E0E0DE",
"U@	c #D1D0CD",
"V@	c #CAC6C3",
"W@	c #D0CFCC",
"X@	c #D8D7D3",
"Y@	c #C9C8C7",
"Z@	c #949493",
"`@	c #737272",
" #	c #4A4A4A",
".#	c #727270",
"+#	c #B4B3AF",
"@#	c #ABA9A6",
"##	c #A7A7A4",
"$#	c #A5A3A1",
"%#	c #A3A19F",
"&#	c #A7A5A3",
"*#	c #AFADAA",
"=#	c #C6C6C4",
"-#	c #E0DFDF",
";#	c #9C9C9C",
">#	c #D9D9D6",
",#	c #CAC9C3",
"'#	c #C5C4BE",
")#	c #A2A1A0",
"!#	c #888887",
"~#	c #676766",
"{#	c #5D5D5C",
"]#	c #636362",
"^#	c #B9B7B5",
"/#	c #C7C5C2",
"(#	c #C3C2BE",
"_#	c #BFBEBB",
":#	c #BBBAB7",
"<#	c #BAB9B5",
"[#	c #BABAB6",
"}#	c #C2C2BF",
"|#	c #D9D8D8",
"1#	c #E3E3E3",
"2#	c #7A7A7A",
"3#	c #4E4E4E",
"4#	c #D4D2CE",
"5#	c #D9D8D4",
"6#	c #C1C1BF",
"7#	c #999897",
"8#	c #706F6E",
"9#	c #646463",
"0#	c #5B5A5A",
"a#	c #939291",
"b#	c #D3D3CD",
"c#	c #D5D3D1",
"d#	c #CCCAC8",
"e#	c #CAC8C5",
"f#	c #C7C7C2",
"g#	c #C7C6C2",
"h#	c #E4E4E3",
"i#	c #B0B0B0",
"j#	c #262626",
"k#	c #CACAC7",
"l#	c #D7D6D2",
"m#	c #D3D1CD",
"n#	c #CFCECD",
"o#	c #A2A19F",
"p#	c #8F8E8D",
"q#	c #747372",
"r#	c #6A6968",
"s#	c #797877",
"t#	c #B6B5B3",
"u#	c #C0BFBB",
"v#	c #CECDC8",
"w#	c #CDCBC8",
"x#	c #D2D1D0",
"y#	c #E1E1DF",
"z#	c #C6C6C6",
"A#	c #A3A3A3",
"B#	c #040404",
"C#	c #818080",
"D#	c #DEDDDA",
"E#	c #D6D4D0",
"F#	c #D8D7D4",
"G#	c #9D9D9B",
"H#	c #7F7F7E",
"I#	c #7C7C7A",
"J#	c #ACABA9",
"K#	c #CECDCA",
"L#	c #DEDEDB",
"M#	c #A5A5A5",
"N#	c #010101",
"O#	c #1E1E1E",
"P#	c #E3E2DF",
"Q#	c #D7D5D1",
"R#	c #D6D5D1",
"S#	c #C4C3C1",
"T#	c #A6A5A3",
"U#	c #91908E",
"V#	c #81817F",
"W#	c #050505",
"X#	c #BFBFBE",
"Y#	c #DDDBD9",
"Z#	c #DAD9D4",
"`#	c #D7D5D2",
" $	c #CECBC8",
".$	c #BFBDBA",
"+$	c #ADABA8",
"@$	c #9E9E9B",
"#$	c #848482",
"$$	c #C0BFBC",
"%$	c #E5E5E5",
"&$	c #090909",
"*$	c #161616",
"=$	c #E2E2E2",
"-$	c #DDDCD9",
";$	c #D8D8D4",
">$	c #D7D6D1",
",$	c #D5D2CE",
"'$	c #D4D1CE",
")$	c #A7A6A4",
"!$	c #9B9A97",
"~$	c #878683",
"{$	c #91908C",
"]$	c #DBDAD6",
"^$	c #AAAAAA",
"/$	c #ECECEC",
"($	c #EEEEEE",
"_$	c #EAEAEA",
":$	c #DBDAD9",
"<$	c #D8D5D3",
"[$	c #D6D3CF",
"}$	c #A7A5A2",
"|$	c #5E5D5C",
"1$	c #181717",
"2$	c #2E2E2D",
"3$	c #E0DFDE",
"4$	c #9A9A9A",
"5$	c #EBEBEB",
"6$	c #E9E9E9",
"7$	c #EDEDED",
"8$	c #D5D4D3",
"9$	c #D9D7D5",
"0$	c #B7B6B3",
"a$	c #8E8D8A",
"b$	c #52514F",
"c$	c #A3A39F",
"d$	c #E5E5E4",
"e$	c #AEAEAE",
"f$	c #595959",
"g$	c #E8E8E8",
"h$	c #E7E7E7",
"i$	c #DBD9D5",
"j$	c #D7D6D4",
"k$	c #C4C4C4",
"l$	c #E6E6E6",
"m$	c #E3E2E0",
"n$	c #131313",
"o$	c #C2C2C2",
"p$	c #F1F1F1",
"q$	c #C5C5C5",
"r$	c #DDDDDD",
"s$	c #6E6E6E",
"t$	c #A2A2A2",
"u$	c #D7D7D7",
"v$	c #6A6A6A",
"w$	c #454545",
"                                                                                                ",
"                                                                                                ",
"                                        . + @ # $                                               ",
"                                        % & + * = - ; > , '                                     ",
"                                      ) ! ~ { ] ^ / ( _ : : : < > [ }                           ",
"                                    | ! 1 2 { ] ^ / 3 4 5 6 5 7 8 9 = 0 a b c d                 ",
"                                    e ! + 2 { ] f g h i ) j k l 5 4 3 m = n o p q               ",
"                                  r s t + 2 { u v w x y r z A e 5 4 h / ^ B 1 C i               ",
"                                  D E F + 2 { ] G p H I J K L M B N 3 / ^ M O P Q               ",
"                                R S ~ % + 2 % T m U V r z A W X Y Z / ( % `  ...+.r             ",
"                                g @.#.% $./ %.&.*.k I J K > =.-.;./ / ] >.,.'.).!.~.            ",
"                              {.P ].^./.(._.:.<.[.}.r z |.1./ / / ( ] _ 2.2.6 3.4.5.            ",
"                            6.! 7.8.9.0.a.b.c.d.e.f.g.h.4 i.j.T ^ ] ] k.2.l.).+.+.m.            ",
"                            n.o.p.q.r.s.t.u.v.w.x.y.z.4.A.B._.N ] C.1.D. .E.3.3.F.              ",
"                          G.H.I.J.K.L.M.N.O.P.Q.R.S.T.U.V.W.X./ Y.+ Z. .`. +k k .+              ",
"                          ++@+#+$+%+&+*+=+r.-+;+u.>+,+'+)+!+~+{+]+t ^+ ./+Q Q I                 ",
"                        (+_+:+<+[+}+|+1+2+L.3+N.4+5+Q.6+7+8+9+0+Y.a+ .:  +b+j                   ",
"                      6.a+c+d+e+f+g+h+i+%+j+k+=+l+-+;+m+n+o+p+q+r+s+t+/+u+u+J                   ",
"                      v+w+x+k+K.y+z+A+[+B+y+1+C+D+3+R.E+F+G+H+I+J+2.Z ). +K+                    ",
"                    L+M+N+O+P+Q+R+=+q.3+B+h+i+S+j+N.R.T+U+V+W+X+a+'.Y+).).Z+                    ",
"                    `+ @.@+@@@#@$@%@&@*@=@-@-@M.%+Q.;@>@,@'@)@!@~@5 U U {@                      ",
"                  ]@^@/@(@_@:@<@[@}@|@1@2@3@4@5@6@7@g+8@9@0@a@b@P /+c@U d@                      ",
"                6.e@f@g@h@i@j@k@l@m@n@o@p@q@r@s@t@u@v@w@W+x@E  .l v+v+y@                        ",
"                z@A@B@B@g@C@(@D@E@F@G.G@H@I@J@K@L@M@N@O@P@Q@t+o Y+R@S@                          ",
"              L+T@C@U@B@V@W@X@Y@Z@`@|. #.#+#@###$#%#&#*#=#-#~@l ;#R@H@                          ",
"              *.>#C@C@W@,#'#t )#!#~#{#]#^#/#(#_#:#<#[#}#|#1#>./+Y+2#                            ",
"            3#M+4#4#C@C@U@5#6#7#8#9#0#a#b#c#d#e#f#g#g#w+h#t+i#/+Y+j#                            ",
"            k#l#f@4#m#C@C@n#o#p#q#r#s#t#u#(@v#w#w#w#x#y#,.z#A#/+!.B#                            ",
"          C#D#E#f@f@4#4#F#_.G#H#I@I#J#/@/@K#K#K#K#v#L#h#b@D M#A#K N#                            ",
"        O#P#Q#R#E#f@f@4#S#T#U#V#s#'@B@B@g@/@/@/@K# @~@,.B E.M#e.W#                              ",
"      q X#Y#Z#`#R#R#f@f@ $.$+$@$#$$$U@B@B@B@g@g@U@y#%$P i#E.R@&$N#                              ",
"      *$=$,. .-$5#;$>$f@R#,$4#4#'$C@(#(#)$!$~${$]$%$=$Z D ^$L N#                                ",
"      B#k /$($($_$~@:$Z#<$l#R#[$}$|$1$      2$x#3$%$!@i#D 4$N#                                  ",
"      N#.+S 5$6$5$/$7$7$%$b@8$F#9$l#0$a$b$1$c$-$d$~@Z e$e$z                                     ",
"        N#f$6$g$h$h$h$g$_$/$/$6$h#:$9$i$j$R#l#1#%$o 6 i#u+                                      ",
"            J 4.k$l$%$1#=$,.%$h$6$5$5$l$s+E m$g$ .Z l l n$                                      ",
"                    L [.o$=$2. . .~@~@g$6$6$p$h$q$l l )                                         ",
"                            {@x = r$S S r$r$5$h$l l Y+n$                                        ",
"                                    s$t$k$u$P 6$=$l {@                                          ",
"                                          z v$o$,.q$                                            ",
"                                                w$w$                                            ",
"                                                                                                ",
"                                                                                                ",
"                                                                                                ",
"                                                                                                ",
"                                                                                                ",
"                                                                                                ",
"                                                                                                "};
