/* XPM */
static char * nautilus_xpm[] = {
"48 48 447 2",
"  	c None",
". 	c #000000",
"+ 	c #100D09",
"@ 	c #3D3422",
"# 	c #1F1A11",
"$ 	c #7B6946",
"% 	c #C9AB72",
"& 	c #F8D38D",
"* 	c #FAD58F",
"= 	c #FBD690",
"- 	c #4E432D",
"; 	c #1E1911",
"> 	c #5B4D33",
", 	c #A68D5E",
"' 	c #E2BF80",
") 	c #F1CB88",
"! 	c #967E54",
"~ 	c #BA9E69",
"{ 	c #FCD892",
"] 	c #FDD993",
"^ 	c #FDDA94",
"/ 	c #DDBE81",
"( 	c #100E09",
"_ 	c #978056",
": 	c #D3B278",
"< 	c #F0CA87",
"[ 	c #EFC986",
"} 	c #EEC885",
"| 	c #EDC785",
"1 	c #ECC684",
"2 	c #2C2418",
"3 	c #5F5F5F",
"4 	c #FAE1B1",
"5 	c #FCD993",
"6 	c #FBD892",
"7 	c #FAD791",
"8 	c #F9D590",
"9 	c #9B8459",
"0 	c #EBC583",
"a 	c #EAC482",
"b 	c #EAC381",
"c 	c #E9C280",
"d 	c #826C48",
"e 	c #BFBFBF",
"f 	c #FDE2AE",
"g 	c #F8D48F",
"h 	c #F7D38F",
"i 	c #F6D28E",
"j 	c #F5D18D",
"k 	c #F4D08C",
"l 	c #D5B479",
"m 	c #B59A67",
"n 	c #E8C17F",
"o 	c #E6BF7E",
"p 	c #E4BD7D",
"q 	c #E2BC7C",
"r 	c #B69763",
"s 	c #FDE7BC",
"t 	c #F4CF8B",
"u 	c #F3CD8A",
"v 	c #F2CC89",
"w 	c #E1BA7A",
"x 	c #DFB878",
"y 	c #DBB477",
"z 	c #D8B275",
"A 	c #D6B073",
"B 	c #7F7F7F",
"C 	c #FBE9C7",
"D 	c #D3AC70",
"E 	c #CDA76E",
"F 	c #C9A46B",
"G 	c #C7A36A",
"H 	c #31281A",
"I 	c #6F6F6F",
"J 	c #FCF3E1",
"K 	c #C5A068",
"L 	c #C19D66",
"M 	c #B18953",
"N 	c #9E713D",
"O 	c #3D2711",
"P 	c #3F3F3D",
"Q 	c #7F7F7A",
"R 	c #BFBEB7",
"S 	c #AFAEA8",
"T 	c #3F3F3F",
"U 	c #FCF5E8",
"V 	c #C6A36A",
"W 	c #A17541",
"X 	c #91622F",
"Y 	c #9A7046",
"Z 	c #C0A68A",
"` 	c #DFD2BF",
" .	c #FFFEF5",
"..	c #FFFBEF",
"+.	c #FFF1D4",
"@.	c #FFE8BF",
"#.	c #FFE0A9",
"$.	c #0F0D09",
"%.	c #1F1F1F",
"&.	c #FFFFFD",
"*.	c #B48D58",
"=.	c #A57A45",
"-.	c #956734",
";.	c #B89B7C",
">.	c #D7C7B2",
",.	c #F7F3E8",
"'.	c #FFFBF0",
").	c #FFF3DA",
"!.	c #FFEAC4",
"~.	c #FFE2AF",
"{.	c #FFDB9F",
"].	c #EFCD95",
"^.	c #EAC688",
"/.	c #E7C07F",
"(.	c #E5BE7E",
"_.	c #E3BD7C",
":.	c #E2BB7B",
"<.	c #95693D",
"[.	c #D7C7B3",
"}.	c #F7F3E9",
"|.	c #FFFEF6",
"1.	c #FFEAC5",
"2.	c #FFDA9F",
"3.	c #FFD99F",
"4.	c #AF956D",
"5.	c #DFDFDC",
"6.	c #ECCE9D",
"7.	c #E5BD7C",
"8.	c #E2BB7A",
"9.	c #DFB779",
"0.	c #DAB376",
"a.	c #B8925C",
"b.	c #A87E4A",
"c.	c #996B38",
"d.	c #B0906F",
"e.	c #D0BCA5",
"f.	c #EFE8DB",
"g.	c #FFFEF7",
"h.	c #FFF5E1",
"i.	c #FFEDCA",
"j.	c #FFE4B4",
"k.	c #FFD99E",
"l.	c #FFD89E",
"m.	c #6F5E45",
"n.	c #BFBFBD",
"o.	c #E9CB9A",
"p.	c #DCB475",
"q.	c #D5AE72",
"r.	c #CDA76D",
"s.	c #916334",
"t.	c #D0BCA6",
"u.	c #EFE8DC",
"v.	c #FFF7E6",
"w.	c #FFECCB",
"x.	c #FFE4B5",
"y.	c #FFD79E",
"z.	c #FED79D",
"A.	c #2F281D",
"B.	c #BFBEBC",
"C.	c #EED9B9",
"D.	c #DAB274",
"E.	c #C8A36A",
"F.	c #B08853",
"G.	c #A98562",
"H.	c #C8B199",
"I.	c #E7DDCF",
"J.	c #FFFEF8",
"K.	c #FFF7E7",
"L.	c #FFEFD1",
"M.	c #FFE6BA",
"N.	c #FFDDA4",
"O.	c #FED69D",
"P.	c #FED59C",
"Q.	c #FDD59B",
"R.	c #FCD49A",
"S.	c #7F7F7D",
"T.	c #ECD8B7",
"U.	c #D4AC70",
"V.	c #C9A369",
"W.	c #BF9B64",
"X.	c #A67C48",
"Y.	c #FFFEF9",
"Z.	c #FFF7E8",
"`.	c #FDD59C",
" +	c #FDD49B",
".+	c #FBD399",
"++	c #FAD298",
"@+	c #F9D196",
"#+	c #BA9C70",
"$+	c #EDDBBE",
"%+	c #D0A76C",
"&+	c #C49E66",
"*+	c #AD8550",
"=+	c #A88561",
"-+	c #FFEAC6",
";+	c #FFDFAA",
">+	c #FCD39A",
",+	c #FAD297",
"'+	c #F8D095",
")+	c #F7CF94",
"!+	c #F7CE93",
"~+	c #F6CD92",
"{+	c #8A7351",
"]+	c #6F6F6D",
"^+	c #F4E9D7",
"/+	c #CDA56A",
"(+	c #C09A63",
"_+	c #966836",
":+	c #E7DCCF",
"<+	c #FCD49B",
"[+	c #FBD298",
"}+	c #FAD197",
"|+	c #F9D096",
"1+	c #F5CC90",
"2+	c #F4CB8F",
"3+	c #F3CA8E",
"4+	c #F2C98D",
"5+	c #5B4B34",
"6+	c #3F3F3E",
"7+	c #F4E8D6",
"8+	c #CBA268",
"9+	c #BF9962",
"0+	c #966C40",
"a+	c #FFDBA4",
"b+	c #FFD79D",
"c+	c #FED69C",
"d+	c #F8CF95",
"e+	c #F7CE94",
"f+	c #F6CE93",
"g+	c #F6CD91",
"h+	c #F1C88C",
"i+	c #F1C78B",
"j+	c #F0C689",
"k+	c #EFC588",
"l+	c #3B3122",
"m+	c #F3E8D5",
"n+	c #C9A066",
"o+	c #BA925C",
"p+	c #9F7953",
"q+	c #FFF6E7",
"r+	c #F5CD91",
"s+	c #F1C78A",
"t+	c #EEC487",
"u+	c #EDC386",
"v+	c #ECC285",
"w+	c #EBC184",
"x+	c #0E0C08",
"y+	c #FCF8EF",
"z+	c #C79E65",
"A+	c #AD844F",
"B+	c #BFA589",
"C+	c #FEEFD5",
"D+	c #F5CC91",
"E+	c #F1C88B",
"F+	c #F0C78A",
"G+	c #EBC183",
"H+	c #EBC082",
"I+	c #EABF81",
"J+	c #E9BE80",
"K+	c #E8BD7F",
"L+	c #C29A63",
"M+	c #A47945",
"N+	c #C6B097",
"O+	c #FDE9C8",
"P+	c #F9D197",
"Q+	c #F8CF94",
"R+	c #F4CB90",
"S+	c #F4CA8F",
"T+	c #F2C98C",
"U+	c #EFC689",
"V+	c #ECC284",
"W+	c #EAC082",
"X+	c #E7BC7E",
"Y+	c #E6BC7C",
"Z+	c #E5BB7B",
"`+	c #D6AE73",
" @	c #0F0F0F",
".@	c #BF9861",
"+@	c #9C6F3D",
"@@	c #DED1C0",
"#@	c #FADEB3",
"$@	c #F3CA8F",
"%@	c #F3C98D",
"&@	c #F2C88C",
"*@	c #EDC385",
"=@	c #E7BC7D",
"-@	c #E6BB7C",
";@	c #E4BA7A",
">@	c #E4B979",
",@	c #E3B878",
"'@	c #E2B777",
")@	c #A98858",
"!@	c #BE9861",
"~@	c #9B6F3C",
"{@	c #DED1BF",
"]@	c #F7D8AA",
"^@	c #F0C68A",
"/@	c #EEC588",
"(@	c #E9BF81",
"_@	c #E8BD7E",
":@	c #E5BA7B",
"<@	c #E4B97A",
"[@	c #E2B776",
"}@	c #E1B675",
"|@	c #E0B574",
"1@	c #DFB473",
"2@	c #DEB372",
"3@	c #A68555",
"4@	c #8D5E2C",
"5@	c #F6F2E8",
"6@	c #F4D2A0",
"7@	c #EFC589",
"8@	c #EDC486",
"9@	c #E8BE80",
"0@	c #E3B879",
"a@	c #E3B777",
"b@	c #DEB271",
"c@	c #DDB16F",
"d@	c #DCB06E",
"e@	c #DAAE6D",
"f@	c #876C43",
"g@	c #E9BF80",
"h@	c #E8BE7F",
"i@	c #E2B676",
"j@	c #E1B575",
"k@	c #DDB271",
"l@	c #D8AC6B",
"m@	c #D5A969",
"n@	c #D1A666",
"o@	c #CDA264",
"p@	c #655031",
"q@	c #EAC081",
"r@	c #E7BD7E",
"s@	c #E0B474",
"t@	c #DFB373",
"u@	c #DEB371",
"v@	c #DDB270",
"w@	c #DCB16F",
"x@	c #DBB06E",
"y@	c #DAAE6C",
"z@	c #D7AC6A",
"A@	c #D4A968",
"B@	c #D1A566",
"C@	c #CDA263",
"D@	c #C99F61",
"E@	c #C59B5E",
"F@	c #C2985C",
"G@	c #BE9459",
"H@	c #231B10",
"I@	c #8E6031",
"J@	c #FFFDF4",
"K@	c #E6BC7D",
"L@	c #E5BA7A",
"M@	c #E1B676",
"N@	c #DFB372",
"O@	c #DBAF6E",
"P@	c #D9AE6C",
"Q@	c #D7AB6A",
"R@	c #D4A868",
"S@	c #D0A566",
"T@	c #CCA163",
"U@	c #C99E60",
"V@	c #C1975B",
"W@	c #BD9459",
"X@	c #BA9056",
"Y@	c #A07C4A",
"Z@	c #7C6039",
"`@	c #43341E",
" #	c #9F7952",
".#	c #FBF4E4",
"+#	c #E0B575",
"@#	c #E0B473",
"##	c #DDB170",
"$#	c #DCB06F",
"%#	c #D9AD6C",
"&#	c #D3A868",
"*#	c #D0A565",
"=#	c #C89E60",
"-#	c #C49A5E",
";#	c #BD9358",
">#	c #B99056",
",#	c #715734",
"'#	c #43331E",
")#	c #16110A",
"!#	c #BE9761",
"~#	c #9F7951",
"{#	c #F7EBD4",
"]#	c #DBAF6D",
"^#	c #D6AB6A",
"/#	c #D3A767",
"(#	c #CFA465",
"_#	c #CBA162",
":#	c #C89D60",
"<#	c #C49A5D",
"[#	c #C0965B",
"}#	c #BC9358",
"|#	c #9F7B49",
"1#	c #705733",
"2#	c #B8915B",
"3#	c #A7835F",
"4#	c #F6EAD2",
"5#	c #D6AA69",
"6#	c #D2A767",
"7#	c #CFA464",
"8#	c #CBA062",
"9#	c #C79D60",
"0#	c #C4995D",
"a#	c #C0965A",
"b#	c #B88F55",
"c#	c #947344",
"d#	c #654E2E",
"e#	c #372B19",
"f#	c #0B0805",
"g#	c #FFFDF3",
"h#	c #AB824D",
"i#	c #BEA487",
"j#	c #F5E8D0",
"k#	c #CEA364",
"l#	c #CAA062",
"m#	c #C79C5F",
"n#	c #C3995D",
"o#	c #BF965A",
"p#	c #BC9258",
"q#	c #937244",
"r#	c #A67E4E",
"s#	c #C6AF94",
"t#	c #E4CEA9",
"u#	c #C69C5F",
"v#	c #C3995C",
"w#	c #BF955A",
"x#	c #BB9257",
"y#	c #B78E55",
"z#	c #88693F",
"A#	c #5A4529",
"B#	c #372A19",
"C#	c #0B0905",
"D#	c #DFDDD4",
"E#	c #DAC9B3",
"F#	c #F6F1E4",
"G#	c #CFB287",
"H#	c #B78E54",
"I#	c #88693E",
"J#	c #594529",
"K#	c #2C2214",
"L#	c #2F2F2D",
"M#	c #BFBDB5",
"N#	c #9A968C",
"                                                                                                ",
"                                                                                                ",
"                                                                                                ",
"                                                                                                ",
"                                                                                                ",
"                                                                                                ",
"                                                                                                ",
"                          . + @ # .                             . . . .                         ",
"                  . . @ $ % & * = -                     . . ; > , ' ) ! .                       ",
"          . . @ $ ~ & * = { ] ^ ^ / (           . . ; > _ : ) < [ } | 1 2                       ",
"          3 4 * = { ] ^ ^ ^ 5 6 7 8 9 . . . ; > _ : ) < [ } | 1 0 a b c d                       ",
"        . e f ^ ^ ^ 5 6 7 8 g h i j k l m : ) < [ } | 1 0 a b c n o p q r .                     ",
"        . e s 6 7 8 g h i j k t u v ) < [ } | 1 0 a b c n o p q w x y z A .                     ",
"          B C h i j k t u v ) < [ } | 1 0 a b c n o p q w x y z A D E F G H     . .             ",
"          I J t u v ) < [ } | 1 0 a b c n o p q w x y z A D E F G K L M N O P Q R S .           ",
"          T U < [ } | 1 0 a b c n o p q w x y z A D E F V K L M W X Y Z `  ...+.@.#.$.          ",
"          %.&.1 0 a b c n o p q w x y z A D E F V K L *.=.-.Y ;.>.,.'.).!.~.{.{.{.]..           ",
"          . &.^.n /.(._.:.x y z A D E F V K L *.=.-.<.;.[.}.|.).1.~.{.{.{.2.2.2.3.4..           ",
"          . 5.6.7.8.9.0.A D E F V K L a.b.c.<.d.e.f.g.h.i.j.{.{.2.2.2.2.3.3.k.k.l.m.            ",
"          . n.o.x p.q.r.G K L a.b.c.s.d.t.u.g.v.w.x.{.{.2.2.2.2.3.3.k.l.l.l.l.y.z.A.            ",
"          . B.C.D.D E.L F.c.s.G.H.I.J.K.L.M.N.{.2.2.2.2.3.3.k.l.l.l.y.y.z.O.P.Q.R..             ",
"            S.T.U.V.W.X.G.I.Y.Z.L.M.N.{.2.2.2.2.3.3.k.l.l.l.y.y.z.O.`. +R..+++@+#+.             ",
"            S.$+%+&+*+=+Y.-+;+{.2.2.2.2.3.3.k.l.l.l.y.y.z.O.`. +>+.+,+@+'+)+!+~+{+.             ",
"            ]+^+/+(+_+:+-+2.2.2.3.3.k.l.l.l.y.y.z.O.`.<+>+[+}+|+'+)+!+~+1+2+3+4+5+              ",
"            6+7+8+9+0+J.a+3.k.l.l.l.y.b+z.c+`.<+.+[+}+|+d+e+f+g+1+2+3+4+h+i+j+k+l+              ",
"            6+m+n+o+p+q+l.l.y.z.O.c+`.R..+[+}+|+d+e+~+r+1+2+3+4+h+s+j+k+t+u+v+w+x+              ",
"            6+y+z+A+B+C+O.c+Q.R..+++}+|+d+!+~+D+1+2+3+4+E+F+j+k+t+u+v+G+H+I+J+K+.               ",
"            6+J.L+M+N+O+.+++P+|+Q+!+~+D+R+S+3+T+E+F+U+k+t+u+V+G+W+I+J+K+X+Y+Z+`+.               ",
"             @g..@+@@@#@Q+!+~+D+R+$@%@&@E+F+U+k+t+*@V+G+W+I+J+K+=@-@Z+;@>@,@'@)@.               ",
"            . g.!@~@{@]@R+3+%@&@i+^@U+/@t+*@V+G+W+(@J+_@=@-@:@<@>@,@[@}@|@1@2@3@.               ",
"            . |.!@4@5@6@i+^@7@t+8@*@V+G+W+(@9@_@=@-@:@<@0@a@[@}@|@1@2@b@c@d@e@f@.               ",
"            . |.!@4@ .t+u+*@V+G+W+g@h@_@=@-@:@<@,@'@i@j@|@1@2@k@c@d@e@l@m@n@o@p@                ",
"            .  .!@4@ .G+q@g@h@r@=@-@:@>@,@'@i@j@s@t@u@v@w@x@y@z@A@B@C@D@E@F@G@H@                ",
"            .  .!@I@J@r@K@-@L@>@,@'@M@j@s@N@b@v@w@O@P@Q@R@S@T@U@E@V@W@X@Y@Z@`@.                 ",
"            . J@!@ #.#>@,@'@M@+#@#N@b@##$#O@%#Q@&#*#T@=#-#V@;#>#Y@,#'#)#. .                     ",
"            . J@!#~#{#+#@#N@b@##$#]#%#^#/#(#_#:#<#[#}#>#|#1#'#)#. .                             ",
"            . J@2#3#4###$#]#%#5#6#7#8#9#0#a#}#b#c#d#e#f#. .                                     ",
"            . g#h#i#j#5#6#k#l#m#n#o#p#b#q#d#e#f#. .                                             ",
"            . g#r#s#t#u#v#w#x#y#z#A#B#C#.                                                       ",
"            . D#E#F#G#H#I#J#K#. .                                                               ",
"              L#M#N#K#. .                                                                       ",
"                .                                                                               ",
"                                                                                                ",
"                                                                                                ",
"                                                                                                ",
"                                                                                                ",
"                                                                                                ",
"                                                                                                "};
