/* XPM */
static char * nuke_xpm[] = {
"48 48 160 2",
"  	c None",
". 	c #FCB32C",
"+ 	c #FCB32D",
"@ 	c #FCB023",
"# 	c #FCB024",
"$ 	c #FCAF22",
"% 	c #FCAF21",
"& 	c #FCB32B",
"* 	c #FCB126",
"= 	c #FBAE21",
"- 	c #FCB42E",
"; 	c #DE9D22",
"> 	c #A57B24",
", 	c #755F25",
"' 	c #4F4826",
") 	c #373A27",
"! 	c #313627",
"~ 	c #ECA621",
"{ 	c #997424",
"] 	c #424126",
"^ 	c #142528",
"/ 	c #0F2228",
"( 	c #9B7524",
"_ 	c #F1A821",
": 	c #8E6D24",
"< 	c #263027",
"[ 	c #102228",
"} 	c #172728",
"| 	c #FCB22A",
"1 	c #FCB229",
"2 	c #C58E23",
"3 	c #303527",
"4 	c #765F25",
"5 	c #584D26",
"6 	c #112328",
"7 	c #866925",
"8 	c #E5A122",
"9 	c #A27A24",
"0 	c #F9AD21",
"a 	c #8F6E24",
"b 	c #202C28",
"c 	c #967224",
"d 	c #F7AC21",
"e 	c #8C6C24",
"f 	c #102328",
"g 	c #C89023",
"h 	c #F6AB21",
"i 	c #8D6D24",
"j 	c #1B2928",
"k 	c #F8AC21",
"l 	c #745E25",
"m 	c #424026",
"n 	c #D89922",
"o 	c #FAAE21",
"p 	c #7D6325",
"q 	c #D49722",
"r 	c #D09522",
"s 	c #383A27",
"t 	c #5E5126",
"u 	c #EFA721",
"v 	c #715C25",
"w 	c #E2A022",
"x 	c #E9A421",
"y 	c #504826",
"z 	c #605226",
"A 	c #6B5825",
"B 	c #F2A921",
"C 	c #4E4826",
"D 	c #464326",
"E 	c #F4AA21",
"F 	c #615326",
"G 	c #F5AB21",
"H 	c #E9A422",
"I 	c #363927",
"J 	c #FCB32E",
"K 	c #F0A821",
"L 	c #242F27",
"M 	c #846825",
"N 	c #283127",
"O 	c #182728",
"P 	c #4D4726",
"Q 	c #CC9222",
"R 	c #1A2928",
"S 	c #A07824",
"T 	c #E19F22",
"U 	c #D59822",
"V 	c #876924",
"W 	c #3B3C27",
"X 	c #293127",
"Y 	c #AC7F23",
"Z 	c #A47B24",
"` 	c #7E6425",
" .	c #B98723",
"..	c #F8AD21",
"+.	c #957224",
"@.	c #2B3327",
"#.	c #BB8923",
"$.	c #5D5026",
"%.	c #1D2A28",
"&.	c #484426",
"*.	c #FBAF21",
"=.	c #AB7F24",
"-.	c #645426",
";.	c #333727",
">.	c #132528",
",.	c #534A26",
"'.	c #705C25",
").	c #D79922",
"!.	c #E3A022",
"~.	c #122428",
"{.	c #CB9222",
"].	c #B68523",
"^.	c #816625",
"/.	c #5B4F26",
"(.	c #AA7E23",
"_.	c #916F24",
":.	c #977324",
"<.	c #E6A222",
"[.	c #162628",
"}.	c #132428",
"|.	c #BC8923",
"1.	c #DD9D22",
"2.	c #BE8A23",
"3.	c #1C2A28",
"4.	c #BD8923",
"5.	c #D99A22",
"6.	c #152628",
"7.	c #1E2B28",
"8.	c #343827",
"9.	c #D29622",
"0.	c #AF8123",
"a.	c #424027",
"b.	c #F6AC21",
"c.	c #D39722",
"d.	c #C79023",
"e.	c #856825",
"f.	c #D69822",
"g.	c #786125",
"h.	c #DB9B22",
"i.	c #6F5B25",
"j.	c #E29F22",
"k.	c #1F2B28",
"l.	c #E9A322",
"m.	c #232E27",
"n.	c #ECA622",
"o.	c #655526",
"p.	c #293227",
"q.	c #F3AA21",
"r.	c #303627",
"s.	c #222D27",
"t.	c #323727",
"u.	c #444126",
"v.	c #D89A22",
"w.	c #514A26",
"x.	c #252F27",
"y.	c #E8A322",
"z.	c #6C5925",
"A.	c #584E26",
"B.	c #DA9B22",
"C.	c #685725",
"                                                                                                ",
"                                                                                                ",
"                                    . + @ # $ % % $ # @ + +                                     ",
"                              & * % % % % % % = = % % % % % % * &                               ",
"                          - @ % % % ; > , ' ) ! ! ) ' , > ; % % % @ -                           ",
"                        # % % ~ { ] ^ / / / / / / / / / / ^ ] ( ~ % % #                         ",
"                    & % % _ : < / / / / / / / / / / / / / [ } / < : _ % % |                     ",
"                  1 % % 2 ) / 3 4 5 6 / / / / / / / / / / 7 8 9 3 / ) 2 % % 1                   ",
"                * % 0 a ^ b c d % % e f / / / / / / / / / g % % h i j ^ a 0 % *                 ",
"              1 % k l [ m n % % % % o p f / / / / / / / / q % % % % r s [ l k % 1               ",
"            | % 0 l f t u % % % % % % 0 v [ / / / / / / / w % % % % % x y f l 0 % &             ",
"            % % a [ z h % % % % % % % % 0 A / / / / / / / B % % % % % % B C [ a % %             ",
"          # % 2 ^ D _ % % % % % % % % % % E F / / / / / j G % % % % % % % H I ^ 2 % #           ",
"        J % K ) L ; % % % % % % % % % % % % G M N O ^ ^ P o % % % % % % % % Q R ) _ % -         ",
"        @ % : / S % % % % % % % % % % % % % % % h T U U _ % % % % % % % % % % V / : % @         ",
"      & % ~ < W 0 % % % % % % % % % % % % % % % % % % % % % % % % % % % % % % _ X < ~ % &       ",
"      * % ( / Y % % % % % % % % % % % % % % % % % 0 Z `  ...% % % % % % % % % % +./ { % *       ",
"      % % ] @.K % % % % % % % % % % % % % % % % % #.6 / [ $.K % % % % % % % % % 8 %.] % %       ",
"    + % ; ^ &.*.% % % % % % % % % % % % % % % % % =./ / / / -.o % % % % % % % % d ;.^ ; % .     ",
"    + % > / >.,.'.'.'.'.'.'.'.'.'.'.'.'.V ).% % % !.%./ / / ~.{.% % ].^.^.^.^.^./.f / > % +     ",
"    @ % , / / / / / / / / / / / / / / / / j (.% % % _./ / / / :.% <.j / / / / / / / / , % @     ",
"    # % ' / / / / / / / / / / / / / / / / / [.(.% % o i R / }.|.% U >./ / / / / / / / ' % #     ",
"    $ % ) / / / / / / / / / / / / / / / / / / }  .% % % 1.9 2.= % q >./ / / / / / / / ) % $     ",
"    % = ! / / / / / / / / / / / / / / / / / / / 3.4.% % % % % % % 5.6./ / / / / / / / ! = %     ",
"    % = ! / / / / / / / / / / / / / / / / / / / / 7.g % % % % % % 0 8./ / / / / / / / ! = %     ",
"    $ % ) / / / / / / / / / / / / / / / / / / / / / < 9.% % % % % % 0.^ / / / / / / / ) % $     ",
"    # % ' / / / / / / / / / / / / / / / / / / / / / / a.b.% % % % % % :.}./ / / / / / ' % #     ",
"    @ % , / / / / / / / / / / / / / / / / / / / / / / 6 c.% % % % % % *._.6 / / / / / , % @     ",
"    + % > / / / / / / / / / / / / / / / / / / / / / / / d.% % % % % % % o e.f / / / / > % +     ",
"    . % ; ^ / / / / / / / / / / / / / / / / / / / / / / f.% % % % % % % % 0 g.f / / ^ ; % +     ",
"      % % ] / / / / / / / / / / / / / / / / / / / / / 6 h.% % % % % % % % % ..i./ / ] % %       ",
"      * % { / / / / / / / / / / / / / / / / / / / / / O j.% % % % % % % % % % j./ / ( % *       ",
"      & % ~ < / / / / / / / / / / / / / / / / / / / / k.l.% % % % % % % % % % c./ < ~ % &       ",
"        @ % : / / / / / / / / / / / / / / / / / / / / m.n.% % % % % % % % % = o./ : % @         ",
"        J % _ ) / / / / / / / / / / / / / / / / / / / p.q.% % % % % % % % % 0.}.) _ % -         ",
"          # % 2 ^ / / / / / / / / / / / / / / / / / / r.o % % % % % % % % U s.^ 2 % #           ",
"            % % a [ / / / / / / / / / / / / / / / / / ) % % % % % % % % ; t.[ a % %             ",
"            & % 0 l [ / / / / / / / / / / / / / / / / u.% % % % % % % v.t.[ l 0 % |             ",
"              1 % k l [ / / / / / / / / / / / / / / / w.% % % % % *.].x.[ l k % 1               ",
"                * % 0 a ^ / / / / / / / / / / / / / / /.% % % % y.z.^ ^ a 0 % *                 ",
"                  1 % % 2 ) / / / / / / / / / / / / / A.% o B.` j / ) 2 % % 1                   ",
"                    | % % _ : < / / / / / / / / / / / O C.&.[./ < : _ % % &                     ",
"                        # % % ~ ( ] ^ / / / / / / / / / / ^ ] { ~ % % #                         ",
"                          - @ % % % ; > , ' ) ! ! ) ' , > ; % % % @ -                           ",
"                              & * % % % % % % = = % % % % % % * &                               ",
"                                    + + @ # $ % % $ # @ + .                                     ",
"                                                                                                ",
"                                                                                                "};
