/* XPM */
static char * ogle_xpm[] = {
"48 48 117 2",
"  	c #000000",
". 	c #040000",
"+ 	c #020000",
"@ 	c #030000",
"# 	c #010000",
"$ 	c #100000",
"% 	c #6E0000",
"& 	c #410000",
"* 	c #080000",
"= 	c #5B0000",
"- 	c #690000",
"; 	c #5D0000",
"> 	c #440000",
", 	c #1C0000",
"' 	c #2E0000",
") 	c #800000",
"! 	c #700000",
"~ 	c #520000",
"{ 	c #7E0000",
"] 	c #5C0000",
"^ 	c #130000",
"/ 	c #270000",
"( 	c #480000",
"_ 	c #490000",
": 	c #4B0000",
"< 	c #4F0000",
"[ 	c #620000",
"} 	c #7C0000",
"| 	c #780000",
"1 	c #7F0000",
"2 	c #210000",
"3 	c #400000",
"4 	c #770000",
"5 	c #4C0000",
"6 	c #560000",
"7 	c #6F0000",
"8 	c #3B0000",
"9 	c #420000",
"0 	c #1D0000",
"a 	c #160000",
"b 	c #5E0000",
"c 	c #2D0000",
"d 	c #3A0000",
"e 	c #3F0000",
"f 	c #050000",
"g 	c #380000",
"h 	c #4D0000",
"i 	c #0E0000",
"j 	c #7B0000",
"k 	c #220000",
"l 	c #250000",
"m 	c #7D0000",
"n 	c #710000",
"o 	c #060000",
"p 	c #190000",
"q 	c #7A0000",
"r 	c #2F0000",
"s 	c #430000",
"t 	c #650000",
"u 	c #6A0000",
"v 	c #0C0000",
"w 	c #1F0000",
"x 	c #230000",
"y 	c #680000",
"z 	c #580000",
"A 	c #450000",
"B 	c #640000",
"C 	c #3E0000",
"D 	c #460000",
"E 	c #570000",
"F 	c #2A0000",
"G 	c #3D0000",
"H 	c #630000",
"I 	c #470000",
"J 	c #2C0000",
"K 	c #140000",
"L 	c #0F0000",
"M 	c #120000",
"N 	c #090000",
"O 	c #0B0000",
"P 	c #350000",
"Q 	c #070000",
"R 	c #3C0000",
"S 	c #1E0000",
"T 	c #500000",
"U 	c #200000",
"V 	c #360000",
"W 	c #6D0000",
"X 	c #720000",
"Y 	c #730000",
"Z 	c #750000",
"` 	c #0D0000",
" .	c #150000",
"..	c #170000",
"+.	c #290000",
"@.	c #110000",
"#.	c #1B0000",
"$.	c #0A0000",
"%.	c #300000",
"&.	c #6B0000",
"*.	c #760000",
"=.	c #790000",
"-.	c #670000",
";.	c #530000",
">.	c #4A0000",
",.	c #740000",
"'.	c #340000",
").	c #1A0000",
"!.	c #240000",
"~.	c #5A0000",
"{.	c #6C0000",
"].	c #310000",
"^.	c #660000",
"/.	c #5F0000",
"(.	c #540000",
"_.	c #370000",
":.	c #2B0000",
"                                                                                                ",
"                                                                                                ",
"                                                                                                ",
"                                                                                                ",
"                                                                                                ",
"                                                                                                ",
"                                                                                                ",
"                                                                                                ",
"                                                                                                ",
"                                                                                                ",
"                                                                                                ",
"                                                                                                ",
"                                                                                                ",
"            . . . . . . . . . . . . . . . . +               + . . . . . . . . @ @ #             ",
"          $ % % % % % % % % % % % % % % % % &             * = % % % % % % % % % - ; > , +       ",
"          ' ) ) ) ) ) ) ) ) ) ) ) ) ) ) ) ) ! .         @ ~ ) ) ) ) ) ) ) ) ) ) ) ) ) { ] ^     ",
"          / ( _ : : : < [ } ) ) ) ) } | ) ) 1 2       # 3 1 ) ) 4 : : : : : 5 6 7 1 ) ) ) 7 $   ",
"          8 9 9 9 0     # a - ) ) ) { b ) ) ) :       c { ) ) } d 9 9 9 e +     f g { ) ) ) h   ",
"        i j ) ) ) k         l ) ) ) ) 9 m ) ) n o   p q ) ) { r s ) ) ) t #         ; ) ) ) u @ ",
"        / ) ) ) 4 v         w 1 ) ) 1 x y ) ) 1 2 v % ) ) 1 8 # [ ) ) ) (           z ) ) ) t + ",
"        A ) ) ) B #       # 5 ) ) ) ! * C ) ) ) D E ) ) 1 _ + f j ) ) ) F         i | ) ) ) G   ",
"      # H ) ) ) I       . 8 m ) ) m J   K m ) ) 4 1 ) ) 6 .   w 1 ) ) m L       M H ) ) ) y N   ",
"      O 4 ) ) ) G , l C y 1 ) ) } P #   # H ) ) ) ) ) [ Q     R ) ) ) ! S w r T | ) ) ) y M     ",
"      U 1 ) ) ) 1 1 ) ) ) ) ) t 0         V ) ) ) ) W v       = ) ) ) 1 { 1 ) ) ) ) } D *       ",
"      C ) ) ) ) ) ) 1 } X T k #           O m ) ) Y ^       f Z ) ) ) ) ) 1 { q B G `           ",
"       .2 2 2 2 2 2 , $ +                   = ) 4 0         . U 2 2 2 2 2 w ..*                 ",
"                                            ' j +.                                              ",
"                                @ Q v i $ @.#.9 M $ L ` $.f #                                   ",
"            # L 2 %.e h z [ &.Y *.| =.q j j j } j j q q | 4 Z ! -.; ;.I g +.p o                 ",
"    # ..e b *.{ 1 ) ) ) ) ) ) ) ) ) ) 1 m } q } m 1 ) ) ) ) ) ) ) ) ) ) ) ) 1 } &.T c Q         ",
"  # >.1 ) ) ) ) ) ) ) ) ) ) ) ) ) ,.'.p N +   + N p '.Z ) ) ) ) ) ) ) ) ) ) ) ) ) ) ) Y ).      ",
"  # '.n 1 ) ) ) ) ) ) ) ) ) ) ) ) 4 & !.K L i L K !.& | ) ) ) ) ) ) ) ) ) ) ) ) ) ) } ; $       ",
"      * x 9 ~.{.=.) ) ) ) ) ) ) ) ) ) ) 1 } q } 1 ) ) ) ) ) ) ) ) ) ) ) ) { Y B < '.K #         ",
"              . O K x ].8 A < E ; [ ^.u &.{.% % W {.u y B /.~.(.>.3 _.:., L * #                 ",
"                                  # + @ @ @ . . @ @ @ + #                                       ",
"                                                                                                ",
"                                                                                                ",
"                                                                                                ",
"                                                                                                ",
"                                                                                                ",
"                                                                                                ",
"                                                                                                ",
"                                                                                                ",
"                                                                                                ",
"                                                                                                ",
"                                                                                                ",
"                                                                                                ",
"                                                                                                "};
