/* XPM */
static char * icon_xpm[] = {
"48 48 125 2",
"  	c None",
". 	c #000000",
"+ 	c #090606",
"@ 	c #070807",
"# 	c #0B0807",
"$ 	c #050C0C",
"% 	c #0B0B0A",
"& 	c #130D0C",
"* 	c #1A0E0C",
"= 	c #08100F",
"- 	c #19100F",
"; 	c #090D10",
"> 	c #041312",
", 	c #0B1212",
"' 	c #0E1819",
") 	c #141312",
"! 	c #1B1413",
"~ 	c #1D1817",
"{ 	c #151C1B",
"] 	c #1E1B1B",
"^ 	c #2A0D0B",
"/ 	c #380C09",
"( 	c #27110E",
"_ 	c #35110E",
": 	c #241412",
"< 	c #2B1411",
"[ 	c #231917",
"} 	c #2A1816",
"| 	c #241C1B",
"1 	c #2B1D1B",
"2 	c #311310",
"3 	c #3B1411",
"4 	c #331816",
"5 	c #341D1B",
"6 	c #3D1D1A",
"7 	c #2D201E",
"8 	c #32201E",
"9 	c #1B1F20",
"0 	c #201F20",
"a 	c #0F2121",
"b 	c #2B2627",
"c 	c #382927",
"d 	c #3C3332",
"e 	c #4A0A05",
"f 	c #580A05",
"g 	c #46110D",
"h 	c #5A120C",
"i 	c #441511",
"j 	c #4A1612",
"k 	c #421B17",
"l 	c #4D1A14",
"m 	c #441C1A",
"n 	c #4D1C19",
"o 	c #571610",
"p 	c #5D1611",
"q 	c #511914",
"r 	c #5C1813",
"s 	c #571E19",
"t 	c #5D1E19",
"u 	c #640200",
"v 	c #6C0000",
"w 	c #650C06",
"x 	c #6A0B05",
"y 	c #660F09",
"z 	c #770702",
"A 	c #67120B",
"B 	c #76170F",
"C 	c #6A1610",
"D 	c #641B15",
"E 	c #6B1A14",
"F 	c #6F1F1A",
"G 	c #791B14",
"H 	c #44211E",
"I 	c #5C201A",
"J 	c #66221D",
"K 	c #7B231E",
"L 	c #452623",
"M 	c #552B27",
"N 	c #53322D",
"O 	c #463938",
"P 	c #682823",
"Q 	c #66322C",
"R 	c #75342D",
"S 	c #653A35",
"T 	c #773630",
"U 	c #4F413F",
"V 	c #67423E",
"W 	c #78433C",
"X 	c #584F4D",
"Y 	c #625656",
"Z 	c #7F5D58",
"` 	c #656160",
" .	c #7A7574",
"..	c #870C05",
"+.	c #89140D",
"@.	c #99180E",
"#.	c #841B13",
"$.	c #971B13",
"%.	c #A6150A",
"&.	c #B2180D",
"*.	c #AA1B12",
"=.	c #B41C13",
"-.	c #8A221B",
";.	c #95241D",
">.	c #A9231A",
",.	c #B7241A",
"'.	c #892D27",
").	c #972B25",
"!.	c #83332A",
"~.	c #853C35",
"{.	c #BF3024",
"].	c #89433B",
"^.	c #98473C",
"/.	c #AD463F",
"(.	c #874A44",
"_.	c #A74540",
":.	c #BA4D44",
"<.	c #926F6B",
"[.	c #857471",
"}.	c #9A7773",
"|.	c #888A8D",
"1.	c #948E8D",
"2.	c #BCBBBA",
"3.	c #D1D0CF",
"4.	c #CCCFD7",
". . . . . . . . . . . . . . . . . . . . . . . : q $ . . . . . . . . . . . . . . . . . . . . . . ",
". . . . . . . . . . . . . . . . . . . . . . . 6 D $ . . . . . . . . . . . . . . . . . . . . . . ",
". . . . . . . . . . . . . . . . . . . . . . . m K $ . . . . . . . . . . . . . . . . . . . . . . ",
". . . . . . . . . . . . . . . . . . . . . . . n K $ . . . . . . . . . . . . . . . . . . . . . . ",
". . . . . . . . . . . . . . . . . . . . . . . s G $ . . . . . . . . . . . . . . . . . . . . . . ",
". . . . . . . . . . . . . . . . . . . . . . . I #.$ . . . . . . . . . . . . . . . . . . . . . . ",
". . . . . . . . . . . . . . . . . . . . . . . J -.$ . . . . . . . . . . . . . . . . . . . . . . ",
". . . . . . . . . . . . . . . . . . . . . . . P ;.$ . . . . . . . . . . . . . . . . . . . . . . ",
". . . . . . . . . . . . . . . . . . . . . . . J >.$ . . . . . . . . . . . . . . . . . . . . . . ",
". . . . . . . . . . . . . . . . . . . . . . . J >.$ . . . . . . . . . . . . . . . . . . . . . . ",
". . . . . . . . . . . . . . . . . . . . . . . F *.% . . . . . . . . . . . . . . . . . . . . . . ",
". . . . . . . . . . . . . . . . . . . . . . . G *.% . . . . . . . . . . . . . . . . . . . . . . ",
". . . . . ! d | . . . . . . . . . . . . . . . G =.% . . . . . . . . . . . . . % | 1 ! . . . . . ",
". . + U U Y b ) % . . . . . . . . . . . . . . G =.& . . . . . . . . . . . . . . [ [ 8 7 7 % . . ",
". | 1.` ` ; + % . . . . . . . . . . . . . . . G &.& . . . . . . . . . . . . . . . # ) c c X ! . ",
"| 3.|.. . . . . . . . . . . . . . . . . . . . G %.& . . . . . . . . . . . . . . . . . % % Y ` & ",
" .4.. . . . . . . . . . . . . . . . . . . . . #.&.* . . . . . . . . . . . . . . . . . . . ! 2.~ ",
"X 1.% . . . . . . . . . . . . . . . . . . . . -.=.* . . . . . . . . . . . . . . . . . . . c 1.% ",
"& ` 1.| | . . . . . . . . . . . . . . . . . . -.&.* . . . . . . . . . . . . . . . . % d d [.b . ",
"& % Y }.}.V | % . . . . . . . . . . . . . . . #.%.* . . . . . . . . . . . . . . ) c Z <.<.c . - ",
". - | 5 5 P ].Q M } ! & & % % + . . . . . . . #.%.* . . . . . . % % & ! ! 1 N S (.^.M 5 5 | % % ",
". . | c c 6 / f A #.-.K K !.R Q M M M L L ) $ G %.* , O O S S W W ~.'.).).).-.C f e H O O ] & . ",
". . . - - c H j e f u u u z +.$.$.$.>.>.>.} > B %.^ 9 :.:.{.$.$.+...z u u f e e q M O ) ) % . . ",
". . . . . % | c k p y f f v v v u u z z z & > +.*.( { -.-...u v v v u u u C J L c 0 , + + . . . ",
". . . . . . . & ] 1 4 g g f G #.+.....z z * > #.*.( ' -.-...z z z x e i i L b ) % @ . . . . . . ",
". . . . . . . . . . % ) ) : 5 L N S ).@.@.* > #.=.2 , G G ..i _ ^ ( ! ) ) , $ + . . . . . . . . ",
". . . . . . . . . . . . . . $ $ , a T >.>.* > ;.=.< = B B x $ $ $ $ % . . . . . . . . . . . . . ",
". . . . . . . . . . . . . . . . . . J $.$.- > ).,.( $ G G x $ . . . . . . . . . . . . . . . . . ",
". . . . . . . . . . . . . . . . . . t #.#.* , ;.,.( , C C x $ . . . . . . . . . . . . . . . . . ",
". . . . . . . . . . . . . . . . . . s +.+.* , G *.- , C C x $ . . . . . . . . . . . . . . . . . ",
". . . . . . . . . . . . . . . . . . l +.+.- > E *.- . D D x % . . . . . . . . . . . . . . . . . ",
". . . . . . . . . . . . . . . . . . n $.$.: > E @.* . h h w $ . . . . . . . . . . . . . . . . . ",
". . . . . . . . . . . . . . . . . . m ).).[ > G $.* . h h x $ . . . . . . . . . . . . . . . . . ",
". . . . . . . . . . . . . . . . . . H /./.| > F +.& . p p y % . . . . . . . . . . . . . . . . . ",
". . . . . . . . . . . . . . . . . . 6 _._.| = D ..% . r r h $ . . . . . . . . . . . . . . . . . ",
". . . . . . . . . . . . . . . . . . 5 '.'.! $ r z % . r r f $ . . . . . . . . . . . . . . . . . ",
". . . . . . . . . . . . . . . . . . 4 K K & . o z % . t t h , . . . . . . . . . . . . . . . . . ",
". . . . . . . . . . . . . . . . . . 4 E E & . h z = . t t h % . . . . . . . . . . . . . . . . . ",
". . . . . . . . . . . . . . . . . . : h h % . e x ) . q q f % . . . . . . . . . . . . . . . . . ",
". . . . . . . . . . . . . . . . . . * g g % . _ u % . l l e , . . . . . . . . . . . . . . . . . ",
". . . . . . . . . . . . . . . . . . * g g % . _ f $ . g g e ) . . . . . . . . . . . . . . . . . ",
". . . . . . . . . . . . . . . . . . * i i % . / f % . i i g ) . . . . . . . . . . . . . . . . . ",
". . . . . . . . . . . . . . . . . . * i i & . / f % . 3 3 / ) . . . . . . . . . . . . . . . . . ",
". . . . . . . . . . . . . . . . . . & _ _ & . _ e $ . 3 3 / % . . . . . . . . . . . . . . . . . ",
". . . . . . . . . . . . . . . . . . & _ _ ) . _ e $ . _ _ / . . . . . . . . . . . . . . . . . . ",
". . . . . . . . . . . . . . . . . . & 4 4 ! . ^ / % . ( ( ^ . . . . . . . . . . . . . . . . . . ",
". . . . . . . . . . . . . . . . . . # 4 4 & . _ g % . < < ^ % . . . . . . . . . . . . . . . . . ",
". . . . . . . . . . . . . . . . . . # } } - . : _ % . } } ( % . . . . . . . . . . . . . . . . . "};
