/* XPM */
static char * rs_irush_xpm[] = {
"32 32 142 2",
"  	c None",
". 	c #9F9F9F",
"+ 	c #9E9E9D",
"@ 	c #9C9C9C",
"# 	c #9B9B9B",
"$ 	c #9A9A9A",
"% 	c #989899",
"& 	c #979797",
"* 	c #969696",
"= 	c #959595",
"- 	c #949493",
"; 	c #939393",
"> 	c #919191",
", 	c #909090",
"' 	c #8F8F8F",
") 	c #8D8D8E",
"! 	c #8C8C8C",
"~ 	c #8B8B8B",
"{ 	c #8A8989",
"] 	c #888888",
"^ 	c #878787",
"/ 	c #868686",
"( 	c #848585",
"_ 	c #838383",
": 	c #828282",
"< 	c #818181",
"[ 	c #7F7F7F",
"} 	c #7E7E7E",
"| 	c #7D7D7D",
"1 	c #7B7C7C",
"2 	c #7A7A7A",
"3 	c #797979",
"4 	c #787878",
"5 	c #9E9E9E",
"6 	c #9D9D9C",
"7 	c #989999",
"8 	c #949494",
"9 	c #8E8D8D",
"0 	c #8A8A8A",
"a 	c #858585",
"b 	c #838483",
"c 	c #808080",
"d 	c #7C7C7C",
"e 	c #777777",
"f 	c #9D9C9D",
"g 	c #999999",
"h 	c #8E8E8E",
"i 	c #898989",
"j 	c #848484",
"k 	c #7B7B7A",
"l 	c #767676",
"m 	c #989897",
"n 	c #8C8D8C",
"o 	c #7B7B7B",
"p 	c #747474",
"q 	c #989898",
"r 	c #8D8D8D",
"s 	c #878887",
"t 	c #7F7E7F",
"u 	c #7A797A",
"v 	c #737373",
"w 	c #979696",
"x 	c #929191",
"y 	c #878788",
"z 	c #727272",
"A 	c #969796",
"B 	c #929291",
"C 	c #8C8B8B",
"D 	c #888788",
"E 	c #828382",
"F 	c #7D7E7E",
"G 	c #929292",
"H 	c #919190",
"I 	c #828283",
"J 	c #7C7C7D",
"K 	c #787879",
"L 	c #757475",
"M 	c #969595",
"N 	c #878786",
"O 	c #7D7C7D",
"P 	c #797878",
"Q 	c #757575",
"R 	c #747373",
"S 	c #868585",
"T 	c #828181",
"U 	c #7D7D7C",
"V 	c #777778",
"W 	c #858685",
"X 	c #787877",
"Y 	c #737272",
"Z 	c #908F90",
"` 	c #868685",
" .	c #818080",
"..	c #C6C6C6",
"+.	c #727372",
"@.	c #8F8E8E",
"#.	c #FFFFFF",
"$.	c #8F8F8E",
"%.	c #818180",
"&.	c #8D8E8D",
"*.	c #9D9D9D",
"=.	c #C1C1C0",
"-.	c #E6E6E6",
";.	c #807F80",
">.	c #CACACA",
",.	c #ECECEC",
"'.	c #C2C2C2",
").	c #E8E8E8",
"!.	c #F8F8F8",
"~.	c #BCBCBC",
"{.	c #9C9B9C",
"].	c #BEBEBE",
"^.	c #7E7E7F",
"/.	c #CBCBCB",
"(.	c #FBFBFB",
"_.	c #E4E4E4",
":.	c #B4B4B4",
"<.	c #929293",
"[.	c #D3D3D3",
"}.	c #EDEDED",
"|.	c #888787",
"1.	c #888887",
"2.	c #DCDCDC",
"3.	c #7D7D7E",
"4.	c #D4D4D4",
"5.	c #F9F9F9",
"6.	c #A5A5A5",
"7.	c #747475",
"8.	c #EBEBEB",
"9.	c #B8B8B8",
"0.	c #838283",
"a.	c #747574",
"b.	c #737374",
"c.	c #747374",
"d.	c #818282",
"e.	c #787777",
"f.	c #737372",
"g.	c #808081",
"h.	c #767777",
"i.	c #7C7B7C",
"j.	c #767576",
"k.	c #7A7B7B",
". + @ # $ % & * = - ; > , ' ) ! ~ { ] ^ / ( _ : < [ } | 1 2 3 4 ",
"5 6 # $ 7 & * = 8 ; > , ' 9 ! ~ 0 ] ^ / a b : < c } | d 2 3 4 e ",
"f # $ g & * = 8 ; > , ' h ! ~ 0 i ^ / a j : < c } | d k 3 4 e l ",
"# $ g m * = 8 ; > , ' h n ~ 0 i ^ / a j : < c } | d o 3 4 e l p ",
"$ g q * = 8 ; > , ' h r ~ 0 i s / a j : < c t | d o u 4 e l p v ",
"g q w = 8 ; x , ' h r ~ 0 i y / a j : < c [ } d o u 4 e l p v z ",
"q A = 8 ; B , ' h r C 0 i D / a j E < c [ F d o 2 4 e l p v z z ",
"& = 8 ; G H ' h r ! 0 i ] / a j I < c [ } J o 2 K e l L v z z z ",
"M 8 ; G > ' h r ! 0 i ] N a j _ < c [ } O o 2 P e l Q R z z z z ",
"8 ; G > ' h r ! 0 i ] ^ S j _ T c [ } U o 2 3 V l Q p z z z z z ",
"; G > , h r ! 0 i ] ^ W j _ : c [ } | o 2 3 X l Q p Y z z z z z ",
"G > Z h r ! 0 i ] ^ ` j _ :  .[ } | o 2 3 4 l < ..+.z z z z z z ",
"> , @.5 #.~ i ] ^ / j _ : < [ } | o 2 3 4 e Q i #.z z z z z z z ",
", $.r r = i ] ^ / a _ : %.[ } | o 2 3 4 e Q p ] #.z z z z z z z ",
"' &.! *.#.] g #.=.-.= #.;.} > #.2 3 >.,.-.'.v ] #.$ ).!.~.z z z ",
"9 ! ~ {.#.^ q #.].: 8 #.} | , #.3 i #.^.p p z ] #./.3 = (.z z z ",
"! ~ 0 $ #./ q #.: < ; #.| d $.#.4 3 _.).:.| z ] #.p z ] #.z z z ",
"~ 0 i g #.a & #.< c <.#.d o , #.e l l @ [.}.l ] #.z z ] #.z z z ",
"0 i |.q #.j = #.c [ r #.^ 1.2.#.l 2 d z | #.< ] #.z z ] #.z z z ",
"i s / q #.: 8 #.[ 3.d 4.5._.6.#.7.: -.-.8.9.z ] #.z z ] #.z z z ",
"] / a j 0.< c [ } d o 2 4 e l a.v z z z z z z z z z z z z z z z ",
"/ a j 0.< c [ } d o 2 P e l Q v z z z z z z z z z z z z z z z z ",
"a j 0.< c [ } d o 2 3 e l Q b.z z z z z z z z z z z z z z z z z ",
"j _ T c [ } | o 2 3 e l Q c.z z z z z z z z z z z z z z z z z z ",
"_ d.c [ } | o 2 3 e.l Q p Y z z z z z z z z z z z z z z z z z z ",
": c [ } | o 2 3 4 l Q p f.z z z z z z z z z z z z z z z z z z z ",
"g.[ } | o 2 3 4 h.Q p v z z z z z z z z z z z z z z z z z z z z ",
"[ } | o 2 3 4 e Q p v z z z z z z z z z z z z z z z z z z z z z ",
"} | i.2 3 4 e Q p v z z z z z z z z z z z z z z z z z z z z z z ",
"| d 2 3 4 e j.p v z z z z z z z z z z z z z z z z z z z z z z z ",
"d o 3 4 e l p v z z z z z z z z z z z z z z z z z z z z z z z z ",
"k.3 4 e l p v z z z z z z z z z z z z z z z z z z z z z z z z z "};
