/* XPM */
static char * rs_prefs_xpm[] = {
"32 32 230 2",
"  	c None",
". 	c #D0A32D",
"+ 	c #CFA22B",
"@ 	c #CDA12A",
"# 	c #CCA029",
"$ 	c #CB9E28",
"% 	c #C99D27",
"& 	c #C89C25",
"* 	c #C79B24",
"= 	c #C69922",
"- 	c #C49821",
"; 	c #C39720",
"> 	c #C2961F",
", 	c #C1941E",
"' 	c #C0931C",
") 	c #BE921B",
"! 	c #BD901A",
"~ 	c #BC8F19",
"{ 	c #BB8E17",
"] 	c #B98D16",
"^ 	c #B88C15",
"/ 	c #B78A14",
"( 	c #B58912",
"_ 	c #B48811",
": 	c #B38710",
"< 	c #B2850F",
"[ 	c #B0840D",
"} 	c #AF830C",
"| 	c #AE810B",
"1 	c #AC800A",
"2 	c #AB7F08",
"3 	c #AA7E07",
"4 	c #A97C06",
"5 	c #CFA22C",
"6 	c #CEA12A",
"7 	c #C69923",
"8 	c #BF921B",
"9 	c #BD911A",
"0 	c #BB8E18",
"a 	c #B1840D",
"b 	c #AD800A",
"c 	c #A77B05",
"d 	c #CA9D27",
"e 	c #C59821",
"f 	c #C0931D",
"g 	c #BA8D17",
"h 	c #B68913",
"i 	c #B38610",
"j 	c #AE820B",
"k 	c #AC7F08",
"l 	c #A97D06",
"m 	c #A87B05",
"n 	c #A67A03",
"o 	c #C99C25",
"p 	c #C59822",
"q 	c #C1951E",
"r 	c #BF921C",
"s 	c #B78B14",
"t 	c #B58811",
"u 	c #B2860F",
"v 	c #D1B773",
"w 	c #FBFAF5",
"x 	c #DCC996",
"y 	c #AC7F09",
"z 	c #A67A04",
"A 	c #A57902",
"B 	c #C99C26",
"C 	c #C69A23",
"D 	c #C0941D",
"E 	c #BC9019",
"F 	c #B48812",
"G 	c #B1840E",
"H 	c #F8F5EB",
"I 	c #C5A550",
"J 	c #B18718",
"K 	c #AB7E08",
"L 	c #A47801",
"M 	c #C89B24",
"N 	c #C49721",
"O 	c #C3961F",
"P 	c #B88C16",
"Q 	c #B58812",
"R 	c #B0830D",
"S 	c #FFFFFF",
"T 	c #BA9431",
"U 	c #A87C05",
"V 	c #A77A04",
"W 	c #A37600",
"X 	c #CEA944",
"Y 	c #DBC07A",
"Z 	c #FBF8F0",
"` 	c #F6EFDF",
" .	c #CBA647",
"..	c #C6A13D",
"+.	c #DCC589",
"@.	c #F1E8D0",
"#.	c #D2B76F",
"$.	c #F1E8D2",
"%.	c #EFE6CE",
"&.	c #EBE1C3",
"*.	c #BA932A",
"=.	c #E4D6B0",
"-.	c #F2EBD9",
";.	c #BE9C42",
">.	c #DDCC9D",
",.	c #F3EDDC",
"'.	c #EFE7D2",
").	c #D7C490",
"!.	c #A37700",
"~.	c #C89B25",
"{.	c #C59922",
"].	c #CDA743",
"^.	c #E5D2A0",
"/.	c #C19623",
"(.	c #E1CD95",
"_.	c #EFE5C9",
":.	c #C5A03C",
"<.	c #DAC385",
"[.	c #B78B15",
"}.	c #C4A143",
"|.	c #B88F20",
"1.	c #D9C48A",
"2.	c #E3D3AA",
"3.	c #AF820B",
"4.	c #AD810A",
"5.	c #B8922E",
"6.	c #B48D26",
"7.	c #AD8315",
"8.	c #A67903",
"9.	c #A47902",
"0.	c #C79A23",
"a.	c #CCA642",
"b.	c #C0951F",
"c.	c #BF931C",
"d.	c #CBA748",
"e.	c #FDFCF9",
"f.	c #BB8F18",
"g.	c #C49F3B",
"h.	c #B88B15",
"i.	c #B68A13",
"j.	c #D7BF80",
"k.	c #F8F4E9",
"l.	c #E3D3A9",
"m.	c #E3D3A8",
"n.	c #ECE1C6",
"o.	c #F2EBD8",
"p.	c #AC8009",
"q.	c #B7912D",
"r.	c #A97E09",
"s.	c #EDE5CD",
"t.	c #F0E8D5",
"u.	c #CFB777",
"v.	c #AA8114",
"w.	c #C39620",
"x.	c #CBA542",
"y.	c #BE911B",
"z.	c #CAA648",
"A.	c #FBF8F2",
"B.	c #C39E3A",
"C.	c #D5BC7A",
"D.	c #EFE6CF",
"E.	c #BC9630",
"F.	c #BB952F",
"G.	c #BA932E",
"H.	c #B69027",
"I.	c #B5902C",
"J.	c #A77B07",
"K.	c #BFA04D",
"L.	c #E2D5B1",
"M.	c #F3EEE0",
"N.	c #A57A08",
"O.	c #C2951F",
"P.	c #CAA441",
"Q.	c #E0CC95",
"R.	c #E7D8AF",
"S.	c #B98C16",
"T.	c #C39D39",
"U.	c #B48711",
"V.	c #BD9731",
"W.	c #C3A249",
"X.	c #AF820C",
"Y.	c #B08615",
"Z.	c #AA7D07",
"`.	c #B48F2B",
" +	c #AA7F0E",
".+	c #AB8113",
"++	c #A47700",
"@+	c #AA8115",
"#+	c #AD851C",
"$+	c #C9A33F",
"%+	c #F6F1E3",
"&+	c #F3EBD7",
"*+	c #E9DBB7",
"=+	c #BE9629",
"-+	c #B88B14",
";+	c #C19C38",
">+	c #B2850E",
",+	c #C6A651",
"'+	c #EFE7D1",
")+	c #F2ECDA",
"!+	c #E1D1A6",
"~+	c #A97C05",
"{+	c #B38E2A",
"]+	c #AE861D",
"^+	c #EEE7D2",
"/+	c #EFE7D3",
"(+	c #F2EBDB",
"_+	c #D1BA80",
":+	c #C8A33E",
"<+	c #BA8E17",
"[+	c #B68A14",
"}+	c #A77B04",
"|+	c #A57802",
"1+	c #A47701",
"2+	c #C7A13D",
"3+	c #BC8F1A",
"4+	c #BE9322",
"5+	c #000000",
"6+	c #BFBFBF",
"7+	c #B98C15",
"8+	c #AA7E08",
"9+	c #A57903",
"0+	c #AA7D06",
"a+	c #B1850E",
"b+	c #AE820C",
"c+	c #A47802",
"d+	c #B3860F",
"e+	c #B28610",
"f+	c #B1850F",
"g+	c #AB7F09",
". + @ # $ % & * = - ; > , ' ) ! ~ { ] ^ / ( _ : < [ } | 1 2 3 4 ",
"5 6 # $ % & * 7 - ; > , ' 8 9 ~ 0 ] ^ / ( _ : < a } | b 2 3 4 c ",
"6 # $ d & * 7 e ; > , f 8 9 ~ 0 g ^ / h _ i < a } j b k 3 l m n ",
"# $ d o * 7 p ; > q f r 9 ~ 0 g ^ s h t : u v w x b y 3 l m z A ",
"$ d B * C p ; > q D r 9 E 0 g ^ s h F : u G H I J y K l m n A L ",
"d B M C p N O q D r 9 E 0 g P s h Q : u G R S T y K l U V A L W ",
"B * C X S Y Z `  .9 ..S +.@.s #.$.%.&.*.R =.S -.;.>.,.'.).L !.W ",
"~.C {.].S ^./.(._.E :.S <.[.}.H |.u 1.2.3.4.S 5.6.S 7.8.9.!.W W ",
"0.{.N a.S b.c.d.e.f.g.S h.i.j.k.l.m.n.o.4.p.S q.r.s.t.u.v.W W W ",
"{.N w.x.S c.y.z.A.g B.S i.Q C.D.E.F.G.H.p.2 S I.V J.K.L.M.N.W W ",
"N w.O.P.S ) ! Q.R.S.T.S ( U.V.w W.X.4.Y.2 Z.S `. +.+++@+S #+W W ",
"w.O., $+S %+&+*+=+-+;+S U.i >+,+'+)+'+!+Z.~+S {+]+^+/+(+_+W W W ",
"O., ' :+S ~ <+] h.[+( _ i < [ } | p.2 Z.~+}+n |+1+W W W W W W W ",
", ' ) 2+S <+] h.[+( _ i >+[ } | p.2 3 4 }+n |+1+W W W W W W W W ",
"' ) 9 3+4+] h./ ( _ i < a } | b 2 3 4 }+n |+1+W W W W W W W W W ",
"8 9 ~ 0 ] 5+5+5+_ i < a } | b 2 3 l c n A 1+W W W W W W W W W W ",
"9 ~ 0 ] 5+6+6+6+5+< a } j b k 3 l m n A 1+W W W W W W W W W W W ",
"~ 0 g 5+6+6+5+6+6+5+} j b y 3 l m z A 1+W W W W W W W W W W W W ",
"0 g 7+5+6+5+5+5+6+5+j b y 5+l 5+z 5+1+5+W 5+W 5+W 5+W 5+W W W W ",
"g ^ s 5+6+6+5+6+6+5+4.y 8+l U V 9+L !.W W W W W W W W W W W W W ",
"S.s i.Q 5+6+6+6+5+4.y K l U V A L W W W W W W W W W W W W W W W ",
"s i.Q U.u 5+5+5+4.p.K 0+U V 8.L !.W W W W W W W W W W W W W W W ",
"i.Q U.u a+R b+4.p.K 0+U V 8.c+!.W W W W W W W W W W W W W W W W ",
"Q U.d+a+[ 5+5+5+K Z.U }+8.|+!.W W W W W W W W W W W W W W W W W ",
"U.e+a+[ 5+6+6+6+5+~+V 8.|+++W W W W W W W W W W W W W W W W W W ",
"i a+[ 5+6+6+6+6+6+5+8.|+++W W W W W W W W W W W W W W W W W W W ",
"f+[ } 5+6+6+6+6+6+5+|+1+W 5+W 5+W 5+W 5+W 5+W 5+W 5+W 5+W W W W ",
"[ } | 5+6+6+6+6+6+5+1+W W W W W W W W W W W W W W W W W W W W W ",
"} | b 2 5+6+6+6+5+1+W W W W W W W W W W W W W W W W W W W W W W ",
"| b 2 3 4 5+5+5+1+W W W W W W W W W W W W W W W W W W W W W W W ",
"b y 3 4 c n A 1+W W W W W W W W W W W W W W W W W W W W W W W W ",
"g+3 l U n A L W W W W W W W W W W W W W W W W W W W W W W W W W "};
