/* XPM */
static char * rs_rush_frame_xpm[] = {
"32 32 168 2",
"  	c None",
". 	c #8B2D2D",
"+ 	c #8A2C2B",
"@ 	c #892A2A",
"# 	c #882929",
"$ 	c #862828",
"% 	c #852627",
"& 	c #842525",
"* 	c #832424",
"= 	c #822222",
"- 	c #802121",
"; 	c #7F2020",
"> 	c #7E1F1F",
", 	c #7D1E1E",
"' 	c #7B1C1C",
") 	c #7A1B1B",
"! 	c #791A1A",
"~ 	c #771919",
"{ 	c #761717",
"] 	c #751616",
"^ 	c #741515",
"/ 	c #731414",
"( 	c #711212",
"_ 	c #701111",
": 	c #6F1010",
"< 	c #6D0F0F",
"[ 	c #6C0D0D",
"} 	c #6B0C0C",
"| 	c #6A0B0B",
"1 	c #680A0A",
"2 	c #670808",
"3 	c #660707",
"4 	c #650606",
"5 	c #8A2C2C",
"6 	c #872828",
"7 	c #852727",
"8 	c #822323",
"9 	c #7B1D1C",
"0 	c #761818",
"a 	c #6E0F0F",
"b 	c #630405",
"c 	c #812121",
"d 	c #7C1D1D",
"e 	c #781919",
"f 	c #751717",
"g 	c #721213",
"h 	c #670908",
"i 	c #640505",
"j 	c #620303",
"k 	c #862727",
"l 	c #842625",
"m 	c #812122",
"n 	c #7A1B1C",
"o 	c #721313",
"p 	c #7B2525",
"q 	c #C39D9D",
"r 	c #670909",
"s 	c #620404",
"t 	c #610202",
"u 	c #842626",
"v 	c #812222",
"w 	c #741615",
"x 	c #701112",
"y 	c #833233",
"z 	c #FFFFFF",
"A 	c #690A0A",
"B 	c #660708",
"C 	c #600101",
"D 	c #802021",
"E 	c #771818",
"F 	c #741516",
"G 	c #701212",
"H 	c #6D0E0E",
"I 	c #823232",
"J 	c #630404",
"K 	c #5F0000",
"L 	c #832524",
"M 	c #934343",
"N 	c #BD8D8D",
"O 	c #E4D1D1",
"P 	c #8F3F3F",
"Q 	c #8B3B3B",
"R 	c #C6A2A2",
"S 	c #EBDEDE",
"T 	c #E5D4D4",
"U 	c #BF9696",
"V 	c #6B0D0D",
"W 	c #813131",
"X 	c #934F4F",
"Y 	c #E7D8D8",
"Z 	c #F7F3F3",
"` 	c #B58888",
" .	c #832525",
"..	c #924242",
"+.	c #BA8989",
"@.	c #8E3E3E",
"#.	c #893A3A",
"$.	c #823030",
"%.	c #781F1F",
"&.	c #6C0E0E",
"*.	c #6B0C0B",
"=.	c #803030",
"-.	c #C7A4A4",
";.	c #6D1313",
">.	c #8B4444",
",.	c #FAF8F8",
"'.	c #610203",
").	c #7E2020",
"!.	c #914242",
"~.	c #8D3D3D",
"{.	c #741616",
"].	c #883838",
"^.	c #711515",
"/.	c #E2CFCF",
"(.	c #E6D7D7",
"_.	c #B07D7D",
":.	c #751F1E",
"<.	c #7F2F2F",
"[.	c #7C2C2C",
"}.	c #5E0000",
"|.	c #7D1F1F",
"1.	c #904040",
"2.	c #8C3C3C",
"3.	c #8A3C3C",
"4.	c #6F1111",
"5.	c #6F1212",
"6.	c #975555",
"7.	c #D1B4B4",
"8.	c #ECE1E1",
"9.	c #6C1010",
"0.	c #7E2E2E",
"a.	c #7A2A2A",
"b.	c #7C1E1E",
"c.	c #873535",
"d.	c #802B2B",
"e.	c #DAC1C1",
"f.	c #6E1010",
"g.	c #731919",
"h.	c #761E1E",
"i.	c #772323",
"j.	c #7E2D2D",
"k.	c #610303",
"l.	c #782929",
"m.	c #7C1D1E",
"n.	c #D2B3B3",
"o.	c #F9F5F5",
"p.	c #A16363",
"q.	c #7C2727",
"r.	c #E4D4D4",
"s.	c #E9DCDC",
"t.	c #B38383",
"u.	c #650707",
"v.	c #782828",
"w.	c #721314",
"x.	c #680909",
"y.	c #650505",
"z.	c #600202",
"A.	c #5F0101",
"B.	c #721414",
"C.	c #6D0F0E",
"D.	c #731314",
"E.	c #761718",
"F.	c #000000",
"G.	c #BFBFBF",
"H.	c #6F1011",
"I.	c #6D0E0F",
"J.	c #68090A",
"K.	c #630505",
". + @ # $ % & * = - ; > , ' ) ! ~ { ] ^ / ( _ : < [ } | 1 2 3 4 ",
"5 @ # 6 7 & * 8 - ; > , 9 ) ! ~ 0 ] ^ / ( _ : a [ } | 1 2 3 4 b ",
"@ # 6 7 & * 8 c ; > , d ) ! e 0 f ^ / g _ : a [ } | 1 h 3 4 i j ",
"# 6 k l * 8 m ; > , d n ! e 0 f ^ / o _ : p q } | 1 r 3 4 i s t ",
"6 7 u * 8 v ; > , d ' ! e 0 f w / o x : a y z | A r B 4 i j t C ",
"k u * 8 v D > , d ' ! e E { F / o G : a H I z A r B 4 i J t C K ",
"u L 8 v M z N O P z e E Q z / o R S T U V W z X Y Z ` J t C K K ",
" .8 v - ..z +.d @.z E { #.z o $.z %.H &.*.=.z -.;.>.,.'.C K K K ",
"8 v - ).!.z d ) ~.z { {.].z ( ^./.(._.:.A <.z 1 i [.z C K K K }.",
"v - ; |.1.z ) ! 2.z ] / 3.z 4.a 5.6.7.8.9.0.z i J a.z K K K K }.",
"- ; |.b.P z ! E c.z d.d.e.z f.g.h.} :.z i.j.z J k.l.z K K K }.}.",
"; > m.' @.z E { ] n.o./.p.z H q.r.T s.t.u.[.z j t v.z K K }.}.}.",
"> , ' ) ! ~ { ] ^ w.( _ f.< [ } | x.2 3 y.J j z.A.K K K }.}.}.}.",
", ' ) ! ~ { ] ^ B.( _ : C.[ } | x.2 3 4 J j t A.K K K }.}.}.}.}.",
"' ) ! ~ 0 ] ^ D.( _ : < [ } | 1 2 3 4 J j t C K K K }.}.}.}.}.}.",
") ! e E.F.F.F.F.F.F.F.F.F.F.F.F.F.F.F.F.F.F.F.F.F.F.F.F.}.}.}.}.",
"! e 0 ] F.F.F.F.F.F.F.F.F.F.F.F.F.F.F.F.F.F.F.F.F.F.F.F.}.}.}.}.",
"e E f ^ F.G.G.F.G.G.G.G.G.G.G.G.G.G.G.G.G.G.G.G.F.G.G.F.}.}.}.}.",
"E f ^ / F.G.G.F.G.G.G.G.G.G.G.G.G.G.G.G.G.G.G.G.F.G.G.F.}.}.}.}.",
"{ w / o F.F.F.F.G.G.G.G.G.G.G.G.G.G.G.G.G.G.G.G.F.F.F.F.}.}.}.}.",
"{./ o ( F.F.F.F.G.G.G.G.G.G.G.G.G.G.G.G.G.G.G.G.F.F.F.F.}.}.}.}.",
"/ o G H.F.G.G.F.G.G.G.G.G.G.G.G.G.G.G.G.G.G.G.G.F.G.G.F.}.}.}.}.",
"o ( H.a F.G.G.F.G.G.G.G.G.G.G.G.G.G.G.G.G.G.G.G.F.G.G.F.}.}.}.}.",
"( 4.a H F.F.F.F.G.G.G.G.G.G.G.G.G.G.G.G.G.G.G.G.F.F.F.F.}.}.}.}.",
"4.f.H [ F.F.F.F.G.G.G.G.G.G.G.G.G.G.G.G.G.G.G.G.F.F.F.F.}.}.}.}.",
"f.H [ } F.G.G.F.G.G.G.G.G.G.G.G.G.G.G.G.G.G.G.G.F.G.G.F.}.}.}.}.",
"I.[ } | F.G.G.F.G.G.G.G.G.G.G.G.G.G.G.G.G.G.G.G.F.G.G.F.}.}.}.}.",
"[ } | x.F.F.F.F.F.F.F.F.F.F.F.F.F.F.F.F.F.F.F.F.F.F.F.F.}.}.}.}.",
"} | J.2 F.F.F.F.F.F.F.F.F.F.F.F.F.F.F.F.F.F.F.F.F.F.F.F.}.}.}.}.",
"| 1 2 3 4 J j t C K K K K }.}.}.}.}.}.}.}.}.}.}.}.}.}.}.}.}.}.}.",
"1 r 3 4 K.j t C K K K K }.}.}.}.}.}.}.}.}.}.}.}.}.}.}.}.}.}.}.}.",
"r 3 4 i j t C K K K K }.}.}.}.}.}.}.}.}.}.}.}.}.}.}.}.}.}.}.}.}."};
