/* XPM */
static char * rs_view_frame_xpm[] = {
"32 32 213 2",
"  	c None",
". 	c #607F84",
"+ 	c #5F7E83",
"@ 	c #5E7C82",
"# 	c #5D7B80",
"$ 	c #5C7A7F",
"% 	c #5A797E",
"& 	c #59787C",
"* 	c #58767B",
"= 	c #57757A",
"- 	c #557479",
"; 	c #547378",
"> 	c #537177",
", 	c #527075",
"' 	c #506F74",
") 	c #4F6D73",
"! 	c #4E6C71",
"~ 	c #4C6B70",
"{ 	c #4B6A6F",
"] 	c #4A696E",
"^ 	c #49676C",
"/ 	c #48666B",
"( 	c #46656A",
"_ 	c #456369",
": 	c #446268",
"< 	c #426166",
"[ 	c #415F65",
"} 	c #405E64",
"| 	c #3F5D62",
"1 	c #3D5C61",
"2 	c #3C5B60",
"3 	c #3B595E",
"4 	c #3A585D",
"5 	c #5E7D82",
"6 	c #4E6C72",
"7 	c #456469",
"8 	c #436166",
"9 	c #416065",
"0 	c #3B595F",
"a 	c #38575C",
"b 	c #5D7B81",
"c 	c #59787D",
"d 	c #567479",
"e 	c #537277",
"f 	c #527076",
"g 	c #516F74",
"h 	c #4F6E73",
"i 	c #4D6B70",
"j 	c #47656A",
"k 	c #3B5A5E",
"l 	c #39575C",
"m 	c #37565B",
"n 	c #5B797E",
"o 	c #58767C",
"p 	c #4E6D72",
"q 	c #4D6B71",
"r 	c #49686D",
"s 	c #466469",
"t 	c #3F5D63",
"u 	c #3B5A5F",
"v 	c #36555A",
"w 	c #5C7A80",
"x 	c #58777C",
"y 	c #527176",
"z 	c #6C8589",
"A 	c #FFFFFF",
"B 	c #426065",
"C 	c #3E5C61",
"D 	c #355359",
"E 	c #557378",
"F 	c #5E7A7F",
"G 	c #4C6A6F",
"H 	c #4B696E",
"I 	c #48666C",
"J 	c #446368",
"K 	c #405F64",
"L 	c #3F5E63",
"M 	c #3A585E",
"N 	c #38565B",
"O 	c #355459",
"P 	c #345257",
"Q 	c #57757B",
"R 	c #CDD6D8",
"S 	c #9FAFB2",
"T 	c #97A9AC",
"U 	c #BCC7C9",
"V 	c #698388",
"W 	c #4C6A70",
"X 	c #90A3A6",
"Y 	c #DCE2E3",
"Z 	c #D9DFE0",
"` 	c #D1D8D9",
" .	c #5A7579",
"..	c #436267",
"+.	c #DCE1E2",
"@.	c #788E92",
"#.	c #90A1A5",
"$.	c #F8F9FA",
"%.	c #415F64",
"&.	c #3A595E",
"*.	c #C5CECF",
"=.	c #6C8286",
"-.	c #8FA2A6",
";.	c #DDE3E4",
">.	c #517075",
",.	c #DBE1E2",
"'.	c #768D91",
").	c #688387",
"!.	c #6E868A",
"~.	c #EFF2F2",
"{.	c #536F74",
"].	c #A4B3B6",
"^.	c #BDC8C9",
"/.	c #ABB9BB",
"(.	c #A8B5B8",
"_.	c #3E5C62",
":.	c #CED5D7",
"<.	c #E7EAEB",
"[.	c #70878A",
"}.	c #3F5C62",
"|.	c #EDF0F0",
"1.	c #3A595D",
"2.	c #56747A",
"3.	c #59767B",
"4.	c #F5F7F7",
"5.	c #6F888C",
"6.	c #70888C",
"7.	c #E1E6E7",
"8.	c #4D6C71",
"9.	c #688186",
"0.	c #9DADB0",
"a.	c #EEF1F1",
"b.	c #D2DADB",
"c.	c #E1E6E6",
"d.	c #7B9093",
"e.	c #D7DDDE",
"f.	c #4C676D",
"g.	c #98A8AB",
"h.	c #A7B4B7",
"i.	c #708689",
"j.	c #BEC8C9",
"k.	c #345357",
"l.	c #335257",
"m.	c #547277",
"n.	c #BAC6C8",
"o.	c #AEBCBE",
"p.	c #B4C1C3",
"q.	c #9BACAF",
"r.	c #678085",
"s.	c #48676C",
"t.	c #98A9AC",
"u.	c #DAE0E1",
"v.	c #5E797D",
"w.	c #5D787C",
"x.	c #5C777A",
"y.	c #587276",
"z.	c #405E63",
"A.	c #4B686D",
"B.	c #FBFCFC",
"C.	c #91A2A5",
"D.	c #9FAEB0",
"E.	c #5F777C",
"F.	c #DEE3E3",
"G.	c #AAB7B9",
"H.	c #839699",
"I.	c #345358",
"J.	c #799095",
"K.	c #EDF0F1",
"L.	c #59767A",
"M.	c #4B696F",
"N.	c #667F83",
"O.	c #47666B",
"P.	c #60797F",
"Q.	c #F7F8F9",
"R.	c #72898D",
"S.	c #49666A",
"T.	c #3E5D62",
"U.	c #3D5B61",
"V.	c #DBE0E1",
"W.	c #F1F3F3",
"X.	c #5E777B",
"Y.	c #39575D",
"Z.	c #ECEFF0",
"`.	c #EEF0F1",
" +	c #476368",
".+	c #547278",
"++	c #537176",
"@+	c #506E73",
"#+	c #E8ECED",
"$+	c #C0CBCD",
"%+	c #4A686D",
"&+	c #657E83",
"*+	c #46646A",
"=+	c #456368",
"-+	c #788E91",
";+	c #E2E7E8",
">+	c #BAC5C6",
",+	c #3C5A5F",
"'+	c #A9B6B8",
")+	c #E4E8E9",
"!+	c #38565C",
"~+	c #37555B",
"{+	c #B4BFC1",
"]+	c #4F6D72",
"^+	c #3C5A60",
"/+	c #37555A",
"(+	c #446267",
"_+	c #365459",
":+	c #355358",
"<+	c #000000",
"[+	c #BFBFBF",
"}+	c #47656B",
"|+	c #36545A",
". + @ # $ % & * = - ; > , ' ) ! ~ { ] ^ / ( _ : < [ } | 1 2 3 4 ",
"+ 5 # $ % & * = - ; > , ' ) 6 ~ { ] ^ / ( 7 : 8 9 } | 1 2 0 4 a ",
"@ b $ % c * = d ; e f g h 6 i { ] ^ / j 7 : 8 9 } | 1 2 k 4 l m ",
"b $ n c o = d ; e f g h p q { ] r / j s : 8 9 } t 1 2 u 4 l m v ",
"w % c x = d ; e y z A p q { ] r / j 7 : 8 B } t C 2 u 4 l m v D ",
"n c x = d E e y g , F q G H r I j s J 8 B K L C 2 u M l N v O P ",
"c x Q R S e y T U V A W H X Y Z `  ...+.@.L #.$.%.&.*.=.v D P P ",
"x Q d -.;.y >.,.'.).A H !.~.{.s ].^.B /.(._.:.<.[.}.|.1.O P P P ",
"Q 2.E 3.4.5.6.7.8.9.A r 0.a.U U b.c.%.d.e.f.+.g.h.i.j.O k.P P l.",
"2.E m.y n.o.p.q.W r.A s.t.u.v.w.x.y.z.A.B.C.D.E.F.G.H.I.P P P l.",
"E m.y >.J.K.a.L.M.N.A O.P.Q.R.< %.S.T.U.V.W.X.Y.Z.`. +P P P l.l.",
".+++>.' @+#+$+{ %+&+A *+=+-+,.;+,.>+U.,+'+)+!+~+{+e.P P P l.l.l.",
"++, ' ]+! ~ { %+^ O.*+=+..< [ z.| 1 ^+3 4 a /+O I.P P P l.l.l.l.",
", ' ) ! ~ { %+^ O.( _ (+< [ z.| 1 2 3 4 a ~+_+I.P P P l.l.l.l.l.",
"' h 6 ~ { ] ^ / ( _ (+< [ z.| 1 2 3 4 a ~+_+:+P P P l.l.l.l.l.l.",
") ! i { <+<+<+<+<+<+<+<+<+<+<+<+<+<+<+<+<+<+<+<+<+<+<+<+l.l.l.l.",
"6 i { ] <+<+<+<+<+<+<+<+<+<+<+<+<+<+<+<+<+<+<+<+<+<+<+<+l.l.l.l.",
"q G ] r <+[+[+<+[+[+[+[+[+[+[+[+[+[+[+[+[+[+[+[+<+[+[+<+l.l.l.l.",
"G ] r I <+[+[+<+[+[+[+[+[+[+[+[+[+[+[+[+[+[+[+[+<+[+[+<+l.l.l.l.",
"H r / j <+<+<+<+[+[+[+[+[+[+[+[+[+[+[+[+[+[+[+[+<+<+<+<+l.l.l.l.",
"r I j s <+<+<+<+[+[+[+[+[+[+[+[+[+[+[+[+[+[+[+[+<+<+<+<+l.l.l.l.",
"I j s J <+[+[+<+[+[+[+[+[+[+[+[+[+[+[+[+[+[+[+[+<+[+[+<+l.l.l.l.",
"}+s J ..<+[+[+<+[+[+[+[+[+[+[+[+[+[+[+[+[+[+[+[+<+[+[+<+l.l.l.l.",
"s J ..< <+<+<+<+[+[+[+[+[+[+[+[+[+[+[+[+[+[+[+[+<+<+<+<+l.l.l.l.",
"J ..< %.<+<+<+<+[+[+[+[+[+[+[+[+[+[+[+[+[+[+[+[+<+<+<+<+l.l.l.l.",
"..< %.z.<+[+[+<+[+[+[+[+[+[+[+[+[+[+[+[+[+[+[+[+<+[+[+<+l.l.l.l.",
"< [ z.| <+[+[+<+[+[+[+[+[+[+[+[+[+[+[+[+[+[+[+[+<+[+[+<+l.l.l.l.",
"[ z.| 1 <+<+<+<+<+<+<+<+<+<+<+<+<+<+<+<+<+<+<+<+<+<+<+<+l.l.l.l.",
"} | 1 2 <+<+<+<+<+<+<+<+<+<+<+<+<+<+<+<+<+<+<+<+<+<+<+<+l.l.l.l.",
"| 1 2 3 4 a ~+|+:+P P P P l.l.l.l.l.l.l.l.l.l.l.l.l.l.l.l.l.l.l.",
"1 2 k 4 a m |+D P P P P l.l.l.l.l.l.l.l.l.l.l.l.l.l.l.l.l.l.l.l.",
"2 u 4 l m |+:+P P P P l.l.l.l.l.l.l.l.l.l.l.l.l.l.l.l.l.l.l.l.l."};
