/* XPM */
static char * rush_top_xpm[] = {
"48 40 44 1",
" 	c None",
".	c #C0C0C0",
"+	c #ABABAB",
"@	c #B2B2B2",
"#	c #A0A0A0",
"$	c #7C7C7C",
"%	c #8E8E8E",
"&	c #6B6B6B",
"*	c #353535",
"=	c #474747",
"-	c #595959",
";	c #121212",
">	c #242424",
",	c #B5B5B5",
"'	c #B9B9B9",
")	c #A4A4A4",
"!	c #808080",
"~	c #000039",
"{	c #0000AA",
"]	c #007139",
"^	c #00AA00",
"/	c #000055",
"(	c #0000FF",
"_	c #00AA55",
":	c #00FF00",
"<	c #404040",
"[	c #00001C",
"}	c #550000",
"|	c #1C3900",
"1	c #005500",
"2	c #FF0000",
"3	c #55AA00",
"4	c #555500",
"5	c #FFFF00",
"6	c #AAAA00",
"7	c #000000",
"8	c #1C1C00",
"9	c #C6C600",
"0	c #E3E300",
"a	c #393900",
"b	c #717100",
"c	c #8E8E00",
"d	c #929292",
"e	c #003900",
"................................................",
"++++++++++++++++++++++@.++++++++++++++++++++++++",
"##$###################+.############%&&%########",
"##*###################+.############=&&=########",
"$-;$>==%**$**-*-%==%##+.############*###&=*-&&&&",
"$#*#>%&&$***#*#*&>>&##+.############*###&=#*&&&&",
"*#*#*#&&*#**#*#*&&%%##+.############*##$&=#*&&&&",
"$#;$*#&&-*-;#*#*%==%##+.############-**-&=*-%=>&",
"######################+.################&&######",
",,,,,,,,,,,,,,,,,,,,,,'.,,,,,,,,,,,,,,,,)),,,,,,",
",,,,,,,,,,,,,,,,,,,,,,'.!!!!!!!!!!!!!!!!!!!!!!!!",
"######################+.~{{{{{{]^^^^^^^^^^^^^^^^",
"######################+./((((((_::::::::::::::::",
"######################+./((((((_::::::::::::::::",
"######################+./((((((_::::::::::::::::",
"######################+./((((((_::::::::::::::::",
"########$##$##%%######+./((((((_::::::::::::::::",
"########$#$;##>&######+./((((((_::::::::::::::::",
"%==%-*=&*#**##&&#-*-##+.<<<<<<<<<<<<<<<<<<<<<<<<",
"&&%%*#=&*-$*##&&##*;##+.........................",
"&&%%*#=&*-*;-#&&#*#*##+.[///////////}|1111111111",
"%==%-*=&*##*##&&#$*--#+./(((((((((((23::::::::::",
"####%&-$##############+./(((((((((((23::::::::::",
"####%&$###############+./(((((((((((23::::::::::",
"######################+./(((((((((((23::::::::::",
"######################+./(((((((((((23::::::::::",
"######################+./(((((((((((23::::::::::",
"######################+.[///////////}|1111111111",
"................................................",
"++++++++++++++++++++++@.<<<<<<<<<<<<<<<<<<<<<<<<",
"########$##$##&&######+.455567774555677745556777",
"########$#$;#-&&-#####+.89550a7789550a7789550a77",
"%==%-*=&*#**####*-*-##+.7b555c777b555c777b555c77",
"&&%%*#=&*-$*##$*$#*;##+.775555777755557777555577",
"&&%%*#=&*-*;-$-##*#*##+.774555677745556777455567",
"%==%-*=&*##*#***-$*--#+.7789550a7789550a7789550a",
"####%&-$##############+.777b666a777b666a777b666a",
",,,,)!d,,,,,,,,,,,,,,,'.!!!!!!!!!!!!!!!!!!!!!!!!",
",,,,,,,,,,,,,,,,,,,,,,'.!!!!!!!!!!!!!!!!!!!!!!!!",
"######################+.e^^^^^^^^^^^^^^^^^^^^^^^"};
