/* XPM */
static char * tiler_xpm[] = {
"32 32 186 2",
"  	c #CE753F",
". 	c #CD743E",
"+ 	c #CC733C",
"@ 	c #CA713B",
"# 	c #C9703A",
"$ 	c #C86F39",
"% 	c #C76E37",
"& 	c #C56C36",
"* 	c #C46B35",
"= 	c #C36A33",
"- 	c #C26933",
"; 	c #C06731",
"> 	c #BF6630",
", 	c #BE652F",
"' 	c #BD642E",
") 	c #BB622C",
"! 	c #BA612B",
"~ 	c #B9602A",
"{ 	c #B85F29",
"] 	c #B65D27",
"^ 	c #B55C26",
"/ 	c #B35B25",
"( 	c #B25923",
"_ 	c #B15822",
": 	c #B05721",
"< 	c #AF5620",
"[ 	c #AD551E",
"} 	c #AC531D",
"| 	c #AB521C",
"1 	c #AA511B",
"2 	c #A84F19",
"3 	c #A74E18",
"4 	c #C36A34",
"5 	c #C16732",
"6 	c #BD642D",
"7 	c #BB632C",
"8 	c #B45B25",
"9 	c #B25A23",
"0 	c #AE551E",
"a 	c #A84F1A",
"b 	c #A64D17",
"c 	c #CC733D",
"d 	c #CA723B",
"e 	c #C76E38",
"f 	c #C16832",
"g 	c #B75D27",
"h 	c #B35A24",
"i 	c #AC541D",
"j 	c #A85019",
"k 	c #A54C16",
"l 	c #CB723B",
"m 	c #C66C37",
"n 	c #C16831",
"o 	c #B75E28",
"p 	c #A9501A",
"q 	c #A34B15",
"r 	c #C66D37",
"s 	c #BF6731",
"t 	c #BC632D",
"u 	c #BA622B",
"v 	c #B15823",
"w 	c #AE551F",
"x 	c #A44B15",
"y 	c #A24913",
"z 	c #C46C35",
"A 	c #B65C26",
"B 	c #AD541E",
"C 	c #A84E19",
"D 	c #A24A13",
"E 	c #A14812",
"F 	c #C56B36",
"G 	c #BE6530",
"H 	c #BB622B",
"I 	c #B65D26",
"J 	c #B55B25",
"K 	c #AC541E",
"L 	c #A64E17",
"M 	c #A34914",
"N 	c #BE6630",
"O 	c #B05822",
"P 	c #AB531D",
"Q 	c #A34A14",
"R 	c #C46B34",
"S 	c #B9602B",
"T 	c #A74E17",
"U 	c #A54D16",
"V 	c #A14912",
"W 	c #BA602A",
"X 	c #B55C25",
"Y 	c #B05720",
"Z 	c #AC531C",
"` 	c #BE642F",
" .	c #C17547",
"..	c #FBF5F2",
"+.	c #B35B24",
"@.	c #BE7346",
"#.	c #FEFDFC",
"$.	c #AA511C",
"%.	c #C37546",
"&.	c #EED9CB",
"*.	c #BD7245",
"=.	c #AE5520",
"-.	c #AB511C",
";.	c #BD632D",
">.	c #C57A4C",
",.	c #FDFBF9",
"'.	c #BC7144",
").	c #A44C15",
"!.	c #A24B16",
"~.	c #FCF9F7",
"{.	c #FFFFFF",
"].	c #FCF8F6",
"^.	c #BC7143",
"/.	c #AE5924",
"(.	c #DDB9A4",
"_.	c #F8F2EE",
":.	c #F9F4F0",
"<.	c #DCBAA5",
"[.	c #A6501B",
"}.	c #B16638",
"|.	c #CA9778",
"1.	c #F5ECE7",
"2.	c #E5CDBE",
"3.	c #C2784B",
"4.	c #B45B24",
"5.	c #BA6F41",
"6.	c #DFBFAB",
"7.	c #E1C3B1",
"8.	c #AB5623",
"9.	c #A95420",
"0.	c #E4C9B9",
"a.	c #D4AB92",
"b.	c #B06537",
"c.	c #D8B39C",
"d.	c #A44D19",
"e.	c #A44E19",
"f.	c #C17649",
"g.	c #B96E40",
"h.	c #AC5724",
"i.	c #FEFCFB",
"j.	c #AF6030",
"k.	c #A44C16",
"l.	c #B77248",
"m.	c #F3E8E1",
"n.	c #A95726",
"o.	c #C17648",
"p.	c #FDFAF9",
"q.	c #B35924",
"r.	c #B86D40",
"s.	c #A8501A",
"t.	c #B36638",
"u.	c #FAF4F1",
"v.	c #FAF5F2",
"w.	c #F9F3EF",
"x.	c #BF7446",
"y.	c #BB7042",
"z.	c #B76C3F",
"A.	c #A85521",
"B.	c #BA6938",
"C.	c #FFFEFE",
"D.	c #B76534",
"E.	c #B96F40",
"F.	c #B66B3E",
"G.	c #DDBDAA",
"H.	c #DBB8A3",
"I.	c #A75321",
"J.	c #AA5928",
"K.	c #BE805A",
"L.	c #E0BDA7",
"M.	c #FBF6F4",
"N.	c #B86E40",
"O.	c #B56B3D",
"P.	c #A54F1B",
"Q.	c #D6AF98",
"R.	c #F6EEE9",
"S.	c #F3E7E0",
"T.	c #D2A78E",
"U.	c #B05821",
"V.	c #AB531C",
"W.	c #B05620",
"X.	c #A24812",
"Y.	c #A24813",
"Z.	c #AF551F",
"`.	c #A9511A",
" +	c #A54D17",
".+	c #A44A14",
"  . + @ # $ % & * = - ; > , ' ) ! ~ { ] ^ / ( _ : < [ } | 1 2 3 ",
". + @ # $ % & * 4 - 5 > , 6 7 ! ~ { ] ^ 8 9 _ : < 0 } | 1 a 3 b ",
"c d # $ e & * 4 - f > , ' 7 ! ~ { g ^ 8 h _ : < 0 i | 1 j 3 b k ",
"l # $ e m * 4 - n > , ' 7 ! ~ { o ^ 8 h _ : < 0 i | 1 p 3 b k q ",
"# $ e r * 4 - f s , ' t u ~ { o ^ 8 h v : < w i | 1 p 3 b k x y ",
"$ e r z 4 - f ; , ' t u ~ { o A 8 h ( : < w B | 1 p C b k x D E ",
"e r F 4 - f ; G ' t H ~ { o I J h ( _ < w K | 1 p 2 L k x M E E ",
"r & 4 - f ; N ' t ) ~ { o I J h ( O < w B P 1 p 2 b k x Q E E E ",
"& R - f ; > ' t ) S { o I J h ( _ < w B } 1 p 2 T U x Q V E E E ",
"R - f ; > , t ) W { o ] X h ( _ Y w B Z 1 p 2 3 k x Q y E E E E ",
"- f ; > ` t ) ! { o  ...+.@.#.: w B } $.p 2 T U x Q y E E E E E ",
"f ; > , t %.&.~ o ] X +.( *.#.=.B } -.p 2 3 U x Q y E E E E E E ",
"; > , ;.) >.,.o ] ^ +.( _ '.#.B } | p 2 3 b ).Q y E E !.E E E E ",
"> , 6 ) ! ~.{.].].8 @.#.: ^.#.} | /.(._.:.<.[.}.#.|.1.2.E E E E ",
", 6 7 ! ~ 3.,.^ 4.( *.#.< 5.#.| 1 6.7.8.9.0.a.b.{.c.d.e.E E E E ",
"6 7 ! ~ { f.,.8 9 _ '.#.0 g.#.1 h.i.j.k.Q l.m.b.{.n.E E E E E E ",
"7 ! ~ { ] o.p.q._ : ^.#.i r.#.s.t.{.u.u.u.v.w.b.#.E E E E E E E ",
"! ~ { o ^ x.p.v : < y.#.| z.#.3 8.#.A.y E E E b.#.E E E E E E E ",
"~ { o A 8 B.C.D.< w E.#.1 F.#.b k G.H.I.E J.K.b.#.E E E E E E E ",
"{ o I 8 h ( L.M.v.K N.#.p O.#.k x P.Q.R.M.S.T.b.#.E E E E E E E ",
"o I 8 h ( U.< w B V.1 p 2 T k x M E E E E E E E E E E E E E E E ",
"I 8 h ( _ < w B V.1 p 2 L k x Q E E E E E E E E E E E E E E E E ",
"X h ( _ W.w B V.1 p 2 T k x Q X.E E E E E E E E E E E E E E E E ",
"h ( _ : w B } 1 p 2 T U x Q Y.E E E E E E E E E E E E E E E E E ",
"( _ : w B } 1 p 2 T k x Q y E E E E E E E E E E E E E E E E E E ",
"_ : Z.B } $.p 2 3 U x Q y E E E E E E E E E E E E E E E E E E E ",
": =.B } | `.2 3  +x Q y E E E E E E E E E E E E E E E E E E E E ",
"< B } | p 2 3 b x Q y E E E E E E E E E E E E E E E E E E E E E ",
"0 } | 1 2 3 b ).Q y E E E E E E E E E E E E E E E E E E E E E E ",
"} | 1 2 3 b k Q y E E E E E E E E E E E E E E E E E E E E E E E ",
"| 1 j 3 b k Q y E E E E E E E E E E E E E E E E E E E E E E E E ",
"1 p 3 b k .+y E E E E E E E E E E E E E E E E E E E E E E E E E "};
