/* XPM */
static char * toxik_xpm[] = {
"48 48 287 2",
"  	c #000000",
". 	c #100F0F",
"+ 	c #1E1C1C",
"@ 	c #191617",
"# 	c #131112",
"$ 	c #0E0D0D",
"% 	c #100F10",
"& 	c #585757",
"* 	c #959494",
"= 	c #3C3C3C",
"- 	c #080707",
"; 	c #191717",
"> 	c #A7A7A7",
", 	c #C6C6C6",
"' 	c #060505",
") 	c #1A1919",
"! 	c #B4B4B4",
"~ 	c #C8C8C8",
"{ 	c #767576",
"] 	c #0B0B0B",
"^ 	c #110F0F",
"/ 	c #181515",
"( 	c #191616",
"_ 	c #0C0A0B",
": 	c #1C1B1B",
"< 	c #BABABA",
"[ 	c #7D7D7D",
"} 	c #0D0C0C",
"| 	c #211D1E",
"1 	c #9F9E9E",
"2 	c #8A8989",
"3 	c #1B1819",
"4 	c #B9B9B9",
"5 	c #999899",
"6 	c #111010",
"7 	c #373334",
"8 	c #1C1919",
"9 	c #151414",
"0 	c #A8A8A8",
"a 	c #AFAEAE",
"b 	c #1F1F1F",
"c 	c #615E5F",
"d 	c #1C191A",
"e 	c #080808",
"f 	c #9D9D9D",
"g 	c #C3C3C3",
"h 	c #B6B6B6",
"i 	c #4D4C4C",
"j 	c #231F20",
"k 	c #221E1F",
"l 	c #0B0A0A",
"m 	c #161415",
"n 	c #151313",
"o 	c #131212",
"p 	c #121212",
"q 	c #7F7E7E",
"r 	c #686767",
"s 	c #BEBDBE",
"t 	c #A9A8A9",
"u 	c #1F1C1D",
"v 	c #201C1D",
"w 	c #201D1E",
"x 	c #252323",
"y 	c #242222",
"z 	c #0C0B0B",
"A 	c #171415",
"B 	c #787677",
"C 	c #929192",
"D 	c #5D5B5C",
"E 	c #3A3839",
"F 	c #1C1A1A",
"G 	c #343333",
"H 	c #909090",
"I 	c #201F1F",
"J 	c #6B696A",
"K 	c #1D191A",
"L 	c #1C1819",
"M 	c #3E3B3C",
"N 	c #808080",
"O 	c #B8B7B7",
"P 	c #676565",
"Q 	c #B3B3B3",
"R 	c #C0BFC0",
"S 	c #383536",
"T 	c #BDBDBD",
"U 	c #292626",
"V 	c #181516",
"W 	c #423F40",
"X 	c #787676",
"Y 	c #B5B5B5",
"Z 	c #757373",
"` 	c #131111",
" .	c #C2C2C2",
"..	c #595757",
"+.	c #302D2D",
"@.	c #767474",
"#.	c #2D2B2B",
"$.	c #575455",
"%.	c #BBBBBB",
"&.	c #A3A2A2",
"*.	c #5C595A",
"=.	c #1B1718",
"-.	c #434040",
";.	c #6E6C6C",
">.	c #C4C4C4",
",.	c #2D2A2B",
"'.	c #212020",
").	c #2C292A",
"!.	c #BEBEBE",
"~.	c #858485",
"{.	c #333031",
"].	c #1A1818",
"^.	c #0E0E0E",
"/.	c #090909",
"(.	c #302D2E",
"_.	c #828181",
":.	c #C7C7C7",
"<.	c #312F2F",
"[.	c #201E1E",
"}.	c #2C2829",
"|.	c #2E2B2C",
"1.	c #050505",
"2.	c #262525",
"3.	c #A6A6A6",
"4.	c #484545",
"5.	c #1C1C1C",
"6.	c #1B1919",
"7.	c #1E1B1C",
"8.	c #4A4747",
"9.	c #AAAAAA",
"0.	c #2B2929",
"a.	c #181617",
"b.	c #807E7F",
"c.	c #4B494A",
"d.	c #423F3F",
"e.	c #3E3B3B",
"f.	c #444242",
"g.	c #696768",
"h.	c #B1B0B1",
"i.	c #272425",
"j.	c #1C1A1B",
"k.	c #BCBCBC",
"l.	c #323031",
"m.	c #6D6B6B",
"n.	c #A2A1A2",
"o.	c #7E7D7E",
"p.	c #9D9C9D",
"q.	c #242323",
"r.	c #3B3939",
"s.	c #171515",
"t.	c #1F1D1D",
"u.	c #0C0C0C",
"v.	c #161414",
"w.	c #3F3C3C",
"x.	c #BFBEBF",
"y.	c #020202",
"z.	c #979696",
"A.	c #312F30",
"B.	c #1F1E1E",
"C.	c #1D1C1C",
"D.	c #4E4C4C",
"E.	c #171616",
"F.	c #181616",
"G.	c #B0AFAF",
"H.	c #262223",
"I.	c #626060",
"J.	c #848383",
"K.	c #141313",
"L.	c #979697",
"M.	c #B1B1B1",
"N.	c #070707",
"O.	c #575656",
"P.	c #5C5A5A",
"Q.	c #111111",
"R.	c #908E8F",
"S.	c #B7B7B7",
"T.	c #575555",
"U.	c #0F0E0E",
"V.	c #101010",
"W.	c #7D7C7C",
"X.	c #636161",
"Y.	c #555454",
"Z.	c #0D0D0D",
"`.	c #727071",
" +	c #191818",
".+	c #8C8B8C",
"++	c #696767",
"@+	c #161515",
"#+	c #828081",
"$+	c #282425",
"%+	c #252223",
"&+	c #AEADAE",
"*+	c #949394",
"=+	c #3A3738",
"-+	c #565354",
";+	c #1A1718",
">+	c #161314",
",+	c #1D1A1B",
"'+	c #292627",
")+	c #686768",
"!+	c #464343",
"~+	c #413F40",
"{+	c #4A4848",
"]+	c #5E5D5D",
"^+	c #9C9B9B",
"/+	c #4C4949",
"(+	c #BFBFBF",
"_+	c #9E9D9D",
":+	c #797879",
"<+	c #555353",
"[+	c #605F5F",
"}+	c #818080",
"|+	c #2B2829",
"1+	c #ABABAB",
"2+	c #484646",
"3+	c #191718",
"4+	c #120F10",
"5+	c #100E0E",
"6+	c #0F0F0F",
"7+	c #4B4848",
"8+	c #AAA9AA",
"9+	c #6A6868",
"0+	c #353333",
"a+	c #2C2A2A",
"b+	c #1E1A1B",
"c+	c #0E0D0E",
"d+	c #221F20",
"e+	c #A1A0A1",
"f+	c #0A0909",
"g+	c #121111",
"h+	c #232021",
"i+	c #A2A2A2",
"j+	c #191516",
"k+	c #211E1E",
"l+	c #585656",
"m+	c #383435",
"n+	c #1A1819",
"o+	c #262424",
"p+	c #B7B6B7",
"q+	c #A2A1A1",
"r+	c #514E4F",
"s+	c #3C3939",
"t+	c #181717",
"u+	c #1F1C1C",
"v+	c #292829",
"w+	c #4B4A4A",
"x+	c #7A797A",
"y+	c #A5A4A4",
"z+	c #B0B0B0",
"A+	c #9C9C9C",
"B+	c #222020",
"C+	c #1B191A",
"D+	c #9B9A9A",
"E+	c #9D9C9C",
"F+	c #363233",
"G+	c #272424",
"H+	c #302F2F",
"I+	c #1A1A1A",
"J+	c #0E0C0C",
"K+	c #1F1B1C",
"L+	c #100E0F",
"M+	c #464445",
"N+	c #4B4849",
"O+	c #323030",
"P+	c #1E1D1D",
"Q+	c #151213",
"R+	c #201E1F",
"S+	c #090808",
"T+	c #919091",
"U+	c #5A5959",
"V+	c #5F5D5E",
"W+	c #898888",
"X+	c #2F2C2D",
"Y+	c #939293",
"Z+	c #252122",
"`+	c #4F4D4D",
" @	c #A5A5A5",
".@	c #949393",
"+@	c #282627",
"@@	c #2C2B2B",
"#@	c #2D2D2D",
"$@	c #959595",
"%@	c #706E6E",
"&@	c #131011",
"*@	c #0F0D0E",
"=@	c #282727",
"-@	c #242122",
"                                                                                                ",
"                      . + @ # $                                                                 ",
"                      % & * = -                                                                 ",
"                      ; > , & '                                                                 ",
"                      ) ! ~ { ]                                     ^ / ( _                     ",
"                      : < ~ [ }                                     | 1 2 3                     ",
"                      + 4 ~ 5 6                                     7 ~ , 8                     ",
"                      9 0 , a b                                     c ~ ~ d                     ",
"                      e f g h i                                   j 2 ~ ~ k                     ",
"      l m n o         p q ~ ~ r                                   j s ~ t u       v w x y z     ",
"      A B C D E k F     G ~ ~ H :                               I c ~ ~ J K L M N O ~ ~ P }     ",
"      u Q ~ ~ ~ R 2 S   k Q ~ T U                               V 1 ~ ~ W X Y ~ ~ ~ ~ ~ Z `     ",
"      ^ * ~ ~ ~ ~ ~  ...+.@.~ ~ c #.                          F $.~ ~ ~ g ~ ~ ~ ~ %.&.@.*.V     ",
"      } ` =.-.;.t ~ g >. .+.~ ~ s ,.                        '.).s ~ ~ ~ ~ , !.~.{.+ ].F =.      ",
"              ^./.(._.:.:.~ ~ ~ ~ t ,.<.                  [.,.t ~ ~ ~ ~ s }.|.1.                ",
"                  l l 2.3.~ ~ ~ >.~ Q 4.d 5.          6.7.8.Q ~ ~ ~ ~ 9.0.                      ",
"                      } a.t ~ >.g ~ ~ ~ Q b.c.d.-.e.f.g.t ~ ~ ~ ~ ~ h.i.                        ",
"                        ] j.s ~ ~ ~ ~ ~ ~ ~ ~ ~ ~ ~ ~ ~ ~ ~ ~ ~ ~ k.l.                          ",
"                          o m.~ ~ ~ ~ ~ ~ n.o.Z Z @.2 t ~ ~ ~ ~ ~ p._                           ",
"                            q.~ ~ ~ ~ Q r.s.t.9 u.: @ v.w.x.~ ~ , u                             ",
"                          y.F z.~ ~ ~ A.B.              C.D.~ ~ R 7.                            ",
"                          y.E.b.~ ~ t F.                  F h ~ G.H.                            ",
"                            p I.~ ~ J.s.                  K.L.~ M.j                             ",
"                            N.O.~ ~ P.9                   Q.R.~ S.j                             ",
"                            ^.T.~ ~ & U.                  V.W.~ T j                             ",
"                            6 X.~ ~ Y.Z.                  C.`.~ ~ j                             ",
"                             +.+~ ~ ++@+                  F #+~ ~ $+                            ",
"                          y.%+&+~ ~ *+a.                I 7 s ~ ~ j                             ",
"                          y.=+~ ~ ~ ~ -+;+ +Z.z ] V.>+,+-+s ~ ~ ~ s '+                          ",
"                          e.J.~ ~ ~ ~ ~ 2 )+!+~+{+]+^+s ~ ~ ~ ~ ~ ~ t |                         ",
"                        /+,.(+~ ~ ~ ~ ~ ~ ~ ~ ~ ~ ~ ~ ~ ~ ~ ~ ~ ~ ~ ~ t 0.6.                    ",
"                      e.,.t ~ ~ ~ ~ ~ ~ ~ , _+:+<+[+..m.}+Q ~ ~ ~ ~ ~ ~ s Z |+` K.              ",
"                  +.j c s ~ ~ ~ ~ ~ ~ 1+2+3+4+5+} u.U.6+n d 7+8+~ ~ ~ ~ ~ ~ ~ *+9+0+a+b+3 ^ c+4+",
"          d+j j /+b.Q ~ ~ ~ 1 Q ~ ~ e+; f+                  g+h+t ~ ~ ~ ~ ~ ~ ~ ~ ~ ~ ~  .i+W.j+",
"  v.k+k j b.1 ~ ~ ~ ~ ~ s l+m+~ ~ t n+e                       u.o+Q ~ ~ W c C p+~ ~ ~ ~ ~ ~ q+b+",
"  k !.~ ~ ~ ~ ~ ~ ~ n.r+t.` 2 ~ ~ s+6+                          t+-.~ ~ 2 j u+v.@+v+w+x+y+z+A+F.",
"  $.~ ~ ~ ~ t 2 r+B+^     C+s ~ D+_                               A E+~ ~ F+      Q.z K.G+H+I+J+",
"  m+@.$./+K+V L+          M+~ ~ N+6                               . O+~ ~ b.y                   ",
"    P+g+^.Z.            Q+*+~ , R+                                  S+M.~ Q K                   ",
"                        ;+s ~ T+5+                                  ^.U+~ ~ -+t+                ",
"                        !+~ ~ V+6+                                    + ~ ~ W+s.                ",
"                      t+@.~ ~ X+                                      5+Y+~ (+Z+                ",
"                      =.1 ~ s >+                                      9 `+ @.@+@                ",
"                      j+g ~ *+L                                         ` @ @@#@V.              ",
"                      : $@(+%@                                                y.e               ",
"                      &@*@=@-@                                                                  ",
"                                                                                                ",
"                                                                                                "};
