/* XPM */
static char * unkown_xpm[] = {
"48 48 62 1",
" 	c None",
".	c #9F0000",
"+	c #A10707",
"@	c #C66868",
"#	c #E8C2C2",
"$	c #FAF3F3",
"%	c #FEFDFD",
"&	c #F3E1E1",
"*	c #DA9F9F",
"=	c #B13030",
"-	c #AC2525",
";	c #EFD5D5",
">	c #FFFFFF",
",	c #FEFEFE",
"'	c #CF8080",
")	c #9F0101",
"!	c #A71717",
"~	c #F4E4E4",
"{	c #CD7B7B",
"]	c #DEA8A8",
"^	c #FDFCFC",
"/	c #AD2727",
"(	c #A81919",
"_	c #DCA4A4",
":	c #AB2222",
"<	c #A61515",
"[	c #C36161",
"}	c #FAF2F2",
"|	c #D69494",
"1	c #C05A5A",
"2	c #F1DCDC",
"3	c #A00404",
"4	c #C15C5C",
"5	c #F0D8D8",
"6	c #CF8181",
"7	c #D38C8C",
"8	c #A30B0B",
"9	c #FCF9F9",
"0	c #A51010",
"a	c #A91C1C",
"b	c #A30D0D",
"c	c #A71616",
"d	c #FDFAFA",
"e	c #D08383",
"f	c #EDD1D1",
"g	c #C36262",
"h	c #C97171",
"i	c #CB7575",
"j	c #EBCBCB",
"k	c #A10606",
"l	c #C36060",
"m	c #F1DBDB",
"n	c #A81A1A",
"o	c #FAF4F4",
"p	c #EDD0D0",
"q	c #F1DADA",
"r	c #A51212",
"s	c #E9C7C7",
"t	c #BE5454",
"u	c #F7ECEC",
"v	c #A00303",
"w	c #BA4848",
"                                                ",
"                                                ",
"                                                ",
"                                                ",
"                     ......                     ",
"                 ..............                 ",
"               ..................               ",
"             ......................             ",
"            ........................            ",
"           ..........................           ",
"          ............................          ",
"         ..............................         ",
"        ................................        ",
"       .............+@#$%&*=.............       ",
"       ............-;>>>>>>,')...........       ",
"      ............!~>>>>>>>>>{............      ",
"      ............]>>>>>>>>>>^/...........      ",
"     ............(,>>>_:<[}>>>|............     ",
"     ............1>>>23...4>>>5............     ",
"     ............6>>>7....8>>>9............     ",
"     ............0aaab....c>>>d............     ",
"    ......................e>>>f.............    ",
"    .....................g,>>>h.............    ",
"    ....................i>>>>jk.............    ",
"    ...................l>>>>m(..............    ",
"    ..................no>>>p(...............    ",
"    ..................6>>>qr................    ",
"     .................s>>>t................     ",
"     .................u>>>!................     ",
"     .................^>>>v................     ",
"     .................wwww.................     ",
"      ....................................      ",
"      ................uuuu................      ",
"       ...............>>>>...............       ",
"       ...............>>>>...............       ",
"        ..............>>>>..............        ",
"         ..............................         ",
"          ............................          ",
"           ..........................           ",
"            ........................            ",
"             ......................             ",
"               ..................               ",
"                 ..............                 ",
"                     ......                     ",
"                                                ",
"                                                ",
"                                                ",
"                                                "};
