/* XPM */
static char * calc_xpm[] = {
"48 48 462 2",
"  	c #000000",
". 	c #0A0A0A",
"+ 	c #525252",
"@ 	c #4D4D4D",
"# 	c #4E4E4E",
"$ 	c #4F4F4F",
"% 	c #484848",
"& 	c #4A4A4A",
"* 	c #474747",
"= 	c #464646",
"- 	c #010101",
"; 	c #4B4B4B",
"> 	c #424242",
", 	c #3F3F3F",
"' 	c #414141",
") 	c #404040",
"! 	c #5C5C5C",
"~ 	c #5F5F5F",
"{ 	c #616161",
"] 	c #545454",
"^ 	c #5A5A5A",
"/ 	c #5D5D5D",
"( 	c #646464",
"_ 	c #3E3E3E",
": 	c #444444",
"< 	c #494949",
"[ 	c #434343",
"} 	c #383838",
"| 	c #090909",
"1 	c #4C4C4C",
"2 	c #5E5E5E",
"3 	c #707070",
"4 	c #686868",
"5 	c #696969",
"6 	c #6D6D6D",
"7 	c #6E6E6E",
"8 	c #626262",
"9 	c #3B3B3B",
"0 	c #828282",
"a 	c #333333",
"b 	c #3C3C3C",
"c 	c #3A3A3A",
"d 	c #393939",
"e 	c #373737",
"f 	c #7D7D7D",
"g 	c #8C8C8C",
"h 	c #050505",
"i 	c #B2B2B2",
"j 	c #9C9C9C",
"k 	c #9E9E9E",
"l 	c #9A9A9A",
"m 	c #8A8A8A",
"n 	c #929292",
"o 	c #868686",
"p 	c #232323",
"q 	c #7E7E7E",
"r 	c #101010",
"s 	c #737373",
"t 	c #C7C7C7",
"u 	c #B1B1B1",
"v 	c #B5B5B5",
"w 	c #ADADAD",
"x 	c #757575",
"y 	c #848484",
"z 	c #8B8B8B",
"A 	c #343434",
"B 	c #777777",
"C 	c #111111",
"D 	c #BEBEBE",
"E 	c #A8A8A8",
"F 	c #A7A7A7",
"G 	c #A9A9A9",
"H 	c #AFAFAF",
"I 	c #ACACAC",
"J 	c #AAAAAA",
"K 	c #A0A0A0",
"L 	c #999999",
"M 	c #ABABAB",
"N 	c #969696",
"O 	c #2E2E2E",
"P 	c #787878",
"Q 	c #A4A4A4",
"R 	c #818181",
"S 	c #888888",
"T 	c #9D9D9D",
"U 	c #B7B7B7",
"V 	c #2C2C2C",
"W 	c #0D0D0D",
"X 	c #7F7F7F",
"Y 	c #D9D9D9",
"Z 	c #C1C1C1",
"` 	c #C5C5C5",
" .	c #BCBCBC",
"..	c #8E8E8E",
"+.	c #919191",
"@.	c #939393",
"#.	c #C8C8C8",
"$.	c #CCCCCC",
"%.	c #B0B0B0",
"&.	c #2D2D2D",
"*.	c #767676",
"=.	c #898989",
"-.	c #040404",
";.	c #0E0E0E",
">.	c #363636",
",.	c #353535",
"'.	c #121212",
").	c #838383",
"!.	c #979797",
"~.	c #656565",
"{.	c #6A6A6A",
"].	c #676767",
"^.	c #686767",
"/.	c #686969",
"(.	c #696C6C",
"_.	c #696B6B",
":.	c #676A6A",
"<.	c #636666",
"[.	c #979999",
"}.	c #818080",
"|.	c #808080",
"1.	c #D8D8D8",
"2.	c #CFCFCF",
"3.	c #CECECE",
"4.	c #CDCDCD",
"5.	c #D0D0D0",
"6.	c #D7D7D7",
"7.	c #D6D6D6",
"8.	c #D2D2D2",
"9.	c #D5D5D5",
"0.	c #D1CECE",
"a.	c #D8DFDF",
"b.	c #D1E3E3",
"c.	c #D1E1E1",
"d.	c #D2E1E1",
"e.	c #D8DEDE",
"f.	c #D3E1E1",
"g.	c #D3E5E5",
"h.	c #DEEAEA",
"i.	c #7C7B7B",
"j.	c #7A7A7A",
"k.	c #7B7B7B",
"l.	c #959595",
"m.	c #8E9F9F",
"n.	c #713D3D",
"o.	c #790000",
"p.	c #790B0B",
"q.	c #7B1010",
"r.	c #790A0A",
"s.	c #7B0B0B",
"t.	c #724848",
"u.	c #7A1D1D",
"v.	c #7C0B0B",
"w.	c #750303",
"x.	c #7B0F0F",
"y.	c #7B0505",
"z.	c #853737",
"A.	c #788383",
"B.	c #9B9B9B",
"C.	c #A6A6A6",
"D.	c #A3A3A3",
"E.	c #BBBBBB",
"F.	c #B6B6B6",
"G.	c #858585",
"H.	c #8F8F8F",
"I.	c #9DB3B3",
"J.	c #6F2323",
"K.	c #9F0202",
"L.	c #A62B2B",
"M.	c #920000",
"N.	c #A11E1E",
"O.	c #980505",
"P.	c #692727",
"Q.	c #800000",
"R.	c #940000",
"S.	c #AA3434",
"T.	c #9B1515",
"U.	c #880000",
"V.	c #8A1616",
"W.	c #748585",
"X.	c #878787",
"Y.	c #B3B3B3",
"Z.	c #B4B4B4",
"`.	c #9DB1B1",
" +	c #742D2D",
".+	c #A51818",
"++	c #AF4545",
"@+	c #9E2020",
"#+	c #A02323",
"$+	c #9E1818",
"%+	c #6D2E2E",
"&+	c #820000",
"*+	c #9A0E0E",
"=+	c #B75858",
"-+	c #A22A2A",
";+	c #8A0000",
">+	c #8D2020",
",+	c #758484",
"'+	c #9F9F9F",
")+	c #A1A1A1",
"!+	c #A5A5A5",
"~+	c #A2A2A2",
"{+	c #95ABAB",
"]+	c #702A2A",
"^+	c #7E0000",
"/+	c #7F0000",
"(+	c #7D0000",
"_+	c #713939",
":+	c #7C0000",
"<+	c #861E1E",
"[+	c #778686",
"}+	c #7E7F7F",
"|+	c #7D7979",
"1+	c #7D7474",
"2+	c #7F7676",
"3+	c #7D7676",
"4+	c #7F7878",
"5+	c #7B7373",
"6+	c #7D7B7B",
"7+	c #7C7676",
"8+	c #837C7C",
"9+	c #847C7C",
"0+	c #837B7B",
"a+	c #7C7474",
"b+	c #898484",
"c+	c #AEAEAE",
"d+	c #989898",
"e+	c #989696",
"f+	c #848989",
"g+	c #B1BEBE",
"h+	c #ACB6B6",
"i+	c #B4BEBE",
"j+	c #B0BBBB",
"k+	c #B1BCBC",
"l+	c #7E8383",
"m+	c #A4ADAD",
"n+	c #A5B1B1",
"o+	c #9BA6A6",
"p+	c #9CA7A7",
"q+	c #AFBBBB",
"r+	c #A8B0B0",
"s+	c #717070",
"t+	c #747474",
"u+	c #6F6F6F",
"v+	c #8D8D8D",
"w+	c #727272",
"x+	c #B9B9B9",
"y+	c #717171",
"z+	c #666666",
"A+	c #6C6C6C",
"B+	c #797979",
"C+	c #454545",
"D+	c #5B5B5B",
"E+	c #B8B8B8",
"F+	c #909090",
"G+	c #BDBDBD",
"H+	c #949494",
"I+	c #515151",
"J+	c #555555",
"K+	c #7C7C7C",
"L+	c #BABABA",
"M+	c #777878",
"N+	c #9C9897",
"O+	c #A6A09E",
"P+	c #A59F9E",
"Q+	c #A5A09E",
"R+	c #A7A1A0",
"S+	c #9C9795",
"T+	c #7F7E7D",
"U+	c #878E90",
"V+	c #7C888C",
"W+	c #869195",
"X+	c #828E91",
"Y+	c #7B8589",
"Z+	c #818282",
"`+	c #868585",
" @	c #76716F",
".@	c #A3C7D2",
"+@	c #ABE1F2",
"@@	c #9ECCDA",
"#@	c #9DCBD9",
"$@	c #AADBEB",
"%@	c #9DD0E0",
"&@	c #8C9092",
"*@	c #DFDBDA",
"=@	c #DADADA",
"-@	c #E4E4E4",
";@	c #E2E2E2",
">@	c #E3E3E3",
",@	c #D4D4D4",
"'@	c #C9C9C9",
")@	c #E0E0E0",
"!@	c #ADD0DB",
"~@	c #94BECC",
"{@	c #77969F",
"]@	c #83A5AF",
"^@	c #81A4AF",
"/@	c #A1D0DF",
"(@	c #909495",
"_@	c #DFDCDA",
":@	c #DBDBDB",
"<@	c #E6E6E6",
"[@	c #EEEEEE",
"}@	c #E7E7E7",
"|@	c #746F6D",
"1@	c #A9CDD9",
"2@	c #B0E5F5",
"3@	c #A7D5E4",
"4@	c #B0E0EF",
"5@	c #A8D7E6",
"6@	c #A4D7E7",
"7@	c #8D9192",
"8@	c #E8E4E2",
"9@	c #DFDFDF",
"0@	c #EBEBEB",
"a@	c #BFBFBF",
"b@	c #C0C0C0",
"c@	c #ECECEC",
"d@	c #D1D1D1",
"e@	c #E9E9E9",
"f@	c #7D7B7A",
"g@	c #8B9BA0",
"h@	c #88A1AA",
"i@	c #8DA5AC",
"j@	c #8AA1A8",
"k@	c #8EA6AE",
"l@	c #81979E",
"m@	c #848687",
"n@	c #9B9999",
"o@	c #7A7675",
"p@	c #95ACB3",
"q@	c #9CC1CD",
"r@	c #9CBEC8",
"s@	c #98B8C2",
"t@	c #9BBDC8",
"u@	c #8DAEB8",
"v@	c #878A8B",
"w@	c #B7B4B3",
"x@	c #756F6E",
"y@	c #AFD5E1",
"z@	c #90BDCB",
"A@	c #7C9EA9",
"B@	c #93BBC8",
"C@	c #B0E1F0",
"D@	c #A8DBEC",
"E@	c #E8E4E3",
"F@	c #D3D3D3",
"G@	c #F0F0F0",
"H@	c #F4F4F4",
"I@	c #F3F3F3",
"J@	c #ACD0DC",
"K@	c #9CCAD9",
"L@	c #8BB1BD",
"M@	c #8FB6C3",
"N@	c #9BC6D4",
"O@	c #A7DAEA",
"P@	c #E7E3E2",
"Q@	c #EFEFEF",
"R@	c #E8E8E8",
"S@	c #797574",
"T@	c #96AFB7",
"U@	c #A3CBD8",
"V@	c #A2C6D2",
"W@	c #9DC0CB",
"X@	c #9EC2CE",
"Y@	c #90B3BE",
"Z@	c #888B8C",
"`@	c #BDBABA",
" #	c #C2C2C2",
".#	c #7E7C7B",
"+#	c #8A989D",
"@#	c #869EA5",
"##	c #8AA0A7",
"$#	c #8CA2A9",
"%#	c #8DA4AB",
"&#	c #7F949A",
"*#	c #848586",
"=#	c #979595",
"-#	c #A9DBEB",
";#	c #A1CDDB",
">#	c #A0CBD9",
",#	c #A2D0DE",
"'#	c #A3D5E5",
")#	c #8D9293",
"!#	c #E7E2E1",
"~#	c #DEDEDE",
"{#	c #EAEAEA",
"]#	c #CACACA",
"^#	c #DDDDDD",
"/#	c #ACCFDA",
"(#	c #94BFCC",
"_#	c #74919B",
":#	c #6B868F",
"<#	c #7B9CA6",
"[#	c #A1CFDE",
"}#	c #909496",
"|#	c #75706F",
"1#	c #A3C5CF",
"2#	c #B1E4F4",
"3#	c #A7D2E0",
"4#	c #AAD7E5",
"5#	c #B6E7F7",
"6#	c #9ECDDC",
"7#	c #8B8F90",
"8#	c #DEDAD9",
"9#	c #DCDCDC",
"0#	c #7F7D7C",
"a#	c #879397",
"b#	c #81969D",
"c#	c #889BA2",
"d#	c #85989E",
"e#	c #85989F",
"f#	c #7C8D93",
"g#	c #838585",
"h#	c #8F8E8D",
"i#	c #777371",
"j#	c #9EBCC5",
"k#	c #A5D2E0",
"l#	c #A1C8D5",
"m#	c #A6CFDC",
"n#	c #A3CCD9",
"o#	c #98C2CF",
"p#	c #8A8D8E",
"q#	c #CFCBCA",
"r#	c #CBCBCB",
"s#	c #75706E",
"t#	c #AED2DD",
"u#	c #89B2BF",
"v#	c #81A3AD",
"w#	c #7FA1AB",
"x#	c #95BDCA",
"y#	c #A7D8E8",
"z#	c #8E9293",
"A#	c #E5E1E0",
"B#	c #EDEDED",
"C#	c #A6CCD8",
"D#	c #A0D3E4",
"E#	c #98C5D3",
"F#	c #9CCAD8",
"G#	c #A3D3E2",
"H#	c #A2D6E7",
"I#	c #898D8F",
"J#	c #E6E2E0",
"K#	c #807D7C",
"L#	c #A3B8BF",
"M#	c #A9CBD6",
"N#	c #A9C8D1",
"O#	c #AAC9D3",
"P#	c #9AB8C2",
"Q#	c #969899",
"R#	c #C1BEBD",
"S#	c #C3C3C3",
"T#	c #020202",
"U#	c #5E5F5F",
"V#	c #736F6D",
"W#	c #6C6563",
"X#	c #6E6866",
"Y#	c #6C6664",
"Z#	c #6F6967",
"`#	c #747373",
" $	c #666667",
".$	c #575757",
"            . + @ # $ # # # # # # # $ % & * & & = * * $ # # # # # # # # $ # $ + % -             ",
"            . ; > , > ' ' ' ' ' ) ) ! ~ { ] ^ / ( / ^ _ ) ' ' ' ' ' ) ' : _ < [ } -             ",
"            | & ] $ 1 1 1 1 1 1 ; ; 2 3 4 4 5 5 6 7 8 * 1 1 1 1 1 1 ; @ 1 & + $ 9 -             ",
"              0 $ a > ) ) ) ) ) ) ) b } c c c c } d c ' ) ) ) ) ) ) ' < = % e + f               ",
"              g h / i j j j j j j j j j j j j j j j j j j j j j j k l m n l o p q               ",
"              o r s t u u u u u u u u u u u u u u u u u u u u u u v w x q y z A B               ",
"              o C 6 D E F G H H I J F E E E E E E E E E E E E E E E G K L M N O P               ",
"              o C 6 D E I Q R 0 S T I E E E E E E E E E E E E E E E E w H U l V P               ",
"              o W X Y Z `  ...+.@.E #.Z Z Z Z Z Z Z Z Z Z Z Z Z Z Z Z Z Z $.%.&.*.              ",
"            - =.-.;.) >.,.>.c d >.>.>.>.>.>.>.>.>.>.>.>.>.>.>.>.>.>.>.>.>.c p '.X               ",
"              ).!.5 ~.4 4 4 5 {.{.5 4 4 ].4 4 4 4 4 ^./.(._._._._./._._._.:.<.[.}.              ",
"              |.1.2.3.3.4.5.6.3.3.2.2.4.7.8.$.5.9.4.0.a.b.c.d.c.c.e.f.c.d.c.g.h.i.              ",
"              j.+.!.!.!.l ..k.@.!.l N N f S L N 0 l.m.n.o.p.q.r.s.t.u.v.w.x.y.z.A.              ",
"              x Q k k B.C.D.j.%.I z @.E.X L F.G.H.v I.J.K.L.M.N.O.P.Q.R.S.T.U.V.W.              ",
"              *.G l.=.k ..C.X F.N X.E U ).B.H o Y.Z.`. +.+++@+#+$+%+&+*+=+-+;+>+,+              ",
"              P L K '+)+Q N f k K Q )+)+|.H.D.!+k ~+{+]+^+^+/+(+Q._+:+/+o.Q.^+<+[+              ",
"              X o |.o y ).f q q R R |.q q f |.R |.|.}+|+1+2+3+4+5+6+7+8+9+0+a+b+k.              ",
"              x D.C.T '+E )+f c+%.w I Y.0 d+Y.w c+Z.e+f+g+h+i+j+k+l+m+n+o+p+q+r+s+              ",
"              *.G n x 4 ).C.).Q *.o f '+=.T H.f t+m K z T f u+B F o K j.( 5 v+I w+              ",
"              x D.G !+J w !+q c+'+T !+u ).B.J '+k E l X.D M Q c+x+0 )+F M !+C.F y+              ",
"              q S |.G.).y q f X S =.o |.f f G.G.o y |.P z+7 3 A+].k.|.o y o R z j.              ",
"              B+!.B.)+Q j l.f j T l L '+|...'+K !+!+d+C+~.w+*.k.D+# ~+C.B.k ~+l x               ",
"              x ~+E+d+m E+Q q E+z 3 F+G+).'+B.n m k !+@ E.!+l.%.J $ c+k !.d+~+J y+              ",
"              x D.E.d+=.E.C.f E+l X.j  .).K )+H+B+=.I & E+D.l.H C.1 v q ~+D.'+I y+              ",
"              k.n ..N L +.g f H.N d+H++.X X.N !.d+l.@.; I+8 ( z+; J+d+N +.H+l.H+B               ",
"              f v+y z v+X.y q o =.z =.X.X ).X.=.m =.).0 q f R K+X 0 y m m S G.F+B+              ",
"              x D.U E D.U C.f Y.%.Q !+L+0 B.x+F !+x+B.y G+u C.U U X !+v M c+v F y+              ",
"              *.)+x+g B x+D.X v l.).)+U ).L U B.d+U L ).Z.E +.H c+X ~+Z.@.~+Y.!+w+              ",
"              M+N+O+P+Q+R+S+k.K K K K D.X F+D.K '+D.F+q Q k )+K K k.T E C.!+F K s               ",
"              T+U+V+W+W+X+Y+Z+`+S H.S G.0 y o g g G.y 0 o S H.X.o R k.K+0 |.P m k.              ",
"               @.@+@@@#@$@%@&@*@=@` 8.-@!.L+;@5.5.;@E.!.>@,@'@Y )@v+!.c+B.K w ~+w+              ",
"               @!@~@{@]@^@/@(@_@:@D.3.<@d+L+[@j B.[@E.!.}@2.o 8.-@v+B.E+R @.F.!+w+              ",
"              |@1@2@3@4@5@6@7@8@9@=@;@0@d+a@[@2.2.[@b@d+c@9@d@)@e@v+k Y.v i Y.C.y+              ",
"              f@g@h@i@j@k@l@m@n@l k L j S +.l )+)+l +.S B.l )+l B.G.X G.y y 0 H.B+              ",
"              o@p@q@r@s@t@u@v@w@Z.D Z.E+..~+E+U U E+~+..E+F.L+Y.E+S m N d+l.@.!.*.              ",
"              x@y@z@A@B@C@D@7@E@>@G F@G@d+D H@I Z.I@a@d+G@d@M >@e@v+k v ~+G v C.y+              ",
"              x@J@K@L@M@N@O@7@P@)@C.8.[@d+G+Q@ .E+Q@D d+[@2.)+9@R@v+T Z.D.G Z.C.y+              ",
"              S@T@U@V@W@X@Y@Z@`@L+` E.a@H.C.D D a@D C.H.D  . #L+D S v+l B.L d+L x               ",
"              .#+#@###$#%#&#*#=#!.j l.!.X...N B.j N H.X.!.N '+!.!.y f 0 G.).q v+j.              ",
"              |@1@-#;#>#,#'#)#!#~#3.9@{#d+D c@3.]#c@a@d+0@:@D ^#e@v+T Z.F M Z.C.y+              ",
"               @/#(#_#:#<#[#}#*@9.B.9.;@!.x+{#G E {#L+!.>@F@n d@;@v+B.Z.z k i Q w+              ",
"              |#1#2#3#4#5#6#7#8#1.$.9.;@N G+<@8.9.<@G+d+<@1.,@9#>@v+L w w M w D.w+              ",
"              0#a#b#c#d#e#f#g#h#H.d+H.H.o o =.H...=.X.y m m +.z m 0 k.q q f j.z k.              ",
"              i#j#k#l#m#n#o#p#q#r##.'@,@l.X.'+T j '+..f )+~+l k T k.l Q C.Q D.'+s               ",
"              s#t#u#v#w#x#y#z#A#Y B.4.B#l n Y.E G Y.l S F g d+L H |.D.F.g l F.!+w+              ",
"              x@C#D#E#F#G#H#I#J#^# #6.B#!.H.F.j K v !.X u l !+J w j.)+i T D.i ~+w+              ",
"              K#L#M#N#N#O#P#Q#R#D ` D S#T H+D.D.~+D.d+..Q C.D.D.~+v+j ~+!+D.K C.f               ",
"            T#U#V#W#X#Y#W#Z#`# $].].].~.w+y+A+6 6 A+3 x A+6 6 6 A+*.u+A+6 7 6 B .$              "};
