/* XPM */
static char * xmms_rmckenzie_xpm[] = {
"48 48 416 2",
"  	c None",
". 	c #363636",
"+ 	c #3C3C3C",
"@ 	c #424242",
"# 	c #4D4D4D",
"$ 	c #454545",
"% 	c #343434",
"& 	c #292929",
"* 	c #494949",
"= 	c #6E6E6E",
"- 	c #848484",
"; 	c #8C8C8C",
"> 	c #888888",
", 	c #7D7D7D",
"' 	c #787878",
") 	c #797979",
"! 	c #747474",
"~ 	c #767676",
"{ 	c #686868",
"] 	c #4B4B4B",
"^ 	c #2C2C2C",
"/ 	c #666666",
"( 	c #969696",
"_ 	c #949494",
": 	c #606060",
"< 	c #474747",
"[ 	c #383838",
"} 	c #3B3B3B",
"| 	c #404040",
"1 	c #434343",
"2 	c #444444",
"3 	c #3E3E3E",
"4 	c #3D3D3D",
"5 	c #5C5C5C",
"6 	c #6C6C6C",
"7 	c #757575",
"8 	c #696969",
"9 	c #A4A4A4",
"0 	c #8B8B8B",
"a 	c #636363",
"b 	c #3A3A3A",
"c 	c #595959",
"d 	c #6D6D6D",
"e 	c #7F7F7F",
"f 	c #7E7E7E",
"g 	c #7C7C7C",
"h 	c #7B7B7B",
"i 	c #6F6F6F",
"j 	c #414141",
"k 	c #5D5D5D",
"l 	c #A1A1A1",
"m 	c #979797",
"n 	c #5E5E5E",
"o 	c #373737",
"p 	c #535353",
"q 	c #808080",
"r 	c #828282",
"s 	c #818181",
"t 	c #7A7A7A",
"u 	c #737373",
"v 	c #5F5F5F",
"w 	c #525252",
"x 	c #717171",
"y 	c #ADADAD",
"z 	c #3F3F3F",
"A 	c #777777",
"B 	c #707070",
"C 	c #585858",
"D 	c #4F4F4F",
"E 	c #484848",
"F 	c #4E4E4E",
"G 	c #555555",
"H 	c #616161",
"I 	c #545454",
"J 	c #A9A9A9",
"K 	c #393939",
"L 	c #6B6B6B",
"M 	c #2F2F2F",
"N 	c #282828",
"O 	c #262626",
"P 	c #252525",
"Q 	c #272727",
"R 	c #626262",
"S 	c #676767",
"T 	c #2E2E2E",
"U 	c #5A5A5A",
"V 	c #353535",
"W 	c #242424",
"X 	c #323232",
"Y 	c #4A4A4A",
"Z 	c #646464",
"` 	c #ACACAC",
" .	c #464646",
"..	c #2B2B2B",
"+.	c #2A2A2A",
"@.	c #5B5B5B",
"#.	c #727272",
"$.	c #B1B1B1",
"%.	c #2D2D2D",
"&.	c #515151",
"*.	c #4C4C4C",
"=.	c #A7A7A7",
"-.	c #303030",
";.	c #9D9D9D",
">.	c #313131",
",.	c #575757",
"'.	c #ABABAB",
").	c #505050",
"!.	c #A5A5A5",
"~.	c #222222",
"{.	c #989898",
"].	c #333333",
"^.	c #232323",
"/.	c #565656",
"(.	c #9A9A9A",
"_.	c #656565",
":.	c #8D8D8D",
"<.	c #8A8A8A",
"[.	c #838383",
"}.	c #878787",
"|.	c #858585",
"1.	c #1B1B1B",
"2.	c #868686",
"3.	c #959595",
"4.	c #525556",
"5.	c #4A575C",
"6.	c #505B5F",
"7.	c #7C7D7D",
"8.	c #777879",
"9.	c #5A5E5F",
"0.	c #303233",
"a.	c #424E53",
"b.	c #414F54",
"c.	c #474E51",
"d.	c #43555B",
"e.	c #445A61",
"f.	c #495D64",
"g.	c #505253",
"h.	c #4E5B5F",
"i.	c #596F77",
"j.	c #5B737B",
"k.	c #546267",
"l.	c #4F5B60",
"m.	c #617A83",
"n.	c #647C84",
"o.	c #59696F",
"p.	c #51585B",
"q.	c #617E87",
"r.	c #69838C",
"s.	c #5D767F",
"t.	c #778186",
"u.	c #7A939B",
"v.	c #728D96",
"w.	c #728C95",
"x.	c #678189",
"y.	c #666C6F",
"z.	c #A0A0A0",
"A.	c #5E6162",
"B.	c #758D95",
"C.	c #849BA3",
"D.	c #52646A",
"E.	c #485358",
"F.	c #869DA5",
"G.	c #8EA3AA",
"H.	c #535B5E",
"I.	c #778E96",
"J.	c #95A9AF",
"K.	c #94A8AF",
"L.	c #525B5E",
"M.	c #60767D",
"N.	c #91A5AC",
"O.	c #90A5AC",
"P.	c #6A787D",
"Q.	c #4C5E64",
"R.	c #8CA1A9",
"S.	c #8BA0A7",
"T.	c #73868C",
"U.	c #4B5D63",
"V.	c #8299A1",
"W.	c #6F848B",
"X.	c #525557",
"Y.	c #8399A2",
"Z.	c #7A929B",
"`.	c #6C848B",
" +	c #6C858D",
".+	c #738D96",
"++	c #60777F",
"@+	c #6D7A7E",
"#+	c #93A7AE",
"$+	c #869AA1",
"%+	c #353B3D",
"&+	c #6A8088",
"*+	c #798A8F",
"=+	c #758C94",
"-+	c #92A7AE",
";+	c #92A6AD",
">+	c #647276",
",+	c #6F878E",
"'+	c #8FA4AA",
")+	c #69787D",
"!+	c #4C5E65",
"~+	c #8AA0A7",
"{+	c #889EA5",
"]+	c #7C9198",
"^+	c #576D74",
"/+	c #7F969E",
"(+	c #6D8289",
"_+	c #48565B",
":+	c #748E97",
"<+	c #687F86",
"[+	c #3F4040",
"}+	c #485053",
"|+	c #66838C",
"1+	c #647E86",
"2+	c #6C6D6D",
"3+	c #525353",
"4+	c #7E9399",
"5+	c #91A6AD",
"6+	c #687E85",
"7+	c #899FA7",
"8+	c #8FA3AA",
"9+	c #4E5558",
"0+	c #738A92",
"a+	c #8A9EA5",
"b+	c #738489",
"c+	c #4E4E4F",
"d+	c #7A929A",
"e+	c #859AA1",
"f+	c #8BA1A8",
"g+	c #67767B",
"h+	c #7D9299",
"i+	c #849AA2",
"j+	c #535556",
"k+	c #627981",
"l+	c #7D939B",
"m+	c #697E85",
"n+	c #22363C",
"o+	c #6F8A93",
"p+	c #738D95",
"q+	c #57717A",
"r+	c #506269",
"s+	c #4D5659",
"t+	c #595A5B",
"u+	c #586367",
"v+	c #8CA1A8",
"w+	c #8FA4AB",
"x+	c #6E8086",
"y+	c #70878F",
"z+	c #7B8D94",
"A+	c #7F9299",
"B+	c #454C4F",
"C+	c #859CA3",
"D+	c #778A91",
"E+	c #899FA6",
"F+	c #65757A",
"G+	c #485B62",
"H+	c #869CA3",
"I+	c #70838A",
"J+	c #839AA1",
"K+	c #576265",
"L+	c #6A848D",
"M+	c #6F838B",
"N+	c #758E96",
"O+	c #647A81",
"P+	c #232424",
"Q+	c #587078",
"R+	c #748E96",
"S+	c #708B93",
"T+	c #63808A",
"U+	c #5A666A",
"V+	c #1F1F1F",
"W+	c #6A6A6A",
"X+	c #6C8188",
"Y+	c #8CA2A9",
"Z+	c #899EA5",
"`+	c #444C4F",
" @	c #6D858D",
".@	c #687A80",
"+@	c #42565C",
"@@	c #64777D",
"#@	c #879DA4",
"$@	c #647379",
"%@	c #475A61",
"&@	c #839AA2",
"*@	c #60737A",
"=@	c #7E959D",
"-@	c #5D7077",
";@	c #768F98",
">@	c #5F737A",
",@	c #748D96",
"'@	c #637980",
")@	c #747576",
"!@	c #606D71",
"~@	c #5C747C",
"{@	c #68838C",
"]@	c #6C8891",
"^@	c #5F7B84",
"/@	c #676768",
"(@	c #6B858E",
"_@	c #56666B",
":@	c #6B838B",
"<@	c #55666C",
"[@	c #869CA4",
"}@	c #4C6067",
"|@	c #627277",
"1@	c #3D535B",
"2@	c #8198A0",
"3@	c #5E6F75",
"4@	c #708992",
"5@	c #6E868F",
"6@	c #7B939B",
"7@	c #4C5F66",
"8@	c #63787F",
"9@	c #455A61",
"0@	c #5A767F",
"a@	c #516167",
"b@	c #66696A",
"c@	c #5B7B85",
"d@	c #67838D",
"e@	c #5F6E74",
"f@	c #879EA5",
"g@	c #7B9199",
"h@	c #4D5253",
"i@	c #728890",
"j@	c #869DA4",
"k@	c #404F54",
"l@	c #7D939A",
"m@	c #3F555C",
"n@	c #586A70",
"o@	c #324D55",
"p@	c #7E969E",
"q@	c #5B6C72",
"r@	c #627B83",
"s@	c #789199",
"t@	c #3F5258",
"u@	c #708B94",
"v@	c #62777E",
"w@	c #475C63",
"x@	c #657C84",
"y@	c #717678",
"z@	c #707E84",
"A@	c #758F98",
"B@	c #607D86",
"C@	c #668089",
"D@	c #859BA3",
"E@	c #6D7B80",
"F@	c #758A92",
"G@	c #61757B",
"H@	c #71878E",
"I@	c #849BA2",
"J@	c #454E51",
"K@	c #768F97",
"L@	c #6E838A",
"M@	c #405860",
"N@	c #7F979F",
"O@	c #57696F",
"P@	c #334E56",
"Q@	c #7C949C",
"R@	c #5C6D73",
"S@	c #556D75",
"T@	c #6F878F",
"U@	c #445358",
"V@	c #5C7279",
"W@	c #323A3D",
"X@	c #66828B",
"Y@	c #6C8791",
"Z@	c #61808A",
"`@	c #65838D",
" #	c #37494F",
".#	c #8098A0",
"+#	c #788F96",
"@#	c #474A4B",
"##	c #666F72",
"$#	c #80989F",
"%#	c #3D484C",
"&#	c #4A5356",
"*#	c #698189",
"=#	c #64757B",
"-#	c #4D6168",
";#	c #7D959D",
">#	c #5C6D72",
",#	c #79929A",
"'#	c #5F7076",
")#	c #4B5F66",
"!#	c #758F97",
"~#	c #384B52",
"{#	c #6A858E",
"]#	c #5D7177",
"^#	c #5A6366",
"/#	c #516972",
"(#	c #546E76",
"_#	c #304045",
":#	c #627C85",
"<#	c #3B484D",
"[#	c #222526",
"}#	c #61777E",
"|#	c #788E95",
"1#	c #62747B",
"2#	c #576E76",
"3#	c #3B4448",
"4#	c #4D5F65",
"5#	c #66787F",
"6#	c #4F585C",
"7#	c #475358",
"8#	c #627176",
"9#	c #4E575B",
"0#	c #464E52",
"a#	c #5A656A",
"b#	c #3B4042",
"c#	c #484F52",
"d#	c #343A3C",
"e#	c #474849",
"f#	c #878888",
"g#	c #373838",
"h#	c #8E8E8E",
"i#	c #212121",
"                                                                                                ",
"                                                                                                ",
"                                          . + @ # $ % &                                         ",
"                                  * = - ; > , ' ) ' ! ~ ) { ] ^                                 ",
"                              / ( _ ) : < [ } | 1 2 3 4 $ 5 6 7 8 4                             ",
"                          ) 9 0 a b 1 c d ) , e f g h ' i 5 < j k i a 4                         ",
"                        l m n o p ! q r s , h ' ~ ~ ) t , f h u c @ v 7 w                       ",
"                    x y g z p A s q A B / C D * 2 E F G H = ~ g g u I < 6 : ^                   ",
"                  e J a K L s f A { D + M N O O O O P Q M } F R u h h / 2 S 6 T                 ",
"                , J U $ A r h S D V & & & N Q Q O O P P P P W X Y Z A , B ] R Z N               ",
"              7 ` 5  .g e 7 n b ......+.+.+.+.& N Q Q Q O O W P W K @.#.h #.] S Z               ",
"              $.H 2 h q #.p X ..%.^ ^ %.^ ^ ..+.& & N Q Q ..X % X T X &.#.h B *.i I             ",
"            =.q } A e #.w -.^ %.%.%.T %.%.^ ^ ^ ..+.+.& M [ . o . . o V p u t 8 # i .           ",
"          t ;.| L s ! G >.T T T T T T T T T %.%.^ ^ ..T } + + K [ [ K [ K ,.A ) C H S           ",
"          '.k ).q h H % -.-.M -.M M -.M M M M M M T [ z z z 4 } } } b } } j Z ) #.*.! 4         ",
"        #.m o A , 6 j M -.>.M -.>.>.>.>.>.T +...-.3 2 @ @ j j | 3 3 + + } + F u h 5 : v         ",
"        !.S p f ' I -.-.-.X X X >.X X ^ ~.X j 2 | 4 + 1  . .2 2 j z z + 3 4 3 a ) B F ! %.      ",
"      D {.+ i , d 4 >.>.X X X % ].X ^...Y &.&.).# ] 1 o j * <  .E 1 1 j | | z &.7 A G u ).      ",
"      f f  ., ) U X >.>.].].% ].% ^.>.&./.C c ,./.p # 2 o $ Y * E < < 2 j j j 1 = h R R H       ",
"      (._.c f ! < X X % X % % % T +.w C U 5 U U c /.p *.j b *.*.*.* <  .$ 1 j 1 Z t 6 /.B       ",
"      {.Y 8 g = b X X ].% % % V P E /.U @.5 5 @.@.c /.&.* K * # F *.] E  .2 $ 1 5 t u &.g +.    ",
"    + :.[ 7 h Z ].].X ].% V V % -.&.,.c @.5 5 5 @.C /.w Y 3 @ D D D *.] *  . .2 p ) ' p h X     ",
"    < :.4 A t k X ].].% V V . >.3 F G C U 5 @.U c ,.G &.*.z 4 w &.&.).# *.Y <  .I A ~ p g .     ",
"    ] <.| A ) @.X ].].% V V V T | # w G C C c C C /.I ).* + . p w w &.D # ] ] < I A ) G [.3     ",
"    F s j A t C ].].% % % V V ].b  .*.&.p G /.G I w &.*.$ o 4 G p p &.&.F F ] ] G t ' ,.}.3     ",
"    # , @ 7 ' ,.X ].].% % V V $ [ 3 < ] F &.).).).F Y  .z -. .G G G I p &.F # *.@., ! U - M     ",
"    4 }.3 u h v X X ].% % % 3 ).@ . 4 1 E Y ] ] * E 1 3 K ^ D /.G G I I w w D *.Z , #.R |.W     ",
"    ^ }.4 d h { X X ].X % . *.).).X X [ 4 | @ @ j z } V ^ + ,.,./.G /.G I p ).F d , = i [.1.    ",
"      f  .Z ' B 4 ].X X ].< F D w *.-.M X V [ [ [ . X O X G C ,./.,./.G I p w w ' h n 2.6       ",
"      ! v p A A D % ].].$ ] # ).&.p D + ^ T T ^ N O N 4 I C C ,.C /././.G I I n f ' U {.]       ",
"      G h @ i t R ].>.+ Y ] ] F &.&.I I &.$ } [ 3 E p c U C ,.,.G ,././.G I G x e i B 3.+.      ",
"      ^ e j a ) #.@ X 1 Y * ] F D &.w p I /./.,.,.C C C C C ,./.G G /.,.4.5.6.7.t k m ~         ",
"        d v Y B 8.9.0.2 * a.b.c.d.e.f.g.p h.i.j.k.l.m.n.o.,.p.q.r.s./.t.u.v.w.x.y.= z.z         ",
"        @ f j A.B.C.D.+ E.F.G.H.I.J.K.L.I M.N.O.P.Q.R.S.T./.U.V.V.W.X.Y.Z.`. +.+++3.h           ",
"          = S < @+#+$+%+&+K.*+* =+-+;+>+&.,+'+G.)+!+~+{+]+I ^+V./+(+_+:+<+[+}+|+1+2+@           ",
"          b ' < 3+4+5+6+7+8+9+Y 0+O.a+b+c+d+e+f+g+Q.{+h+i+j+k+l+I.m+n+o+p+q+r+s+t+p             ",
"            C ) | u+v+G.w+x+o E y+G.z+A+B+C+D+E+F+G+H+I+J+K+L+M+N+O+P+Q+R+w.S+T+U+V+            ",
"              W+i 3 X+Y+Z+`+>.3  @f+.@{++@E+@@#@$@%@&@*@=@-@;@>@,@'@| )@!@~@{@]@^@              ",
"              N = /@(@~+7+_@* $ :@E+<@{+X+[@}@C.|@1@2@3@4@5@6@7@w.8@9@0@a@- b@c@d@              ",
"                M e@C.i+f@g@h@A i@j@k@i+2@l@m@V.n@o@p@q@r@u.s@t@u@v@w@S+x@y@z@A@B@              ",
"                  C@D@E@F@C+G@5 H@I@J@K@V.L@M@N@O@P@Q@R@S@s@T@U@o+V@W@X@Y@Z@`@|+ #              ",
"                  .#+#@###$#=@%#n.2@&#*#N@=#-#;#>#9@,#'#)#!#'@~#{#]#8 ^#/#^@(#_#                ",
"                :#N@<#  [#}#|#1#2#W.3#4#5#6#7#8#9#0#a#B+b#c#d#e#f#v .                           ",
"                            g#,.8 S # z ] [ o 1 4 1 5 W+t (.) / z                               ",
"                                O *.S t r r }.:.; :.h#|.i ] Q                                   ",
"                                        P -.% K b T i#                                          ",
"                                                                                                ",
"                                                                                                "};
